<svg width="214" height="121" viewBox="0 0 214 121" fill="none" xmlns="http://www.w3.org/2000/svg">
<path d="M5.56951 78.4353L5.97096 80.3223C6.06739 80.6855 6.08759 81.0647 6.03031 81.436C5.97303 81.8074 5.83949 82.1629 5.63805 82.4805C5.16966 83.0787 4.50424 83.4927 3.75929 83.6494C3.01433 83.8062 2.23775 83.6956 1.56667 83.3372C1.25492 83.1278 0.989743 82.8567 0.787606 82.5408C0.58547 82.2249 0.4507 81.8709 0.391669 81.5009L0 79.612L5.56951 78.4353ZM5.30905 80.4628L5.06621 79.3232L0.808793 80.2208L1.04967 81.3604C1.09322 81.628 1.19191 81.8837 1.33954 82.1114C1.48716 82.3391 1.68052 82.5339 1.90742 82.6835C2.43239 82.9393 3.02815 83.0128 3.59986 82.8922C4.17158 82.7716 4.68638 82.4639 5.0623 82.0181C5.20812 81.7906 5.30529 81.5356 5.34775 81.269C5.3902 81.0024 5.37703 80.7299 5.30905 80.4687V80.4628Z" fill="#939598"/>
<path d="M3.91688 86.3522L3.67209 85.6302L1.63347 86.321L1.38672 85.599L6.78976 83.7686L7.37726 85.4877C7.57183 85.9712 7.57183 86.5108 7.37726 86.9942C7.27807 87.2134 7.13233 87.4086 6.9501 87.5663C6.76786 87.724 6.55347 87.8404 6.32172 87.9075C5.93336 88.052 5.5057 88.052 5.11734 87.9075C4.73286 87.7516 4.41593 87.4655 4.22238 87.0996L2.63418 89.2617L2.36197 88.4617L3.91688 86.3522ZM5.20155 87.1328C5.47733 87.255 5.78924 87.269 6.07495 87.1721C6.36067 87.0751 6.59915 86.8743 6.74276 86.6098C6.86357 86.3098 6.86357 85.975 6.74276 85.6751L6.4118 84.6994L4.30659 85.4136L4.63559 86.3893C4.7224 86.6999 4.9248 86.9657 5.20155 87.1328Z" fill="#939598"/>
<path d="M8.38155 88.202L6.68367 90.7505L9.73084 91.0998L10.0794 91.8472L6.16471 91.412L4.04188 92.3936L3.71875 91.7008L5.84158 90.7193L8.03296 87.4565L8.38155 88.202Z" fill="#939598"/>
<path d="M10.5029 92.4785L5.54297 95.2905L5.92163 95.9537L10.8816 93.1417L10.5029 92.4785Z" fill="#939598"/>
<path d="M6.79688 97.4808L11.4851 94.2356L11.9062 94.8405L9.94 99.6644L13.5355 97.1764L13.9565 97.7832L9.27025 101.028L8.84921 100.423L10.8173 95.5996L7.22183 98.0896L6.79688 97.4808Z" fill="#939598"/>
<path d="M15.9536 100.954C15.7607 100.733 15.5237 100.555 15.2577 100.43C14.9916 100.305 14.7024 100.237 14.4085 100.23C13.8089 100.214 13.2257 100.427 12.7796 100.827C12.3334 101.226 12.0584 101.781 12.0115 102.377C11.9886 102.669 12.027 102.963 12.1241 103.239C12.2212 103.516 12.3749 103.769 12.5755 103.983C12.7252 104.146 12.898 104.286 13.0885 104.399C13.269 104.511 13.4678 104.592 13.676 104.637L14.7061 103.71L13.6604 102.555L14.1578 102.119L15.7245 103.841L13.9522 105.437C13.6027 105.393 13.2642 105.286 12.9534 105.121C12.2621 104.755 11.7301 104.149 11.4592 103.417C11.3273 103.058 11.2661 102.677 11.279 102.295C11.2986 101.916 11.3924 101.545 11.5552 101.202C11.7233 100.84 11.9627 100.516 12.259 100.247C12.5554 99.9793 12.9027 99.7732 13.2805 99.6412C13.6411 99.5142 14.0235 99.4606 14.4053 99.4834C14.787 99.5062 15.1603 99.6049 15.5032 99.7739C15.8669 99.9496 16.1928 100.194 16.4627 100.494C16.9235 100.993 17.1998 101.634 17.2461 102.311L16.5587 102.41C16.5237 102.136 16.458 101.867 16.3629 101.608C16.2682 101.367 16.1294 101.145 15.9536 100.954Z" fill="#939598"/>
<path d="M38.1436 117.231L37.6658 117.127L36.4771 114.185L35.5332 118.507L34.8086 118.349L36.0247 112.792L36.7199 112.944L38.0868 116.355L40.7521 113.82L41.4493 113.972L40.2312 119.528L39.5066 119.37L40.4545 115.047L38.1436 117.231Z" fill="#939598"/>
<path d="M42.657 114.046L42.0156 119.698L42.7784 119.784L43.4198 114.132L42.657 114.046Z" fill="#939598"/>
<path d="M44.7581 119.972L43.918 119.945L45.9625 117.118L44.1745 114.265L45.0146 114.292L46.4364 116.577L48.005 114.386L48.8451 114.413L46.875 117.147L48.7335 120.099L47.8953 120.074L46.4011 117.687L44.7581 119.972Z" fill="#939598"/>
<path d="M49.6523 114.329L50.4181 114.292L50.6942 119.972L49.9304 120.008L49.6523 114.329Z" fill="#939598"/>
<path d="M52.4532 119.889L51.6719 114.255L52.4043 114.154L55.8294 118.088L55.2321 113.765L55.9665 113.666L56.7459 119.299L56.0155 119.401L52.5903 115.467L53.1896 119.787L52.4532 119.889Z" fill="#939598"/>
<path d="M59.701 113.324C59.4159 113.396 59.1489 113.527 58.917 113.707C58.685 113.888 58.4932 114.114 58.3537 114.372C58.0674 114.899 57.9954 115.515 58.1525 116.093C58.3097 116.671 58.6839 117.166 59.1977 117.477C59.4486 117.629 59.7286 117.728 60.02 117.767C60.3113 117.805 60.6075 117.783 60.8897 117.701C61.1034 117.642 61.3073 117.552 61.4949 117.434C61.6772 117.321 61.8399 117.179 61.9766 117.014L61.6104 115.679L60.1044 116.087L59.9302 115.447L62.1764 114.838L62.803 117.137C62.6065 117.427 62.3582 117.679 62.0706 117.881C61.7678 118.097 61.4281 118.256 61.0679 118.351C60.6787 118.458 60.2723 118.489 59.8714 118.441C59.4897 118.396 59.1204 118.278 58.7845 118.091C58.4529 117.905 58.162 117.654 57.9287 117.354C57.6842 117.039 57.5043 116.68 57.3994 116.296C57.2946 115.913 57.2668 115.512 57.3177 115.117C57.3667 114.741 57.4913 114.379 57.6839 114.052C57.8773 113.722 58.1342 113.434 58.4399 113.203C58.7615 112.959 59.1281 112.779 59.5189 112.674C60.1749 112.489 60.8747 112.529 61.5047 112.789L61.2814 113.447C61.0215 113.351 60.7514 113.286 60.4765 113.252C60.2158 113.228 59.9527 113.252 59.701 113.324Z" fill="#939598"/>
<path d="M81.3593 105.923C81.7682 105.531 82.0237 105.006 82.08 104.444L82.7713 104.578C82.6846 105.282 82.3501 105.932 81.8273 106.412C81.5352 106.691 81.1913 106.911 80.8149 107.058C80.4599 107.201 80.0798 107.272 79.697 107.266C79.3143 107.26 78.9366 107.177 78.5863 107.023C78.2173 106.865 77.8842 106.634 77.6071 106.344C77.3303 106.057 77.1151 105.717 76.9746 105.345C76.8356 104.99 76.7703 104.61 76.7827 104.229C76.7952 103.848 76.8851 103.474 77.0471 103.128C77.2122 102.76 77.4492 102.429 77.7442 102.153C78.2318 101.677 78.8671 101.381 79.5459 101.313L79.6614 101.998C79.3884 102.037 79.1208 102.108 78.8644 102.209C78.4729 102.378 78.1384 102.656 77.9009 103.009C77.6634 103.363 77.5329 103.776 77.5249 104.202C77.5238 104.803 77.7558 105.381 78.1726 105.816C78.5893 106.251 79.1585 106.509 79.7613 106.535C80.0558 106.55 80.35 106.503 80.6252 106.397C80.9003 106.292 81.1504 106.13 81.3593 105.923Z" fill="#939598"/>
<path d="M80.7213 99.3289C80.9589 98.5509 81.4866 97.8931 82.1959 97.4907C82.5305 97.3036 82.8983 97.183 83.2789 97.1356C83.6573 97.0916 84.0407 97.1228 84.4069 97.2273C84.7902 97.3377 85.1479 97.5224 85.4595 97.7709C85.771 98.0194 86.0302 98.3267 86.2223 98.6752C86.4058 99.0078 86.5216 99.3732 86.563 99.7504C86.5995 100.132 86.5609 100.517 86.4494 100.884C86.2135 101.662 85.6852 102.319 84.9748 102.718C84.6406 102.907 84.2728 103.029 83.8919 103.078C83.3044 103.137 82.7124 103.022 82.19 102.748C81.6675 102.474 81.2377 102.052 80.9543 101.536C80.7723 101.203 80.6578 100.838 80.6175 100.461C80.5776 100.08 80.6128 99.6958 80.7213 99.3289ZM83.8546 102.336C84.1468 102.307 84.4302 102.22 84.6883 102.08C84.9464 101.941 85.174 101.751 85.358 101.523C85.5419 101.295 85.6784 101.033 85.7595 100.751C85.8407 100.47 85.8648 100.176 85.8306 99.8851C85.7476 99.292 85.4397 98.7531 84.9701 98.3792C84.5006 98.0054 83.9052 97.825 83.3063 97.8751C83.0154 97.9059 82.7335 97.994 82.477 98.1343C82.2206 98.2745 81.9947 98.4642 81.8124 98.6923C81.6302 98.9203 81.4953 99.1822 81.4156 99.4627C81.3358 99.7432 81.3129 100.037 81.348 100.326C81.4278 100.92 81.7343 101.46 82.2038 101.835C82.6732 102.209 83.2694 102.389 83.8684 102.336H83.8546Z" fill="#939598"/>
<path d="M84.4594 94.1966C84.5793 93.392 85.0048 92.664 85.6481 92.1633C86.1109 91.8083 86.6693 91.5989 87.2521 91.5617C87.8349 91.5244 88.4156 91.6612 88.9201 91.9544C89.4245 92.2476 89.8298 92.684 90.0841 93.2078C90.3385 93.7316 90.4304 94.3191 90.3481 94.8952C90.2315 95.7005 89.8061 96.4293 89.1614 96.9286C88.8589 97.1643 88.5129 97.3387 88.143 97.4418C87.381 97.6401 86.5711 97.5293 85.891 97.1334C85.5461 96.9354 85.245 96.6699 85.0058 96.3529C84.7748 96.0507 84.6064 95.7058 84.5103 95.3382C84.4186 94.9646 84.4013 94.5768 84.4594 94.1966ZM88.0118 96.71C88.2961 96.6377 88.563 96.5097 88.7971 96.3336C89.0312 96.1574 89.2277 95.9365 89.3751 95.6838C89.5226 95.4311 89.6181 95.1517 89.6561 94.8619C89.694 94.572 89.6736 94.2775 89.5961 93.9956C89.4264 93.4218 89.0427 92.9345 88.5237 92.6337C88.0048 92.3329 87.39 92.2413 86.8055 92.3779C86.5211 92.45 86.2539 92.5778 86.0196 92.7539C85.7854 92.93 85.5886 93.1508 85.4409 93.4035C85.2933 93.6562 85.1976 93.9357 85.1595 94.2257C85.1215 94.5156 85.1418 94.8102 85.2192 95.0923C85.3869 95.6679 85.7705 96.157 86.2905 96.4582C86.8105 96.7594 87.4269 96.8496 88.0118 96.71Z" fill="#939598"/>
<path d="M91.9339 92.1047L86.6914 89.8548L86.993 89.1542L91.6264 91.1407L92.6369 88.801L93.248 89.0645L91.9339 92.1047Z" fill="#939598"/>
<path d="M88.4812 85.353L88.2305 86.074L93.6224 87.936L93.8732 87.215L88.4812 85.353Z" fill="#939598"/>
<path d="M94.4425 85.6066L88.9062 84.2231L89.0864 83.5089L94.0273 81.8131L89.7816 80.7516L89.9618 80.0354L95.496 81.4189L95.3178 82.1332L90.377 83.8289L94.6226 84.8905L94.4425 85.6066Z" fill="#939598"/>
<path d="M91.0447 76.4332C91.0041 76.7236 91.0249 77.0194 91.1058 77.3013C91.1868 77.5833 91.3261 77.8453 91.5147 78.0704C91.8998 78.5298 92.4468 78.8248 93.0434 78.8949C93.6399 78.9649 94.2408 78.8046 94.7225 78.447C94.9575 78.271 95.1533 78.0483 95.2975 77.793C95.4418 77.5377 95.5314 77.2554 95.5606 76.9639C95.5857 76.7455 95.5784 76.5246 95.5391 76.3083C95.502 76.0972 95.4305 75.8935 95.3276 75.7053L93.9568 75.5433L93.7727 77.0888L93.1127 77.0108L93.3849 74.7062L95.7584 74.9872C95.9556 75.2772 96.0983 75.6005 96.1795 75.9414C96.357 76.7013 96.249 77.4996 95.8759 78.1855C95.6928 78.521 95.4453 78.8174 95.1474 79.0578C94.8414 79.2991 94.4901 79.4772 94.1142 79.5818C93.7383 79.6863 93.3452 79.7152 92.958 79.6666C92.5704 79.624 92.1952 79.5049 91.8543 79.3163C91.5133 79.1277 91.2135 78.8733 90.9722 78.568C90.7395 78.2641 90.5679 77.9182 90.467 77.5494C90.359 77.161 90.329 76.7551 90.3789 76.3551C90.4493 75.679 90.7491 75.047 91.2288 74.5637L91.7575 75.0145C91.5724 75.2192 91.4114 75.4445 91.2778 75.6858C91.1526 75.9177 91.0734 76.1714 91.0447 76.4332Z" fill="#939598"/>
<path d="M81.5547 67.7671C81.401 62.2007 79.8383 56.7632 77.0118 51.9595C74.1852 47.1558 70.1865 43.1416 65.3867 40.2896L68.0461 35.6335C73.6651 38.9519 78.3457 43.6385 81.6489 49.2534C84.9521 54.8683 86.7694 61.2274 86.9303 67.7339L81.5547 67.7671Z" fill="#E6E7E8"/>
<path d="M30.8217 40.596C26.0809 43.5187 22.1554 47.5844 19.4077 52.4178C16.66 57.2513 15.1785 62.6966 15.1002 68.2511L9.72656 68.292C9.79904 61.798 11.5223 55.4282 14.7353 49.7777C17.9483 44.1272 22.5463 39.3805 28.0996 35.981L30.8217 40.596Z" fill="#E6E7E8"/>
<path d="M55.3071 30.8313L54.4062 36.141C57.7645 36.772 61.0047 37.9167 64.0119 39.5345L66.6811 34.8511C63.1253 32.9239 59.2869 31.5673 55.3071 30.8313Z" fill="#8DC63F"/>
<path d="M29.1641 35.1652L31.9057 39.8075C34.8795 38.1354 38.0954 36.9327 41.4389 36.2424L40.4597 30.9443C36.4949 31.7497 32.6827 33.1742 29.1641 35.1652Z" fill="#8DC63F"/>
<path d="M42.8229 35.9926C46.1924 35.4387 49.6277 35.4091 53.0063 35.9048L53.9071 30.5912C49.9055 29.9932 45.8342 30.0288 41.8438 30.6965L42.8229 35.9926Z" fill="#8DC63F"/>
<path d="M81.5345 69.2639C81.4518 74.8617 79.9516 80.3481 77.1731 85.2141C74.3946 90.08 70.4278 94.1679 65.6406 97.0985L68.3823 101.745C73.988 98.3334 78.6322 93.559 81.8792 87.8695C85.1261 82.1799 86.8693 75.7617 86.9453 69.217L81.5345 69.2639Z" fill="#8DC63F"/>
<path d="M64.4226 97.8066C59.5209 100.537 54.0052 101.988 48.3895 102.022C42.7737 102.056 37.2407 100.673 32.3059 98.0018L29.6367 102.685C35.3954 105.822 41.8608 107.447 48.4238 107.407C54.9868 107.366 61.4315 105.661 67.1506 102.453L64.4226 97.8066Z" fill="#8DC63F"/>
<path d="M31.0868 97.3014C26.2761 94.4334 22.2683 90.4038 19.4336 85.5846C16.5989 80.7653 15.0286 75.312 14.8679 69.7283L9.46484 69.7653C9.63403 76.2939 11.4612 82.6732 14.7756 88.3073C18.09 93.9414 22.7835 98.6464 28.4176 101.983L31.0868 97.3014Z" fill="#8DC63F"/>
<path d="M49.6857 53.4224H46.707V61.9831H49.6857V53.4224Z" fill="#939598"/>
<path d="M51.1691 56.6401V58.8003C53.8641 59.5204 56.2045 61.192 57.7543 63.5039C59.3041 65.8158 59.9577 68.6102 59.5933 71.3667C59.2289 74.1231 57.8713 76.6535 55.7735 78.4866C53.6757 80.3197 50.9807 81.3303 48.1905 81.3303C45.4004 81.3303 42.7054 80.3197 40.6075 78.4866C38.5097 76.6535 37.1522 74.1231 36.7877 71.3667C36.4233 68.6102 37.0769 65.8158 38.6267 63.5039C40.1766 61.192 42.5169 59.5204 45.2119 58.8003V56.6401C41.9444 57.3707 39.0622 59.2764 37.1169 61.9925C35.1716 64.7086 34.2999 68.0441 34.6687 71.3606C35.0376 74.6772 36.621 77.7416 39.1159 79.9674C41.6108 82.1931 44.8418 83.4238 48.1905 83.4238C51.5392 83.4238 54.7703 82.1931 57.2652 79.9674C59.76 77.7416 61.3434 74.6772 61.7123 71.3606C62.0811 68.0441 61.2094 64.7086 59.2641 61.9925C57.3188 59.2764 54.4366 57.3707 51.1691 56.6401Z" fill="#939598"/>
<path d="M122.868 78.1797L123.26 80.0686C123.353 80.431 123.37 80.8085 123.31 81.1777C123.251 81.547 123.116 81.9001 122.913 82.2152C122.442 82.8112 121.774 83.2217 121.028 83.3742C120.281 83.5267 119.505 83.4113 118.836 83.0484C118.524 82.8373 118.259 82.5645 118.056 82.247C117.854 81.9294 117.72 81.5739 117.661 81.2024L117.27 79.3134L122.868 78.1797ZM122.594 80.2033L122.357 79.0617L118.092 79.934L118.327 81.0756C118.369 81.3437 118.467 81.6002 118.613 81.8289C118.76 82.0576 118.953 82.2536 119.179 82.4045C119.702 82.6615 120.296 82.7377 120.868 82.6211C121.44 82.5045 121.956 82.2018 122.336 81.7605C122.484 81.5327 122.584 81.2768 122.628 81.0088C122.673 80.7408 122.661 80.4666 122.594 80.2033Z" fill="#939598"/>
<path d="M121.171 86.0868L120.926 85.3609L118.885 86.038L118.641 85.3141L124.057 83.509L124.633 85.2321C124.828 85.7155 124.828 86.2552 124.633 86.7386C124.533 86.9575 124.386 87.152 124.203 87.3087C124.019 87.4654 123.804 87.5805 123.572 87.646C123.183 87.7907 122.756 87.7907 122.367 87.646C121.984 87.4875 121.669 87.1993 121.478 86.8323L119.876 88.9885L119.61 88.1865L121.171 86.0868ZM122.448 86.8674C122.722 86.9925 123.034 87.0094 123.32 86.9145C123.607 86.8196 123.846 86.6201 123.991 86.3561C124.111 86.0554 124.111 85.7202 123.991 85.4194L123.666 84.4438L121.553 85.1443L121.88 86.12C121.963 86.4358 122.169 86.7059 122.452 86.8713L122.448 86.8674Z" fill="#939598"/>
<path d="M125.624 87.962L123.908 90.5007L126.955 90.8676L127.298 91.6169L123.385 91.1584L121.257 92.1263L120.938 91.4335L123.066 90.4637L125.277 87.2146L125.624 87.962Z" fill="#939598"/>
<path d="M127.718 92.2488L122.742 95.0332L123.117 95.6985L128.093 92.914L127.718 92.2488Z" fill="#939598"/>
<path d="M123.98 97.2349L128.686 94.019L129.103 94.624L127.11 99.438L130.717 96.9715L131.138 97.5803L126.432 100.798L126.015 100.191L128.013 95.3772L124.402 97.8457L123.98 97.2349Z" fill="#939598"/>
<path d="M133.115 100.763C132.923 100.541 132.687 100.361 132.422 100.235C132.157 100.108 131.868 100.038 131.574 100.027C130.973 100.008 130.387 100.22 129.938 100.62C129.49 101.02 129.213 101.576 129.165 102.174C129.141 102.466 129.177 102.759 129.273 103.036C129.368 103.313 129.52 103.567 129.72 103.782C129.868 103.946 130.039 104.087 130.229 104.201C130.41 104.313 130.609 104.395 130.816 104.443L131.854 103.52L130.814 102.359L131.31 101.92L132.859 103.651L131.077 105.234C130.727 105.19 130.389 105.081 130.08 104.914C129.39 104.545 128.861 103.935 128.596 103.2C128.465 102.841 128.407 102.46 128.425 102.078C128.444 101.699 128.539 101.327 128.705 100.986C128.958 100.452 129.365 100.006 129.873 99.7039C130.382 99.4019 130.969 99.2577 131.56 99.2898C131.943 99.3176 132.317 99.419 132.661 99.5884C133.024 99.7664 133.349 100.014 133.617 100.316C134.077 100.817 134.353 101.458 134.4 102.135L133.713 102.232C133.679 101.958 133.613 101.688 133.517 101.429C133.427 101.183 133.29 100.957 133.115 100.763Z" fill="#939598"/>
<path d="M155.198 117.17L154.722 117.065L153.553 114.113L152.582 118.429L151.855 118.267L153.107 112.717L153.804 112.873L155.147 116.292L157.828 113.775L158.526 113.929L157.274 119.479L156.552 119.317L157.523 115L155.198 117.17Z" fill="#939598"/>
<path d="M159.726 114.012L159.055 119.661L159.815 119.751L160.486 114.102L159.726 114.012Z" fill="#939598"/>
<path d="M161.826 119.955L160.988 119.924L163.048 117.106L161.276 114.243L162.116 114.275L163.524 116.568L165.105 114.386L165.945 114.419L163.961 117.141L165.804 120.103L164.966 120.074L163.483 117.68L161.826 119.955Z" fill="#939598"/>
<path d="M167.482 114.304L166.715 114.336L166.957 120.018L167.724 119.985L167.482 114.304Z" fill="#939598"/>
<path d="M169.486 119.914L168.742 114.277L169.475 114.181L172.874 118.134L172.304 113.812L173.039 113.715L173.785 119.352L173.052 119.448L169.651 115.494L170.223 119.82L169.486 119.914Z" fill="#939598"/>
<path d="M176.783 113.398C176.498 113.468 176.23 113.596 175.998 113.775C175.765 113.954 175.572 114.179 175.432 114.436C175.142 114.961 175.066 115.577 175.219 116.156C175.373 116.736 175.744 117.234 176.257 117.547C176.508 117.7 176.788 117.8 177.079 117.84C177.371 117.88 177.667 117.859 177.951 117.779C178.164 117.721 178.367 117.633 178.554 117.516C178.738 117.406 178.901 117.265 179.037 117.1L178.683 115.763L177.173 116.154L177.003 115.512L179.255 114.926L179.866 117.227C179.668 117.517 179.418 117.768 179.128 117.967C178.825 118.181 178.485 118.339 178.125 118.431C177.733 118.536 177.325 118.563 176.922 118.513C176.542 118.466 176.174 118.345 175.84 118.158C175.503 117.962 175.209 117.702 174.974 117.392C174.739 117.083 174.567 116.73 174.469 116.355C174.366 115.973 174.341 115.575 174.394 115.184C174.446 114.806 174.574 114.442 174.769 114.114C174.964 113.786 175.223 113.5 175.53 113.273C175.853 113.032 176.22 112.855 176.611 112.752C177.268 112.57 177.967 112.615 178.595 112.879L178.37 113.537C178.109 113.442 177.839 113.377 177.565 113.342C177.303 113.311 177.038 113.331 176.783 113.398Z" fill="#939598"/>
<path d="M198.495 106.124C198.906 105.733 199.164 105.209 199.223 104.646L199.914 104.787C199.811 105.53 199.439 106.21 198.87 106.701C198.3 107.192 197.571 107.461 196.818 107.456C196.429 107.444 196.045 107.356 195.69 107.195C195.335 107.035 195.016 106.806 194.75 106.522C194.344 106.103 194.074 105.571 193.977 104.996C193.881 104.421 193.961 103.83 194.208 103.302C194.376 102.933 194.615 102.602 194.913 102.326C195.403 101.855 196.038 101.562 196.716 101.497L196.83 102.182C196.556 102.22 196.288 102.29 196.031 102.391C195.638 102.555 195.301 102.83 195.062 103.182C194.822 103.533 194.69 103.946 194.682 104.371C194.678 104.97 194.906 105.547 195.318 105.983C195.73 106.419 196.295 106.68 196.895 106.713C197.188 106.73 197.481 106.686 197.756 106.585C198.032 106.483 198.283 106.326 198.495 106.124Z" fill="#939598"/>
<path d="M197.872 99.5494C197.991 99.1638 198.184 98.8047 198.44 98.4918C198.693 98.1769 199.006 97.915 199.36 97.721C199.694 97.5336 200.061 97.415 200.441 97.3721C200.821 97.3292 201.206 97.3629 201.573 97.4712C201.956 97.5844 202.312 97.7717 202.622 98.0226C202.932 98.2734 203.189 98.5827 203.379 98.9328C203.56 99.2665 203.672 99.6326 203.71 100.01C203.745 100.391 203.705 100.775 203.59 101.14C203.349 101.917 202.817 102.571 202.104 102.966C201.593 103.248 201.009 103.37 200.428 103.317C199.846 103.263 199.294 103.037 198.843 102.668C198.533 102.417 198.276 102.108 198.087 101.756C197.906 101.422 197.793 101.055 197.754 100.677C197.719 100.297 197.759 99.9142 197.872 99.5494ZM200.994 102.578C201.286 102.55 201.569 102.464 201.828 102.326C202.086 102.188 202.314 102 202.499 101.773C202.684 101.546 202.822 101.284 202.904 101.004C202.987 100.723 203.012 100.429 202.979 100.139C202.9 99.5453 202.597 99.0045 202.13 98.6275C201.663 98.2504 201.07 98.0657 200.471 98.1113C200.179 98.1397 199.896 98.2256 199.638 98.364C199.379 98.5024 199.151 98.6906 198.967 98.9175C198.782 99.1445 198.645 99.4057 198.562 99.686C198.48 99.9663 198.454 100.26 198.487 100.55C198.563 101.145 198.866 101.687 199.333 102.065C199.799 102.442 200.394 102.626 200.994 102.578Z" fill="#939598"/>
<path d="M201.647 94.4367C201.77 93.632 202.201 92.906 202.85 92.4111C203.153 92.1771 203.5 92.0053 203.87 91.9057C204.238 91.8091 204.623 91.7865 205 91.8394C205.796 91.9505 206.516 92.3715 207.001 93.0102C207.23 93.3149 207.396 93.6618 207.489 94.0308C207.58 94.4025 207.597 94.7884 207.538 95.1665C207.415 95.9703 206.985 96.6955 206.337 97.1901C206.034 97.4249 205.686 97.5968 205.315 97.6955C204.947 97.7912 204.563 97.8138 204.185 97.7618C203.79 97.7084 203.409 97.5756 203.067 97.3716C202.56 97.0818 202.153 96.6457 201.899 96.1207C201.646 95.5957 201.558 95.0065 201.647 94.4308V94.4367ZM205.182 96.9735C205.467 96.903 205.734 96.7768 205.969 96.6023C206.204 96.4277 206.402 96.2082 206.551 95.9566C206.7 95.7051 206.798 95.4265 206.838 95.137C206.878 94.8476 206.859 94.5531 206.784 94.2708C206.618 93.6955 206.238 93.2052 205.721 92.9007C205.203 92.5962 204.589 92.5006 204.003 92.6336C203.718 92.7043 203.451 92.8307 203.216 93.0054C202.981 93.1802 202.783 93.3999 202.634 93.6516C202.485 93.9033 202.387 94.182 202.347 94.4716C202.307 94.7612 202.326 95.0558 202.401 95.3382C202.565 95.9145 202.946 96.4058 203.463 96.7103C203.981 97.0148 204.596 97.109 205.182 96.9735Z" fill="#939598"/>
<path d="M209.141 92.3721L203.914 90.0889L204.222 89.3923L208.841 91.4061L209.867 89.0742L210.474 89.3396L209.141 92.3721Z" fill="#939598"/>
<path d="M205.787 85.4636L205.531 86.1831L210.914 88.083L211.17 87.3635L205.787 85.4636Z" fill="#939598"/>
<path d="M211.69 85.8954L206.164 84.4748L206.35 83.7625L211.301 82.0999L207.061 81.0091L207.247 80.2949L212.773 81.7116L212.587 82.4258L207.637 84.0904L211.877 85.1792L211.69 85.8954Z" fill="#939598"/>
<path d="M208.352 76.7044C208.312 76.9949 208.332 77.2907 208.411 77.5731C208.491 77.8556 208.628 78.1186 208.815 78.3455C209.198 78.8059 209.743 79.1029 210.339 79.1754C210.934 79.248 211.535 79.0907 212.018 78.7358C212.254 78.5621 212.451 78.3417 212.598 78.0885C212.744 77.8353 212.836 77.5548 212.868 77.2644C212.894 77.0455 212.887 76.8239 212.849 76.6068C212.817 76.3966 212.751 76.193 212.653 76.0038L211.282 75.8341L211.086 77.3776L210.426 77.2957L210.712 74.995L213.084 75.2877C213.279 75.5793 213.419 75.904 213.497 76.2458C213.582 76.607 213.601 76.9806 213.552 77.3484C213.506 77.7484 213.38 78.1352 213.182 78.486C212.996 78.8205 212.747 79.1155 212.447 79.3544C212.147 79.5899 211.803 79.7631 211.435 79.8637C211.053 79.9724 210.653 80.0023 210.26 79.9515C209.864 79.9044 209.482 79.7783 209.136 79.5807C208.805 79.3916 208.515 79.1397 208.282 78.8392C208.051 78.5338 207.881 78.1865 207.783 77.8167C207.678 77.4277 207.65 77.0221 207.7 76.6224C207.777 75.9474 208.081 75.318 208.562 74.8369L209.087 75.2896C208.902 75.4946 208.741 75.719 208.605 75.959C208.476 76.1898 208.39 76.4425 208.352 76.7044Z" fill="#939598"/>
<path d="M198.373 67.5076C198.219 61.9412 196.657 56.5037 193.83 51.6998C191.004 46.8958 187.006 42.8811 182.207 40.0281L184.866 35.374C190.485 38.6924 195.166 43.379 198.469 48.9939C201.771 54.6088 203.588 60.968 203.749 67.4744L198.373 67.5076Z" fill="#E6E7E8"/>
<path d="M147.783 40.3326C143.042 43.2555 139.117 47.3213 136.37 52.1547C133.622 56.9881 132.141 62.4333 132.063 67.9877L126.691 68.0306C126.762 61.5364 128.485 55.1663 131.698 49.5156C134.91 43.8649 139.509 39.1183 145.063 35.7195L147.783 40.3326Z" fill="#E6E7E8"/>
<path d="M172.325 30.8313L171.426 36.141C174.781 36.7725 178.018 37.9172 181.022 39.5345L183.691 34.8511C180.138 32.9243 176.302 31.5677 172.325 30.8313Z" fill="#939598"/>
<path d="M146.188 35.1652L148.929 39.8075C151.903 38.1357 155.119 36.9331 158.462 36.2424L157.483 30.9443C153.518 31.7494 149.706 33.1739 146.188 35.1652Z" fill="#939598"/>
<path d="M159.846 35.9926C163.216 35.4387 166.651 35.4091 170.03 35.9048L170.931 30.5912C166.929 29.9932 162.858 30.0288 158.867 30.6965L159.846 35.9926Z" fill="#8DC63F"/>
<path d="M198.558 69.2639C198.477 74.8631 196.977 80.3511 194.198 85.2185C191.42 90.0859 187.452 94.175 182.664 97.1063L185.406 101.753C191.011 98.3413 195.656 93.5669 198.903 87.8773C202.15 82.1878 203.893 75.7696 203.969 69.2249L198.558 69.2639Z" fill="#939598"/>
<path d="M181.444 97.8066C176.542 100.537 171.027 101.987 165.411 102.021C159.795 102.055 154.262 100.672 149.327 98.0018L146.66 102.685C152.419 105.822 158.884 107.447 165.447 107.407C172.01 107.366 178.455 105.661 184.174 102.453L181.444 97.8066Z" fill="#939598"/>
<path d="M148.106 97.3014C143.296 94.4332 139.288 90.4034 136.454 85.5843C133.619 80.7651 132.048 75.3119 131.887 69.7283L126.484 69.7653C126.654 76.2941 128.481 82.6735 131.796 88.3076C135.111 93.9417 139.805 98.6466 145.439 101.983L148.106 97.3014Z" fill="#939598"/>
<path d="M166.705 53.4224H163.727V61.9831H166.705V53.4224Z" fill="#939598"/>
<path d="M168.196 56.6401V58.8003C170.89 59.5206 173.23 61.1924 174.78 63.5043C176.33 65.8162 176.983 68.6106 176.619 71.3669C176.254 74.1232 174.896 76.6536 172.799 78.4865C170.701 80.3195 168.006 81.3301 165.216 81.3301C162.426 81.3301 159.731 80.3195 157.633 78.4865C155.535 76.6536 154.178 74.1232 153.813 71.3669C153.449 68.6106 154.102 65.8162 155.652 63.5043C157.201 61.1924 159.541 59.5206 162.236 58.8003V56.6401C158.968 57.3709 156.086 59.277 154.14 61.9935C152.195 64.71 151.323 68.046 151.692 71.3629C152.061 74.6799 153.645 77.7447 156.14 79.9707C158.635 82.1967 161.867 83.4276 165.216 83.4276C168.565 83.4276 171.797 82.1967 174.292 79.9707C176.787 77.7447 178.371 74.6799 178.74 71.3629C179.109 68.046 178.237 64.71 176.291 61.9935C174.346 59.277 171.463 57.3709 168.196 56.6401Z" fill="#939598"/>
<path d="M25.5493 18.2721L25.8489 17.9209L25.9469 17.796L26.1564 17.5286L26.2465 17.4018L26.4423 17.1208L26.5148 17.0115L26.7106 16.6973L26.7615 16.6134L26.9574 16.2622L26.9848 16.2095L27.1806 15.8192V15.7997C27.6908 14.7587 28.0319 13.6436 28.1911 12.496V12.4784L28.244 12.0003V11.8852L28.2714 11.4949V11.1378V10.9837V10.9173L28.2596 10.4217V10.3221L28.2224 9.84795V9.82453C27.9762 7.44694 26.9491 5.21687 25.3006 3.48056L24.9089 3.09028L24.5173 2.73903L24.2842 2.5439L24.1197 2.4073L23.7829 2.15167L23.7104 2.09703L23.3188 1.82383L23.2914 1.80432L22.8566 1.53503C22.557 1.35745 22.2515 1.19744 21.9401 1.04913L21.4838 0.853989L21.4584 0.842287L21.0158 0.672513L20.9629 0.653002L20.5438 0.514448L20.4576 0.487128L20.066 0.379801L19.9465 0.344681L19.5764 0.262723L19.4217 0.229545L19.0711 0.167105L18.8929 0.137835L18.5502 0.0948985L18.3544 0.0734375L17.9901 0.0461182L17.8139 0.0324585C17.6318 0.0324585 17.4496 0.0187988 17.2675 0.0187988C17.0854 0.0187988 16.915 0.0187988 16.7368 0.0324585L16.4998 0.0500188L16.2139 0.0714872L15.9123 0.104657L15.6969 0.131977L15.3719 0.184665L15.1858 0.215885L14.8588 0.286134L14.6786 0.325163L14.3633 0.407121L14.1792 0.457859L13.8835 0.551526L13.6877 0.613973L13.4174 0.713492L13.202 0.793499L12.9592 0.893018L12.7281 0.992544L12.5127 1.09596L12.2659 1.215L12.0701 1.31843L11.8136 1.45892L11.6334 1.5643L11.3768 1.72041L11.2026 1.83554L10.9519 2.00336L10.7678 2.13606L10.5426 2.30387L10.3233 2.4795L10.1451 2.6239L9.77689 2.94783L9.76122 2.96149V2.97515L9.36955 3.36543L9.32843 3.41031C7.49632 5.30993 6.41305 7.80413 6.27734 10.4353V10.7144V11.0051V11.0246L6.28909 11.4891V11.6666L6.31259 11.9691L6.33218 12.1799L6.36351 12.4413L6.39484 12.6658L6.43401 12.9038L6.53193 13.3897L6.56522 13.5419L6.63963 13.8288L6.68076 13.9849L6.76693 14.2737L6.81393 14.4162L6.91576 14.7128L6.95297 14.8162C7.08261 15.1673 7.23101 15.5112 7.39751 15.8465L7.42493 15.9051L7.57964 16.2017L7.63839 16.3071L7.80093 16.588L7.86164 16.6895L8.03984 16.9764L8.08293 17.0408L8.3238 17.3901L8.51964 17.6535L8.53139 17.6691L8.77422 17.9696L8.85647 18.0731L9.17176 18.4302L9.19918 18.4594L9.23835 18.5024L9.59672 18.8653L9.65743 18.9239C11.5618 20.7532 14.0657 21.8351 16.7074 21.97C16.9033 21.9817 17.0991 21.9856 17.2832 21.9856C17.479 21.9856 17.6749 21.9856 17.8707 21.97C20.1903 21.8502 22.4116 20.9987 24.2137 19.5385L24.2353 19.519L24.6093 19.201L24.6818 19.1405L25.0069 18.8321L25.1244 18.7229L25.5023 18.3326L25.5219 18.3111L25.5493 18.2721ZM25.6257 17.3335C25.4461 17.2062 25.2387 17.1232 25.0206 17.0915C24.6826 17.0927 24.3519 16.9936 24.0708 16.8066C23.8638 16.6591 23.6163 16.5787 23.3619 16.5763C23.0945 16.6384 22.8468 16.7658 22.6412 16.9471C22.4682 17.1071 22.2527 17.2141 22.0204 17.2554C21.9088 17.2554 21.4035 17.353 21.0412 17.4232C20.7004 17.5016 20.3551 17.559 20.0072 17.595C19.7888 17.5703 19.5751 17.5145 19.3727 17.4291C19.1729 17.3465 18.9638 17.2882 18.75 17.2554H18.5972V13.5673H18.6384C19.337 13.6442 20.044 13.574 20.7137 13.3612C21.3834 13.1484 22.0007 12.7978 22.5256 12.3321C22.9064 11.9837 23.2122 11.5619 23.4246 11.0923C23.637 10.6227 23.7516 10.1151 23.7614 9.60012C23.8133 8.89334 23.9635 8.19719 24.2079 7.53165C24.2433 7.4333 24.2546 7.32789 24.2406 7.22431C24.2266 7.12073 24.1879 7.02202 24.1276 6.9365C24.0673 6.85098 23.9872 6.78116 23.8942 6.73293C23.8011 6.6847 23.6978 6.65947 23.5929 6.65938C22.3723 6.82835 21.2098 7.28489 20.2017 7.99112C19.1935 8.69735 18.3689 9.63292 17.7963 10.7202C17.0648 9.94979 16.1166 9.41784 15.0761 9.19423C14.5812 9.06645 14.1038 8.87904 13.6544 8.63614C13.5652 8.5802 13.4635 8.54686 13.3584 8.53904C13.2533 8.53122 13.1478 8.54914 13.0512 8.59125C12.9539 8.63323 12.8683 8.69815 12.8018 8.78042C12.7353 8.86268 12.6898 8.95983 12.6693 9.06349C12.4925 9.88761 12.5474 10.7444 12.828 11.5394C13.1086 12.3344 13.6039 13.0368 14.2595 13.5693C14.6951 13.8754 15.1991 14.071 15.7277 14.139C16.2563 14.207 16.7937 14.1454 17.293 13.9595V17.0818L17.1481 16.9705C16.9054 16.7984 16.6113 16.7131 16.3138 16.7286C15.9559 16.7181 15.5998 16.7847 15.27 16.9237C14.9687 17.0963 14.6358 17.2071 14.2909 17.2496C14.0967 17.2385 13.9035 17.2131 13.7131 17.1735L13.3763 17.1227L13.0845 17.1637C12.8611 17.2169 12.6326 17.2456 12.403 17.2496C12.0415 17.1916 11.694 17.0665 11.3788 16.8808C11.1311 16.7771 10.864 16.7272 10.5955 16.7344C10.2828 16.8176 9.98205 16.9402 9.70051 17.0993C9.49688 17.1947 9.28056 17.2604 9.05818 17.2945H8.94656C7.7605 15.7415 7.03373 13.8891 6.84831 11.9464C6.66289 10.0036 7.0262 8.04794 7.89721 6.30007C8.76823 4.55219 10.1123 3.08176 11.7776 2.05477C13.4429 1.02779 15.3632 0.485151 17.3216 0.488126C19.2801 0.491101 21.1987 1.03957 22.8609 2.07161C24.523 3.10365 25.8626 4.57817 26.7282 6.32868C27.5939 8.07919 27.9512 10.036 27.7599 11.9781C27.5685 13.9203 26.8361 15.7705 25.6453 17.3198L25.6257 17.3335ZM18.6501 12.2833C18.9265 11 19.7008 9.8777 20.8043 9.16106C21.3712 8.76501 21.9882 8.44546 22.6392 8.21073C22.5473 8.63427 22.4819 9.06311 22.4434 9.49475C22.4476 9.86352 22.3717 10.2288 22.2209 10.5656C22.0702 10.9025 21.8481 11.2028 21.57 11.4461C21.1675 11.7787 20.7003 12.0247 20.1978 12.1687C19.6954 12.3128 19.1684 12.3518 18.6501 12.2833ZM17.2264 12.615C16.884 12.8043 16.4962 12.8963 16.1049 12.8812C15.7137 12.8661 15.3342 12.7443 15.0076 12.5292C14.6599 12.244 14.3787 11.8869 14.1835 11.4825C13.9884 11.0781 13.884 10.6362 13.8776 10.1875C14.142 10.2851 14.4123 10.367 14.6786 10.449C15.9339 10.8334 16.9503 11.1476 17.2264 12.6072V12.615Z" fill="#939598"/>
<path d="M58.8499 15.0641L58.7422 15.0211L58.4582 14.9177H58.4249L58.1155 14.8201C58.7364 13.1666 58.9476 11.3882 58.7313 9.63598C58.5149 7.88373 57.8774 6.20939 56.8728 4.75516C55.8682 3.30092 54.5262 2.10976 52.9608 1.28282C51.3955 0.455879 49.653 0.0175989 47.8813 0.00519641H47.801C44.8784 -0.0051544 42.0714 1.14179 39.9975 3.1937C37.9236 5.24562 36.7526 8.03443 36.7423 10.9466C36.7319 13.8588 37.8829 16.6559 39.9421 18.7224C42.0013 20.789 44.8001 21.9558 47.7226 21.9661H47.8029C49.3413 21.9654 50.8626 21.644 52.269 21.0226C53.6753 20.4012 54.9357 19.4936 55.9692 18.358L56.116 18.1746L56.212 18.0516L56.0358 17.9033L56.069 17.8643L55.9006 17.7902L55.8301 17.7316L55.8164 17.7492L55.6558 17.6594C55.4859 17.542 55.2907 17.4658 55.086 17.437C54.7691 17.4382 54.4591 17.3459 54.1949 17.1716C53.9961 17.0401 53.7618 16.972 53.5232 16.9764C53.2727 17.0321 53.0399 17.1488 52.8456 17.316C52.6814 17.4657 52.4775 17.5653 52.2581 17.6028C52.1543 17.6028 51.6706 17.6945 51.3358 17.7589C51.0129 17.832 50.6859 17.8854 50.3566 17.9189C50.1543 17.8949 49.9565 17.8423 49.7691 17.7628C49.58 17.6873 49.3829 17.6336 49.1816 17.6028C49.1542 17.6028 48.3826 17.6243 48.1358 17.6028L47.6756 17.3511C47.4476 17.1899 47.1714 17.1107 46.8923 17.1267C46.5571 17.1156 46.2234 17.1755 45.9131 17.3023C45.6316 17.461 45.3215 17.5631 45.0005 17.6028C44.8183 17.5929 44.6371 17.57 44.4581 17.5345L44.1408 17.4838L43.8686 17.5248C43.6579 17.5731 43.4426 17.5993 43.2263 17.6028C42.8874 17.55 42.5614 17.4348 42.2648 17.2633C42.0317 17.1666 41.7808 17.12 41.5284 17.1267C41.2361 17.2051 40.9546 17.3191 40.6903 17.4662C40.4989 17.5597 40.2952 17.6255 40.0851 17.6614C39.8795 17.6614 39.762 17.6731 39.6837 17.677C38.4133 16.1436 37.6068 14.2818 37.3582 12.3089C37.1097 10.3361 37.4294 8.3334 38.28 6.53472C39.1305 4.73603 40.477 3.21551 42.1621 2.15058C43.8473 1.08566 45.8016 0.520253 47.797 0.520363H47.8754C49.5671 0.529096 51.2316 0.945059 52.7272 1.73284C54.2229 2.52063 55.5053 3.6569 56.4654 5.0449C57.4254 6.4329 58.0346 8.03151 58.2411 9.70464C58.4476 11.3778 58.2453 13.0758 57.6514 14.6543L57.3929 14.5762L57.3596 14.5352L57.0776 14.4357L56.8426 14.4474L56.8093 14.7206C56.872 15.189 56.9425 15.6534 57.0051 16.1217C57.0423 16.4027 57.1696 16.4554 57.4223 16.2856C57.7493 16.0671 58.0783 15.8466 58.4014 15.6241L58.8205 15.3392L58.8499 15.0641Z" fill="#939598"/>
<path d="M47.4034 5.67785C47.4052 5.56084 47.3833 5.44466 47.3389 5.33633C47.2944 5.228 47.2285 5.12977 47.1449 5.04755C47.0203 4.93205 46.8636 4.85668 46.6954 4.83128C46.5271 4.80589 46.3551 4.83166 46.2017 4.90521C46.0484 4.97876 45.9209 5.09668 45.8358 5.24357C45.7508 5.39047 45.7122 5.5595 45.7251 5.72859V7.64875C45.7251 8.89374 45.7251 10.1381 45.7251 11.3818C45.7198 11.4764 45.7438 11.5705 45.7938 11.6511C45.8439 11.7317 45.9177 11.7951 46.0051 11.8325C47.2741 12.483 48.5425 13.1335 49.8102 13.7839L51.1653 14.4806L51.3768 14.5742L51.6471 14.6172L52.0505 14.5157C52.1514 14.4589 52.2396 14.3822 52.3096 14.2903C52.3796 14.1983 52.4301 14.0931 52.4578 13.981C52.5089 13.7852 52.4858 13.5775 52.393 13.3975C52.3001 13.2175 52.1441 13.0779 51.9545 13.0053L51.6608 12.8551C50.2508 12.1278 48.8388 11.4013 47.4249 10.6754L47.4053 10.6636V10.6441C47.4053 10.0255 47.4053 9.40696 47.4053 8.78641V7.42044C47.4053 6.83893 47.4053 6.25936 47.4034 5.67785Z" fill="#939598"/>
<path d="M86.1059 3.08243C84.183 1.23155 81.6504 0.140508 78.98 0.0126586C76.3095 -0.115191 73.6836 0.728867 71.5915 2.38753C69.4994 4.04618 68.0839 6.40627 67.6089 9.0279C67.1339 11.6495 67.6317 14.3538 69.0096 16.6368L69.0234 16.6524C69.4089 17.2927 69.8597 17.8917 70.3687 18.4398C70.8193 18.9242 71.3129 19.367 71.8434 19.7629L71.9158 19.8195L72.2135 20.0283C73.2316 20.7387 74.3661 21.2669 75.5662 21.5894H75.5759L76.0988 21.7143L76.1987 21.7357L76.655 21.8216L76.8508 21.8509L77.2425 21.9016L77.5617 21.9289L77.8457 21.9504C78.0415 21.9621 78.2589 21.968 78.4665 21.968C78.674 21.968 78.8287 21.968 79.005 21.9543H79.1107L79.5514 21.9192L79.7883 21.8938H79.8451C81.9072 21.6344 83.8537 20.799 85.4596 19.4841C87.0655 18.1693 88.2654 16.4286 88.9207 14.4631C89.576 12.4976 89.66 10.3875 89.163 8.37645C88.6659 6.36541 87.6082 4.5355 86.1118 3.09804L86.1059 3.08243ZM67.9561 10.9855C67.956 8.93202 68.5623 6.92386 69.6995 5.21129C70.8367 3.49871 72.4546 2.15745 74.3514 1.3546C76.2482 0.551758 78.3402 0.322832 80.3666 0.696349C82.3931 1.06987 84.2644 2.02931 85.7475 3.45514C87.5359 5.17331 88.655 7.46762 88.906 9.93035C89.1569 12.3931 88.5236 14.8647 87.1184 16.9061C86.9447 16.9555 86.7626 16.9681 86.5838 16.9431C86.334 16.8076 86.0598 16.7227 85.7769 16.6934C85.2256 16.6846 84.6796 16.5843 84.1613 16.3967C83.9504 16.244 83.7007 16.1534 83.4406 16.1353L83.3407 16.2328L83.1449 16.4397L83.1332 16.4494C82.4164 17.1539 81.8661 17.71 81.3334 18.2506C80.8008 18.7911 80.2681 19.3277 79.571 20.0224L79.5396 20.0517L79.4789 20.1083L79.4437 20.1376L79.383 20.1883L79.3399 20.2195L79.2752 20.2663L79.2243 20.2976L79.1558 20.3385L79.0872 20.3737L79.0109 20.4068L78.9345 20.4361L78.8483 20.4615L78.7641 20.4791L78.674 20.4966H78.5937H78.5076H78.4508H78.3215C78.1039 20.4779 77.8932 20.4112 77.7047 20.3015L77.3933 20.0595C76.8489 19.4956 76.2046 18.8301 75.5603 18.1588L75.4212 18.0184L75.386 17.9891L75.3566 17.9579L75.2881 17.8857L75.1999 17.7939C75.0867 17.6894 75.001 17.5588 74.9505 17.4134C74.8999 17.2681 74.8861 17.1126 74.9101 16.9607L74.9512 16.6836L74.7319 16.6055L74.3774 16.5509L74.0719 16.5958C73.8361 16.6498 73.5952 16.6792 73.3532 16.6836C72.9737 16.621 72.6091 16.4886 72.2781 16.2933C72.0167 16.1842 71.735 16.1316 71.4517 16.1392C71.1227 16.2298 70.8063 16.3609 70.5097 16.5294C70.2961 16.6305 70.0694 16.7015 69.8361 16.7402H69.697C68.5623 15.0339 67.9568 13.0325 67.9561 10.9855Z" fill="#939598"/>
<path d="M85.1667 9.17261H84.1602V12.7671H85.1667V9.17261Z" fill="#939598"/>
<path d="M78.6609 10.962C78.6609 10.3376 78.9644 9.98632 79.4912 9.98632C79.9632 9.98632 80.2138 10.2927 80.2138 10.8762V12.7729H81.2204V10.9679C81.2204 10.3434 81.524 9.99217 82.0586 9.99217C82.5227 9.99217 82.7793 10.3083 82.7793 10.882V12.7788H83.7858V10.7064C83.8153 10.5018 83.7987 10.2932 83.7372 10.0958C83.6756 9.89836 83.5707 9.7171 83.43 9.56516C83.2894 9.41322 83.1165 9.29442 82.924 9.2174C82.7315 9.14038 82.5241 9.10707 82.3171 9.1199C82.0702 9.11206 81.8247 9.16076 81.5996 9.26225C81.3745 9.36374 81.1758 9.51532 81.0187 9.70532L80.9952 9.73849L80.9717 9.70336C80.8425 9.51371 80.6667 9.36029 80.4609 9.25778C80.2552 9.15528 80.0265 9.10713 79.7967 9.11795C79.5859 9.10959 79.3758 9.14676 79.1807 9.22693C78.9857 9.30709 78.8103 9.42836 78.6667 9.58238L78.6178 9.64092V9.17064H77.6602V12.7651H78.6648L78.6609 10.962Z" fill="#939598"/>
<path d="M84.6634 8.78818C84.9414 8.78818 85.1667 8.56364 85.1667 8.28667C85.1667 8.00969 84.9414 7.78516 84.6634 7.78516C84.3855 7.78516 84.1602 8.00969 84.1602 8.28667C84.1602 8.56364 84.3855 8.78818 84.6634 8.78818Z" fill="#939598"/>
<path d="M72.9066 12.8685C73.2084 12.8695 73.505 12.7907 73.7663 12.6402L73.6664 12.5544C73.4511 12.3535 73.2809 12.1094 73.167 11.8382L72.9066 11.8753C72.7614 11.8883 72.6168 11.8453 72.5024 11.7553C72.388 11.6653 72.3126 11.535 72.2917 11.3913V7.79492H71.3125V11.444C71.3421 11.8407 71.5246 12.2105 71.8218 12.476C72.1189 12.7416 72.5077 12.8822 72.9066 12.8685Z" fill="#939598"/>
<path d="M75.3139 12.8217C75.6762 12.7978 76.0235 12.6688 76.3132 12.4507C76.6029 12.2326 76.8223 11.9349 76.9444 11.5941C77.0665 11.2534 77.086 10.8846 77.0005 10.533C76.915 10.1814 76.7282 9.86231 76.4631 9.61509C76.198 9.36787 75.8662 9.20326 75.5084 9.1415C75.1507 9.07974 74.7826 9.12352 74.4495 9.26747C74.1164 9.41142 73.8328 9.64926 73.6336 9.95171C73.4343 10.2542 73.3282 10.6081 73.3281 10.9699C73.3278 11.224 73.38 11.4755 73.4813 11.7087C73.5827 11.942 73.7311 12.152 73.9173 12.3256C74.1035 12.4993 74.3236 12.633 74.5638 12.7183C74.8041 12.8036 75.0594 12.8388 75.3139 12.8217ZM75.3139 9.93171C75.5235 9.91602 75.733 9.96365 75.9151 10.0684C76.0971 10.1731 76.2433 10.3301 76.3345 10.5188C76.4256 10.7075 76.4576 10.9193 76.4263 11.1264C76.3949 11.3335 76.3016 11.5264 76.1585 11.6799C76.0155 11.8334 75.8294 11.9404 75.6244 11.9869C75.4194 12.0334 75.2052 12.0172 75.0095 11.9406C74.8139 11.8639 74.646 11.7303 74.5277 11.5571C74.4094 11.384 74.3463 11.1793 74.3465 10.9699C74.3352 10.8374 74.352 10.7041 74.3957 10.5786C74.4395 10.453 74.5092 10.338 74.6004 10.2411C74.6916 10.1441 74.8023 10.0673 74.9252 10.0157C75.0481 9.9641 75.1805 9.93881 75.3139 9.94147V9.93171Z" fill="#939598"/>
<path d="M76.1356 16.6953C75.7439 16.9022 75.3698 17.0115 75.6832 17.3452L75.8399 17.5091L76.0357 17.7042C76.6428 18.3404 77.2525 18.9726 77.8648 19.601L78.0351 19.7337L78.3641 19.8351H78.4523H78.4679H78.5071H78.5482L78.5933 19.8254H78.6324L78.6755 19.8137L78.7127 19.8L78.7558 19.7785L78.7911 19.7629L78.8341 19.7376L78.8655 19.718L78.9086 19.6849L78.9379 19.6654L78.983 19.6283L79.0065 19.6068L79.0554 19.5639L79.075 19.5424C80.4948 18.1433 81.2292 17.3705 82.6451 15.9714L82.7978 15.8114C83.1895 15.3333 82.3376 15.1869 81.7344 15.0757C81.5902 15.0529 81.4424 15.0673 81.3053 15.1175C81.1682 15.1677 81.0463 15.2521 80.9511 15.3625C79.7467 16.5529 79.8133 16.5627 78.6011 17.7471L78.5737 17.7745L78.5345 17.8115L78.5169 17.8272L78.4914 17.8486L78.4738 17.8603L78.4562 17.8701H78.4249H78.4033H78.3916L78.3661 17.8525H78.3524L78.3191 17.8193L78.3073 17.8076L78.2858 17.7862L78.2466 17.7471C77.8413 17.3178 77.6591 17.1734 77.2518 16.75C76.9424 16.4046 76.6271 16.4378 76.1356 16.6953Z" fill="#939598"/>
<path d="M142.889 18.2721L143.189 17.9209L143.287 17.796L143.496 17.5286L143.586 17.4018L143.782 17.1208L143.853 17.0115L144.048 16.6973L144.097 16.6134L144.293 16.2622L144.321 16.2095L144.517 15.8192L144.526 15.7997C145.037 14.7587 145.378 13.6436 145.537 12.496V12.4784L145.59 12.0003V11.8852L145.615 11.4949V11.1378V10.9837V10.9173L145.603 10.4217V10.3221L145.566 9.84795V9.82453C145.32 7.44694 144.293 5.21687 142.644 3.48056L142.253 3.09028L141.861 2.73903L141.628 2.5439L141.463 2.4073L141.129 2.15167L141.054 2.09703L140.663 1.82383L140.635 1.80432L140.2 1.53503C139.901 1.35745 139.595 1.19744 139.284 1.04913L138.828 0.853989L138.802 0.842287L138.36 0.672513L138.307 0.653002L137.888 0.514448L137.801 0.487128L137.41 0.379801L137.29 0.344681L136.92 0.262723L136.765 0.229545L136.415 0.167105L136.237 0.137835L135.894 0.0948985L135.698 0.0734375L135.334 0.0461182L135.158 0.0324585C134.976 0.0324585 134.793 0.0187988 134.611 0.0187988C134.429 0.0187988 134.259 0.0187988 134.081 0.0324585L133.844 0.0500188L133.558 0.0714872L133.256 0.104657L133.041 0.131977L132.716 0.184665L132.53 0.215885L132.203 0.286134L132.022 0.325163L131.707 0.407121L131.523 0.457859L131.227 0.551526L131.031 0.613973L130.761 0.713492L130.548 0.793499L130.303 0.893018L130.072 0.992544L129.856 1.09596L129.61 1.215L129.414 1.31843L129.157 1.45892L128.977 1.5643L128.721 1.72041L128.546 1.83554L128.296 2.00336L128.112 2.13606L127.886 2.30387L127.667 2.4795L127.489 2.6239L127.121 2.94783L127.105 2.96149V2.97515L126.713 3.36543L126.672 3.41031C124.84 5.30993 123.757 7.80413 123.621 10.4353V10.7144V11.0051V11.0246L123.633 11.4891L123.643 11.6666L123.666 11.9691L123.686 12.1799L123.717 12.4413L123.748 12.6658L123.788 12.9038L123.885 13.3897L123.919 13.5419L123.993 13.8288L124.034 13.9849L124.12 14.2737L124.167 14.4162L124.269 14.7128L124.307 14.8162C124.436 15.1673 124.585 15.5112 124.751 15.8465L124.778 15.9051L124.933 16.2017L124.992 16.3071L125.154 16.588L125.215 16.6895L125.393 16.9764L125.436 17.0408L125.677 17.3901L125.873 17.6535L125.885 17.6691L126.128 17.9696L126.21 18.0731L126.525 18.4302L126.555 18.4594L126.592 18.5024L126.95 18.8653L127.011 18.9239C128.915 20.7532 131.419 21.8351 134.061 21.97C134.257 21.9817 134.453 21.9856 134.637 21.9856C134.833 21.9856 135.028 21.9856 135.224 21.97C137.544 21.8502 139.765 20.9987 141.567 19.5385L141.589 19.519L141.963 19.201L142.035 19.1405L142.36 18.8321L142.468 18.7229L142.846 18.3326L142.866 18.3111L142.889 18.2721ZM142.966 17.3335C142.786 17.2062 142.578 17.1232 142.36 17.0915C142.022 17.0923 141.691 16.9932 141.409 16.8066C141.2 16.6593 140.95 16.5808 140.694 16.5822C140.426 16.6442 140.179 16.7716 139.973 16.953C139.8 17.113 139.585 17.22 139.352 17.2613C139.241 17.2613 138.736 17.3589 138.373 17.4291C138.032 17.5073 137.687 17.5647 137.339 17.6008C137.121 17.5762 136.907 17.5203 136.705 17.435C136.505 17.3523 136.296 17.294 136.082 17.2613H135.929V13.5732H135.966C136.665 13.6501 137.372 13.5799 138.042 13.3671C138.711 13.1543 139.329 12.8037 139.854 12.3379C140.234 11.9892 140.54 11.5674 140.752 11.0979C140.964 10.6284 141.079 10.1209 141.089 9.60597C141.141 8.8992 141.292 8.20304 141.536 7.53751C141.571 7.43916 141.583 7.33375 141.569 7.23017C141.555 7.12659 141.516 7.02787 141.456 6.94235C141.395 6.85683 141.315 6.78701 141.222 6.73878C141.129 6.69055 141.026 6.66532 140.921 6.66523C139.701 6.83379 138.538 7.28974 137.53 7.99527C136.522 8.7008 135.697 9.6356 135.124 10.7222C134.393 9.95175 133.445 9.41979 132.404 9.19618C131.909 9.0684 131.432 8.88099 130.982 8.63809C130.893 8.58215 130.792 8.54881 130.686 8.54099C130.581 8.53317 130.476 8.55109 130.379 8.5932C130.282 8.63518 130.196 8.7001 130.13 8.78237C130.063 8.86463 130.018 8.96178 129.997 9.06544C129.82 9.88955 129.874 10.7466 130.155 11.5418C130.435 12.337 130.931 13.0393 131.588 13.5712C132.023 13.8772 132.527 14.0727 133.056 14.1407C133.584 14.2087 134.122 14.1472 134.621 13.9615V17.0837L134.474 16.9725C134.232 16.8 133.939 16.7147 133.642 16.7305C133.283 16.7202 132.927 16.7868 132.596 16.9256C132.295 17.0987 131.962 17.2095 131.617 17.2515C131.42 17.2407 131.223 17.2153 131.029 17.1754L130.695 17.1247L130.403 17.1657C130.179 17.2188 129.951 17.2476 129.721 17.2515C129.36 17.1935 129.012 17.0684 128.697 16.8827C128.449 16.779 128.182 16.7292 127.914 16.7364C127.601 16.8196 127.3 16.9422 127.019 17.1013C126.815 17.197 126.598 17.2627 126.375 17.2964H126.265C125.079 15.7435 124.352 13.8911 124.167 11.9483C123.981 10.0056 124.344 8.0499 125.215 6.30202C126.087 4.55415 127.431 3.08371 129.096 2.05673C130.761 1.02974 132.681 0.487101 134.64 0.490076C136.598 0.493051 138.517 1.04152 140.179 2.07356C141.841 3.1056 143.181 4.58012 144.047 6.33063C144.912 8.08114 145.27 10.0379 145.078 11.9801C144.887 13.9223 144.154 15.7725 142.964 17.3218L142.966 17.3335ZM135.99 12.2833C136.266 11 137.041 9.8777 138.144 9.16106C138.711 8.76501 139.328 8.44546 139.979 8.21073C139.887 8.63427 139.822 9.06311 139.783 9.49475C139.787 9.86352 139.712 10.2288 139.561 10.5656C139.41 10.9025 139.188 11.2028 138.91 11.4461C138.507 11.7787 138.04 12.0247 137.538 12.1687C137.035 12.3128 136.508 12.3518 135.99 12.2833ZM134.566 12.615C134.224 12.8043 133.836 12.8963 133.445 12.8812C133.054 12.8661 132.674 12.7443 132.347 12.5292C132 12.244 131.718 11.8869 131.523 11.4825C131.328 11.0781 131.224 10.6362 131.217 10.1875C131.482 10.2851 131.752 10.367 132.018 10.449C133.274 10.8334 134.29 11.1476 134.566 12.6072V12.615Z" fill="#939598"/>
<path d="M176.192 15.0641L176.084 15.0211L175.8 14.9177H175.767L175.459 14.8201C176.08 13.1666 176.291 11.3884 176.074 9.63629C175.857 7.88422 175.22 6.21009 174.215 4.75598C173.211 3.30188 171.869 2.11074 170.304 1.28368C168.739 0.456618 166.997 0.0180469 165.225 0.00519632H165.145C163.698 7.11167e-05 162.264 0.279009 160.925 0.826094C159.586 1.37318 158.368 2.1777 157.341 3.1937C156.314 4.20971 155.498 5.41731 154.94 6.74756C154.381 8.07781 154.091 9.50466 154.086 10.9466C154.081 12.3886 154.361 13.8175 154.91 15.1517C155.459 16.4858 156.266 17.6992 157.286 18.7224C158.305 19.7457 159.517 20.5588 160.852 21.1154C162.187 21.6719 163.619 21.961 165.066 21.9661H165.147C166.685 21.9654 168.206 21.644 169.613 21.0226C171.019 20.4012 172.28 19.4936 173.313 18.358L173.462 18.1746L173.556 18.0516L173.38 17.9033L173.413 17.8643L173.244 17.7902L173.174 17.7316L173.16 17.7492L173 17.6594C172.83 17.542 172.635 17.4658 172.43 17.437C172.113 17.4382 171.803 17.3459 171.539 17.1716C171.34 17.0401 171.106 16.972 170.867 16.9764C170.616 17.0321 170.384 17.1488 170.189 17.316C170.025 17.4657 169.821 17.5653 169.602 17.6028C169.498 17.6028 169.026 17.6945 168.68 17.7589C168.357 17.832 168.03 17.8854 167.7 17.9189C167.498 17.8946 167.3 17.842 167.113 17.7628C166.924 17.687 166.727 17.6333 166.525 17.6028C166.498 17.6028 165.726 17.6243 165.48 17.6028L165.019 17.3511C164.791 17.1899 164.515 17.1107 164.236 17.1267C163.901 17.1156 163.567 17.1755 163.257 17.3023C162.975 17.461 162.665 17.5631 162.344 17.6028C162.162 17.5929 161.981 17.57 161.802 17.5345L161.485 17.4838L161.212 17.5248C161.002 17.5731 160.786 17.5993 160.57 17.6028C160.231 17.55 159.905 17.4348 159.609 17.2633C159.375 17.1666 159.125 17.12 158.872 17.1267C158.58 17.2048 158.298 17.3188 158.034 17.4662C157.843 17.5597 157.639 17.6255 157.429 17.6614C157.223 17.6614 157.106 17.6731 157.037 17.677C155.767 16.1436 154.96 14.2818 154.712 12.3089C154.463 10.3361 154.783 8.3334 155.633 6.53472C156.484 4.73603 157.831 3.21551 159.516 2.15058C161.201 1.08566 163.155 0.520253 165.151 0.520363H165.229C166.921 0.529096 168.585 0.945059 170.081 1.73284C171.576 2.52063 172.859 3.6569 173.819 5.0449C174.779 6.4329 175.388 8.03151 175.595 9.70464C175.801 11.3778 175.599 13.0758 175.005 14.6543L174.746 14.5762L174.713 14.5352L174.431 14.4357L174.196 14.4474L174.163 14.7206C174.226 15.189 174.296 15.6534 174.359 16.1217C174.396 16.4027 174.523 16.4554 174.776 16.2856C175.103 16.0671 175.432 15.8466 175.755 15.6241L176.174 15.3392L176.192 15.0641Z" fill="#939598"/>
<path d="M164.751 5.67785C164.753 5.56084 164.731 5.44466 164.687 5.33633C164.642 5.228 164.576 5.12977 164.493 5.04755C164.368 4.93205 164.211 4.85668 164.043 4.83128C163.875 4.80589 163.703 4.83166 163.549 4.90521C163.396 4.97876 163.269 5.09668 163.183 5.24357C163.098 5.39047 163.06 5.5595 163.073 5.72859V7.64875C163.073 8.89374 163.073 10.1381 163.073 11.3818C163.067 11.4764 163.091 11.5705 163.142 11.6511C163.192 11.7317 163.265 11.7951 163.353 11.8325C164.622 12.483 165.89 13.1335 167.158 13.7839L168.511 14.4806L168.724 14.5742L168.995 14.6172L169.398 14.5157C169.499 14.4589 169.587 14.3822 169.657 14.2903C169.727 14.1983 169.778 14.0931 169.805 13.981C169.857 13.7852 169.833 13.5775 169.741 13.3975C169.648 13.2175 169.492 13.0779 169.302 13.0053L169.008 12.8551C167.598 12.1278 166.186 11.4013 164.773 10.6754L164.753 10.6636V10.6441C164.753 10.0255 164.753 9.40696 164.753 8.78641V7.42044C164.751 6.83893 164.751 6.25936 164.751 5.67785Z" fill="#939598"/>
<path d="M203.442 3.08243C201.519 1.23155 198.986 0.140508 196.316 0.0126586C193.645 -0.115191 191.02 0.728867 188.927 2.38753C186.835 4.04618 185.42 6.40627 184.945 9.0279C184.47 11.6495 184.968 14.3538 186.346 16.6368L186.359 16.6524C186.745 17.2927 187.196 17.8917 187.705 18.4398C188.155 18.9242 188.649 19.367 189.179 19.7629L189.252 19.8195L189.549 20.0283C190.568 20.7387 191.702 21.2669 192.902 21.5894H192.912L193.435 21.7143L193.535 21.7357L193.991 21.8216L194.187 21.8509L194.578 21.9016L194.898 21.9289L195.182 21.9504C195.387 21.9621 195.595 21.968 195.802 21.968C196.01 21.968 196.165 21.968 196.341 21.9543H196.447L196.887 21.9192L197.124 21.8938H197.181C199.243 21.6344 201.19 20.799 202.796 19.4841C204.401 18.1693 205.601 16.4286 206.257 14.4631C206.912 12.4976 206.996 10.3875 206.499 8.37645C206.002 6.36541 204.944 4.5355 203.448 3.09804L203.442 3.08243ZM185.292 10.9855C185.292 8.93202 185.898 6.92386 187.035 5.21129C188.173 3.49871 189.79 2.15745 191.687 1.3546C193.584 0.551758 195.676 0.322832 197.703 0.696349C199.729 1.06987 201.6 2.02931 203.083 3.45514C204.872 5.17331 205.991 7.46762 206.242 9.93035C206.493 12.3931 205.86 14.8647 204.454 16.9061C204.281 16.9555 204.099 16.9681 203.92 16.9431C203.67 16.8076 203.396 16.7227 203.113 16.6934C202.562 16.6846 202.016 16.5843 201.497 16.3967C201.286 16.244 201.037 16.1534 200.777 16.1353L200.677 16.2328L200.481 16.4397L200.469 16.4494C199.752 17.1539 199.202 17.71 198.669 18.2506C198.137 18.7911 197.604 19.3277 196.907 20.0224L196.876 20.0517L196.815 20.1083L196.78 20.1376L196.719 20.1883L196.676 20.2195L196.611 20.2663L196.56 20.2976L196.492 20.3385L196.423 20.3737L196.347 20.4068L196.268 20.4361L196.184 20.4615L196.1 20.4791L196.01 20.4966H195.93H195.844H195.816H195.687C195.469 20.4782 195.258 20.4115 195.07 20.3015L194.759 20.0595C194.214 19.4956 193.57 18.8301 192.926 18.1588L192.787 18.0184L192.751 17.9891L192.722 17.9579L192.653 17.8857L192.565 17.7939C192.452 17.6894 192.366 17.5588 192.316 17.4134C192.265 17.2681 192.251 17.1126 192.275 16.9607L192.317 16.6836L192.097 16.6055L191.743 16.5509L191.437 16.5958C191.201 16.6498 190.961 16.6792 190.719 16.6836C190.339 16.621 189.974 16.4886 189.643 16.2933C189.382 16.1842 189.1 16.1316 188.817 16.1392C188.488 16.2298 188.172 16.3609 187.875 16.5294C187.661 16.6305 187.435 16.7015 187.201 16.7402H187.07C185.922 15.038 185.304 13.0363 185.292 10.9855Z" fill="#939598"/>
<path d="M202.507 9.17261H201.5V12.7671H202.507V9.17261Z" fill="#939598"/>
<path d="M196.001 10.962C196.001 10.3376 196.304 9.98632 196.831 9.98632C197.303 9.98632 197.554 10.2927 197.554 10.8762V12.7729H198.56V10.9679C198.56 10.3434 198.864 9.99217 199.398 9.99217C199.863 9.99217 200.119 10.3083 200.119 10.882V12.7788H201.126V10.7064C201.155 10.5018 201.139 10.2932 201.077 10.0958C201.015 9.89836 200.911 9.7171 200.77 9.56516C200.629 9.41322 200.456 9.29442 200.264 9.2174C200.071 9.14038 199.864 9.10707 199.657 9.1199C199.41 9.11206 199.165 9.16076 198.939 9.26225C198.714 9.36374 198.516 9.51532 198.359 9.70532L198.335 9.73849L198.312 9.70336C198.182 9.51371 198.006 9.36029 197.801 9.25778C197.595 9.15528 197.366 9.10713 197.137 9.11795C196.926 9.10959 196.716 9.14676 196.521 9.22693C196.326 9.30709 196.15 9.42836 196.007 9.58238L195.958 9.64092V9.17064H195V12.7651H196.005L196.001 10.962Z" fill="#939598"/>
<path d="M202.003 8.78818C202.281 8.78818 202.507 8.56364 202.507 8.28667C202.507 8.00969 202.281 7.78516 202.003 7.78516C201.725 7.78516 201.5 8.00969 201.5 8.28667C201.5 8.56364 201.725 8.78818 202.003 8.78818Z" fill="#939598"/>
<path d="M190.239 12.8685C190.54 12.8695 190.837 12.7907 191.098 12.6402L190.998 12.5544C190.782 12.354 190.612 12.1098 190.499 11.8382L190.239 11.885C190.093 11.898 189.949 11.8551 189.834 11.7651C189.72 11.6751 189.645 11.5448 189.624 11.4011V7.79492H188.645V11.444C188.674 11.8407 188.857 12.2105 189.154 12.476C189.451 12.7416 189.84 12.8822 190.239 12.8685Z" fill="#939598"/>
<path d="M192.654 12.8217C193.016 12.7978 193.363 12.6688 193.653 12.4507C193.943 12.2326 194.162 11.9349 194.284 11.5941C194.406 11.2534 194.426 10.8846 194.34 10.533C194.255 10.1814 194.068 9.86231 193.803 9.61509C193.538 9.36787 193.206 9.20326 192.848 9.1415C192.49 9.07974 192.122 9.12352 191.789 9.26747C191.456 9.41142 191.173 9.64926 190.973 9.95171C190.774 10.2542 190.668 10.6081 190.668 10.9699C190.668 11.224 190.72 11.4755 190.821 11.7087C190.922 11.942 191.071 12.152 191.257 12.3256C191.443 12.4993 191.663 12.633 191.904 12.7183C192.144 12.8036 192.399 12.8388 192.654 12.8217ZM192.654 9.93171C192.863 9.91602 193.073 9.96365 193.255 10.0684C193.437 10.1731 193.583 10.3301 193.674 10.5188C193.765 10.7075 193.797 10.9193 193.766 11.1264C193.735 11.3335 193.641 11.5264 193.498 11.6799C193.355 11.8334 193.169 11.9404 192.964 11.9869C192.759 12.0334 192.545 12.0172 192.349 11.9406C192.154 11.8639 191.986 11.7303 191.868 11.5571C191.749 11.384 191.686 11.1793 191.686 10.9699C191.675 10.8374 191.692 10.7041 191.736 10.5786C191.779 10.453 191.849 10.338 191.94 10.2411C192.031 10.1441 192.142 10.0673 192.265 10.0157C192.388 9.9641 192.52 9.93881 192.654 9.94147V9.93171Z" fill="#939598"/>
<path d="M193.475 16.6953C193.084 16.9022 192.71 17.0115 193.023 17.3452L193.18 17.5091L193.376 17.7042C193.983 18.3404 194.592 18.9726 195.205 19.601L195.375 19.7337L195.704 19.8351H195.792H195.808H195.847H195.888L195.933 19.8254H195.972L196.015 19.8137L196.053 19.8L196.096 19.7785L196.131 19.7629L196.174 19.7376L196.205 19.718L196.248 19.6849L196.278 19.6654L196.323 19.6283L196.348 19.6068L196.395 19.5639L196.415 19.5424C197.835 18.1433 198.569 17.3705 199.985 15.9714L200.138 15.8114C200.529 15.3333 199.677 15.1869 199.074 15.0757C198.93 15.0529 198.782 15.0673 198.645 15.1175C198.508 15.1677 198.386 15.2521 198.291 15.3625C197.087 16.5529 197.153 16.5627 195.941 17.7471L195.914 17.7745L195.874 17.8115L195.857 17.8272L195.831 17.8486L195.814 17.8603L195.796 17.8701H195.765H195.743H195.731L195.706 17.8525H195.692L195.659 17.8193L195.647 17.8076L195.626 17.7862L195.586 17.7471C195.181 17.3178 194.999 17.1734 194.592 16.75C194.282 16.4046 193.961 16.4378 193.475 16.6953Z" fill="#939598"/>
</svg>
