<svg width="119" height="141" viewBox="0 0 119 141" fill="none" xmlns="http://www.w3.org/2000/svg">
<path d="M99.7912 77.2706C99.6085 70.6187 97.7411 64.1205 94.3625 58.3794C90.9838 52.6383 86.2033 47.8404 80.4648 44.431L83.6445 38.8663C90.3624 42.8335 95.9583 48.4352 99.907 55.146C103.856 61.8567 106.028 69.4565 106.219 77.2321L99.7912 77.2706Z" fill="#E6E7E8"/>
<path d="M39.2938 44.7975C33.6241 48.2897 28.9297 53.1486 25.644 58.9251C22.3584 64.7017 20.5875 71.2097 20.4951 77.848L14.0703 77.8965C14.1557 70.1355 16.2156 62.5226 20.0574 55.7696C23.8992 49.0165 29.3976 43.3437 36.0386 39.2813L39.2938 44.7975Z" fill="#E6E7E8"/>
<path d="M6.90036 89.3123L7.40452 91.6453C7.52573 92.0933 7.55291 92.5615 7.48438 93.0204C7.41586 93.4794 7.25309 93.9194 7.00623 94.313C6.43037 95.0553 5.60974 95.5711 4.68915 95.7696C3.76856 95.968 2.80718 95.8362 1.97465 95.3975C1.58699 95.1404 1.25645 94.8067 1.00352 94.4172C0.750578 94.0277 0.58062 93.5907 0.504165 93.1331L0 90.8001L6.90036 89.3123ZM6.58945 91.8227L6.28359 90.4168L1.02009 91.5499L1.32763 92.9591C1.38312 93.29 1.5069 93.6058 1.69115 93.8867C1.87541 94.1675 2.11614 94.4073 2.39815 94.5908C3.04869 94.9014 3.78448 94.9878 4.48971 94.8363C5.19494 94.6848 5.82956 94.3041 6.29368 93.754C6.47457 93.4694 6.59425 93.1505 6.64516 92.8175C6.69607 92.4845 6.6771 92.1447 6.58945 91.8193V91.8227Z" fill="#939598"/>
<path d="M4.87978 99.0141L4.57056 98.1254L2.04973 98.9873L1.74219 98.0936L8.41735 95.8108L9.15007 97.9346C9.39422 98.531 9.39783 99.1983 9.16015 99.7973C9.03762 100.068 8.85785 100.31 8.63309 100.505C8.40832 100.701 8.14386 100.846 7.85773 100.93C7.37918 101.111 6.85139 101.115 6.37043 100.94C5.89274 100.747 5.49924 100.391 5.25959 99.9362L3.3051 102.614L2.96899 101.627L4.87978 99.0141ZM6.46791 99.9714C6.80919 100.122 7.19517 100.139 7.54835 100.018C7.90153 99.8976 8.19576 99.6482 8.37197 99.3203C8.52209 98.9488 8.52209 98.5338 8.37197 98.1622L7.95855 96.9673L5.35538 97.8576L5.76712 99.0542C5.87464 99.4365 6.12551 99.763 6.46791 99.9664V99.9714Z" fill="#939598"/>
<path d="M10.4027 101.285L8.31205 104.438L12.0832 104.858L12.5168 105.781L7.67176 105.258L5.05177 106.48L4.64844 105.625L7.27011 104.403L9.96908 100.361L10.4027 101.285Z" fill="#939598"/>
<path d="M13.0006 106.484L13.4712 107.3L7.34723 110.793L6.875 109.975L13.0006 106.484Z" fill="#939598"/>
<path d="M8.38281 112.604L14.179 108.595L14.7017 109.342L12.2666 115.305L16.7133 112.227L17.2393 112.979L11.4397 116.989L10.9204 116.241L13.3522 110.279L8.90715 113.357L8.38281 112.604Z" fill="#939598"/>
<path d="M19.6745 116.87C19.4359 116.597 19.1428 116.376 18.8138 116.221C18.4849 116.067 18.1273 115.982 17.7637 115.973C17.0206 115.953 16.2981 116.218 15.7459 116.714C15.1938 117.209 14.8542 117.897 14.7975 118.636C14.7693 118.996 14.8168 119.359 14.9368 119.701C15.0569 120.043 15.2469 120.356 15.4949 120.62C15.6786 120.823 15.8916 120.996 16.1268 121.136C16.3528 121.274 16.6005 121.374 16.8596 121.431L18.1385 120.286L16.8444 118.856L17.4545 118.309L19.3821 120.438L17.1873 122.41C16.755 122.355 16.3364 122.222 15.9521 122.018C15.5456 121.805 15.1803 121.521 14.8731 121.181C14.5364 120.813 14.2754 120.383 14.1051 119.914C13.9435 119.47 13.8688 118.999 13.885 118.527C13.9105 118.047 14.0311 117.577 14.24 117.144C14.4488 116.711 14.7417 116.323 15.1017 116.003C15.6312 115.512 16.2985 115.193 17.0147 115.089C17.7308 114.985 18.4617 115.102 19.1098 115.422C19.5597 115.639 19.9627 115.942 20.2963 116.313C20.8684 116.929 21.2137 117.721 21.2761 118.559L20.4223 118.681C20.3824 118.343 20.3029 118.011 20.1854 117.692C20.0679 117.388 19.8946 117.11 19.6745 116.87Z" fill="#939598"/>
<path d="M46.6197 136.9L46.0281 136.766L44.5946 133.112L43.3745 138.444L42.4805 138.242L44.0501 131.388L44.9089 131.583L46.5575 135.815L49.8833 132.712L50.7454 132.908L49.1741 139.762L48.2801 139.559L49.5018 134.225L46.6197 136.9Z" fill="#939598"/>
<path d="M52.188 133.005L53.1291 133.123L52.2637 140.096L51.3242 139.983L52.188 133.005Z" fill="#939598"/>
<path d="M54.7026 140.357L53.6641 140.316L56.2286 136.846L54.054 133.298L55.0925 133.34L56.8218 136.182L58.7881 133.496L59.825 133.539L57.3579 136.895L59.6183 140.565L58.5797 140.523L56.763 137.557L54.7026 140.357Z" fill="#939598"/>
<path d="M61.6266 133.371L60.6797 133.407L60.9479 140.429L61.8948 140.393L61.6266 133.371Z" fill="#939598"/>
<path d="M64.0407 140.364L63.1719 133.388L64.0777 133.28L68.2455 138.195L67.58 132.845L68.4892 132.732L69.3597 139.708L68.4539 139.82L64.2844 134.903L64.9516 140.254L64.0407 140.364Z" fill="#939598"/>
<path d="M73.0504 132.393C72.6973 132.476 72.3656 132.632 72.0763 132.85C71.7869 133.068 71.5464 133.344 71.3698 133.66C71.0076 134.305 70.9081 135.064 71.092 135.781C71.2759 136.497 71.7291 137.116 72.358 137.509C72.6662 137.702 73.0114 137.829 73.3716 137.882C73.7318 137.935 74.0992 137.913 74.4503 137.817C74.7147 137.747 74.9677 137.64 75.2015 137.499C75.4277 137.365 75.6308 137.195 75.8031 136.997L75.378 135.337L73.5075 135.815L73.3042 135.022L76.0905 134.311L76.8249 137.156C76.5756 137.512 76.2636 137.82 75.904 138.065C75.1045 138.607 74.1326 138.839 73.1731 138.714C72.6995 138.654 72.2425 138.501 71.8286 138.264C71.4223 138.027 71.0675 137.712 70.785 137.337C70.487 136.945 70.2704 136.498 70.1478 136.022C70.0252 135.545 69.999 135.05 70.0708 134.563C70.1385 134.098 70.2994 133.651 70.5439 133.248C70.7884 132.846 71.1116 132.496 71.4942 132.22C71.896 131.923 72.3529 131.708 72.8386 131.588C73.6516 131.369 74.5151 131.432 75.2872 131.767L75.0032 132.575C74.6835 132.454 74.3508 132.37 74.0117 132.326C73.6899 132.288 73.3638 132.311 73.0504 132.393Z" fill="#939598"/>
<path d="M99.6918 123.899C100.208 123.425 100.537 122.784 100.621 122.09L101.472 122.274C101.346 123.141 100.915 123.935 100.257 124.515C99.8885 124.853 99.4574 125.116 98.9877 125.288C98.5337 125.45 98.052 125.521 97.5703 125.498C97.0886 125.474 96.6164 125.356 96.1806 125.15C95.7449 124.944 95.3543 124.654 95.0311 124.298C94.7079 123.942 94.4585 123.525 94.2973 123.072C94.1368 122.632 94.0665 122.163 94.0905 121.695C94.1184 121.223 94.2388 120.762 94.4451 120.336C94.659 119.886 94.9606 119.482 95.3325 119.149C95.946 118.574 96.7378 118.224 97.5777 118.157L97.7088 119.005C97.3696 119.049 97.0365 119.131 96.7156 119.248C96.2267 119.445 95.8054 119.779 95.5025 120.209C95.1996 120.639 95.0279 121.147 95.0081 121.672C94.9929 122.411 95.2634 123.128 95.7639 123.674C96.2643 124.22 96.9563 124.554 97.697 124.607C98.0607 124.634 98.426 124.585 98.7696 124.463C99.1131 124.341 99.4272 124.149 99.6918 123.899Z" fill="#939598"/>
<path d="M99.0226 115.787C99.1728 115.312 99.4167 114.872 99.7402 114.492C100.06 114.108 100.452 113.791 100.895 113.558C101.311 113.334 101.768 113.195 102.239 113.148C102.709 113.103 103.182 113.152 103.632 113.292C104.103 113.439 104.54 113.677 104.918 113.993C105.295 114.309 105.607 114.697 105.834 115.133C106.054 115.55 106.186 116.008 106.224 116.478C106.262 116.948 106.204 117.42 106.054 117.867C105.741 118.823 105.07 119.622 104.18 120.097C103.765 120.322 103.308 120.462 102.837 120.508C102.366 120.553 101.89 120.503 101.439 120.361C100.974 120.227 100.54 120.001 100.164 119.697C99.7885 119.392 99.4782 119.015 99.2521 118.589C99.026 118.162 98.8887 117.694 98.8484 117.213C98.8081 116.733 98.8656 116.249 99.0176 115.79L99.0226 115.787ZM102.819 119.589C103.181 119.561 103.533 119.461 103.856 119.295C104.178 119.13 104.464 118.902 104.697 118.624C104.93 118.347 105.105 118.027 105.212 117.682C105.32 117.337 105.357 116.973 105.321 116.614C105.237 115.878 104.873 115.203 104.303 114.728C103.734 114.253 103.003 114.014 102.261 114.06C101.899 114.089 101.547 114.189 101.224 114.355C100.902 114.521 100.616 114.749 100.383 115.026C100.15 115.303 99.9745 115.624 99.867 115.969C99.7596 116.314 99.7222 116.677 99.757 117.037C99.8405 117.773 100.205 118.448 100.775 118.924C101.345 119.399 102.077 119.637 102.819 119.589Z" fill="#939598"/>
<path d="M103.72 109.657C103.89 108.664 104.439 107.776 105.251 107.178C105.632 106.896 106.065 106.692 106.525 106.577C106.983 106.467 107.458 106.449 107.924 106.522C108.412 106.594 108.88 106.765 109.3 107.024C109.721 107.28 110.086 107.617 110.374 108.017C110.65 108.4 110.847 108.834 110.952 109.294C111.058 109.754 111.069 110.23 110.987 110.694C110.817 111.685 110.269 112.572 109.458 113.17C109.077 113.451 108.644 113.656 108.184 113.772C107.471 113.937 106.725 113.888 106.04 113.631C105.355 113.373 104.763 112.919 104.337 112.326C104.061 111.947 103.863 111.517 103.756 111.061C103.652 110.6 103.64 110.123 103.72 109.657ZM108.033 112.87C108.386 112.789 108.72 112.639 109.014 112.428C109.309 112.217 109.558 111.95 109.749 111.643C109.939 111.335 110.066 110.993 110.122 110.637C110.178 110.28 110.163 109.915 110.076 109.565C109.886 108.849 109.427 108.234 108.794 107.845C108.161 107.457 107.402 107.326 106.675 107.479C106.322 107.56 105.988 107.711 105.693 107.921C105.399 108.132 105.149 108.399 104.959 108.706C104.769 109.014 104.642 109.356 104.586 109.713C104.53 110.07 104.545 110.434 104.631 110.785C104.821 111.501 105.28 112.117 105.913 112.505C106.546 112.893 107.305 113.024 108.033 112.87Z" fill="#939598"/>
<path d="M112.99 107.352L106.582 104.403L106.979 103.546L112.64 106.15L113.966 103.294L114.714 103.637L112.99 107.352Z" fill="#939598"/>
<path d="M108.933 98.9373L108.598 99.8203L115.201 102.304L115.536 101.421L108.933 98.9373Z" fill="#939598"/>
<path d="M116.269 99.5146L109.473 97.6117L109.721 96.7397L115.889 94.8134L110.676 93.354L110.923 92.4753L117.719 94.3766L117.47 95.2519L111.303 97.1782L116.518 98.6359L116.269 99.5146Z" fill="#939598"/>
<path d="M112.375 88.134C112.315 88.491 112.331 88.8566 112.421 89.2073C112.511 89.558 112.673 89.8861 112.898 90.1708C113.355 90.7552 114.02 91.1418 114.756 91.2502C115.492 91.3587 116.241 91.1807 116.849 90.7532C117.146 90.545 117.397 90.2774 117.585 89.9673C117.773 89.6573 117.895 89.3116 117.941 88.9524C117.982 88.6823 117.982 88.4075 117.941 88.1374C117.904 87.8762 117.824 87.6229 117.704 87.3876L116.003 87.1382L115.721 89.0411L114.903 88.9206L115.324 86.0755L118.247 86.5039C118.48 86.8696 118.645 87.2745 118.733 87.6989C118.927 88.6438 118.764 89.6268 118.277 90.4603C118.038 90.8688 117.721 91.227 117.345 91.5147C116.957 91.7996 116.516 92.0054 116.048 92.1202C115.58 92.2351 115.093 92.2568 114.617 92.1841C114.129 92.115 113.659 91.9482 113.237 91.6938C112.83 91.4528 112.477 91.1322 112.198 90.7514C111.919 90.3705 111.72 89.9373 111.614 89.4779C111.494 88.9939 111.472 88.4911 111.548 87.9984C111.663 87.1691 112.055 86.4025 112.661 85.8228L113.299 86.4002C113.063 86.6464 112.857 86.9188 112.683 87.2118C112.523 87.4975 112.419 87.8103 112.375 88.134Z" fill="#939598"/>
<path d="M68.3534 33.2546L67.2812 39.5642C71.2767 40.314 75.1316 41.6752 78.709 43.5992L81.8836 38.0328C77.6541 35.741 73.0879 34.1284 68.3534 33.2546Z" fill="#939598"/>
<path d="M37.2734 38.4043L40.5253 43.9273C44.0616 41.941 47.8853 40.5121 51.8607 39.6914L50.7011 33.3936C45.9887 34.3511 41.4573 36.0421 37.2734 38.4043Z" fill="#939598"/>
<path d="M53.5089 39.3817C57.5179 38.7261 61.6045 38.6916 65.624 39.2796L66.6946 32.9651C61.9354 32.2564 57.0938 32.2982 52.3477 33.0889L53.5089 39.3817Z" fill="#8DC63F"/>
<path d="M99.5564 78.9208C99.4596 85.5769 97.6757 92.1008 94.3701 97.8867C91.0645 103.673 86.3446 108.533 80.6484 112.016L83.902 117.539C90.5692 113.486 96.0927 107.811 99.9539 101.049C103.815 94.2864 105.887 86.6577 105.976 78.879L99.5564 78.9208Z" fill="#939598"/>
<path d="M79.1944 112.853C73.366 116.097 66.8083 117.819 60.1317 117.86C53.455 117.901 46.8766 116.258 41.0088 113.086L37.8359 118.649C44.683 122.379 52.3712 124.312 60.1757 124.264C67.9803 124.216 75.644 122.19 82.4446 118.376L79.1944 112.853Z" fill="#939598"/>
<path d="M39.5602 112.251C33.8394 108.842 29.0733 104.053 25.702 98.3249C22.3306 92.5973 20.4627 86.1161 20.2707 79.4798L13.8477 79.5267C14.0485 87.2852 16.221 94.8664 20.1621 101.562C24.1032 108.258 29.6843 113.849 36.3839 117.814L39.5602 112.251Z" fill="#8DC63F"/>
<path d="M61.6754 60.1045H58.1328V70.2784H61.6754V60.1045Z" fill="#24B6E0"/>
<path d="M63.4446 63.9287V66.4944C66.6495 67.3502 69.4328 69.3371 71.2759 72.085C73.119 74.8328 73.8962 78.1541 73.4628 81.4303C73.0294 84.7065 71.4149 87.714 68.92 89.8927C66.4252 92.0714 63.2201 93.2726 59.902 93.2726C56.5838 93.2726 53.3787 92.0714 50.8839 89.8927C48.389 87.714 46.7745 84.7065 46.3411 81.4303C45.9077 78.1541 46.6849 74.8328 48.528 72.085C50.3711 69.3371 53.1544 67.3502 56.3593 66.4944V63.9287C52.4746 64.7971 49.0479 67.0617 46.7353 70.2892C44.4226 73.5166 43.3864 77.4801 43.8251 81.4209C44.2637 85.3617 46.1464 89.003 49.1127 91.6477C52.079 94.2923 55.9206 95.7546 59.902 95.7546C63.8833 95.7546 67.7249 94.2923 70.6912 91.6477C73.6575 89.003 75.5402 85.3617 75.9788 81.4209C76.4175 77.4801 75.3813 73.5166 73.0687 70.2892C70.756 67.0617 67.3293 64.7971 63.4446 63.9287Z" fill="#24B6E0"/>
<path d="M37.2679 17.9479L37.5603 17.6031L37.6561 17.4809L37.8628 17.2165L37.9519 17.0943L38.1485 16.8165L38.2174 16.7094L38.4157 16.4015L38.4628 16.3178L38.6644 15.9831L38.6913 15.9295L38.8913 15.5429L38.9014 15.5245C39.4054 14.4993 39.7413 13.4003 39.8963 12.2693V12.2526C39.9181 12.0986 39.9366 11.9413 39.9501 11.784L39.9585 11.6718L39.9854 11.2903L39.9938 10.9405V10.7898V10.7145C39.9938 10.5472 39.9938 10.3798 39.982 10.2275L39.9736 10.1288C39.9635 9.97312 39.9534 9.81748 39.9366 9.6635V9.64007C39.6952 7.3033 38.6848 5.11154 37.0629 3.40587L36.6864 3.02429L36.3066 2.67785L36.0798 2.48539L35.9117 2.35149L35.5756 2.10213L35.5033 2.0469L35.1118 1.77912L35.0865 1.76071L34.6563 1.49461C34.3622 1.32725 34.0614 1.15989 33.7555 1.02098C33.606 0.950684 33.4564 0.885414 33.3035 0.821817L33.2799 0.811775L32.8464 0.644416L32.7926 0.626004L32.3792 0.490439L32.2951 0.463663L31.9069 0.356554L31.7893 0.324753L31.4246 0.242747L31.2734 0.209274L30.9288 0.150698L30.7608 0.120577L30.4247 0.0787338L30.2348 0.0553033L29.8768 0.0285275L29.7088 0.0168123C29.5289 0.00844421 29.3508 0.00341797 29.171 0.00341797C28.9912 0.00341797 28.8231 0.00341792 28.65 0.0151332L28.4147 0.0335456L28.1324 0.0519579L27.8349 0.0871036L27.6232 0.113879L27.3039 0.165758L27.1224 0.197559L26.7997 0.264505L26.6233 0.304668L26.3124 0.385002L26.1325 0.433536L25.8418 0.525585L25.6469 0.587513L25.3796 0.68458L25.1696 0.763241L24.9309 0.863654L24.7024 0.960727L24.489 1.06114L24.2486 1.17997L24.0554 1.28038L23.8033 1.41762L23.6268 1.52306L23.3731 1.67703L23.205 1.78916L22.958 1.95652L22.7798 2.08707L22.5546 2.25443L22.3412 2.42179L22.1731 2.56405L21.8118 2.8837L21.7984 2.89709L21.7849 2.90881L21.3984 3.28537L21.3598 3.32889C19.5572 5.19564 18.492 7.64772 18.36 10.2342V10.507L18.3516 10.7949V10.8116C18.3516 10.9656 18.3516 11.1179 18.3633 11.2702L18.3734 11.4375L18.3936 11.7354L18.3852 11.9346L18.4171 12.194L18.4474 12.4132L18.4877 12.6475C18.5146 12.8149 18.5465 12.9672 18.5818 13.1245L18.6154 13.2752L18.6877 13.558L18.728 13.7103L18.8137 13.9931L18.8574 14.1337L18.9582 14.4249L18.9952 14.527C19.1263 14.8735 19.2691 15.2098 19.4322 15.5312L19.4607 15.5898L19.6137 15.8826L19.6691 15.9847L19.8288 16.2625L19.8893 16.3613L20.0573 16.6408L20.101 16.7061L20.3363 17.0408L20.5262 17.3002L20.5396 17.3152L20.7766 17.6115L20.859 17.7119L21.1682 18.0617L21.1967 18.0935L21.2354 18.1336L21.585 18.4901L21.6455 18.547C23.5196 20.3457 25.9834 21.4091 28.5828 21.5411C28.7727 21.5512 28.9609 21.5562 29.1491 21.5562C29.3407 21.5562 29.534 21.5562 29.7256 21.5411C32.0062 21.4229 34.1901 20.5859 35.9621 19.1512L35.984 19.1345L36.3503 18.8215L36.4209 18.7596L36.7419 18.4566L36.8343 18.3663L37.2057 17.9747L37.2259 17.9529L37.2679 17.9479ZM37.3419 17.0257C37.1651 16.9009 36.9613 16.8195 36.7469 16.7881C36.4142 16.7898 36.0886 16.6918 35.8125 16.5069C35.6065 16.3637 35.3613 16.2872 35.1101 16.2877C34.8467 16.3486 34.6025 16.4733 34.3992 16.6508C34.2292 16.8091 34.0167 16.915 33.7875 16.9554C33.6799 16.9554 33.1842 17.0508 32.8228 17.1228C32.4903 17.1983 32.1536 17.2542 31.8145 17.2901C31.5991 17.2647 31.3885 17.2084 31.1893 17.1228C30.9923 17.0428 30.7864 16.9867 30.5759 16.9554H30.4247V13.3354H30.4684C31.155 13.41 31.8497 13.3404 32.5077 13.1312C33.1656 12.9219 33.7722 12.5775 34.2883 12.1204C34.6621 11.7789 34.9626 11.3656 35.1717 10.9054C35.3808 10.4452 35.4942 9.9476 35.505 9.44259C35.5546 8.74762 35.7022 8.06308 35.9436 7.40915C35.9783 7.31262 35.9892 7.20922 35.9755 7.10762C35.9617 7.00602 35.9237 6.90919 35.8646 6.82525C35.8055 6.74131 35.727 6.67271 35.6358 6.62521C35.5446 6.57771 35.4433 6.55269 35.3403 6.55226C34.1396 6.71818 32.996 7.16685 32.0043 7.86104C31.0126 8.55523 30.2015 9.47493 29.6382 10.5438C28.9211 9.7831 27.9885 9.25774 26.9644 9.03757C26.4787 8.91122 26.0103 8.72631 25.5695 8.48695C25.481 8.43242 25.3805 8.39999 25.2766 8.39241C25.1727 8.38484 25.0686 8.40234 24.973 8.44344C24.8777 8.48461 24.7941 8.54839 24.7293 8.62921C24.6646 8.71002 24.6207 8.80542 24.6015 8.90703C24.4261 9.71661 24.479 10.5587 24.7542 11.3403C25.0294 12.1218 25.5164 12.8123 26.1611 13.3354C26.5889 13.6372 27.084 13.8308 27.6038 13.8993C28.1235 13.9678 28.6522 13.9093 29.1441 13.7287V16.7964L29.0012 16.686C28.7631 16.516 28.4737 16.4321 28.1811 16.4483C27.8299 16.4365 27.4802 16.5004 27.156 16.6358C26.8618 16.8033 26.5375 16.9119 26.2014 16.9554C26.0105 16.9447 25.8206 16.9195 25.6334 16.8801L25.2973 16.8282L25.0116 16.8717C24.7911 16.9229 24.5658 16.9509 24.3394 16.9554C23.9834 16.8993 23.6413 16.7767 23.3311 16.5939C23.0878 16.4915 22.8254 16.4419 22.5614 16.4483C22.2538 16.5309 21.9579 16.6518 21.6807 16.8081C21.4809 16.9045 21.268 16.9716 21.0489 17.0073H20.9413C19.7759 15.4817 19.0619 13.6621 18.8799 11.7539C18.6979 9.84562 19.0551 7.92468 19.9112 6.20789C20.7674 4.49109 22.0883 3.0468 23.725 2.03801C25.3617 1.02923 27.249 0.49612 29.1738 0.498867C31.0986 0.501614 32.9843 1.0401 34.618 2.05356C36.2518 3.06701 37.5686 4.51508 38.4198 6.23431C39.271 7.95354 39.6227 9.87548 39.4352 11.7832C39.2477 13.6909 38.5284 15.5085 37.3587 17.0307L37.3419 17.0257ZM30.4852 12.0568C30.7569 10.7924 31.5199 9.68653 32.6077 8.98067C33.1654 8.5933 33.7716 8.28046 34.411 8.05014C34.3227 8.46547 34.2598 8.88577 34.2227 9.30869C34.2276 9.67174 34.1534 10.0315 34.0051 10.3632C33.8569 10.6949 33.6381 10.9906 33.364 11.23C32.9674 11.5582 32.5069 11.8011 32.0114 11.9434C31.516 12.0857 30.9963 12.1243 30.4852 12.0568ZM29.0853 12.3814C28.7484 12.5681 28.3666 12.6591 27.9814 12.6446C27.5962 12.6302 27.2224 12.5108 26.9005 12.2994C26.5584 12.0194 26.2818 11.6685 26.0899 11.271C25.8981 10.8735 25.7956 10.4392 25.7897 9.99822C26.0502 10.0936 26.314 10.1756 26.5745 10.256C27.8148 10.6392 28.813 10.9472 29.0836 12.3814H29.0853Z" fill="#939598"/>
<path d="M70.0077 14.7964L69.9002 14.7529L69.6229 14.6508H69.591L69.2868 14.552C69.7355 13.3755 69.9699 12.1286 69.9792 10.8701C69.9905 9.4527 69.7211 8.04698 69.1864 6.73334C68.6518 5.41969 67.8623 4.2239 66.8632 3.21433C65.8641 2.20477 64.675 1.40123 63.3639 0.849689C62.0527 0.298147 60.6452 0.00941382 59.2219 0H59.1413C56.2903 0.0240347 53.5637 1.1662 51.5528 3.17887C49.5418 5.19153 48.4085 7.91246 48.3985 10.7517C48.3886 13.591 49.5028 16.3197 51.4996 18.3463C53.4964 20.3729 56.2149 21.534 59.0656 21.5779H59.1429C60.6555 21.577 62.1512 21.2612 63.534 20.6507C64.9168 20.0403 66.1562 19.1487 67.1726 18.0332L67.3172 17.8524L67.4113 17.7319L67.2432 17.5863L67.2785 17.5461L67.1105 17.4758L67.0415 17.4173L67.0298 17.434L66.8701 17.347C66.7036 17.231 66.5118 17.1559 66.3105 17.1277C65.9986 17.1293 65.6932 17.0384 65.4333 16.8667C65.2388 16.7341 65.0085 16.6634 64.7728 16.6641C64.5243 16.7184 64.2933 16.8335 64.1006 16.9989C63.9391 17.1452 63.7392 17.2427 63.5241 17.28C63.4233 17.28 62.9578 17.3687 62.6183 17.434C62.3034 17.5037 61.9847 17.5551 61.6638 17.588C61.4622 17.5651 61.2648 17.5144 61.0773 17.4374C60.8926 17.3625 60.6996 17.3097 60.5025 17.28C60.4739 17.28 59.716 17.3001 59.4757 17.28C59.3041 17.2425 59.1467 17.1572 59.0219 17.034C58.7979 16.8757 58.5265 16.7978 58.2522 16.8131C57.923 16.8007 57.5949 16.8578 57.2893 16.9805C57.0119 17.1366 56.7064 17.2373 56.3902 17.2767C56.2124 17.2683 56.0355 17.247 55.8608 17.2131L55.5499 17.1646L55.281 17.203C55.0738 17.2518 54.862 17.2782 54.6491 17.2817C54.3168 17.229 53.9972 17.1155 53.7063 16.947C53.477 16.8521 53.2302 16.8065 52.982 16.8131C52.6939 16.8897 52.4167 17.0021 52.1569 17.1478C51.9685 17.2375 51.7681 17.2995 51.562 17.3319L51.167 17.347C49.9188 15.8403 49.1264 14.0111 48.8824 12.073C48.6384 10.1348 48.9528 8.16754 49.7888 6.40055C50.6249 4.63357 51.9482 3.13974 53.6044 2.09329C55.2607 1.04685 57.1815 0.490922 59.1429 0.490367H59.2219C60.5804 0.500001 61.9236 0.776066 63.1749 1.30279C64.4262 1.82952 65.561 2.59658 66.5145 3.56017C67.4681 4.52376 68.2217 5.66499 68.7322 6.91867C69.2428 8.17236 69.5003 9.51393 69.4901 10.8668C69.4819 12.0678 69.2594 13.2578 68.833 14.3813L68.5776 14.3044L68.5473 14.2642L68.27 14.1654L68.0381 14.1772L68.0062 14.4483C68.07 14.9069 68.1373 15.3638 68.1978 15.8223C68.2331 16.0985 68.3658 16.157 68.6061 15.9897C68.9271 15.7738 69.2515 15.5579 69.5725 15.3403L69.9825 15.0575L70.0077 14.7964Z" fill="#939598"/>
<path d="M58.7513 5.57481C58.753 5.45937 58.731 5.34479 58.6868 5.23805C58.6426 5.13132 58.5771 5.03464 58.4942 4.9539C58.4146 4.87777 58.3201 4.81874 58.2166 4.78045C58.1131 4.74216 58.0028 4.72544 57.8926 4.73131C57.7807 4.73496 57.6708 4.76132 57.5695 4.80878C57.4682 4.85625 57.3778 4.92382 57.3036 5.00734C57.2295 5.09087 57.1733 5.18859 57.1385 5.29452C57.1036 5.40044 57.0909 5.51234 57.101 5.62335V7.5095C57.101 8.73682 57.101 9.95967 57.101 11.1781C57.0963 11.2707 57.1199 11.3626 57.1688 11.4415C57.2178 11.5204 57.2897 11.5826 57.375 11.6199C58.6253 12.2592 59.8728 12.9002 61.1176 13.5429L62.4485 14.229L62.6586 14.3211L62.9225 14.3629L63.3191 14.2625C63.419 14.2074 63.5062 14.1323 63.5754 14.0418C63.6445 13.9513 63.694 13.8475 63.7207 13.737C63.7707 13.5431 63.7469 13.3377 63.6538 13.1603C63.5607 12.9829 63.4049 12.8462 63.2166 12.7764L62.9275 12.6274C61.5405 11.9111 60.1524 11.197 58.7631 10.4852L58.7446 10.4735V10.4534C58.7446 9.8442 58.7446 9.23667 58.7446 8.62747V7.28859C58.753 6.71454 58.753 6.14551 58.7513 5.57481Z" fill="#939598"/>
<path d="M96.8033 3.02419C94.9118 1.21065 92.4233 0.142966 89.8006 0.0196941C87.1779 -0.103578 84.5995 0.725954 82.5449 2.35402C80.4904 3.98209 79.0995 6.29788 78.6309 8.87069C78.1624 11.4435 78.6481 14.0982 79.9977 16.3411L80.0112 16.3595C80.7275 17.5483 81.67 18.5864 82.7858 19.4155L82.8581 19.4691L83.1471 19.6766C84.1493 20.3729 85.2656 20.8899 86.446 21.2046C86.6141 21.2481 86.7821 21.29 86.9586 21.3268L87.0561 21.3469L87.5065 21.4322L87.7014 21.459L88.0795 21.5109L88.3921 21.5377L88.6694 21.5594C88.8744 21.5695 89.0778 21.5762 89.2811 21.5762C89.4576 21.5762 89.6357 21.5762 89.8105 21.5628H89.9147L90.3466 21.5276L90.5785 21.5025L90.634 21.4942C92.6617 21.2403 94.576 20.4204 96.1556 19.129C97.7353 17.8376 98.9158 16.1275 99.5608 14.1962C100.206 12.265 100.289 10.1914 99.8007 8.21509C99.3125 6.23876 98.2728 4.44032 96.8016 3.02754L96.8033 3.02419ZM78.9575 10.7897C78.9584 8.77248 79.5553 6.80006 80.6738 5.11823C81.7924 3.43639 83.3831 2.11949 85.2478 1.33157C87.1126 0.543651 89.1689 0.319552 91.1606 0.687194C93.1523 1.05484 94.9914 1.99797 96.4487 3.39909C98.2077 5.08802 99.3081 7.34352 99.5543 9.76445C99.8005 12.1854 99.1764 14.6148 97.7931 16.6206C97.6234 16.6688 97.4453 16.6808 97.2705 16.6557C97.0241 16.523 96.7541 16.4394 96.4756 16.4097C95.9337 16.4009 95.397 16.3025 94.8875 16.1185C94.6792 15.9696 94.4339 15.8804 94.1783 15.8608L94.0808 15.9562L93.8909 16.1604L93.8791 16.1704C93.175 16.8649 92.6338 17.4106 92.1095 17.9394C91.5852 18.4683 91.0625 18.9971 90.3701 19.6816L90.3399 19.7101L90.2777 19.7653L90.2458 19.7938L90.1853 19.844L90.1449 19.8741L90.0811 19.9193L90.029 19.9511L89.9601 19.9913L89.8929 20.0247L89.8189 20.0582L89.7416 20.085L89.6609 20.1118L89.5769 20.1302L89.4727 20.1486H89.3937H89.3097H89.2845L89.1551 20.1385C88.941 20.1211 88.7337 20.0559 88.5484 19.9477L88.2442 19.7101C87.7064 19.1578 87.0678 18.5034 86.441 17.8423L86.3032 17.7051L86.2679 17.6767L86.2393 17.6449L86.1704 17.5746L86.0864 17.4842C85.9749 17.3817 85.8904 17.2534 85.8406 17.1106C85.7908 16.9679 85.7771 16.8151 85.8007 16.6658L85.841 16.393L85.6242 16.316L85.2764 16.2624L84.9755 16.306C84.744 16.3594 84.5074 16.3886 84.2697 16.393C83.8971 16.3344 83.5386 16.2073 83.2126 16.0181C82.9556 15.9119 82.6791 15.8606 82.4009 15.8675C82.0781 15.9537 81.7671 16.0791 81.4749 16.2407C81.2623 16.3422 81.0358 16.4122 80.8027 16.4482H80.6767C79.5578 14.7713 78.9598 12.8032 78.9575 10.7897Z" fill="#939598"/>
<path d="M95.8788 9.00903H94.8906V12.5387H95.8788V9.00903Z" fill="#939598"/>
<path d="M89.4843 10.763C89.4843 10.1487 89.7834 9.79562 90.301 9.79562C90.7665 9.79562 91.0119 10.0969 91.0119 10.6692V12.5336H92V10.763C92 10.1487 92.3009 9.79562 92.8235 9.79562C93.2823 9.79562 93.5344 10.1052 93.5344 10.6692V12.5336H94.5226V10.5086C94.5514 10.3075 94.5349 10.1025 94.4743 9.90854C94.4136 9.71458 94.3103 9.53652 94.1719 9.3873C94.0335 9.23807 93.8635 9.12144 93.6741 9.04588C93.4848 8.97031 93.2809 8.93771 93.0773 8.95044C92.8347 8.94356 92.5938 8.99183 92.3727 9.09159C92.1517 9.19135 91.9564 9.33998 91.8017 9.52617L91.7782 9.55797L91.7564 9.5245C91.6292 9.33737 91.4556 9.18617 91.2524 9.08559C91.0492 8.985 90.8234 8.93845 90.5968 8.95044C90.3895 8.94211 90.1828 8.97864 89.991 9.05752C89.7993 9.13639 89.6269 9.25575 89.4859 9.40734L89.4372 9.46257V9.004H88.4961V12.5336H89.4843V10.763Z" fill="#939598"/>
<path d="M95.3847 8.62916C95.4824 8.62916 95.5779 8.6003 95.6592 8.54624C95.7404 8.49217 95.8038 8.41533 95.8412 8.32542C95.8786 8.23551 95.8884 8.13658 95.8693 8.04113C95.8502 7.94568 95.8032 7.85801 95.7341 7.78919C95.665 7.72038 95.5769 7.67352 95.4811 7.65453C95.3853 7.63555 95.2859 7.64529 95.1956 7.68254C95.1054 7.71978 95.0282 7.78284 94.9739 7.86375C94.9196 7.94467 94.8906 8.0398 94.8906 8.13712C94.8904 8.2018 94.903 8.26588 94.9278 8.32568C94.9525 8.38548 94.9889 8.4398 95.0348 8.48554C95.0808 8.53127 95.1353 8.56751 95.1954 8.59216C95.2554 8.61681 95.3198 8.62938 95.3847 8.62916Z" fill="#939598"/>
<path d="M83.8225 12.6291C84.1175 12.6291 84.4073 12.5517 84.6627 12.4048L84.5653 12.3195C84.3523 12.1232 84.1843 11.8834 84.0729 11.6166L83.8191 11.6634C83.6761 11.6765 83.5335 11.6345 83.4207 11.5461C83.3078 11.4577 83.2333 11.3296 83.2124 11.1881V7.65009H82.2461V11.235C82.2775 11.625 82.459 11.9879 82.7528 12.2477C83.0466 12.5075 83.4298 12.6442 83.8225 12.6291Z" fill="#939598"/>
<path d="M86.195 12.5923C86.551 12.5684 86.8922 12.4415 87.1767 12.2271C87.4612 12.0127 87.6766 11.7202 87.7963 11.3855C87.916 11.0508 87.9349 10.6885 87.8506 10.3433C87.7664 9.99803 87.5826 9.68484 87.3219 9.44224C87.0613 9.19963 86.7351 9.0382 86.3835 8.97778C86.0319 8.91736 85.6703 8.9606 85.3431 9.10218C85.0158 9.24375 84.7373 9.47749 84.5417 9.77465C84.3461 10.0718 84.242 10.4194 84.2422 10.7747C84.2418 11.0244 84.2931 11.2715 84.3928 11.5006C84.4925 11.7298 84.6384 11.936 84.8216 12.1065C85.0048 12.277 85.2213 12.4081 85.4576 12.4917C85.6938 12.5752 85.9449 12.6095 86.195 12.5923ZM86.195 9.74712C86.4007 9.73199 86.6062 9.77891 86.7848 9.88176C86.9633 9.98461 87.1066 10.1386 87.196 10.3237C87.2854 10.5089 87.3167 10.7165 87.2859 10.9196C87.2551 11.1227 87.1636 11.3119 87.0233 11.4624C86.883 11.613 86.7005 11.718 86.4994 11.7638C86.2983 11.8096 86.088 11.7939 85.896 11.719C85.704 11.6441 85.539 11.5133 85.4227 11.3436C85.3064 11.174 85.244 10.9734 85.2438 10.768C85.2327 10.638 85.2492 10.507 85.2922 10.3837C85.3352 10.2604 85.4038 10.1475 85.4935 10.0523C85.5833 9.95713 85.6921 9.88181 85.8129 9.83125C85.9338 9.78069 86.0639 9.75602 86.195 9.75884V9.74712Z" fill="#939598"/>
<path d="M87.0012 16.398C86.6164 16.6022 86.2467 16.711 86.5576 17.0373L86.7105 17.2047C86.7809 17.2655 86.8477 17.3303 86.9105 17.3988C87.5065 18.0225 88.1065 18.644 88.7104 19.2633L88.8784 19.3921L89.2028 19.4925L89.2885 19.5009H89.3036H89.3423H89.3809H89.428L89.4717 19.4658L89.5154 19.4524L89.5506 19.4407L89.5943 19.4206L89.628 19.4038L89.67 19.3787L89.7019 19.3603L89.7439 19.3285L89.7725 19.3084L89.8162 19.2716L89.8414 19.2515L89.8868 19.208L89.9086 19.1879C91.3035 17.8122 92.0211 17.0541 93.4176 15.6734L93.5672 15.516C93.9436 15.0457 93.1151 14.9001 92.5219 14.793C92.3805 14.7713 92.236 14.7859 92.1019 14.8354C91.9677 14.8849 91.8485 14.9677 91.7555 15.0759C90.5691 16.2474 90.6363 16.2474 89.4481 17.4189L89.4229 17.444L89.3826 17.4825L89.3675 17.4959L89.3423 17.5177L89.3238 17.5294L89.307 17.5378L89.2767 17.5461H89.2566H89.2414L89.2179 17.5294L89.2045 17.5194L89.1725 17.4892L89.1608 17.4758L89.1356 17.4574L89.0986 17.4189C88.6986 16.9989 88.5238 16.8549 88.1171 16.4399C87.7911 16.1185 87.4785 16.147 87.0012 16.398Z" fill="#939598"/>
</svg>
