<svg width="119" height="141" viewBox="0 0 119 141" fill="none" xmlns="http://www.w3.org/2000/svg">
<path d="M98.6506 76.9209C98.467 70.2691 96.5992 63.7713 93.2206 58.0304C89.842 52.2894 85.062 47.4913 79.3242 44.0813L82.5038 38.5182C89.2218 42.485 94.8176 48.0864 98.7663 54.7969C102.715 61.5074 104.887 69.1069 105.079 76.8824L98.6506 76.9209Z" fill="#E6E7E8"/>
<path d="M38.1532 44.4477C32.4842 47.9406 27.7902 52.7996 24.5046 58.576C21.2191 64.3524 19.4478 70.8601 19.3545 77.4982L12.9297 77.5467C13.0157 69.7858 15.0759 62.1732 18.9176 55.4202C22.7594 48.6673 28.2574 42.9944 34.8979 38.9315L38.1532 44.4477Z" fill="#E6E7E8"/>
<path d="M6.90876 89.1583L7.41293 91.4897C7.53278 91.9381 7.55883 92.4063 7.48945 92.8652C7.42007 93.3241 7.25674 93.764 7.00959 94.1574C6.43125 94.8996 5.60818 95.4145 4.68569 95.611C3.76321 95.8076 2.80064 95.6733 1.96793 95.2318C1.58074 94.9737 1.251 94.6391 0.999189 94.2486C0.747378 93.8582 0.578883 93.4204 0.504165 92.9624L0 90.6294L6.90876 89.1583ZM6.59113 91.6687L6.28863 90.2596L1.02177 91.3809L1.32595 92.7917C1.38101 93.1222 1.50389 93.4378 1.68693 93.7188C1.86996 93.9999 2.10921 94.2403 2.38974 94.4252C3.04069 94.7379 3.7778 94.8254 4.48434 94.6739C5.19087 94.5223 5.82642 94.1403 6.29032 93.5884C6.47026 93.3062 6.58983 92.99 6.64159 92.6598C6.69335 92.3295 6.67617 91.9921 6.59113 91.6687Z" fill="#939598"/>
<path d="M4.86525 98.8653L4.55939 97.9716L2.03855 98.8268L1.73438 97.9314L8.41458 95.667L9.14226 97.7908C9.38169 98.3882 9.38169 99.0544 9.14226 99.6519C9.02011 99.9232 8.84024 100.165 8.61507 100.36C8.3899 100.556 8.12482 100.7 7.83815 100.783C7.35739 100.961 6.82826 100.961 6.3475 100.783C5.87106 100.589 5.47883 100.233 5.24001 99.7791L3.2788 102.457L2.9427 101.468L4.86525 98.8653ZM6.45169 99.8242C6.79251 99.9764 7.17858 99.9944 7.53217 99.8746C7.88577 99.7547 8.18065 99.5059 8.35744 99.1782C8.50833 98.8074 8.50833 98.3926 8.35744 98.0218L7.94738 96.8251L5.34085 97.7071L5.7509 98.9054C5.85679 99.2898 6.10792 99.6185 6.45169 99.8226V99.8242Z" fill="#939598"/>
<path d="M10.3676 101.108L8.26686 104.256L12.038 104.688L12.4682 105.612L7.62488 105.073L5.00153 106.286L4.60156 105.431L7.22659 104.217L9.93565 100.184L10.3676 101.108Z" fill="#939598"/>
<path d="M12.9506 106.314L6.8125 109.784L7.28045 110.605L13.4185 107.134L12.9506 106.314Z" fill="#939598"/>
<path d="M8.30859 112.421L14.1183 108.428L14.6376 109.178L12.1856 115.133L16.6408 112.068L17.1618 112.821L11.3538 116.815L10.8361 116.067L13.2864 110.11L8.82956 113.175L8.30859 112.421Z" fill="#939598"/>
<path d="M19.5954 116.721C19.3578 116.446 19.0653 116.224 18.7366 116.069C18.4079 115.913 18.0502 115.827 17.6863 115.817C16.9433 115.794 16.2199 116.057 15.6661 116.551C15.1122 117.045 14.7705 117.732 14.7117 118.47C14.6828 118.831 14.7294 119.194 14.8486 119.536C14.9678 119.879 15.1569 120.192 15.4041 120.458C15.5882 120.66 15.8011 120.835 16.036 120.975C16.2617 121.113 16.5087 121.213 16.7671 121.271L18.0476 120.13L16.7587 118.697L17.3721 118.152L19.2929 120.286L17.0914 122.251C16.6596 122.196 16.2415 122.062 15.8579 121.857C15.0051 121.401 14.3502 120.649 14.0177 119.743C13.8525 119.302 13.7787 118.831 13.8007 118.361C13.8226 117.89 13.9399 117.428 14.1454 117.004C14.3577 116.56 14.6563 116.164 15.0238 115.836C15.3913 115.509 15.8205 115.257 16.2864 115.096C16.732 114.938 17.2052 114.871 17.6775 114.9C18.1497 114.928 18.6112 115.052 19.0341 115.263C19.4817 115.482 19.8814 115.786 20.2105 116.159C20.7803 116.775 21.1228 117.567 21.1819 118.403L20.3298 118.525C20.2897 118.187 20.2107 117.855 20.0946 117.534C19.9811 117.234 19.8118 116.958 19.5954 116.721Z" fill="#939598"/>
<path d="M46.4707 136.833L45.8808 136.697L44.4591 133.04L43.2205 138.368L42.3281 138.162L43.9179 131.313L44.7784 131.511L46.4119 135.748L49.7478 132.655L50.6082 132.853L49.0184 139.703L48.1244 139.497L49.3612 134.168L46.4707 136.833Z" fill="#939598"/>
<path d="M52.0441 132.957L51.1641 139.931L52.1045 140.049L52.9845 133.074L52.0441 132.957Z" fill="#939598"/>
<path d="M54.5369 140.316L53.5 140.269L56.0746 136.808L53.9117 133.251L54.9486 133.298L56.6712 136.147L58.6459 133.465L59.6828 133.512L57.204 136.858L59.4525 140.538L58.4139 140.493L56.609 137.519L54.5369 140.316Z" fill="#939598"/>
<path d="M61.5879 133.391L60.6406 133.422L60.8729 140.447L61.8202 140.416L61.5879 133.391Z" fill="#939598"/>
<path d="M63.876 140.351L63.0273 133.372L63.9348 133.261L68.0892 138.193L67.4371 132.84L68.348 132.731L69.1966 139.71L68.2908 139.818L64.1365 134.888L64.7869 140.24L63.876 140.351Z" fill="#939598"/>
<path d="M72.9141 132.404C72.5594 132.487 72.2259 132.642 71.9348 132.859C71.6437 133.077 71.4014 133.353 71.2234 133.67C70.8587 134.314 70.7571 135.073 70.9395 135.79C71.1219 136.506 71.5744 137.126 72.2032 137.519C72.5102 137.713 72.8545 137.842 73.2142 137.896C73.5739 137.951 73.941 137.93 74.2921 137.835C74.5567 137.766 74.8097 137.659 75.0433 137.517C75.2713 137.384 75.4757 137.214 75.6483 137.015L75.2265 135.355L73.3544 135.829L73.1544 135.034L75.9441 134.331L76.6684 137.176C76.4198 137.532 76.1069 137.839 75.7458 138.081C75.3662 138.34 74.9434 138.529 74.4971 138.64C74.0127 138.764 73.5086 138.793 73.0132 138.724C72.5436 138.664 72.091 138.511 71.6824 138.272C71.2738 138.034 70.9176 137.717 70.6352 137.338C70.3397 136.945 70.1253 136.497 70.0045 136.021C69.8836 135.545 69.8587 135.049 69.9311 134.563C70.0009 134.099 70.162 133.652 70.405 133.25C70.6539 132.848 70.9787 132.499 71.3612 132.22C71.7636 131.925 72.2204 131.711 72.7057 131.591C73.5196 131.376 74.3829 131.442 75.1542 131.778L74.8652 132.585C74.5459 132.464 74.2139 132.379 73.8753 132.332C73.5532 132.296 73.2272 132.321 72.9141 132.404Z" fill="#939598"/>
<path d="M99.588 123.986C100.106 123.514 100.436 122.873 100.521 122.179L101.373 122.366C101.245 123.233 100.812 124.026 100.151 124.604C99.782 124.94 99.3503 125.201 98.8804 125.372C98.4353 125.537 97.9619 125.613 97.4873 125.596C97.0163 125.575 96.5542 125.462 96.1277 125.261C95.6855 125.066 95.2874 124.783 94.9572 124.43C94.627 124.078 94.3715 123.663 94.2059 123.21C94.0402 122.757 93.9679 122.275 93.9932 121.794C94.0185 121.313 94.1409 120.841 94.353 120.408C94.5684 119.958 94.8704 119.555 95.2421 119.221C95.859 118.65 96.6523 118.304 97.4923 118.239L97.6184 119.088C97.2792 119.129 96.946 119.21 96.6251 119.327C96.1356 119.523 95.7134 119.856 95.4093 120.285C95.1052 120.714 94.9322 121.222 94.911 121.747C94.8932 122.488 95.1626 123.207 95.6634 123.755C96.1642 124.303 96.8577 124.637 97.5999 124.689C97.962 124.715 98.3257 124.666 98.6679 124.545C99.0101 124.424 99.3234 124.234 99.588 123.986Z" fill="#939598"/>
<path d="M98.9427 115.876C99.2571 114.92 99.932 114.123 100.825 113.653C101.254 113.434 101.722 113.3 102.202 113.261C102.683 113.222 103.166 113.278 103.625 113.425C104.084 113.573 104.509 113.809 104.876 114.12C105.243 114.432 105.545 114.812 105.764 115.24C105.981 115.656 106.111 116.111 106.149 116.579C106.185 117.05 106.128 117.524 105.981 117.973C105.665 118.927 104.991 119.724 104.1 120.195C103.683 120.417 103.226 120.555 102.756 120.602C102.287 120.644 101.814 120.594 101.364 120.453C100.894 120.305 100.458 120.067 100.081 119.751C99.7039 119.435 99.393 119.048 99.1662 118.612C98.9504 118.196 98.8197 117.74 98.7814 117.273C98.743 116.801 98.7979 116.327 98.9427 115.876ZM102.731 119.69C103.092 119.663 103.445 119.564 103.768 119.399C104.091 119.235 104.378 119.007 104.612 118.731C104.845 118.455 105.021 118.135 105.13 117.79C105.238 117.445 105.276 117.082 105.241 116.723C105.16 115.987 104.798 115.31 104.23 114.833C103.661 114.356 102.93 114.115 102.188 114.16C101.826 114.188 101.473 114.287 101.15 114.452C100.827 114.617 100.541 114.844 100.307 115.12C100.073 115.397 99.8971 115.717 99.789 116.062C99.6808 116.407 99.6428 116.77 99.6771 117.129C99.7578 117.865 100.12 118.542 100.689 119.019C101.257 119.496 101.989 119.736 102.731 119.69Z" fill="#939598"/>
<path d="M103.659 109.757C103.743 109.267 103.923 108.797 104.188 108.375C104.449 107.95 104.792 107.581 105.197 107.289C105.579 107.008 106.013 106.804 106.474 106.689C106.932 106.581 107.407 106.563 107.872 106.638C108.359 106.717 108.825 106.89 109.244 107.149C109.664 107.407 110.028 107.745 110.316 108.144C110.593 108.526 110.79 108.961 110.894 109.421C110.998 109.881 111.008 110.358 110.922 110.822C110.84 111.313 110.661 111.784 110.395 112.206C110.133 112.631 109.791 113 109.386 113.294C108.994 113.573 108.55 113.772 108.08 113.88C107.611 113.988 107.124 114.003 106.649 113.923C106.173 113.843 105.718 113.671 105.31 113.415C104.901 113.16 104.548 112.827 104.269 112.435C103.994 112.054 103.798 111.621 103.693 111.163C103.589 110.701 103.578 110.224 103.659 109.757ZM107.961 112.987C108.315 112.908 108.65 112.759 108.945 112.549C109.241 112.34 109.492 112.073 109.683 111.766C109.874 111.459 110.002 111.117 110.059 110.76C110.116 110.403 110.101 110.038 110.015 109.687C109.827 108.971 109.37 108.353 108.738 107.964C108.106 107.574 107.348 107.441 106.62 107.593C106.266 107.673 105.932 107.823 105.637 108.033C105.342 108.242 105.091 108.509 104.9 108.816C104.71 109.123 104.582 109.465 104.525 109.821C104.468 110.178 104.482 110.543 104.568 110.894C104.756 111.61 105.212 112.226 105.844 112.616C106.476 113.006 107.234 113.139 107.961 112.987Z" fill="#939598"/>
<path d="M112.937 107.484L106.539 104.519L106.937 103.662L112.592 106.283L113.927 103.429L114.67 103.776L112.937 107.484Z" fill="#939598"/>
<path d="M108.905 99.0582L108.566 99.9399L115.16 102.449L115.498 101.568L108.905 99.0582Z" fill="#939598"/>
<path d="M116.25 99.6183L109.461 97.7004L109.71 96.8284L115.881 94.9171L110.673 93.446L110.923 92.5674L117.714 94.4837L117.464 95.359L111.293 97.2686L116.501 98.7397L116.25 99.6183Z" fill="#939598"/>
<path d="M112.386 88.2311C112.326 88.5882 112.341 88.9539 112.43 89.3049C112.519 89.6559 112.681 89.9845 112.906 90.2696C113.361 90.8548 114.026 91.2426 114.761 91.3523C115.496 91.462 116.246 91.2853 116.853 90.8587C117.151 90.6509 117.403 90.3837 117.592 90.074C117.781 89.7643 117.903 89.4188 117.951 89.0596C117.991 88.7905 117.991 88.5169 117.951 88.2479C117.914 87.9868 117.835 87.7334 117.715 87.4981L116.015 87.2437L115.727 89.1449L114.916 89.0244L115.342 86.1877L118.263 86.6245C118.493 86.9907 118.654 87.3957 118.737 87.8194C118.93 88.7644 118.766 89.7472 118.277 90.5792C118.036 90.9866 117.718 91.3436 117.341 91.6302C116.963 91.91 116.533 92.1131 116.077 92.2277C115.598 92.3467 115.101 92.3706 114.613 92.2979C114.125 92.2253 113.656 92.0575 113.233 91.8043C112.828 91.5611 112.477 91.2394 112.199 90.8582C111.921 90.4769 111.723 90.044 111.617 89.5851C111.498 89.1009 111.476 88.5981 111.553 88.1056C111.669 87.2758 112.063 86.5092 112.67 85.9299L113.309 86.5073C113.072 86.7527 112.865 87.0252 112.692 87.319C112.533 87.6009 112.429 87.9105 112.386 88.2311Z" fill="#939598"/>
<path d="M67.4572 32.9049L66.3867 39.2161C70.3824 39.9645 74.2374 41.3251 77.8145 43.2495L80.9908 37.6831C76.76 35.3915 72.1926 33.779 67.4572 32.9049Z" fill="#939598"/>
<path d="M36.375 38.0562L39.6269 43.5792C43.1633 41.5934 46.987 40.1645 50.9622 39.3432L49.801 33.0471C45.0892 34.0039 40.5582 35.6944 36.375 38.0562Z" fill="#939598"/>
<path d="M52.6127 39.0387C56.6217 38.383 60.7083 38.3486 64.7278 38.9366L65.7984 32.6221C61.0397 31.9134 56.1987 31.9552 51.4531 32.7459L52.6127 39.0387Z" fill="#8DC63F"/>
<path d="M98.6473 78.5727C98.5509 85.227 96.7678 91.7491 93.4634 97.5336C90.159 103.318 85.4405 108.177 79.7461 111.66L83.0013 117.183C89.6683 113.129 95.1916 107.455 99.0528 100.692C102.914 93.9297 104.986 86.3011 105.075 78.5225L98.6473 78.5727Z" fill="#939598"/>
<path d="M78.2982 112.505C72.4698 115.749 65.9121 117.471 59.2354 117.512C52.5588 117.553 45.9804 115.91 40.1126 112.738L36.9414 118.301C43.7893 122.029 51.4775 123.96 59.2818 123.911C67.0862 123.863 74.7496 121.836 81.5501 118.023L78.2982 112.505Z" fill="#939598"/>
<path d="M38.6561 111.903C32.9361 108.493 28.1708 103.704 24.8001 97.9762C21.4293 92.2486 19.5619 85.7677 19.3701 79.1317L12.9453 79.1769C13.1461 86.9359 15.3186 94.5176 19.2601 101.213C23.2015 107.909 28.783 113.501 35.4832 117.466L38.6561 111.903Z" fill="#939598"/>
<path d="M60.777 59.7546H57.2344V69.9285H60.777V59.7546Z" fill="#24B6E0"/>
<path d="M62.5478 63.5804V66.1478C65.7528 67.0036 68.536 68.9905 70.3791 71.7384C72.2222 74.4862 72.9995 77.8076 72.566 81.0837C72.1326 84.3599 70.5181 87.3674 68.0233 89.5461C65.5284 91.7248 62.3234 92.926 59.0052 92.926C55.687 92.926 52.482 91.7248 49.9871 89.5461C47.4923 87.3674 45.8778 84.3599 45.4443 81.0837C45.0109 77.8076 45.7882 74.4862 47.6312 71.7384C49.4743 68.9905 52.2576 67.0036 55.4626 66.1478V63.5804C51.5774 64.4488 48.1503 66.7137 45.8373 69.9414C43.5243 73.1692 42.488 77.1331 42.9266 81.0744C43.3653 85.0156 45.2482 88.6573 48.2148 91.3023C51.1814 93.9473 55.0234 95.4098 59.0052 95.4098C62.987 95.4098 66.829 93.9473 69.7956 91.3023C72.7622 88.6573 74.6451 85.0156 75.0837 81.0744C75.5224 77.1331 74.4861 73.1692 72.1731 69.9414C69.8601 66.7137 66.433 64.4488 62.5478 63.5804Z" fill="#24B6E0"/>
<path d="M37.2902 17.9479L37.5826 17.6031L37.6784 17.4826L37.8851 17.2165L37.9742 17.0927L38.1708 16.8148L38.2397 16.7094L38.438 16.4015L38.4868 16.3178L38.6868 15.973L38.7136 15.9228L38.9153 15.5362L38.9237 15.5161C39.4258 14.4934 39.7605 13.3973 39.9152 12.2693V12.2543C39.9354 12.0986 39.9539 11.9413 39.969 11.7823V11.6718L39.9959 11.2886L40.0043 10.9405V10.7898V10.7145C40.0043 10.5472 40.0043 10.3798 39.9909 10.2275V10.1288C39.9825 9.97312 39.9707 9.81915 39.9539 9.6635V9.64007C39.7119 7.30377 38.7023 5.11234 37.0818 3.40587L36.7037 3.02429L36.3239 2.67785L36.097 2.48706L35.929 2.35317L35.5928 2.10045L35.5206 2.0469L35.129 1.77912L35.1038 1.76071L34.6736 1.49461C34.3812 1.32167 34.0809 1.16379 33.7728 1.02097L33.3241 0.823487L33.2989 0.813448L32.8636 0.646086L32.8132 0.626001L32.3998 0.490439L32.3141 0.463664L31.9259 0.356551L31.8082 0.324754L31.4436 0.242747L31.2923 0.209274L30.9562 0.149022L30.7781 0.120573L30.4419 0.0787306L30.252 0.056976L29.8941 0.030197L29.726 0.0168091C29.5479 0.0168091 29.3681 0.00341797 29.1883 0.00341797C29.0084 0.00341797 28.8404 0.00342019 28.6673 0.0168091L28.432 0.0335456L28.153 0.0536275L27.8556 0.0871004L27.6438 0.113876L27.3245 0.165758L27.1413 0.197559L26.8203 0.266177L26.6439 0.304668L26.333 0.386675L26.1515 0.433536L25.8607 0.525585L25.6675 0.58751L25.4003 0.686253L25.1902 0.761566L24.9516 0.863654L24.7247 0.960724L24.5113 1.06114L24.2676 1.1783L24.076 1.28038L23.8239 1.41762L23.6475 1.52306L23.3937 1.67536L23.2256 1.78916L22.9786 1.95652L22.7988 2.09041L22.5753 2.25777L22.3601 2.42513L22.1921 2.56572L21.8308 2.88538L21.8156 2.89877L21.8039 2.91048L21.419 3.28704L21.377 3.33223C19.5747 5.19898 18.51 7.65118 18.3789 10.2376V10.5087V10.7965V10.8133C18.3789 10.9672 18.3789 11.1195 18.3907 11.2718L18.4008 11.4392L18.4209 11.7371L18.4428 11.9413L18.473 12.2007L18.5033 12.4199L18.5436 12.6542C18.5705 12.8216 18.6024 12.9739 18.6377 13.1312L18.6713 13.2819L18.7436 13.5647L18.7856 13.7187L18.8696 14.0015L18.915 14.1421L19.0125 14.4299L19.0528 14.5337C19.1798 14.8759 19.3251 15.2111 19.4881 15.5379L19.5166 15.5981L19.6696 15.8877L19.725 15.9914L19.8847 16.2692L19.9452 16.3697L20.1132 16.6492L20.1569 16.7128L20.3922 17.0475L20.5838 17.3069L20.5956 17.3219L20.8325 17.6165L20.9149 17.7186L21.2241 18.0684L21.251 18.1002L21.2913 18.1403L21.6409 18.4985L21.703 18.5537C23.5763 20.3527 26.0397 21.4161 28.6387 21.5478C28.8269 21.5579 29.0168 21.5629 29.2051 21.5629C29.3983 21.5629 29.5899 21.5629 29.7815 21.5478C32.062 21.4287 34.2457 20.5919 36.018 19.1579L36.0399 19.1412L36.4062 18.8282L36.4768 18.7663L36.7961 18.4633L36.8919 18.373L37.2633 17.9797L37.2818 17.9613L37.2902 17.9479ZM37.3642 17.0257C37.1876 16.9006 36.9837 16.8192 36.7692 16.7881C36.4365 16.7898 36.1109 16.6918 35.8349 16.5069C35.6292 16.363 35.3837 16.2864 35.1324 16.2877C34.8694 16.3482 34.6257 16.4731 34.4232 16.6508C34.253 16.8089 34.0406 16.9147 33.8115 16.9554C33.7022 16.9554 33.2065 17.0508 32.8468 17.1228C32.5115 17.1985 32.172 17.2544 31.8301 17.2902C31.6147 17.2648 31.4041 17.2084 31.2049 17.1228C31.0079 17.0428 30.802 16.9867 30.5915 16.9554H30.4419V13.3354H30.4823C31.1694 13.4106 31.8648 13.3413 32.5234 13.132C33.182 12.9227 33.7891 12.5781 34.3055 12.1204C34.679 11.7789 34.9791 11.3655 35.1877 10.9053C35.3962 10.445 35.5089 9.94742 35.5189 9.44258C35.5717 8.74738 35.7199 8.06265 35.9592 7.40747C35.994 7.31104 36.0049 7.20771 35.9912 7.10618C35.9774 7.00465 35.9394 6.90789 35.8802 6.82406C35.8211 6.74023 35.7426 6.67178 35.6514 6.62448C35.5601 6.57718 35.4588 6.55241 35.3559 6.55226C34.1552 6.71818 33.0116 7.16685 32.0199 7.86104C31.0282 8.55523 30.2171 9.47493 29.6538 10.5438C28.9364 9.78344 28.004 9.25814 26.98 9.03757C26.494 8.91059 26.0251 8.72572 25.5835 8.48695C25.4952 8.43209 25.3948 8.39948 25.291 8.39194C25.1872 8.38441 25.0832 8.40218 24.9878 8.44372C24.8925 8.48526 24.8087 8.5493 24.7439 8.63033C24.679 8.71135 24.6349 8.8069 24.6155 8.9087C24.4411 9.71833 24.4948 10.5602 24.7706 11.3413C25.0464 12.1225 25.5336 12.8126 26.1784 13.3354C26.6055 13.6379 27.1005 13.8317 27.6202 13.9C28.1398 13.9682 28.6684 13.9089 29.1597 13.727V16.7948L29.0168 16.6877C28.7786 16.5176 28.4894 16.4332 28.1967 16.4483C27.8454 16.4365 27.4957 16.5004 27.1716 16.6358C26.8774 16.8033 26.5531 16.9119 26.217 16.9554C26.0255 16.9446 25.835 16.9194 25.6473 16.8801L25.3112 16.8299L25.0255 16.8701C24.8052 16.9228 24.5798 16.9514 24.3533 16.9554C23.9971 16.8992 23.6549 16.776 23.345 16.5923C23.1008 16.4909 22.838 16.4418 22.5736 16.4483C22.2666 16.5312 21.9714 16.6521 21.6946 16.8081C21.4951 16.9053 21.2821 16.9724 21.0628 17.0073H20.9552C19.7898 15.4817 19.0758 13.6621 18.8938 11.7539C18.7118 9.84562 19.069 7.92469 19.9251 6.20789C20.7813 4.4911 22.1022 3.04679 23.7389 2.03801C25.3756 1.02922 27.2629 0.49612 29.1877 0.498867C31.1125 0.501614 32.9982 1.0401 34.6319 2.05356C36.2657 3.06701 37.5825 4.51507 38.4337 6.2343C39.2849 7.95354 39.6366 9.87549 39.4491 11.7832C39.2616 13.6909 38.5423 15.5085 37.3726 17.0307L37.3642 17.0257ZM30.5075 12.0568C30.7791 10.7924 31.543 9.68682 32.6317 8.98234C33.1882 8.59258 33.7947 8.27904 34.4349 8.05014C34.345 8.46518 34.2821 8.88557 34.2467 9.3087C34.2512 9.67159 34.1765 10.0311 34.028 10.3625C33.8794 10.6939 33.6605 10.9893 33.3863 11.2283C32.9898 11.5567 32.5293 11.7999 32.0339 11.9424C31.5385 12.085 31.0188 12.1239 30.5075 12.0568ZM29.1076 12.3814C28.7707 12.5681 28.3889 12.6591 28.0037 12.6446C27.6185 12.6302 27.2447 12.5108 26.9229 12.2994C26.5814 12.019 26.3053 11.6679 26.1138 11.2705C25.9222 10.8731 25.8198 10.439 25.8137 9.99822C26.0725 10.0936 26.338 10.174 26.5985 10.256C27.8371 10.6392 28.8353 10.9472 29.1059 12.3814H29.1076Z" fill="#939598"/>
<path d="M70.0306 14.7964L69.923 14.7529L69.6457 14.6508H69.6138L69.3113 14.5537C69.9212 12.9288 70.1283 11.1813 69.915 9.45969C69.7018 7.73804 69.0744 6.09307 68.0863 4.66449C67.0982 3.2359 65.7785 2.0659 64.2392 1.25384C62.6999 0.441788 60.9866 0.0116636 59.2448 0H59.1658C56.3148 0.0237497 53.5881 1.16568 51.5769 3.17819C49.5657 5.19071 48.4321 7.91159 48.4219 10.7509C48.4118 13.5902 49.5258 16.3191 51.5225 18.3458C53.5193 20.3726 56.2377 21.5338 59.0885 21.5779H59.1658C60.6792 21.5768 62.1756 21.2606 63.559 20.6496C64.9424 20.0386 66.1822 19.1462 67.1989 18.0298L67.3434 17.8474L67.4375 17.7286L67.2694 17.583L67.303 17.5428L67.135 17.4725L67.0661 17.4139L67.0543 17.4307L66.8947 17.3436C66.7279 17.2279 66.5363 17.1528 66.335 17.1244C66.0228 17.1262 65.7172 17.0347 65.4578 16.8616C65.263 16.7298 65.0329 16.6593 64.7973 16.6591C64.5491 16.714 64.3182 16.829 64.1251 16.9938C63.9637 17.1402 63.7637 17.2377 63.5487 17.275C63.4478 17.275 62.9823 17.3637 62.6429 17.4273C62.3286 17.4981 62.0104 17.5506 61.69 17.5846C61.4878 17.5612 61.2898 17.51 61.1018 17.4323C60.9166 17.3573 60.7231 17.3045 60.5254 17.275C60.5002 17.275 59.7405 17.2934 59.5002 17.275C59.329 17.2356 59.1719 17.1499 59.0465 17.0273C58.8224 16.869 58.5511 16.7911 58.2768 16.8064C57.9475 16.7939 57.6193 16.8509 57.3138 16.9738C57.0369 17.1297 56.732 17.2303 56.4164 17.27C56.2377 17.2639 56.0596 17.2449 55.8837 17.2131L55.5728 17.1646L55.3039 17.2047C55.097 17.2517 54.8858 17.2775 54.6737 17.2817C54.3406 17.2301 54.0202 17.1165 53.7292 16.947C53.5002 16.8533 53.2541 16.8083 53.0066 16.8148C52.7182 16.8923 52.4405 17.0047 52.1797 17.1495C51.9918 17.2394 51.7921 17.3025 51.5865 17.3369C51.3815 17.3369 51.2672 17.347 51.1899 17.352C49.9412 15.845 49.1486 14.0155 48.9044 12.0769C48.6603 10.1383 48.9747 8.17054 49.811 6.40314C50.6473 4.63574 51.9709 3.14159 53.6276 2.09497C55.2842 1.04836 57.2056 0.492427 59.1675 0.492039H59.2448C61.988 0.512383 64.6108 1.61695 66.5364 3.56282C68.462 5.50869 69.5327 8.13652 69.513 10.8684C69.5045 12.0694 69.282 13.2594 68.8559 14.383L68.6021 14.306L68.5702 14.2659L68.2929 14.1671L68.061 14.1788L68.029 14.4483C68.0912 14.9085 68.1584 15.3654 68.2189 15.8257C68.2559 16.1001 68.387 16.1604 68.629 15.993L69.5953 15.3453L70.0071 15.0625L70.0306 14.7964Z" fill="#939598"/>
<path d="M58.7776 5.57314C58.7789 5.4579 58.7569 5.34357 58.7131 5.23692C58.6692 5.13027 58.6043 5.03346 58.5222 4.95223C58.3996 4.83915 58.2456 4.76546 58.0804 4.74075C57.9151 4.71604 57.7463 4.74147 57.5957 4.81371C57.4452 4.88596 57.32 5.00167 57.2365 5.14579C57.1529 5.2899 57.1149 5.45573 57.1273 5.62168V7.50784C57.1273 8.72958 57.1273 9.95187 57.1273 11.1747C57.1225 11.2673 57.1462 11.3592 57.1951 11.4382C57.2441 11.5171 57.3159 11.5793 57.4012 11.6166C58.6493 12.2581 59.8969 12.8991 61.1438 13.5395L62.4748 14.224L62.6832 14.3178L62.9488 14.3596L63.3454 14.2592C63.445 14.2038 63.5321 14.1285 63.6012 14.0381C63.6703 13.9477 63.7199 13.8441 63.747 13.7337C63.7963 13.5398 63.7721 13.3347 63.6791 13.1575C63.5861 12.9803 63.4308 12.8434 63.2429 12.773L62.9538 12.6241C61.5668 11.9089 60.1786 11.1948 58.7894 10.4818L58.7709 10.4701V10.4484C58.7709 9.84085 58.7709 9.23333 58.7709 8.62581V7.28692C58.7765 6.71455 58.7787 6.14329 58.7776 5.57314Z" fill="#939598"/>
<path d="M96.8267 3.02432C94.9353 1.21078 92.4468 0.143088 89.8241 0.0198161C87.2013 -0.103456 84.6229 0.72608 82.5684 2.35415C80.5138 3.98222 79.1229 6.29801 78.6544 8.87082C78.1858 11.4436 78.6715 14.0983 80.0212 16.3412L80.0346 16.358C80.751 17.5468 81.6934 18.5849 82.8092 19.414L82.8815 19.4676L83.1705 19.6734C84.1726 20.3702 85.289 20.8878 86.4695 21.2031H86.4711C86.6392 21.2499 86.8073 21.2901 86.9753 21.3269L87.0745 21.347L87.5249 21.4324L87.7181 21.4608L88.0946 21.511L88.4105 21.5361L88.6878 21.5596C88.8895 21.5713 89.0928 21.5763 89.2978 21.5763C89.4743 21.5763 89.6524 21.5763 89.8272 21.5629H89.9314L90.3633 21.5278L90.5952 21.5027H90.6507C92.6784 21.2488 94.5927 20.4289 96.1723 19.1375C97.7519 17.8461 98.9325 16.136 99.5775 14.2047C100.222 12.2735 100.306 10.1999 99.8174 8.22359C99.3292 6.24725 98.2895 4.44881 96.8183 3.03603L96.8267 3.02432ZM78.9809 10.7899C78.9802 8.77189 79.5759 6.79833 80.6938 5.11522C81.8117 3.43211 83.4023 2.11391 85.2674 1.32496C87.1325 0.536007 89.1895 0.311202 91.182 0.67857C93.1745 1.04594 95.0143 1.98923 96.4721 3.39084C98.2314 5.0796 99.3321 7.33513 99.5782 9.75615C99.8244 12.1772 99.2002 14.6067 97.8166 16.6124C97.6464 16.6618 97.4677 16.6743 97.2922 16.6492C97.0469 16.5155 96.7772 16.4319 96.499 16.4032C95.9564 16.3944 95.4191 16.2954 94.9092 16.1103C94.7012 15.9624 94.4566 15.8738 94.2017 15.8542L94.1042 15.9496L93.9126 16.1538L93.9026 16.1655C93.1984 16.8584 92.6573 17.404 92.1346 17.9329C91.612 18.4617 91.0859 18.9906 90.3936 19.6734L90.3633 19.7035L90.3028 19.7588L90.2675 19.7889L90.207 19.8391L90.1684 19.8709L90.1062 19.9161L90.0541 19.9479L89.9869 19.988L89.9196 20.0215L89.844 20.055L89.7684 20.0818L89.686 20.1085L89.602 20.127L89.4961 20.1487H89.4155H89.3315H89.3046L89.1768 20.1387C88.9626 20.122 88.7551 20.0567 88.5702 19.9479L88.2643 19.7102C87.7282 19.1563 87.0879 18.5036 86.4627 17.8425L86.3249 17.7052L86.2897 17.6768L86.2611 17.645L86.1939 17.5747L86.1065 17.4843C85.9958 17.3812 85.9121 17.2528 85.8626 17.1102C85.8131 16.9676 85.7994 16.8151 85.8225 16.6659L85.8628 16.3931L85.6477 16.3161L85.2948 16.2726L84.9923 16.3161C84.7607 16.3696 84.5241 16.3988 84.2864 16.4032C83.9138 16.3446 83.5553 16.2175 83.2294 16.0283C82.9721 15.9229 82.6958 15.8716 82.4177 15.8777C82.0956 15.9637 81.7852 16.0885 81.4933 16.2492C81.2809 16.3513 81.0543 16.4212 80.8211 16.4567H80.6934C79.5755 14.7766 78.9798 12.8054 78.9809 10.7899Z" fill="#939598"/>
<path d="M95.9022 9.00903H94.9141V12.5387H95.9022V9.00903Z" fill="#939598"/>
<path d="M89.5077 10.768C89.5077 10.1538 89.8068 9.80064 90.3261 9.80064C90.79 9.80064 91.0353 10.1019 91.0353 10.6743V12.5403H92.0235V10.768C92.0235 10.1538 92.3243 9.80064 92.847 9.80064C93.3058 9.80064 93.5562 10.1103 93.5562 10.6743V12.5403H94.546V10.5153C94.5751 10.314 94.5589 10.1089 94.4983 9.91471C94.4378 9.72054 94.3346 9.54226 94.1961 9.39284C94.0577 9.24342 93.8875 9.12663 93.698 9.05097C93.5085 8.97531 93.3045 8.94268 93.1007 8.95546C92.858 8.94853 92.6169 8.99695 92.3958 9.09702C92.1747 9.19709 91.9796 9.34617 91.8252 9.53286L91.8017 9.56131L91.7798 9.52951C91.6524 9.34225 91.4785 9.19099 91.275 9.09041C91.0715 8.98983 90.8454 8.94334 90.6185 8.95546C90.4116 8.94782 90.2054 8.98467 90.014 9.06351C89.8226 9.14235 89.6505 9.26134 89.5094 9.41236L89.4607 9.46927V9.00902H88.5195V12.5403H89.5077V10.768Z" fill="#939598"/>
<path d="M95.4104 8.63091C95.5082 8.62925 95.6032 8.59886 95.6837 8.54354C95.7641 8.48823 95.8264 8.41046 95.8626 8.32002C95.8988 8.22957 95.9073 8.13049 95.8871 8.03523C95.8669 7.93998 95.8188 7.85279 95.749 7.78465C95.6792 7.7165 95.5907 7.67044 95.4947 7.65225C95.3986 7.63406 95.2993 7.64455 95.2092 7.6824C95.1192 7.72026 95.0424 7.7838 94.9884 7.86501C94.9345 7.94623 94.9059 8.04151 94.9063 8.13887C94.9062 8.20434 94.9193 8.26916 94.9448 8.32952C94.9703 8.38988 95.0076 8.44457 95.0545 8.49039C95.1015 8.53622 95.1571 8.57225 95.2182 8.59638C95.2794 8.62051 95.3447 8.63224 95.4104 8.63091Z" fill="#939598"/>
<path d="M83.8459 12.6291C84.1411 12.6286 84.4309 12.5506 84.6862 12.4032L84.5887 12.3211C84.3765 12.1245 84.2092 11.8848 84.098 11.6182L83.8425 11.6634C83.6996 11.6765 83.557 11.6345 83.4441 11.5461C83.3313 11.4577 83.2567 11.3296 83.2359 11.1881V7.65344H82.2695V11.2366C82.3013 11.6264 82.483 11.9888 82.7768 12.2483C83.0705 12.5078 83.4536 12.6442 83.8459 12.6291Z" fill="#939598"/>
<path d="M86.2184 12.5922C86.5744 12.5684 86.9156 12.4415 87.2001 12.2271C87.4846 12.0127 87.7 11.7201 87.8197 11.3854C87.9395 11.0507 87.9584 10.6885 87.8741 10.3432C87.7898 9.99798 87.606 9.68479 87.3454 9.44218C87.0847 9.19958 86.7585 9.03813 86.407 8.97772C86.0554 8.9173 85.6937 8.96054 85.3665 9.10212C85.0393 9.2437 84.7607 9.47744 84.5651 9.77459C84.3696 10.0717 84.2654 10.4194 84.2656 10.7747C84.2653 11.0244 84.3165 11.2715 84.4162 11.5006C84.5159 11.7297 84.6619 11.9359 84.845 12.1064C85.0282 12.2769 85.2447 12.4081 85.481 12.4916C85.7173 12.5752 85.9683 12.6094 86.2184 12.5922ZM86.2184 9.74707C86.4241 9.73194 86.6296 9.77885 86.8082 9.8817C86.9867 9.98455 87.13 10.1386 87.2194 10.3237C87.3088 10.5088 87.3402 10.7164 87.3094 10.9195C87.2786 11.1227 87.1871 11.3118 87.0468 11.4624C86.9065 11.613 86.7239 11.718 86.5228 11.7637C86.3217 11.8095 86.1115 11.7939 85.9194 11.719C85.7274 11.644 85.5625 11.5132 85.4461 11.3436C85.3298 11.174 85.2675 10.9734 85.2672 10.768C85.2554 10.6375 85.2713 10.506 85.314 10.3821C85.3567 10.2582 85.4252 10.1446 85.515 10.0489C85.6047 9.95317 85.7138 9.87739 85.835 9.82652C85.9563 9.77566 86.0869 9.75087 86.2184 9.75376V9.74707Z" fill="#939598"/>
<path d="M87.024 16.398C86.6391 16.6022 86.2711 16.711 86.5803 17.0373L86.7332 17.2047C86.8032 17.2654 86.8694 17.3302 86.9315 17.3988C87.5298 18.0236 88.1298 18.6451 88.7314 19.2632L88.8995 19.3921L89.2221 19.4925H89.3078H89.3247H89.3633H89.4036L89.449 19.4825H89.486L89.5297 19.4674L89.565 19.4557L89.6087 19.4356L89.6423 19.4189L89.6843 19.3921L89.7145 19.3753L89.7599 19.3435L89.7868 19.3235L89.8305 19.2866L89.8557 19.2649L89.9011 19.2231L89.9212 19.203C91.3178 17.8273 92.0337 17.0691 93.4303 15.6884L93.5798 15.5311C93.958 15.0608 93.1311 14.9168 92.5362 14.8081C92.3947 14.7854 92.2496 14.7997 92.1153 14.8496C91.981 14.8995 91.862 14.9832 91.7699 15.0926C90.5935 16.2641 90.6506 16.2641 89.4625 17.4356L89.4373 17.4624L89.3969 17.4992L89.3818 17.5126L89.3549 17.5277L89.3381 17.5394L89.3213 17.5494H89.2894H89.2709H89.2558L89.2322 17.5277H89.2188L89.1869 17.4992L89.1734 17.4858L89.1532 17.4641L89.1163 17.4273C88.7163 17.0055 88.5415 16.8633 88.1365 16.4482C87.8138 16.1135 87.5012 16.147 87.024 16.398Z" fill="#939598"/>
</svg>
