<svg width="49" height="50" viewBox="0 0 49 50" fill="none" xmlns="http://www.w3.org/2000/svg">
<path d="M41.4226 7.45825C37.0391 3.2276 31.0734 0.625 24.5 0.625C18.0833 0.625 12.2475 3.1053 7.89458 7.15634C3.11359 11.6087 0.125 17.9527 0.125 25C0.125 29.5899 1.39764 33.8779 3.60278 37.5429C3.59895 37.5429 3.59895 37.5429 3.59513 37.5429C3.60278 37.5544 3.61806 37.5697 3.62571 37.5811C4.48559 39.0028 5.48307 40.3366 6.60283 41.5519C7.59648 42.6258 8.69332 43.6042 9.86277 44.487C9.91628 44.529 9.96978 44.5673 10.0233 44.6093C10.2373 44.7698 10.4551 44.9227 10.6768 45.0756C12.9354 46.6539 15.4425 47.8157 18.0986 48.5304C18.1062 48.5304 18.1139 48.5342 18.1177 48.5342C18.4999 48.6374 18.8821 48.7291 19.268 48.8132C19.3407 48.8285 19.4171 48.8438 19.4897 48.8591C19.826 48.9279 20.1623 48.9928 20.5025 49.0501C20.6477 49.0731 20.7929 49.0922 20.9381 49.1151C21.221 49.1572 21.5038 49.1992 21.7866 49.2298C22.0197 49.2565 22.2566 49.2718 22.4936 49.2909C22.7 49.3062 22.9102 49.3291 23.1165 49.3406C23.5713 49.3673 24.0299 49.3788 24.4885 49.3788C24.4885 49.3788 24.4885 49.3788 24.4924 49.3788C24.8936 49.3788 25.2911 49.3674 25.6847 49.3482C25.7612 49.3444 25.8414 49.3406 25.9179 49.3368C26.2427 49.3177 26.5676 49.2909 26.8924 49.2565C27.0682 49.2412 27.2402 49.2221 27.416 49.1992C27.458 49.1954 27.5001 49.1877 27.5421 49.1801C33.5307 48.431 38.8506 45.5189 42.6762 41.2347C46.5285 36.9238 48.8674 31.2371 48.8674 25C48.875 18.1094 46.0163 11.8915 41.4226 7.45825ZM1.27152 25C1.27152 18.5757 3.96966 12.3768 8.67421 7.99712C12.9851 3.9843 18.6069 1.77152 24.5 1.77152C30.5498 1.77152 36.2748 4.08367 40.6277 8.28375C45.2061 12.7017 47.7285 18.6406 47.7285 25C47.7285 29.7237 46.2953 34.2944 43.6507 38.1429C43.1309 38.2347 42.6303 38.3149 42.4736 38.2232C41.9921 37.9518 41.1169 37.669 40.6889 37.669C39.6188 37.669 37.6468 37.3174 37.1117 37.0079C36.634 36.7327 36.2977 36.4805 35.5181 36.427C35.5028 36.427 35.369 36.5646 35.2964 36.641C35.1359 36.8168 34.9906 36.9811 34.8684 37.1034L34.8454 37.1263C33.2632 38.6933 32.0441 39.9277 30.867 41.1201C29.709 42.2972 28.509 43.5125 26.9497 45.0526C26.9306 45.0717 26.9115 45.0908 26.8809 45.1176C26.8389 45.1596 26.793 45.2017 26.7472 45.2437C26.7204 45.2666 26.6975 45.2857 26.6707 45.3087L26.6555 45.3201C26.6096 45.3584 26.5676 45.3966 26.5217 45.431C26.4911 45.4539 26.4567 45.4806 26.4262 45.4998L26.4109 45.5112C26.3612 45.5456 26.3153 45.5838 26.2695 45.6144C26.2312 45.6412 26.193 45.6641 26.1548 45.687L26.1395 45.6985C26.0898 45.7291 26.0363 45.7635 25.9867 45.7902C25.9408 45.8131 25.8949 45.8361 25.8338 45.8666C25.7765 45.8934 25.7191 45.9201 25.6656 45.9431C25.6159 45.9622 25.5624 45.9813 25.4936 46.0042C25.4325 46.0272 25.3714 46.0463 25.3064 46.0616C25.2491 46.0768 25.1917 46.0883 25.1191 46.1036C25.0542 46.1189 24.9854 46.1303 24.9204 46.138C24.8631 46.1456 24.8057 46.1495 24.7446 46.1533C24.6834 46.1571 24.6185 46.1609 24.5535 46.1609C24.5344 46.1609 24.5153 46.1609 24.4924 46.1609C24.3662 46.1609 24.2631 46.1456 24.2019 46.138L24.1866 46.1342C23.6898 46.0883 23.2312 45.9431 22.8261 45.7023C22.5586 45.5418 22.3331 45.366 22.1382 45.1634C20.9305 43.9137 19.505 42.4386 18.0833 40.9443C17.8578 40.7073 17.7776 40.6347 17.7776 40.6347L17.6973 40.5697L17.6323 40.5009L17.4795 40.3404C17.4145 40.2716 17.3495 40.2067 17.2846 40.1379C16.6119 39.4232 16.5623 38.7353 16.6425 38.2882C16.6998 37.9671 16.6922 37.8983 16.7342 37.6729C16.5928 37.6232 16.4782 37.5391 16.2489 37.4971C15.9431 37.4436 15.6565 37.3939 15.4654 37.3748C15.3202 37.3595 15.0641 37.4168 14.789 37.4741C14.3609 37.562 13.8259 37.669 13.1991 37.669C12.5953 37.669 11.7316 37.2563 10.822 36.8206C10.157 36.4996 9.32391 36.4805 8.99906 36.4805C8.58249 36.4805 7.40158 37.0958 6.91622 37.3213C6.30856 37.6079 5.61301 37.7837 5.42192 37.7913C5.31491 37.7952 5.22319 37.7951 5.13529 37.7951C2.62441 34.0346 1.27152 29.6014 1.27152 25Z" fill="url(#paint0_linear_4502_32238)"/>
<path d="M39.3493 20.9757H37.125V28.9517H39.3493V20.9757Z" fill="#1D4047"/>
<path d="M24.9627 24.9503C24.9627 23.5631 25.6315 22.7643 26.801 22.7643C27.8443 22.7643 28.3984 23.4484 28.3984 24.7363V28.9479H30.6227V24.9503C30.6227 23.5631 31.2991 22.7643 32.4762 22.7643C33.5081 22.7643 34.0737 23.4637 34.0737 24.7363V28.9479H36.298V24.3771C36.298 22.1414 35.1132 20.8573 33.0495 20.8573C31.8724 20.8573 30.8252 21.3312 30.1794 22.1567L30.1259 22.2254L30.08 22.1528C29.5411 21.3159 28.6125 20.8573 27.4659 20.8573C26.4341 20.8573 25.5474 21.2242 24.9703 21.8891L24.8633 22.0153V20.9796H22.7461V28.9555H24.9703V24.9503H24.9627Z" fill="#1D4047"/>
<path d="M38.2371 20.1197C38.8524 20.1197 39.3493 19.6228 39.3493 19.0075C39.3493 18.3922 38.8524 17.8954 38.2371 17.8954C37.6218 17.8954 37.125 18.3922 37.125 19.0075C37.125 19.6228 37.6218 20.1197 38.2371 20.1197Z" fill="#1D4047"/>
<path d="M12.2184 29.158C12.9178 29.158 13.5675 28.9708 14.114 28.6497C14.0376 28.5886 13.965 28.5236 13.8962 28.4587C13.4146 28.0077 13.0439 27.4688 12.7917 26.8688C12.6159 26.9338 12.421 26.972 12.2184 26.972C11.4808 26.972 10.8541 26.479 10.8541 25.8981V17.9069H8.67188V25.9019V26.0051H8.6757C8.73685 27.7516 10.3038 29.158 12.2184 29.158Z" fill="#1D4047"/>
<path d="M17.5591 29.074C20.0967 29.074 21.9388 27.3466 21.9388 24.9656C21.9388 22.5847 20.0967 20.8573 17.5591 20.8573C15.0138 20.8573 13.1641 22.5847 13.1641 24.9656C13.1641 27.3466 15.01 29.074 17.5591 29.074ZM17.5591 22.6611C18.8279 22.6611 19.6839 23.586 19.6839 24.9656C19.6839 26.3453 18.8317 27.2701 17.5591 27.2701C16.2788 27.2701 15.4189 26.3453 15.4189 24.9656C15.4189 23.586 16.2788 22.6611 17.5591 22.6611Z" fill="#1D4047"/>
<path d="M19.3725 37.6728C18.5049 38.1314 17.6756 38.376 18.375 39.1175C18.4896 39.2398 18.6043 39.3582 18.7189 39.4805C18.7266 39.4882 18.7954 39.5302 19.1661 39.92C20.5113 41.3302 21.8642 42.729 23.2171 44.1316C23.3318 44.25 23.4579 44.3418 23.5917 44.422C23.8057 44.5481 24.0464 44.6246 24.3216 44.6475C24.3866 44.6551 24.4477 44.6666 24.5127 44.6666C24.5242 44.6666 24.5356 44.6666 24.5509 44.6666C24.5815 44.6666 24.6082 44.6628 24.6388 44.659C24.6694 44.659 24.7 44.6551 24.7267 44.6513C24.7611 44.6475 24.7955 44.6399 24.8299 44.6322C24.8566 44.6246 24.8872 44.6208 24.914 44.6131C24.9484 44.6055 24.9789 44.5902 25.0133 44.5787C25.0401 44.5711 25.0668 44.5634 25.0936 44.552C25.128 44.5367 25.1586 44.5214 25.193 44.5061C25.2159 44.4946 25.2426 44.4832 25.2656 44.4717C25.3 44.4526 25.3305 44.4335 25.3611 44.4144C25.384 44.3991 25.407 44.3876 25.4299 44.3723C25.4643 44.3494 25.4949 44.3265 25.5293 44.2997C25.5484 44.2844 25.5713 44.2691 25.5904 44.2539C25.6248 44.2271 25.6592 44.1965 25.6898 44.1698C25.7089 44.1545 25.728 44.1392 25.7433 44.1239C25.7777 44.0934 25.8121 44.059 25.8465 44.0284C25.8618 44.0131 25.877 43.9978 25.8923 43.9825C29.0338 40.8755 30.6427 39.1595 33.7842 36.0562C33.8989 35.9416 34.0173 35.8269 34.1205 35.7008C34.9728 34.6384 33.1078 34.3097 31.7702 34.0689C31.0708 33.9428 30.5319 34.2333 30.0466 34.711C27.3828 37.348 27.528 37.3709 24.8566 40.0041C24.8337 40.027 24.8184 40.0423 24.7955 40.0614C24.7649 40.092 24.7344 40.1187 24.7076 40.1455C24.6961 40.157 24.6808 40.1684 24.6694 40.1799C24.6503 40.199 24.6312 40.2143 24.6121 40.2258C24.5968 40.2372 24.5853 40.2449 24.57 40.2525C24.5586 40.2602 24.5433 40.2716 24.5318 40.2754C24.5089 40.2869 24.4859 40.2907 24.463 40.2907C24.4477 40.2907 24.4324 40.2831 24.4171 40.2793C24.4057 40.2754 24.398 40.2754 24.3866 40.2716C24.3713 40.264 24.3522 40.2487 24.3331 40.2334C24.3216 40.2258 24.314 40.2219 24.3025 40.2143C24.2796 40.1952 24.2566 40.1723 24.2299 40.1455C24.2184 40.134 24.2108 40.1302 24.1993 40.1187C24.184 40.1035 24.1687 40.0844 24.1534 40.0691C24.1267 40.0423 24.1038 40.0156 24.0732 39.985C23.1751 39.0334 22.7814 38.7124 21.8681 37.776C21.1572 37.0308 20.4502 37.1034 19.3725 37.6728Z" fill="url(#paint1_linear_4502_32238)"/>
<defs>
<linearGradient id="paint0_linear_4502_32238" x1="18.993" y1="0.625" x2="19.9369" y2="49.3788" gradientUnits="userSpaceOnUse">
<stop stop-color="#1D4047"/>
<stop offset="0.277889" stop-color="#234B4D"/>
<stop offset="0.577531" stop-color="#2E5E58"/>
<stop offset="0.806558" stop-color="#376F61"/>
<stop offset="1" stop-color="#40806A"/>
</linearGradient>
<linearGradient id="paint1_linear_4502_32238" x1="24.3929" y1="34.0395" x2="24.5277" y2="44.6689" gradientUnits="userSpaceOnUse">
<stop stop-color="#1D4047"/>
<stop offset="0.277889" stop-color="#234B4D"/>
<stop offset="0.577531" stop-color="#2E5E58"/>
<stop offset="0.806558" stop-color="#376F61"/>
<stop offset="1" stop-color="#40806A"/>
</linearGradient>
</defs>
</svg>
