<svg width="293" height="23" viewBox="0 0 293 23" fill="none" xmlns="http://www.w3.org/2000/svg">
<path d="M9.15082 12.292H7.52282L3.18882 5.846V17H0.680822V1.6H3.10082L8.33682 9.432L13.5728 1.6H15.9928V17H13.4848V5.846L9.15082 12.292ZM26.3426 15.02C27.076 15.02 27.7396 14.8367 28.3336 14.47C28.935 14.096 29.386 13.5973 29.6866 12.974V9.652C29.386 9.02867 28.935 8.53 28.3336 8.156C27.7323 7.77467 27.0686 7.584 26.3426 7.584C25.3013 7.584 24.4213 7.94333 23.7026 8.662C22.984 9.38067 22.6246 10.2607 22.6246 11.302C22.6246 12.3433 22.984 13.2233 23.7026 13.942C24.4213 14.6607 25.3013 15.02 26.3426 15.02ZM25.9026 5.34C27.428 5.34 28.6893 5.83867 29.6866 6.836V5.604H32.1946V17H29.6866V15.768C28.6893 16.7653 27.428 17.264 25.9026 17.264C24.8026 17.264 23.8016 16.9927 22.8996 16.45C22.005 15.9073 21.3083 15.1813 20.8096 14.272C20.3183 13.3627 20.0726 12.3727 20.0726 11.302C20.0726 10.2313 20.3183 9.24133 20.8096 8.332C21.3083 7.42267 22.005 6.69667 22.8996 6.154C23.8016 5.61133 24.8026 5.34 25.9026 5.34ZM43.8601 17L40.4061 11.742H39.3281V17H36.8201V0.94H39.3281V9.586H40.4391L43.1781 5.604H46.1261L42.4961 10.664L46.7201 17H43.8601ZM60.751 12.116H51.368C51.5146 12.9887 51.929 13.7073 52.611 14.272C53.3003 14.8293 54.1143 15.108 55.053 15.108C56.3363 15.108 57.4656 14.6093 58.441 13.612L60.157 15.196C58.8883 16.5747 57.209 17.264 55.119 17.264C54.195 17.264 53.337 17.11 52.545 16.802C51.753 16.4867 51.0856 16.0613 50.543 15.526C50.0003 14.9907 49.575 14.36 49.267 13.634C48.959 12.9007 48.805 12.1233 48.805 11.302C48.805 10.4807 48.959 9.70333 49.267 8.97C49.5823 8.23667 50.0076 7.606 50.543 7.078C51.0856 6.54267 51.7383 6.121 52.501 5.813C53.2636 5.49767 54.0776 5.34 54.943 5.34C56.0723 5.34 57.0916 5.60033 58.001 6.121C58.9103 6.64167 59.6143 7.33833 60.113 8.211C60.6116 9.08367 60.861 10.0407 60.861 11.082C60.861 11.456 60.8243 11.8007 60.751 12.116ZM54.943 7.496C54.151 7.496 53.4323 7.73433 52.787 8.211C52.1416 8.68767 51.7016 9.3 51.467 10.048H58.232C58.034 9.3 57.638 8.68767 57.044 8.211C56.45 7.73433 55.7496 7.496 54.943 7.496ZM78.3503 15.02C79.0836 15.02 79.7473 14.8367 80.3413 14.47C80.9426 14.096 81.3936 13.5973 81.6943 12.974V9.652C81.3936 9.02867 80.9426 8.53 80.3413 8.156C79.7399 7.77467 79.0763 7.584 78.3503 7.584C77.3089 7.584 76.4289 7.94333 75.7103 8.662C74.9916 9.38067 74.6323 10.2607 74.6323 11.302C74.6323 12.3433 74.9916 13.2233 75.7103 13.942C76.4289 14.6607 77.3089 15.02 78.3503 15.02ZM84.2023 5.604V16.384C84.2023 18.144 83.6889 19.5373 82.6623 20.564C81.6356 21.5907 80.1469 22.104 78.1963 22.104C77.1256 22.104 76.1319 21.8987 75.2153 21.488C74.3059 21.0847 73.5323 20.52 72.8943 19.794L74.5443 18.188C75.6149 19.3613 76.8249 19.948 78.1743 19.948C79.2523 19.948 80.1066 19.6473 80.7373 19.046C81.3753 18.452 81.6943 17.6233 81.6943 16.56V15.768C80.6969 16.7653 79.4356 17.264 77.9103 17.264C76.8103 17.264 75.8093 16.9927 74.9073 16.45C74.0126 15.9073 73.3159 15.1813 72.8173 14.272C72.3259 13.3627 72.0803 12.3727 72.0803 11.302C72.0803 10.2313 72.3259 9.24133 72.8173 8.332C73.3159 7.42267 74.0126 6.69667 74.9073 6.154C75.8093 5.61133 76.8103 5.34 77.9103 5.34C79.4356 5.34 80.6969 5.83867 81.6943 6.836V5.604H84.2023ZM94.3278 15.02C95.0611 15.02 95.7248 14.8367 96.3188 14.47C96.9201 14.096 97.3711 13.5973 97.6718 12.974V9.652C97.3711 9.02867 96.9201 8.53 96.3188 8.156C95.7174 7.77467 95.0538 7.584 94.3278 7.584C93.2864 7.584 92.4064 7.94333 91.6878 8.662C90.9691 9.38067 90.6098 10.2607 90.6098 11.302C90.6098 12.3433 90.9691 13.2233 91.6878 13.942C92.4064 14.6607 93.2864 15.02 94.3278 15.02ZM93.8878 5.34C95.4131 5.34 96.6744 5.83867 97.6718 6.836V5.604H100.18V17H97.6718V15.768C96.6744 16.7653 95.4131 17.264 93.8878 17.264C92.7878 17.264 91.7868 16.9927 90.8848 16.45C89.9901 15.9073 89.2934 15.1813 88.7948 14.272C88.3034 13.3627 88.0578 12.3727 88.0578 11.302C88.0578 10.2313 88.3034 9.24133 88.7948 8.332C89.2934 7.42267 89.9901 6.69667 90.8848 6.154C91.7868 5.61133 92.7878 5.34 93.8878 5.34ZM110.327 7.584C109.726 7.584 109.161 7.77467 108.633 8.156C108.113 8.53 107.673 9.04333 107.313 9.696V17H104.805V5.604H107.313V7.056C108.281 5.912 109.396 5.34 110.657 5.34C111.053 5.34 111.398 5.41333 111.691 5.56L111.493 7.782C111.119 7.65 110.731 7.584 110.327 7.584ZM121.113 15.02C122.155 15.02 123.035 14.6607 123.753 13.942C124.472 13.2233 124.831 12.3433 124.831 11.302C124.831 10.2607 124.472 9.38067 123.753 8.662C123.035 7.94333 122.155 7.584 121.113 7.584C120.387 7.584 119.724 7.77467 119.122 8.156C118.521 8.53 118.07 9.02867 117.769 9.652V12.974C118.07 13.5973 118.517 14.096 119.111 14.47C119.713 14.8367 120.38 15.02 121.113 15.02ZM121.553 5.34C122.653 5.34 123.651 5.61133 124.545 6.154C125.447 6.69667 126.144 7.42267 126.635 8.332C127.134 9.24133 127.383 10.2313 127.383 11.302C127.383 12.3727 127.134 13.3627 126.635 14.272C126.144 15.1813 125.447 15.9073 124.545 16.45C123.651 16.9927 122.653 17.264 121.553 17.264C120.028 17.264 118.767 16.7653 117.769 15.768V17H115.261V0.94H117.769V6.836C118.767 5.83867 120.028 5.34 121.553 5.34ZM136.739 15.02C137.472 15.02 138.136 14.8367 138.73 14.47C139.331 14.096 139.782 13.5973 140.083 12.974V9.652C139.782 9.02867 139.331 8.53 138.73 8.156C138.128 7.77467 137.465 7.584 136.739 7.584C135.697 7.584 134.817 7.94333 134.099 8.662C133.38 9.38067 133.021 10.2607 133.021 11.302C133.021 12.3433 133.38 13.2233 134.099 13.942C134.817 14.6607 135.697 15.02 136.739 15.02ZM136.299 5.34C137.824 5.34 139.085 5.83867 140.083 6.836V5.604H142.591V17H140.083V15.768C139.085 16.7653 137.824 17.264 136.299 17.264C135.199 17.264 134.198 16.9927 133.296 16.45C132.401 15.9073 131.704 15.1813 131.206 14.272C130.714 13.3627 130.469 12.3727 130.469 11.302C130.469 10.2313 130.714 9.24133 131.206 8.332C131.704 7.42267 132.401 6.69667 133.296 6.154C134.198 5.61133 135.199 5.34 136.299 5.34ZM152.716 15.02C153.45 15.02 154.113 14.8367 154.707 14.47C155.309 14.096 155.76 13.5973 156.06 12.974V9.652C155.76 9.02867 155.309 8.53 154.707 8.156C154.106 7.77467 153.442 7.584 152.716 7.584C151.675 7.584 150.795 7.94333 150.076 8.662C149.358 9.38067 148.998 10.2607 148.998 11.302C148.998 12.3433 149.358 13.2233 150.076 13.942C150.795 14.6607 151.675 15.02 152.716 15.02ZM158.568 5.604V16.384C158.568 18.144 158.055 19.5373 157.028 20.564C156.002 21.5907 154.513 22.104 152.562 22.104C151.492 22.104 150.498 21.8987 149.581 21.488C148.672 21.0847 147.898 20.52 147.26 19.794L148.91 18.188C149.981 19.3613 151.191 19.948 152.54 19.948C153.618 19.948 154.473 19.6473 155.103 19.046C155.741 18.452 156.06 17.6233 156.06 16.56V15.768C155.063 16.7653 153.802 17.264 152.276 17.264C151.176 17.264 150.175 16.9927 149.273 16.45C148.379 15.9073 147.682 15.1813 147.183 14.272C146.692 13.3627 146.446 12.3727 146.446 11.302C146.446 10.2313 146.692 9.24133 147.183 8.332C147.682 7.42267 148.379 6.69667 149.273 6.154C150.175 5.61133 151.176 5.34 152.276 5.34C153.802 5.34 155.063 5.83867 156.06 6.836V5.604H158.568ZM174.37 12.116H164.987C165.133 12.9887 165.548 13.7073 166.23 14.272C166.919 14.8293 167.733 15.108 168.672 15.108C169.955 15.108 171.084 14.6093 172.06 13.612L173.776 15.196C172.507 16.5747 170.828 17.264 168.738 17.264C167.814 17.264 166.956 17.11 166.164 16.802C165.372 16.4867 164.704 16.0613 164.162 15.526C163.619 14.9907 163.194 14.36 162.886 13.634C162.578 12.9007 162.424 12.1233 162.424 11.302C162.424 10.4807 162.578 9.70333 162.886 8.97C163.201 8.23667 163.626 7.606 164.162 7.078C164.704 6.54267 165.357 6.121 166.12 5.813C166.882 5.49767 167.696 5.34 168.562 5.34C169.691 5.34 170.71 5.60033 171.62 6.121C172.529 6.64167 173.233 7.33833 173.732 8.211C174.23 9.08367 174.48 10.0407 174.48 11.082C174.48 11.456 174.443 11.8007 174.37 12.116ZM168.562 7.496C167.77 7.496 167.051 7.73433 166.406 8.211C165.76 8.68767 165.32 9.3 165.086 10.048H171.851C171.653 9.3 171.257 8.68767 170.663 8.211C170.069 7.73433 169.368 7.496 168.562 7.496ZM189.329 13.942C190.048 14.6607 190.928 15.02 191.969 15.02C193.01 15.02 193.89 14.6607 194.609 13.942C195.328 13.2233 195.687 12.3433 195.687 11.302C195.687 10.2607 195.328 9.38067 194.609 8.662C193.89 7.94333 193.01 7.584 191.969 7.584C190.928 7.584 190.048 7.94333 189.329 8.662C188.61 9.38067 188.251 10.2607 188.251 11.302C188.251 12.3433 188.61 13.2233 189.329 13.942ZM188.757 6.132C189.718 5.604 190.788 5.34 191.969 5.34C193.15 5.34 194.22 5.604 195.181 6.132C196.142 6.66 196.89 7.38233 197.425 8.299C197.968 9.20833 198.239 10.2093 198.239 11.302C198.239 12.3947 197.968 13.3993 197.425 14.316C196.89 15.2253 196.142 15.944 195.181 16.472C194.22 17 193.15 17.264 191.969 17.264C190.788 17.264 189.718 17 188.757 16.472C187.796 15.944 187.045 15.2253 186.502 14.316C185.967 13.3993 185.699 12.3947 185.699 11.302C185.699 10.2093 185.967 9.20833 186.502 8.299C187.045 7.38233 187.796 6.66 188.757 6.132ZM207.933 15.02C208.975 15.02 209.855 14.6607 210.573 13.942C211.292 13.2233 211.651 12.3433 211.651 11.302C211.651 10.2607 211.292 9.38067 210.573 8.662C209.855 7.94333 208.975 7.584 207.933 7.584C207.207 7.584 206.544 7.77467 205.942 8.156C205.341 8.53 204.89 9.02867 204.589 9.652V12.974C204.89 13.5973 205.337 14.096 205.931 14.47C206.533 14.8367 207.2 15.02 207.933 15.02ZM208.373 5.34C209.473 5.34 210.471 5.61133 211.365 6.154C212.267 6.69667 212.964 7.42267 213.455 8.332C213.954 9.24133 214.203 10.2313 214.203 11.302C214.203 12.3727 213.954 13.3627 213.455 14.272C212.964 15.1813 212.267 15.9073 211.365 16.45C210.471 16.9927 209.473 17.264 208.373 17.264C206.848 17.264 205.587 16.7653 204.589 15.768V22.104H202.081V5.604H204.589V6.836C205.587 5.83867 206.848 5.34 208.373 5.34ZM221.081 7.804V13.216C221.081 13.8687 221.235 14.3417 221.543 14.635C221.851 14.921 222.371 15.064 223.105 15.064C223.471 15.064 223.801 15.0493 224.095 15.02V17.176C223.772 17.2347 223.369 17.264 222.885 17.264C221.396 17.264 220.303 16.9413 219.607 16.296C218.917 15.6507 218.573 14.6313 218.573 13.238V7.804H216.681V5.604H218.573V2.524L221.081 2.304V5.604H223.963V7.804H221.081ZM227.894 17V5.604H230.402V17H227.894ZM228.037 3.613C227.737 3.31233 227.586 2.942 227.586 2.502C227.586 2.062 227.737 1.69167 228.037 1.391C228.338 1.09033 228.708 0.94 229.148 0.94C229.588 0.94 229.959 1.09033 230.259 1.391C230.56 1.69167 230.71 2.062 230.71 2.502C230.71 2.942 230.56 3.31233 230.259 3.613C229.959 3.91367 229.588 4.064 229.148 4.064C228.708 4.064 228.338 3.91367 228.037 3.613ZM237.985 13.942C238.704 14.6607 239.584 15.02 240.625 15.02C241.667 15.02 242.547 14.6607 243.265 13.942C243.984 13.2233 244.343 12.3433 244.343 11.302C244.343 10.2607 243.984 9.38067 243.265 8.662C242.547 7.94333 241.667 7.584 240.625 7.584C239.584 7.584 238.704 7.94333 237.985 8.662C237.267 9.38067 236.907 10.2607 236.907 11.302C236.907 12.3433 237.267 13.2233 237.985 13.942ZM237.413 6.132C238.374 5.604 239.445 5.34 240.625 5.34C241.806 5.34 242.877 5.604 243.837 6.132C244.798 6.66 245.546 7.38233 246.081 8.299C246.624 9.20833 246.895 10.2093 246.895 11.302C246.895 12.3947 246.624 13.3993 246.081 14.316C245.546 15.2253 244.798 15.944 243.837 16.472C242.877 17 241.806 17.264 240.625 17.264C239.445 17.264 238.374 17 237.413 16.472C236.453 15.944 235.701 15.2253 235.158 14.316C234.623 13.3993 234.355 12.3947 234.355 11.302C234.355 10.2093 234.623 9.20833 235.158 8.299C235.701 7.38233 236.453 6.66 237.413 6.132ZM253.245 9.432V17H250.737V5.604H253.245V6.924C253.678 6.44733 254.195 6.066 254.796 5.78C255.405 5.48667 256.025 5.34 256.655 5.34C258.034 5.34 259.152 5.77633 260.01 6.649C260.868 7.52167 261.297 8.66933 261.297 10.092V17H258.789V10.224C258.789 9.44667 258.547 8.81233 258.063 8.321C257.579 7.82967 256.949 7.584 256.171 7.584C255.629 7.584 255.09 7.76733 254.554 8.134C254.019 8.49333 253.583 8.926 253.245 9.432ZM271.205 15.02C271.939 15.02 272.602 14.8367 273.196 14.47C273.798 14.096 274.249 13.5973 274.549 12.974V9.652C274.249 9.02867 273.798 8.53 273.196 8.156C272.595 7.77467 271.931 7.584 271.205 7.584C270.164 7.584 269.284 7.94333 268.565 8.662C267.847 9.38067 267.487 10.2607 267.487 11.302C267.487 12.3433 267.847 13.2233 268.565 13.942C269.284 14.6607 270.164 15.02 271.205 15.02ZM270.765 5.34C272.291 5.34 273.552 5.83867 274.549 6.836V5.604H277.057V17H274.549V15.768C273.552 16.7653 272.291 17.264 270.765 17.264C269.665 17.264 268.664 16.9927 267.762 16.45C266.868 15.9073 266.171 15.1813 265.672 14.272C265.181 13.3627 264.935 12.3727 264.935 11.302C264.935 10.2313 265.181 9.24133 265.672 8.332C266.171 7.42267 266.868 6.69667 267.762 6.154C268.664 5.61133 269.665 5.34 270.765 5.34ZM281.793 17V0.94H284.301V17H281.793ZM289.617 16.802C289.309 16.4867 289.155 16.098 289.155 15.636C289.155 15.174 289.309 14.789 289.617 14.481C289.933 14.1657 290.321 14.008 290.783 14.008C291.245 14.008 291.63 14.1657 291.938 14.481C292.254 14.789 292.411 15.174 292.411 15.636C292.411 16.098 292.254 16.4867 291.938 16.802C291.63 17.11 291.245 17.264 290.783 17.264C290.321 17.264 289.933 17.11 289.617 16.802Z" fill="#FCFCFC"/>
</svg>
