<svg width="311" height="259" viewBox="0 0 311 259" fill="none" xmlns="http://www.w3.org/2000/svg">
<path d="M5.50368 258.655H306.719C308.524 258.655 309.707 256.766 308.919 255.138L250.073 133.517C248.954 131.205 245.667 131.194 244.533 133.499L196.837 230.561C195.918 232.429 193.24 232.369 192.402 230.466L104.17 29.4132C103.136 27.0588 99.7923 27.0799 98.7893 29.4484L3.25486 255.25C2.57212 256.865 3.7546 258.655 5.50368 258.655Z" fill="url(#paint0_linear_5491_37970)"/>
<path d="M296.076 67.8799C293.05 67.8799 290.238 68.8174 287.876 70.4176C284.713 64.1298 278.392 59.8299 271.097 59.8299C268.285 59.8299 265.624 60.4855 263.227 61.6274C259.888 56.034 253.944 52.298 247.148 52.298C246.669 52.298 246.201 52.3368 245.733 52.372C242.907 45.1926 236.129 40.1313 228.211 40.1313C219.937 40.1313 212.919 45.6613 210.343 53.3554C208.432 52.6822 206.391 52.298 204.262 52.298C195.214 52.298 187.658 58.9065 185.782 67.7354C183.547 66.3679 180.95 65.5678 178.166 65.5678C170.403 65.5678 164.015 71.6794 163.195 79.5285H310.622C308.911 72.8248 303.059 67.8799 296.076 67.8799Z" fill="#E8E8E8"/>
<path d="M155.633 114.467C155.13 107.954 150.446 102.85 144.741 102.85C143.911 102.85 143.105 102.959 142.33 103.164C141.806 103.301 141.285 102.973 141.046 102.431C138.287 96.0866 132.656 91.7373 126.152 91.7373C124.854 91.7373 123.59 91.9241 122.376 92.2554C121.94 92.3752 121.493 92.2131 121.204 91.8254C117.512 86.8664 112.082 83.7296 106.018 83.7296C104.818 83.7296 103.65 83.8635 102.51 84.1032C101.954 84.2195 101.415 83.8917 101.197 83.3031C98.6244 76.3915 92.7472 71.5488 85.8881 71.5488C79.9511 71.5488 74.7461 75.1756 71.7829 80.6315C71.5084 81.1355 70.984 81.3787 70.4737 81.2236C68.6542 80.6773 66.7503 80.3813 64.783 80.3813C55.8933 80.3813 48.2037 86.2919 44.3782 94.9235C44.1283 95.4839 43.5793 95.7623 43.0374 95.6107C41.8056 95.2689 40.5246 95.0856 39.2049 95.0856C33.1447 95.0856 27.8446 98.8604 24.9166 104.507C24.6456 105.028 24.1071 105.317 23.5933 105.138C22.439 104.729 21.2178 104.5 19.9509 104.5C14.496 104.5 9.85757 108.532 8.06626 114.181C7.79879 115.024 8.37596 115.912 9.17131 115.912H154.461C155.714 115.912 155.781 115.39 155.633 114.467Z" fill="#E8E8E8"/>
<path d="M224.398 105.61C224.687 105.413 224.996 105.24 225.303 105.078C225.64 104.898 225.989 104.739 226.337 104.581C226.562 104.479 226.02 104.708 226.256 104.616C226.295 104.598 226.337 104.584 226.376 104.567C226.478 104.524 226.584 104.486 226.689 104.443C226.932 104.352 227.178 104.267 227.428 104.186C227.946 104.024 228.473 103.89 229.012 103.798C229.135 103.777 229.293 103.728 229.417 103.735C229.008 103.714 229.448 103.735 229.561 103.724C229.874 103.696 230.184 103.682 230.497 103.682C230.789 103.682 231.081 103.696 231.373 103.724C231.433 103.731 231.493 103.738 231.549 103.742C231.862 103.77 231.243 103.686 231.556 103.742C231.736 103.774 231.915 103.805 232.095 103.844C232.401 103.911 232.7 103.996 232.996 104.098C233.147 104.151 233.298 104.211 233.446 104.267C233.168 104.161 233.341 104.221 233.4 104.249C233.52 104.306 233.643 104.362 233.759 104.422C234.101 104.595 234.428 104.792 234.741 105.007C234.829 105.067 234.917 105.134 235.005 105.198C235.297 105.409 234.812 105.025 235.09 105.265C235.266 105.416 235.442 105.561 235.611 105.719C235.973 106.058 236.307 106.424 236.624 106.805C236.86 107.094 237.163 107.531 237.462 108C237.842 108.602 238.637 108.842 239.267 108.475C239.869 108.123 240.122 107.274 239.742 106.667C238.693 105.004 237.367 103.499 235.677 102.466C234.319 101.634 232.778 101.18 231.194 101.063C228.822 100.884 226.432 101.567 224.324 102.614C223.895 102.829 223.462 103.058 223.064 103.33C222.477 103.731 222.213 104.489 222.589 105.138C222.931 105.719 223.807 106.015 224.398 105.61Z" fill="#2D2D2D"/>
<path d="M254.522 103.326C253.364 102.533 251.984 101.966 250.647 101.571C247.912 100.76 244.956 100.845 242.401 102.184C240.483 103.192 238.987 104.849 237.844 106.664C237.464 107.266 237.717 108.119 238.319 108.472C238.952 108.842 239.744 108.602 240.124 107.996C240.652 107.161 241.004 106.678 241.715 105.966C241.989 105.691 242.278 105.434 242.581 105.191C242.362 105.367 242.764 105.057 242.841 105.004C243.014 104.884 243.193 104.771 243.376 104.662C243.668 104.493 243.967 104.341 244.273 104.204C243.95 104.352 244.414 104.151 244.499 104.123C244.678 104.059 244.858 104.003 245.041 103.95C245.336 103.865 245.635 103.798 245.942 103.749C246.019 103.735 246.332 103.703 245.949 103.745C246.008 103.738 246.068 103.731 246.125 103.724C246.301 103.707 246.476 103.693 246.652 103.686C246.941 103.671 247.23 103.671 247.518 103.686C247.659 103.693 247.8 103.7 247.941 103.714C248.011 103.721 248.081 103.728 248.148 103.735C248.264 103.745 248.546 103.714 248.169 103.731C248.68 103.707 249.31 103.939 249.799 104.077C250.277 104.211 250.749 104.376 251.21 104.563C251.249 104.581 251.291 104.595 251.33 104.612C251.565 104.704 251.023 104.475 251.249 104.577C251.34 104.62 251.432 104.658 251.523 104.701C251.706 104.785 251.886 104.873 252.065 104.965C252.449 105.159 252.832 105.367 253.184 105.61C253.772 106.015 254.648 105.719 254.99 105.134C255.377 104.482 255.113 103.731 254.522 103.326Z" fill="#2D2D2D"/>
<path d="M184.8 132.879C185.089 132.682 185.399 132.509 185.705 132.347C186.043 132.167 186.391 132.008 186.74 131.85C186.965 131.748 186.423 131.977 186.659 131.885C186.697 131.867 186.74 131.853 186.778 131.836C186.88 131.793 186.986 131.755 187.091 131.712C187.334 131.621 187.581 131.536 187.831 131.455C188.348 131.293 188.876 131.159 189.414 131.067C189.537 131.046 189.696 130.997 189.819 131.004C189.411 130.983 189.851 131.004 189.963 130.993C190.276 130.965 190.586 130.951 190.899 130.951C191.191 130.951 191.484 130.965 191.776 130.993C191.835 131 191.895 131.007 191.952 131.011C192.265 131.039 191.645 130.955 191.959 131.011C192.138 131.043 192.318 131.074 192.497 131.113C192.803 131.18 193.102 131.265 193.398 131.367C193.549 131.42 193.701 131.48 193.848 131.536C193.57 131.43 193.743 131.49 193.803 131.519C193.922 131.575 194.046 131.631 194.162 131.691C194.503 131.864 194.83 132.061 195.144 132.276C195.232 132.336 195.32 132.403 195.408 132.467C195.7 132.678 195.214 132.294 195.492 132.534C195.668 132.685 195.844 132.83 196.013 132.988C196.375 133.327 196.71 133.693 197.026 134.074C197.262 134.363 197.565 134.8 197.864 135.269C198.244 135.871 199.039 136.111 199.669 135.744C200.271 135.392 200.525 134.543 200.144 133.936C199.096 132.273 197.769 130.768 196.08 129.735C194.721 128.903 193.18 128.449 191.596 128.332C189.224 128.153 186.835 128.836 184.727 129.883C184.297 130.098 183.864 130.327 183.467 130.599C182.879 131 182.615 131.758 182.992 132.407C183.336 132.988 184.209 133.284 184.8 132.879Z" fill="#2D2D2D"/>
<path d="M214.924 130.599C213.766 129.805 212.387 129.238 211.049 128.843C208.315 128.033 205.359 128.117 202.804 129.457C200.885 130.465 199.39 132.121 198.246 133.936C197.866 134.539 198.119 135.392 198.721 135.744C199.355 136.114 200.146 135.875 200.527 135.269C201.054 134.433 201.406 133.95 202.117 133.238C202.392 132.963 202.68 132.706 202.983 132.463C202.765 132.639 203.166 132.329 203.243 132.276C203.416 132.156 203.595 132.044 203.778 131.934C204.07 131.765 204.37 131.614 204.676 131.476C204.352 131.624 204.817 131.423 204.901 131.395C205.08 131.332 205.26 131.275 205.443 131.222C205.739 131.138 206.038 131.071 206.344 131.021C206.421 131.007 206.735 130.976 206.351 131.018C206.411 131.011 206.471 131.004 206.527 130.997C206.703 130.979 206.879 130.965 207.055 130.958C207.343 130.944 207.632 130.944 207.921 130.958C208.061 130.965 208.202 130.972 208.343 130.986C208.413 130.993 208.484 131 208.551 131.007C208.667 131.018 208.948 130.986 208.572 131.004C209.082 130.979 209.712 131.212 210.201 131.349C210.68 131.483 211.151 131.649 211.612 131.836C211.651 131.853 211.693 131.867 211.732 131.885C211.968 131.977 211.426 131.748 211.651 131.85C211.742 131.892 211.834 131.931 211.926 131.973C212.109 132.058 212.288 132.146 212.467 132.237C212.851 132.431 213.235 132.639 213.587 132.882C214.174 133.288 215.051 132.992 215.392 132.407C215.779 131.751 215.515 131 214.924 130.599Z" fill="#2D2D2D"/>
<path d="M229.786 34.9043C229.033 79.1617 163.296 79.1547 162.547 34.9043C163.304 -9.35313 229.037 -9.34609 229.786 34.9043Z" fill="#E07000"/>
<g filter="url(#filter0_f_5491_37970)">
<g filter="url(#filter1_f_5491_37970)">
<rect x="211" y="14" width="18" height="19" fill="url(#paint1_radial_5491_37970)"/>
</g>
</g>
<g filter="url(#filter2_f_5491_37970)">
<g filter="url(#filter3_f_5491_37970)">
<rect x="182" y="21" width="18" height="19" fill="url(#paint2_radial_5491_37970)"/>
</g>
</g>
<path d="M193.583 37.329C197.218 39.5671 201.564 40.7725 205.837 40.2544C209.989 39.7539 213.839 37.8295 216.704 34.7632C218.464 32.8775 219.773 30.6818 220.748 28.3027C221.012 27.6612 220.463 26.8224 219.826 26.6779C219.059 26.5017 218.485 26.914 218.203 27.6013C218.112 27.8234 218.235 27.5414 218.137 27.7599C218.084 27.8762 218.034 27.9925 217.982 28.1089C217.869 28.3556 217.749 28.6023 217.626 28.8455C217.394 29.3037 217.144 29.7548 216.877 30.1919C216.616 30.6183 216.338 31.0377 216.043 31.4431C215.972 31.5382 215.902 31.6334 215.831 31.7285C215.74 31.8484 215.845 31.7144 215.86 31.6968C215.824 31.7426 215.786 31.7885 215.75 31.8343C215.592 32.0317 215.43 32.2255 215.265 32.4193C214.642 33.1384 213.959 33.808 213.224 34.4107C213.136 34.4812 213.048 34.5517 212.963 34.6222C212.766 34.7808 213.079 34.5411 212.875 34.6891C212.678 34.8301 212.485 34.9746 212.287 35.1086C211.907 35.3694 211.517 35.6126 211.116 35.8381C210.718 36.0637 210.31 36.2717 209.894 36.462C209.796 36.5078 209.694 36.5501 209.595 36.5959C209.458 36.6594 209.645 36.5748 209.659 36.5677C209.609 36.5889 209.557 36.61 209.507 36.6276C209.286 36.7157 209.067 36.7968 208.842 36.8779C207.966 37.1845 207.061 37.4136 206.143 37.5616C206.034 37.5793 205.925 37.5933 205.819 37.611C205.664 37.6356 205.882 37.6004 205.896 37.6004C205.84 37.6074 205.787 37.6145 205.731 37.6215C205.492 37.6462 205.256 37.6709 205.017 37.6885C204.556 37.7202 204.091 37.7343 203.63 37.7273C203.162 37.7202 202.694 37.692 202.229 37.6462C202.117 37.6356 202.004 37.6215 201.892 37.6074C201.628 37.5793 202.053 37.6356 201.789 37.5934C201.543 37.5546 201.3 37.5158 201.054 37.47C199.974 37.262 198.914 36.9554 197.887 36.5571C197.756 36.5043 197.623 36.4514 197.492 36.3985C197.704 36.4867 197.366 36.3421 197.302 36.3139C197.038 36.1941 196.778 36.0708 196.521 35.9404C195.972 35.6654 195.441 35.3623 194.916 35.0416C194.307 34.668 193.466 34.9112 193.111 35.5174C192.741 36.1483 192.974 36.9554 193.583 37.329Z" fill="#2D2D2D"/>
<path d="M190.376 28.8353C190.457 28.6732 190.555 28.5146 190.654 28.3595C190.763 28.1868 190.904 28.0282 191.006 27.8555C190.96 27.9366 190.794 28.1199 190.932 27.9542C190.974 27.9049 191.016 27.852 191.058 27.8027C191.15 27.6969 191.241 27.5912 191.336 27.489C191.53 27.281 191.738 27.0872 191.956 26.9074C192.156 26.7418 192.061 26.8933 191.931 26.9215C191.984 26.9109 192.058 26.8299 192.104 26.7982C192.241 26.703 192.385 26.6114 192.529 26.5303C192.67 26.4492 192.818 26.3893 192.959 26.3118C193.075 26.2483 192.822 26.3787 192.818 26.3717C192.818 26.3717 192.917 26.3329 192.924 26.3294C193.022 26.2942 193.117 26.2589 193.216 26.2307C193.367 26.1849 193.522 26.1461 193.677 26.1144C193.73 26.1038 193.782 26.0968 193.835 26.0862C193.972 26.0545 193.687 26.1038 193.687 26.1038C193.754 26.1285 193.905 26.0827 193.979 26.0792C194.198 26.0686 194.419 26.0721 194.637 26.0933C194.683 26.0968 194.729 26.1038 194.775 26.1074C194.937 26.1179 194.5 26.051 194.75 26.1074C194.859 26.132 194.972 26.1532 195.084 26.1778C195.338 26.2413 195.584 26.3224 195.831 26.414C195.852 26.421 196.021 26.4915 195.88 26.4316C195.718 26.3646 196.038 26.5056 196.035 26.5056C196.179 26.5761 196.323 26.6501 196.464 26.7277C197.069 27.059 197.932 26.8968 198.269 26.2519C198.597 25.6351 198.442 24.7962 197.794 24.4438C195.855 23.3864 193.712 23.0939 191.667 24.0138C190.372 24.5953 189.33 25.6527 188.532 26.8052C188.377 27.0308 188.225 27.2634 188.102 27.5066C187.793 28.1234 187.919 28.9657 188.577 29.3147C189.169 29.6248 190.048 29.4944 190.376 28.8353Z" fill="#2D2D2D"/>
<path d="M219.412 18.7938C217.293 17.4545 214.327 17.1196 212.124 18.4026C211.015 19.0476 210.16 20.0415 209.519 21.1376C209.171 21.7332 209.364 22.6144 209.994 22.9457C210.628 23.2805 211.427 23.1078 211.8 22.4699C211.927 22.2513 212.064 22.0434 212.205 21.8355C212.345 21.6275 212.127 21.9165 212.282 21.7297C212.366 21.631 212.447 21.5323 212.535 21.4372C212.676 21.2821 212.831 21.1411 212.986 21.0037C213.025 20.9719 213.063 20.9402 213.102 20.9085C213.095 20.9156 212.905 21.0424 213.028 20.9649C213.12 20.905 213.208 20.838 213.303 20.7781C213.454 20.6794 213.612 20.5913 213.778 20.5138C213.816 20.4961 213.859 20.4785 213.897 20.4574C214.028 20.3904 213.785 20.5138 213.781 20.5067C213.778 20.4997 214.038 20.4151 214.063 20.408C214.221 20.3587 214.379 20.3164 214.541 20.2847C214.619 20.267 214.7 20.26 214.781 20.2424C214.918 20.2106 214.626 20.2741 214.629 20.2635C214.629 20.26 214.774 20.2494 214.788 20.2494C215.108 20.2318 215.425 20.2283 215.741 20.26C215.791 20.2635 215.84 20.2741 215.889 20.2741C216.03 20.2811 215.71 20.2459 215.72 20.2494C215.777 20.2776 215.872 20.2741 215.931 20.2847C216.079 20.3129 216.227 20.3446 216.371 20.3798C216.628 20.4433 216.882 20.5208 217.132 20.6124C217.237 20.6512 217.339 20.6935 217.445 20.7323C217.638 20.8063 217.142 20.5948 217.318 20.6794C217.367 20.7041 217.42 20.7252 217.469 20.7464C217.681 20.8451 217.892 20.9473 218.089 21.0742C218.673 21.4442 219.57 21.2151 219.894 20.5983C220.228 19.9534 220.035 19.1885 219.412 18.7938Z" fill="#2D2D2D"/>
<defs>
<filter id="filter0_f_5491_37970" x="209" y="12" width="22" height="23" filterUnits="userSpaceOnUse" color-interpolation-filters="sRGB">
<feFlood flood-opacity="0" result="BackgroundImageFix"/>
<feBlend mode="normal" in="SourceGraphic" in2="BackgroundImageFix" result="shape"/>
<feGaussianBlur stdDeviation="1" result="effect1_foregroundBlur_5491_37970"/>
</filter>
<filter id="filter1_f_5491_37970" x="209" y="12" width="22" height="23" filterUnits="userSpaceOnUse" color-interpolation-filters="sRGB">
<feFlood flood-opacity="0" result="BackgroundImageFix"/>
<feBlend mode="normal" in="SourceGraphic" in2="BackgroundImageFix" result="shape"/>
<feGaussianBlur stdDeviation="1" result="effect1_foregroundBlur_5491_37970"/>
</filter>
<filter id="filter2_f_5491_37970" x="180" y="19" width="22" height="23" filterUnits="userSpaceOnUse" color-interpolation-filters="sRGB">
<feFlood flood-opacity="0" result="BackgroundImageFix"/>
<feBlend mode="normal" in="SourceGraphic" in2="BackgroundImageFix" result="shape"/>
<feGaussianBlur stdDeviation="1" result="effect1_foregroundBlur_5491_37970"/>
</filter>
<filter id="filter3_f_5491_37970" x="180" y="19" width="22" height="23" filterUnits="userSpaceOnUse" color-interpolation-filters="sRGB">
<feFlood flood-opacity="0" result="BackgroundImageFix"/>
<feBlend mode="normal" in="SourceGraphic" in2="BackgroundImageFix" result="shape"/>
<feGaussianBlur stdDeviation="1" result="effect1_foregroundBlur_5491_37970"/>
</filter>
<linearGradient id="paint0_linear_5491_37970" x1="3.05732" y1="143.157" x2="309.169" y2="143.157" gradientUnits="userSpaceOnUse">
<stop stop-color="#40806A"/>
<stop offset="0.6927" stop-color="#1D4047"/>
</linearGradient>
<radialGradient id="paint1_radial_5491_37970" cx="0" cy="0" r="1" gradientUnits="userSpaceOnUse" gradientTransform="translate(220 26.0909) rotate(90) scale(6.90909 6.54545)">
<stop stop-color="#F9A01B"/>
<stop offset="1" stop-color="white" stop-opacity="0"/>
</radialGradient>
<radialGradient id="paint2_radial_5491_37970" cx="0" cy="0" r="1" gradientUnits="userSpaceOnUse" gradientTransform="translate(191 33.0909) rotate(90) scale(6.90909 6.54545)">
<stop stop-color="#F9A01B"/>
<stop offset="1" stop-color="white" stop-opacity="0"/>
</radialGradient>
</defs>
</svg>
