<svg width="60" height="52" viewBox="0 0 60 52" fill="none" xmlns="http://www.w3.org/2000/svg">
<path d="M58.6531 24.5547H1.00001C0.447726 24.5547 -0.00258424 24.9991 0.0381458 25.5499C0.707076 34.5956 10.1921 51.8957 29.8265 51.8957C49.4609 51.8957 58.946 34.5956 59.6149 25.5499C59.6556 24.9991 59.2053 24.5547 58.6531 24.5547Z" fill="url(#paint0_linear_3_37)"/>
<path fill-rule="evenodd" clip-rule="evenodd" d="M5.99973 21.0002C5.99979 14.9251 10.9247 10.0002 16.9999 10.0002C23.075 10.0002 27.9999 14.9251 28 21.0002H5.99973Z" fill="#1D4047"/>
<path d="M18 15.9999C18 17.1045 17 17.9999 17 17.9999C17 17.9999 16 17.1045 16 15.9999C16 14.8954 17 13.9999 17 13.9999C17 13.9999 18 14.8954 18 15.9999Z" fill="#FCFCFC"/>
<path d="M13.4386 17.3024C14.4404 17.5709 15.0095 18.6954 15.0095 18.6954C15.0095 18.6954 13.9544 19.3848 12.9526 19.1163C11.9508 18.8479 11.3817 17.7234 11.3817 17.7234C11.3817 17.7234 12.4368 17.034 13.4386 17.3024Z" fill="#FCFCFC"/>
<path d="M20.8231 17.3024C19.8213 17.5709 19.2522 18.6954 19.2522 18.6954C19.2522 18.6954 20.3073 19.3848 21.3091 19.1163C22.3109 18.8479 22.88 17.7234 22.88 17.7234C22.88 17.7234 21.8249 17.034 20.8231 17.3024Z" fill="#FCFCFC"/>
<path d="M4 21H3V22H4V21ZM30 21V22H31V21H30ZM5 21C5 14.3726 10.3726 9 17 9V7C9.268 7 3 13.268 3 21H5ZM30 20H4V22H30V20ZM17 9C23.6274 9 29 14.3726 29 21H31C31 13.268 24.732 7 17 7V9Z" fill="#1D4047"/>
<path d="M45.8064 9.32162C35.7873 9.32162 33.7737 17.7738 34.0192 22H57.5935C57.8391 17.7738 55.8255 9.32162 45.8064 9.32162Z" fill="#1D4047"/>
<path d="M45.1856 10.5894C49.3415 10.5894 50.7781 8.05375 49.3415 4.25024" stroke="#1D4047" stroke-width="2"/>
<path d="M47.0773 6.87186C47.0773 6.87186 42.8995 8.71521 39.6972 7.06008C36.4949 5.40485 35.4807 0.878044 35.4807 0.878044C35.4807 0.878044 39.6585 -0.965365 42.8608 0.689823C46.0631 2.34495 47.0773 6.87186 47.0773 6.87186Z" fill="#BFB86E"/>
<mask id="mask0_3_37" style="mask-type:alpha" maskUnits="userSpaceOnUse" x="4" y="8" width="26" height="13">
<path fill-rule="evenodd" clip-rule="evenodd" d="M17 8C9.8203 8 4 13.8203 4 21H30C30 13.8203 24.1797 8 17 8Z" fill="white"/>
</mask>
<g mask="url(#mask0_3_37)">
</g>
<defs>
<linearGradient id="paint0_linear_3_37" x1="23.0915" y1="24.5547" x2="23.3341" y2="51.9038" gradientUnits="userSpaceOnUse">
<stop stop-color="#1D4047"/>
<stop offset="0.277889" stop-color="#234B4D"/>
<stop offset="0.577531" stop-color="#2E5E58"/>
<stop offset="0.806558" stop-color="#376F61"/>
<stop offset="1" stop-color="#40806A"/>
</linearGradient>
</defs>
</svg>
