<svg width="85" height="68" viewBox="0 0 85 68" fill="none" xmlns="http://www.w3.org/2000/svg">
<path d="M15.1899 55.1458V53.6458H16.6899V55.1458H15.1899ZM31.0759 55.1458L30.0711 54.032L30.4993 53.6458H31.0759V55.1458ZM21.243 64.0173L22.2478 65.131L22.2392 65.1386L21.243 64.0173ZM17.8332 67.2916C16.6281 67.2916 15.5314 66.8561 14.7559 65.9657C14.0033 65.1016 13.6899 63.9676 13.6899 62.7991H16.6899C16.6899 63.4579 16.8655 63.8201 17.0182 63.9954C17.148 64.1445 17.373 64.2916 17.8332 64.2916V67.2916ZM13.6899 62.7991V55.1458H16.6899V62.7991H13.6899ZM15.1899 56.6458H12.3352V53.6458H15.1899V56.6458ZM12.3352 56.6458C8.84614 56.6458 5.85048 55.5469 3.72504 53.4096C1.60027 51.273 0.5 48.2544 0.5 44.7118H3.5C3.5 47.6308 4.3954 49.8292 5.85225 51.2942C7.30844 52.7585 9.48036 53.6458 12.3352 53.6458V56.6458ZM0.5 44.7118V21.434H3.5V44.7118H0.5ZM0.5 21.434C0.5 17.8205 1.6303 14.7901 3.8248 12.6663C6.01243 10.5492 9.08494 9.5 12.6524 9.5V12.5C9.66449 12.5 7.41082 13.3707 5.91109 14.8221C4.41823 16.2668 3.5 18.4534 3.5 21.434H0.5ZM12.6524 9.5H48.5479V12.5H12.6524V9.5ZM48.5479 9.5C52.1986 9.5 55.2745 10.5444 57.4404 12.6748C59.6096 14.8085 60.6738 17.8425 60.6738 21.434H57.6738C57.6738 18.4314 56.7953 16.2484 55.3366 14.8136C53.8746 13.3756 51.6375 12.5 48.5479 12.5V9.5ZM60.6738 21.434V44.7118H57.6738V21.434H60.6738ZM60.6738 44.7118C60.6738 48.2796 59.6081 51.3109 57.4423 53.4491C55.2789 55.585 52.2041 56.6458 48.5479 56.6458V53.6458C51.6321 53.6458 53.8702 52.7601 55.3346 51.3143C56.7968 49.8707 57.6738 47.6851 57.6738 44.7118H60.6738ZM48.5479 56.6458H31.0759V53.6458H48.5479V56.6458ZM32.0807 56.2595L22.2478 65.131L20.2382 62.9036L30.0711 54.032L32.0807 56.2595ZM22.2392 65.1386C20.8075 66.4107 19.5674 67.2916 17.8332 67.2916V64.2916C18.3721 64.2916 18.8766 64.1132 20.2467 62.8959L22.2392 65.1386Z" fill="#E8E8E8"/>
<path d="M66.9561 59.5833C68.767 59.5833 69.8305 58.3162 69.8305 56.3291V48.0065H72.9349C79.8335 48.0065 84.1739 43.6868 84.1739 36.66V11.3465C84.1739 4.17573 79.7185 0 72.59 0H33.5552C26.2254 0 22 4.17573 22 11.3465V36.66C22 43.7732 26.2254 48.0065 33.5552 48.0065H52.5552L63.2481 57.6539C64.7715 59.0074 65.7201 59.5833 66.9561 59.5833Z" fill="url(#paint0_linear_9_91)"/>
<path d="M52.8408 29.0327C53.3291 29.0327 53.7116 28.9025 53.9883 28.6421C54.2731 28.3817 54.444 28.0277 54.501 27.5801C54.5091 27.5231 54.5132 27.4661 54.5132 27.4092C54.5213 27.3522 54.5254 27.2952 54.5254 27.2383C54.5661 26.7826 54.6678 26.3919 54.8306 26.0664C54.9933 25.7327 55.2578 25.4072 55.624 25.0898C55.9984 24.7725 56.5192 24.3981 57.1865 23.9668C58.2852 23.2669 59.1274 22.4938 59.7134 21.6475C60.3075 20.8011 60.6045 19.7961 60.6045 18.6323C60.6045 17.3872 60.2912 16.3211 59.6646 15.4341C59.0461 14.5389 58.1956 13.8553 57.1133 13.3833C56.0309 12.9032 54.8021 12.6631 53.4268 12.6631C52.4095 12.6631 51.4655 12.8055 50.5947 13.0903C49.724 13.367 48.959 13.7699 48.2998 14.2988C47.6488 14.8278 47.1523 15.4585 46.8105 16.1909C46.6641 16.4757 46.5583 16.7646 46.4932 17.0576C46.4281 17.3424 46.3955 17.6191 46.3955 17.8877C46.3955 18.376 46.542 18.7747 46.835 19.084C47.1279 19.3851 47.5389 19.5356 48.0679 19.5356C48.4666 19.5356 48.8166 19.4339 49.1177 19.2305C49.4188 19.0189 49.6426 18.73 49.7891 18.3638C49.9762 17.7371 50.2367 17.2326 50.5703 16.8501C50.904 16.4676 51.2987 16.1909 51.7544 16.02C52.2183 15.841 52.7228 15.7515 53.2681 15.7515C53.9354 15.7515 54.5335 15.8735 55.0625 16.1177C55.5915 16.3537 56.0106 16.6914 56.3198 17.1309C56.6291 17.5703 56.7837 18.083 56.7837 18.6689C56.7837 19.2061 56.686 19.674 56.4907 20.0728C56.2954 20.4634 55.9984 20.8296 55.5996 21.1714C55.2008 21.5132 54.7044 21.8794 54.1104 22.27C53.5081 22.6688 52.9792 23.0879 52.5234 23.5273C52.0677 23.9587 51.7096 24.4347 51.4492 24.9556C51.1969 25.4764 51.0708 26.0664 51.0708 26.7256C51.0708 26.8151 51.0708 26.9046 51.0708 26.9941C51.0708 27.0837 51.0708 27.1772 51.0708 27.2749C51.0708 27.7957 51.2254 28.2189 51.5347 28.5444C51.8521 28.87 52.2874 29.0327 52.8408 29.0327ZM52.8652 35.9419C53.2803 35.9419 53.6587 35.8442 54.0005 35.6489C54.3423 35.4536 54.6149 35.1891 54.8184 34.8555C55.0218 34.5218 55.1235 34.1556 55.1235 33.7568C55.1235 33.3581 55.0218 32.9959 54.8184 32.6704C54.6149 32.3368 54.3423 32.0723 54.0005 31.877C53.6587 31.6816 53.2803 31.584 52.8652 31.584C52.4583 31.584 52.084 31.6816 51.7422 31.877C51.4085 32.0723 51.14 32.3368 50.9365 32.6704C50.7331 32.9959 50.6313 33.3581 50.6313 33.7568C50.6313 34.1556 50.7331 34.5218 50.9365 34.8555C51.14 35.1891 51.4085 35.4536 51.7422 35.6489C52.084 35.8442 52.4583 35.9419 52.8652 35.9419Z" fill="#FCFCFC"/>
<defs>
<linearGradient id="paint0_linear_9_91" x1="46.0673" y1="-2.593e-10" x2="47.1725" y2="59.5852" gradientUnits="userSpaceOnUse">
<stop stop-color="#1D4047"/>
<stop offset="0.277889" stop-color="#234B4D"/>
<stop offset="0.577531" stop-color="#2E5E58"/>
<stop offset="0.806558" stop-color="#376F61"/>
<stop offset="1" stop-color="#40806A"/>
</linearGradient>
</defs>
</svg>
