<svg width="184" height="62" viewBox="0 0 184 62" fill="none" xmlns="http://www.w3.org/2000/svg">
<path d="M168.064 16.811H155.875V60.3215H168.064V16.811Z" fill="#1D4047"/>
<path d="M133.543 16.1543C127.086 16.1543 121.351 18.7402 117.812 23.2503L117.517 23.6255L117.257 23.2264C114.311 18.6652 109.227 16.1543 102.947 16.1543C97.2948 16.1543 92.437 18.1534 89.2647 21.7867L88.6686 22.469V16.8195H77.0586V60.3198H89.2476V38.4861C89.2476 30.9125 92.9166 26.5697 99.3195 26.5697C105.044 26.5697 108.069 30.2916 108.069 37.3364V60.3232H120.255V38.4895C120.255 30.9159 123.958 26.5731 130.409 26.5731C136.051 26.5731 139.162 30.3974 139.162 37.3398V60.3266H151.347V35.3611C151.347 23.1547 144.859 16.1543 133.533 16.1543" fill="#1D4047"/>
<path d="M161.966 12.1382C163.172 12.1389 164.35 11.7835 165.353 11.117C166.356 10.4505 167.137 9.50292 167.599 8.394C168.061 7.28508 168.182 6.06468 167.947 4.88716C167.713 3.70965 167.132 2.62792 166.28 1.7788C165.428 0.929685 164.342 0.351322 163.16 0.116868C161.977 -0.117586 160.752 0.00240403 159.638 0.461659C158.524 0.920913 157.572 1.6988 156.902 2.69693C156.233 3.69506 155.875 4.86859 155.875 6.06909C155.875 7.67812 156.517 9.2213 157.659 10.3594C158.801 11.4975 160.35 12.1373 161.966 12.1382Z" fill="#1D4047"/>
<path d="M22.5692 48.9593C21.564 49.3365 20.4985 49.5295 19.4243 49.529C15.375 49.529 11.9561 46.8441 11.9561 43.668V0.0585938H0V44.2377C0.34258 53.7695 8.90709 61.4352 19.4072 61.4352C23.0572 61.4461 26.6444 60.49 29.8011 58.6651C29.3934 58.3239 28.9891 57.9827 28.602 57.6416C25.9904 55.2137 23.928 52.2598 22.5521 48.9763" fill="#1D4047"/>
<path d="M48.6981 16.1543C34.7482 16.1543 24.625 25.5803 24.625 38.568C24.625 51.5556 34.7482 60.9782 48.6981 60.9782C62.5966 60.9782 72.6787 51.5522 72.6787 38.568C72.6787 25.5837 62.5863 16.1543 48.6981 16.1543ZM48.6981 51.1394C41.6889 51.1394 36.9784 46.087 36.9784 38.568C36.9784 31.049 41.6752 25.9897 48.6981 25.9897C55.721 25.9897 60.3458 31.0456 60.3458 38.568C60.3458 46.0904 55.6696 51.1394 48.6981 51.1394Z" fill="#1D4047"/>
<path d="M174.712 60.2694V55.6161H173.242V54.5107H177.569V55.6161H176.103V60.2694H174.712ZM181.478 58.6046H180.618L179.446 56.7999V60.2694H178.076V54.5107H179.323L181.036 57.1103L182.749 54.5107H183.999V60.2694H182.629V56.8306L181.478 58.6046Z" fill="#1D4047"/>
</svg>
