<svg width="215" height="122" viewBox="0 0 215 122" fill="none" xmlns="http://www.w3.org/2000/svg">
<path d="M26.3168 19.0252L26.6145 18.6759L26.7124 18.551L26.9219 18.2817L27.012 18.1568L27.2078 17.8739L27.2783 17.7646L27.4742 17.4524L27.5231 17.3665L27.719 17.0172L27.7464 16.9645L27.9422 16.5743V16.5567C28.4529 15.5154 28.7934 14.3994 28.9508 13.251V13.2335L29.0076 12.7573V12.6422L29.033 12.2519V11.8968V11.7426V11.6665L29.0193 11.1709V11.0713L28.9821 10.5971V10.5737C28.7356 8.19526 27.7078 5.96444 26.0583 4.22781L25.6666 3.83754L25.275 3.48434L25.0419 3.2892L24.8774 3.15065L24.5426 2.89697L24.4681 2.84038L24.0765 2.56718L24.051 2.54962L23.6143 2.27838C23.3166 2.10276 23.0111 1.94144 22.6978 1.79443L22.2396 1.5993L22.2161 1.58954L21.7715 1.41977L21.7206 1.40026L21.2996 1.26171L21.2134 1.23439L20.8217 1.12511L20.7023 1.09193L20.3321 1.00998L20.1774 0.976806L19.8288 0.914358L19.6467 0.885089L19.306 0.842159L19.1101 0.818741L18.7459 0.791421L18.5696 0.779712C18.3895 0.779712 18.2073 0.766052 18.0252 0.766052C17.8431 0.766052 17.6688 0.766052 17.4945 0.779712L17.2556 0.795322L16.9716 0.81679L16.6681 0.851911L16.4527 0.87728L16.1276 0.931919L15.9416 0.963146L15.6145 1.03144L15.4343 1.07242L15.1191 1.15438L14.935 1.20511L14.6393 1.29683L14.4434 1.35928L14.1712 1.45879L13.9578 1.5388L13.713 1.64028L13.4819 1.7398L13.2645 1.84322L13.0628 1.95835L12.867 2.06178L12.6104 2.20227L12.4322 2.30765L12.1718 2.46376L11.9994 2.57889L11.7488 2.74671L11.5666 2.87941L11.3395 3.04722L11.1201 3.22285L10.9419 3.3653L10.5757 3.69119L10.5601 3.70484L10.5483 3.71655L10.1566 4.10683L10.1253 4.1439C8.2932 6.04352 7.20992 8.53773 7.07422 11.1689V11.446V11.7387V11.7563L7.08597 12.2227V12.4002L7.10751 12.7027L7.12709 12.9115L7.15843 13.1749L7.18976 13.3974L7.23089 13.6374L7.32684 14.1214L7.3621 14.2755L7.43455 14.5624L7.47764 14.7185L7.5638 15.0073L7.60885 15.1497L7.70872 15.4444L7.74789 15.5498C7.87873 15.8998 8.0271 16.243 8.19243 16.5782L8.21985 16.6386L8.37651 16.9353L8.4333 17.0387L8.59584 17.3216L8.65655 17.4231L8.83476 17.708L8.8798 17.7744L9.11872 18.1237L9.31455 18.3871L9.3263 18.4027L9.56914 18.7052L9.65139 18.8066L9.96668 19.1618L9.9941 19.193L10.0352 19.234L10.3897 19.5989L10.4543 19.6574C12.3587 21.4868 14.8625 22.5687 17.5043 22.7036C17.7001 22.7133 17.896 22.7192 18.082 22.7192C18.2778 22.7192 18.4737 22.7192 18.6695 22.7036C20.9875 22.582 23.2071 21.7307 25.0086 20.2721L25.0321 20.2546L25.4042 19.9365L25.4767 19.8741L25.792 19.5657L25.8879 19.474L26.2659 19.0837L26.2855 19.0642L26.3168 19.0252ZM26.3932 18.0866C26.2139 17.9617 26.0082 17.8796 25.792 17.8466C25.4528 17.8512 25.12 17.7547 24.8363 17.5695C24.6265 17.4242 24.377 17.3466 24.1215 17.347C23.8542 17.4082 23.6065 17.535 23.4008 17.7158C23.2275 17.8768 23.0113 17.9845 22.7781 18.0261C22.6665 18.0261 22.1632 18.1217 21.7989 18.1939C21.4585 18.271 21.114 18.3284 20.7669 18.3656C20.5478 18.3404 20.3334 18.2839 20.1304 18.1978C19.9307 18.1154 19.7215 18.0578 19.5077 18.0261H19.3491V14.3321H19.3921C20.0909 14.4085 20.798 14.3379 21.4676 14.1248C22.1372 13.9116 22.7545 13.5608 23.2794 13.0949C23.6609 12.7471 23.9672 12.3255 24.1796 11.8558C24.3921 11.3861 24.5062 10.8781 24.5151 10.363C24.5678 9.65567 24.718 8.95898 24.9616 8.29256C24.9976 8.19448 25.0093 8.08919 24.9956 7.98566C24.982 7.88212 24.9434 7.78341 24.8832 7.69793C24.823 7.61246 24.7429 7.54275 24.6499 7.49474C24.5568 7.44674 24.4535 7.42186 24.3487 7.42224C23.1272 7.5908 21.9636 8.04711 20.9545 8.75334C19.9454 9.45956 19.1198 10.3953 18.5461 11.4831C17.8162 10.7117 16.8683 10.1796 15.828 9.95709C15.3333 9.82957 14.8564 9.64145 14.4082 9.39705C14.3185 9.34258 14.2169 9.31051 14.1121 9.30357C14.0073 9.29663 13.9023 9.31501 13.8062 9.35717C13.7101 9.39932 13.6256 9.46399 13.5599 9.54568C13.4942 9.62737 13.4493 9.72366 13.429 9.82635C13.2515 10.6503 13.3059 11.5071 13.5861 12.3022C13.8664 13.0973 14.3616 13.7997 15.0172 14.3321C15.4528 14.6381 15.9568 14.8336 16.4854 14.9016C17.0141 14.9696 17.5513 14.9081 18.0507 14.7224V17.8446L17.9038 17.7334C17.6627 17.5592 17.3688 17.4731 17.0715 17.4895C16.7136 17.4793 16.3576 17.5459 16.0277 17.6846C15.7261 17.8566 15.3933 17.9673 15.0486 18.0105C14.8544 17.9994 14.6613 17.974 14.4708 17.9344L14.134 17.8817L13.8442 17.9246C13.6202 17.9779 13.391 18.0067 13.1607 18.0105C12.7996 17.953 12.4528 17.8279 12.1385 17.6417C11.8906 17.5382 11.6238 17.4877 11.3551 17.4934C11.0432 17.5777 10.7431 17.7009 10.4621 17.8602C10.2586 17.9558 10.0422 18.0216 9.8198 18.0554H9.71014C8.52481 16.5026 7.79866 14.6506 7.61366 12.7084C7.42865 10.7662 7.79214 8.81117 8.66312 7.06392C9.53409 5.31668 10.8779 3.84681 12.5427 2.82023C14.2076 1.79365 16.1274 1.25124 18.0852 1.25421C20.0431 1.25719 21.9611 1.80543 23.6229 2.83706C25.2846 3.86869 26.6239 5.34264 27.4895 7.09252C28.3551 8.84241 28.7126 10.7986 28.5217 12.7402C28.3307 14.6818 27.5989 16.5316 26.4088 18.0807L26.3932 18.0866ZM19.4176 13.0305C19.6936 11.7471 20.468 10.6246 21.5718 9.90831C22.1389 9.51316 22.7559 9.19428 23.4067 8.95994C23.313 9.38249 23.2476 9.81079 23.2109 10.242C23.2146 10.6109 23.1382 10.9762 22.9872 11.313C22.8361 11.6498 22.6138 11.9501 22.3355 12.1934C21.9332 12.5255 21.4663 12.7714 20.9642 12.9154C20.4621 13.0595 19.9356 13.0987 19.4176 13.0305V13.0305ZM17.9919 13.3603C17.6497 13.5496 17.2619 13.6419 16.8708 13.6271C16.4796 13.6123 16.1 13.491 15.7731 13.2764C15.4254 12.9915 15.1442 12.6343 14.9494 12.2298C14.7546 11.8253 14.6507 11.3833 14.6451 10.9347C14.9095 11.0304 15.1778 11.1143 15.4422 11.1962C16.7014 11.5885 17.7158 11.9104 17.9919 13.3603V13.3603Z" fill="#939598"/>
<path d="M59.6155 15.8132L59.5078 15.7683L59.2238 15.6649H59.1925L58.8831 15.5654C59.504 13.9117 59.7152 12.1331 59.4988 10.3807C59.2823 8.62834 58.6446 6.95389 57.6398 5.49961C56.635 4.04533 55.2928 2.85419 53.7271 2.02739C52.1615 1.20058 50.4187 0.762526 48.6469 0.750436H48.5666C45.644 0.740085 42.837 1.88703 40.7631 3.93894C38.6892 5.99086 37.5183 8.77967 37.5079 11.6919C37.4975 14.6041 38.6485 17.4011 40.7077 19.4677C42.767 21.5342 45.5657 22.701 48.4883 22.7114H48.5685C50.1069 22.71 51.6279 22.3884 53.0342 21.767C54.4405 21.1457 55.701 20.2384 56.7348 19.1032L56.8817 18.9179L56.9776 18.7969L56.8014 18.6486L56.8366 18.6076L56.6682 18.5354L56.5977 18.4769L56.584 18.4944L56.4234 18.4047C56.2532 18.2874 56.0582 18.2106 55.8535 18.1802C55.5363 18.182 55.2257 18.0904 54.9605 17.9168C54.7631 17.7812 54.5287 17.709 54.2888 17.71C54.0383 17.7667 53.8056 17.884 53.6113 18.0515C53.4466 18.2006 53.2429 18.3 53.0238 18.3383C52.918 18.3383 52.4363 18.4281 52.1014 18.4944C51.7783 18.566 51.4514 18.6188 51.1222 18.6525C50.9201 18.6286 50.7224 18.5767 50.5347 18.4983C50.346 18.4219 50.1487 18.3682 49.9472 18.3383C49.9198 18.3383 49.1482 18.3578 48.9034 18.3383L48.4413 18.0885C48.2134 17.9269 47.9372 17.8471 47.6579 17.8622C47.3226 17.8519 46.9889 17.9124 46.6788 18.0397C46.3974 18.1973 46.0882 18.2993 45.7681 18.3403C45.5851 18.3306 45.4031 18.3072 45.2237 18.27L44.9084 18.2212L44.6343 18.2602C44.4236 18.3094 44.2083 18.3362 43.9919 18.3403C43.6535 18.2868 43.3281 18.171 43.0323 17.9988C42.7989 17.9035 42.5482 17.857 42.296 17.8622C42.0029 17.9402 41.7207 18.0543 41.4559 18.2017C41.2654 18.2955 41.0622 18.3612 40.8527 18.3968C40.6451 18.3968 40.5296 18.4086 40.4493 18.4125C39.1789 16.8791 38.3724 15.0173 38.1239 13.0444C37.8753 11.0715 38.195 9.06889 39.0456 7.2702C39.8962 5.47152 41.2426 3.95099 42.9277 2.88606C44.6129 1.82114 46.5672 1.25573 48.5627 1.25584H48.639C50.3309 1.26426 51.9957 1.68 53.4916 2.46765C54.9875 3.2553 56.2702 4.39154 57.2304 5.77958C58.1907 7.16763 58.8001 8.76636 59.0067 10.4396C59.2133 12.1129 59.011 13.8112 58.417 15.3898L58.1585 15.3117L58.1252 15.2707L57.8432 15.1693L57.6082 15.1829L57.5749 15.4561C57.6395 15.9244 57.7081 16.3889 57.7708 16.8572C57.806 17.1362 57.9333 17.1909 58.1859 17.0211C58.513 16.8006 58.842 16.5821 59.1651 16.3596L59.5822 16.0727L59.6155 15.8132Z" fill="#939598"/>
<path d="M48.169 6.43288C48.1703 6.31549 48.1479 6.19902 48.1032 6.09041C48.0585 5.9818 47.9923 5.88326 47.9086 5.80064C47.7837 5.68567 47.6271 5.61083 47.459 5.58587C47.2909 5.5609 47.1191 5.58699 46.9661 5.6607C46.813 5.73441 46.6859 5.85235 46.6011 5.99913C46.5163 6.14592 46.4778 6.31475 46.4907 6.48362V8.39793C46.4907 9.64162 46.4907 10.886 46.4907 12.1309C46.4854 12.2251 46.5092 12.3187 46.5589 12.399C46.6086 12.4792 46.6819 12.5423 46.7688 12.5798L50.5758 14.5312L51.929 15.2298L52.1425 15.3215L52.4108 15.3663L52.8142 15.2629C52.9526 15.1854 53.0663 15.0704 53.1422 14.9314C53.218 14.7923 53.2529 14.6347 53.2429 14.4767C53.2329 14.3188 53.1783 14.1668 53.0855 14.0384C52.9927 13.9099 52.8654 13.8102 52.7182 13.7506L52.4264 13.6003C51.0138 12.8705 49.6012 12.1433 48.1886 11.4187L48.169 11.4089V11.3855C48.169 10.7689 48.169 10.1483 48.169 9.52974V8.16377C48.171 7.59396 48.171 7.0144 48.169 6.43288Z" fill="#939598"/>
<path d="M86.8687 3.83754C84.9458 1.9879 82.4136 0.89783 79.744 0.770396C77.0744 0.642963 74.4493 1.48686 72.3577 3.14487C70.2661 4.80288 68.8507 7.16196 68.3751 9.78267C67.8995 12.4034 68.3961 15.107 69.7725 17.3899V17.3899L69.7862 17.4075C70.1735 18.0471 70.6249 18.646 71.1335 19.195C71.5832 19.6802 72.0768 20.1231 72.6081 20.518L72.6806 20.5746L72.9763 20.7834C73.9951 21.4939 75.1302 22.0222 76.3309 22.3445H76.3407L76.8616 22.4714L76.9615 22.4928L77.4178 22.5767L77.6136 22.606L78.0053 22.6567L78.3265 22.6841L78.6085 22.7075C78.8043 22.7192 79.0197 22.725 79.2292 22.725C79.4094 22.725 79.5896 22.725 79.7698 22.7094H79.8735L80.3142 22.6743L80.5511 22.6489H80.6079C82.67 22.3895 84.6165 21.5541 86.2224 20.2393C87.8283 18.9244 89.0282 17.1837 89.6835 15.2182C90.3388 13.2527 90.4228 11.1426 89.9258 9.13157C89.4287 7.12053 88.371 5.29062 86.8746 3.85315L86.8687 3.83754ZM68.7169 11.7407C68.7174 9.68714 69.3241 7.67913 70.4616 5.96673C71.599 4.25434 73.2169 2.91324 75.1138 2.11047C77.0106 1.30771 79.1026 1.07875 81.129 1.45212C83.1555 1.8255 85.027 2.7847 86.5103 4.21026C88.2987 5.92843 89.4178 8.22274 89.6687 10.6855C89.9197 13.1482 89.2864 15.6199 87.8812 17.6612C87.7081 17.7103 87.5266 17.7222 87.3485 17.6963C87.0984 17.562 86.8243 17.4778 86.5417 17.4485C85.9896 17.4393 85.4429 17.3384 84.9241 17.1499C84.7123 16.9988 84.4631 16.9084 84.2034 16.8884L84.1035 16.986L83.9077 17.1948L83.896 17.2046C83.1792 17.909 82.6289 18.4652 82.0963 19.0037C81.5636 19.5423 81.0309 20.0809 80.3338 20.7756L80.3044 20.8049L80.2417 20.8634L80.2084 20.8927L80.1477 20.9415L80.1066 20.9746L80.042 21.0215L79.9891 21.0546L79.9205 21.0956L79.852 21.1288L79.7756 21.1639L79.6973 21.1912L79.6131 21.2186L79.5289 21.2361L79.4388 21.2537H79.3585H79.2723H79.2469H79.1157C78.8986 21.2353 78.6885 21.1686 78.5008 21.0585L78.1894 20.8146C77.643 20.2526 76.9987 19.5891 76.3544 18.9159L76.2154 18.7754L76.1801 18.7462L76.1508 18.7149L76.0822 18.6427L75.9941 18.551C75.8808 18.4465 75.7951 18.3158 75.7446 18.1705C75.6941 18.0252 75.6802 17.8697 75.7043 17.7178L75.7454 17.4407L75.526 17.3607L75.1716 17.308L74.8661 17.3529C74.6296 17.407 74.3881 17.4364 74.1454 17.4407C73.7664 17.3784 73.4024 17.246 73.0723 17.0504C72.8111 16.9428 72.5303 16.8909 72.2478 16.8982C71.9194 16.9852 71.603 17.1124 71.3058 17.2768C71.0921 17.3794 70.8645 17.4504 70.6302 17.4875H70.501C69.3522 15.7884 68.7316 13.7894 68.7169 11.7407Z" fill="#939598"/>
<path d="M85.9324 9.9278H84.9258V13.5203H85.9324V9.9278Z" fill="#939598"/>
<path d="M79.4304 11.7153C79.4304 11.0908 79.732 10.7396 80.2607 10.7396C80.7327 10.7396 80.9833 11.0479 80.9833 11.6294V13.5262H81.9958V11.7153C81.9958 11.0908 82.3013 10.7396 82.834 10.7396C83.3 10.7396 83.5566 11.0557 83.5566 11.6294V13.5262H84.5612V11.4616C84.5907 11.257 84.5741 11.0484 84.5125 10.851C84.451 10.6536 84.3461 10.4723 84.2054 10.3204C84.0647 10.1684 83.8919 10.0496 83.6993 9.97262C83.5068 9.8956 83.2995 9.86229 83.0925 9.87512C82.8456 9.86757 82.6002 9.91641 82.3752 10.0179C82.1501 10.1193 81.9514 10.2708 81.7941 10.4605L81.7706 10.4918L81.749 10.4586C81.6199 10.2689 81.444 10.1155 81.2383 10.013C81.0325 9.9105 80.8038 9.86235 80.574 9.87317C80.3633 9.86519 80.1533 9.90255 79.9583 9.98269C79.7633 10.0628 79.5879 10.1839 79.4441 10.3376L79.3951 10.3942V9.92585H78.4375V13.5184H79.4441L79.4304 11.7153Z" fill="#939598"/>
<path d="M85.4291 9.54339C85.707 9.54339 85.9324 9.31886 85.9324 9.04188C85.9324 8.76491 85.707 8.54037 85.4291 8.54037C85.1511 8.54037 84.9258 8.76491 84.9258 9.04188C84.9258 9.31886 85.1511 9.54339 85.4291 9.54339Z" fill="#939598"/>
<path d="M73.6663 13.614C73.9678 13.6149 74.2639 13.5354 74.5241 13.3837L74.4242 13.2998C74.209 13.0988 74.0389 12.8547 73.9248 12.5837L73.6663 12.6305C73.521 12.6435 73.3761 12.6007 73.2614 12.5107C73.1467 12.4207 73.0709 12.2904 73.0495 12.1465V8.54428H72.0703V12.1934C72.1018 12.5893 72.2853 12.9579 72.5826 13.2225C72.8798 13.4871 73.268 13.6273 73.6663 13.614Z" fill="#939598"/>
<path d="M76.0795 13.5749C76.4413 13.5506 76.788 13.4214 77.0771 13.2033C77.3662 12.9853 77.5851 12.6877 77.7067 12.3474C77.8284 12.007 77.8476 11.6386 77.762 11.2875C77.6763 10.9364 77.4896 10.6179 77.2247 10.3712C76.9598 10.1244 76.6284 9.96016 76.2711 9.89861C75.9138 9.83707 75.5462 9.88091 75.2136 10.0247C74.8809 10.1686 74.5977 10.4061 74.3988 10.7082C74.1998 11.0103 74.0938 11.3637 74.0938 11.725C74.0934 11.9791 74.1456 12.2305 74.2469 12.4637C74.3483 12.6968 74.4967 12.9067 74.683 13.0802C74.8693 13.2537 75.0894 13.3872 75.3296 13.4723C75.5699 13.5574 75.8251 13.5923 76.0795 13.5749ZM76.0795 10.6869C76.2892 10.6708 76.4988 10.7181 76.6811 10.8225C76.8634 10.927 77.0099 11.0838 77.1014 11.2725C77.1929 11.4611 77.2252 11.6729 77.194 11.8801C77.1629 12.0874 77.0698 12.2804 76.9268 12.4341C76.7839 12.5878 76.5978 12.695 76.3928 12.7417C76.1878 12.7884 75.9734 12.7724 75.7777 12.6958C75.5819 12.6193 75.4139 12.4857 75.2955 12.3125C75.1771 12.1393 75.1139 11.9346 75.114 11.725C75.101 11.5919 75.1164 11.4576 75.1593 11.3309C75.2021 11.2041 75.2715 11.0879 75.3627 10.9898C75.4539 10.8917 75.565 10.814 75.6885 10.7618C75.8121 10.7096 75.9453 10.6841 76.0795 10.6869Z" fill="#939598"/>
<path d="M76.9043 17.4485C76.5126 17.6573 76.1386 17.7665 76.4539 18.1002L76.6086 18.2622L76.8044 18.4573C77.4128 19.0909 78.0232 19.7231 78.6355 20.3541L78.8058 20.4848L79.1348 20.5863H79.223H79.2386H79.2778H79.3189H79.364H79.4031L79.4482 20.5707L79.4834 20.557L79.5285 20.5375L79.5618 20.5219L79.6048 20.4946L79.6362 20.4751L79.6812 20.4438L79.7086 20.4224L79.7537 20.3853L79.7791 20.3658L79.8261 20.3209L79.8457 20.3014C81.2675 18.9003 81.9999 18.1295 83.4158 16.7304L83.5666 16.5684C83.9582 16.0903 83.1103 15.9439 82.5051 15.8327C82.3607 15.8098 82.2127 15.8243 82.0755 15.8749C81.9383 15.9255 81.8165 16.0104 81.7218 16.1215C80.5174 17.3099 80.5821 17.3197 79.3718 18.5061L79.3444 18.5315L79.3052 18.5705L79.2896 18.5842L79.2641 18.6056L79.2445 18.6173L79.2269 18.629H79.1956H79.176H79.1623L79.1368 18.6115L79.1231 18.6017L79.0918 18.5705L79.0781 18.5588L79.0565 18.5354L79.0193 18.4983C78.612 18.069 78.4318 17.9246 78.0225 17.5011C77.7092 17.1597 77.39 17.1928 76.9043 17.4485Z" fill="#939598"/>
<path d="M143.553 19.0252L143.853 18.6759L143.949 18.551L144.16 18.2817L144.25 18.1568L144.446 17.8739L144.517 17.7646L144.712 17.4524L144.763 17.3665L144.959 17.0172L144.989 16.9645L145.194 16.5743V16.5567C145.705 15.5154 146.045 14.3994 146.203 13.251V13.2335L146.258 12.7573V12.6422L146.285 12.2519V11.8968V11.7426V11.6665L146.271 11.1709V11.0713L146.234 10.5971V10.5737C145.988 8.19525 144.96 5.96444 143.31 4.22781L142.919 3.83753L142.527 3.48433L142.294 3.28919L142.129 3.15064L141.795 2.89696L141.72 2.84037L141.328 2.56718L141.303 2.54962L140.866 2.27837C140.569 2.10275 140.263 1.94143 139.95 1.79443L139.492 1.59929L139.466 1.58953L139.024 1.41976L138.971 1.40025L138.591 1.25584L138.505 1.22852L138.113 1.11924L137.993 1.08607L137.623 1.00412L137.469 0.970939L137.118 0.908499L136.938 0.879222L136.597 0.836292L136.401 0.812874L136.037 0.785554L135.861 0.773853C135.679 0.773853 135.499 0.760193 135.314 0.760193C135.13 0.760193 134.96 0.760193 134.784 0.773853L134.545 0.789463L134.261 0.810923L133.959 0.846052L133.744 0.871421L133.419 0.926059L133.233 0.957279L132.906 1.02558L132.726 1.06656L132.41 1.14851L132.226 1.19925L131.93 1.29097L131.735 1.35341L131.464 1.45294L131.251 1.53294L131.006 1.63441L130.775 1.73393L130.558 1.83736L130.303 1.95834L130.107 2.06177L129.851 2.20227L129.671 2.30764L129.412 2.46375L129.24 2.57889L128.995 2.7389L128.811 2.87159L128.584 3.03941L128.366 3.21504L128.188 3.35749L127.822 3.68337L127.804 3.69703L127.792 3.70874L127.401 4.09902L127.36 4.1439C125.527 6.04303 124.443 8.53752 124.309 11.1689V11.446V11.7387V11.7563L124.32 12.2226L124.332 12.4002L124.354 12.7027L124.373 12.9115L124.405 13.1749L124.436 13.3974L124.477 13.6374L124.573 14.1214L124.606 14.2755L124.681 14.5624L124.722 14.7185L124.808 15.0073L124.855 15.1497L124.955 15.4444L124.994 15.5498C125.124 15.9001 125.272 16.2434 125.439 16.5782L125.466 16.6386L125.623 16.9353L125.679 17.0387L125.842 17.3216L125.903 17.4231L126.081 17.708L126.126 17.7744L126.365 18.1237L126.561 18.3871L126.572 18.4027L126.815 18.7052L126.898 18.8066L127.213 19.1618L127.24 19.193L127.279 19.234L127.636 19.5989L127.698 19.6574C129.604 21.4858 132.107 22.5674 134.748 22.7036C134.944 22.7133 135.14 22.7192 135.324 22.7192C135.52 22.7192 135.716 22.7192 135.912 22.7036C138.231 22.5823 140.452 21.7302 142.255 20.2702L142.278 20.2526L142.65 19.9345L142.723 19.8721L143.048 19.5638L143.144 19.4721L143.52 19.0818L143.541 19.0623L143.553 19.0252ZM143.63 18.0866C143.449 17.9609 143.242 17.8787 143.024 17.8466C142.687 17.8505 142.356 17.754 142.075 17.5695C141.865 17.4242 141.615 17.3466 141.36 17.347C141.092 17.4078 140.845 17.5347 140.639 17.7158C140.466 17.8764 140.249 17.9841 140.016 18.0261C139.905 18.0261 139.401 18.1217 139.037 18.1939C138.696 18.2711 138.351 18.3284 138.003 18.3656C137.785 18.3401 137.571 18.2836 137.369 18.1978C137.168 18.1152 136.959 18.0575 136.744 18.0261H136.591V14.3321H136.632C137.331 14.4085 138.038 14.3379 138.708 14.1248C139.377 13.9116 139.995 13.5608 140.52 13.0949C140.9 12.7465 141.206 12.3248 141.419 11.8552C141.631 11.3856 141.746 10.878 141.755 10.363C141.807 9.65553 141.957 8.9587 142.202 8.29255C142.235 8.19552 142.246 8.092 142.232 7.99033C142.218 7.88865 142.18 7.79165 142.122 7.70714C142.062 7.62165 141.982 7.55184 141.889 7.5036C141.797 7.45535 141.694 7.43012 141.589 7.43004C140.368 7.59889 139.205 8.05534 138.196 8.76155C137.187 9.46776 136.362 10.4034 135.788 11.4909C135.058 10.7173 134.11 10.1831 133.068 9.95904C132.574 9.83151 132.097 9.6434 131.648 9.39899C131.558 9.34334 131.456 9.31036 131.35 9.30288C131.244 9.2954 131.138 9.31365 131.041 9.35606C130.944 9.39784 130.859 9.46277 130.793 9.54512C130.727 9.62748 130.683 9.72473 130.663 9.8283C130.485 10.6522 130.54 11.5092 130.82 12.3043C131.1 13.0995 131.596 13.802 132.252 14.3341C132.687 14.6402 133.191 14.8358 133.72 14.9038C134.248 14.9718 134.786 14.9102 135.285 14.7243V17.8466L135.138 17.7353C134.897 17.5615 134.603 17.4754 134.306 17.4914C133.948 17.4813 133.592 17.5478 133.262 17.6865C132.96 17.8585 132.628 17.9693 132.283 18.0124C132.085 18.002 131.889 17.9765 131.695 17.9363L131.359 17.8836L131.069 17.9266C130.844 17.9798 130.614 18.0086 130.383 18.0124C130.022 17.9544 129.676 17.8293 129.361 17.6436C129.113 17.5397 128.846 17.4892 128.578 17.4953C128.266 17.5796 127.966 17.7029 127.685 17.8622C127.481 17.9577 127.264 18.0234 127.04 18.0573H126.931C125.746 16.5045 125.02 14.6525 124.835 12.7104C124.65 10.7684 125.014 8.81348 125.885 7.06643C126.756 5.31937 128.1 3.84969 129.765 2.82324C131.43 1.7968 133.349 1.25446 135.307 1.25743C137.265 1.26041 139.183 1.80858 140.844 2.84007C142.506 3.87157 143.845 5.34533 144.711 7.09503C145.576 8.84472 145.934 10.8007 145.743 12.7422C145.553 14.6837 144.821 16.5335 143.631 18.0827L143.63 18.0866ZM136.654 13.0305C136.931 11.7477 137.705 10.6257 138.808 9.90831C139.376 9.51392 139.993 9.1951 140.643 8.95993C140.551 9.38284 140.486 9.81101 140.447 10.242C140.451 10.6107 140.375 10.976 140.225 11.3128C140.074 11.6496 139.852 11.95 139.574 12.1934C139.171 12.5256 138.704 12.7714 138.202 12.9155C137.699 13.0595 137.172 13.0987 136.654 13.0305V13.0305ZM135.23 13.3603C134.888 13.5498 134.5 13.6423 134.109 13.6275C133.718 13.6127 133.338 13.4912 133.011 13.2764C132.664 12.9915 132.383 12.6343 132.188 12.2298C131.993 11.8253 131.889 11.3833 131.883 10.9347C132.148 11.0304 132.416 11.1143 132.68 11.1962C133.94 11.5885 134.954 11.9104 135.23 13.3603V13.3603Z" fill="#939598"/>
<path d="M176.858 15.8132L176.748 15.7683L176.466 15.6649H176.433L176.125 15.5654C176.878 13.5765 177.032 11.4122 176.568 9.33746C176.105 7.26274 175.044 5.36768 173.517 3.88436C171.481 1.89017 168.744 0.76587 165.889 0.750436H165.813C162.89 0.740085 160.083 1.88703 158.009 3.93894C155.935 5.99086 154.764 8.77967 154.754 11.6919C154.744 14.6041 155.895 17.4011 157.954 19.4677C160.013 21.5342 162.812 22.701 165.734 22.7114H165.815C167.353 22.71 168.874 22.3884 170.28 21.767C171.687 21.1457 172.947 20.2384 173.981 19.1032L174.128 18.9179L174.222 18.7969L174.047 18.6486L174.083 18.6076L173.912 18.5354L173.844 18.4769L173.83 18.4944L173.668 18.4047C173.498 18.2871 173.304 18.2102 173.1 18.1802C172.782 18.182 172.472 18.0904 172.207 17.9168C172.009 17.7812 171.775 17.709 171.535 17.71C171.284 17.7667 171.052 17.884 170.857 18.0515C170.693 18.2012 170.489 18.3008 170.27 18.3383C170.166 18.3383 169.682 18.4281 169.347 18.4944C169.024 18.566 168.698 18.6188 168.368 18.6525C168.166 18.6282 167.969 18.5764 167.781 18.4983C167.592 18.4216 167.395 18.3678 167.193 18.3383C167.166 18.3383 166.394 18.3578 166.15 18.3383L165.687 18.0885C165.459 17.9269 165.183 17.8471 164.904 17.8622C164.569 17.8517 164.235 17.9122 163.925 18.0397C163.643 18.1976 163.333 18.2996 163.012 18.3403C162.83 18.3305 162.649 18.307 162.47 18.27L162.153 18.2212L161.88 18.2602C161.67 18.3094 161.454 18.3362 161.238 18.3403C160.9 18.2872 160.574 18.1713 160.278 17.9988C160.045 17.9036 159.794 17.8571 159.542 17.8622C159.249 17.9402 158.967 18.0543 158.702 18.2017C158.511 18.2955 158.308 18.3612 158.099 18.3968C157.889 18.3968 157.776 18.4086 157.693 18.4125C156.424 16.8787 155.618 15.0169 155.37 13.0441C155.122 11.0713 155.442 9.06889 156.293 7.27044C157.143 5.47198 158.49 3.95162 160.174 2.88669C161.859 1.82175 163.813 1.25615 165.809 1.25584H165.885C167.577 1.26367 169.242 1.67906 170.738 2.4666C172.234 3.25413 173.517 4.39046 174.478 5.77872C175.438 7.16698 176.047 8.76601 176.253 10.4395C176.459 12.113 176.256 13.8113 175.661 15.3898L175.403 15.3117L175.371 15.2707L175.089 15.1693L174.854 15.1829L174.821 15.4561C174.884 15.9244 174.952 16.3889 175.017 16.8572C175.054 17.1362 175.181 17.1909 175.434 17.0211C175.761 16.8006 176.09 16.5821 176.413 16.3596L176.83 16.0727L176.858 15.8132Z" fill="#939598"/>
<path d="M165.405 6.43288C165.407 6.31555 165.386 6.199 165.341 6.09032C165.297 5.98164 165.231 5.88309 165.147 5.80064C165.022 5.68567 164.865 5.61083 164.697 5.58587C164.529 5.5609 164.357 5.58699 164.204 5.6607C164.051 5.73441 163.924 5.85235 163.839 5.99913C163.755 6.14592 163.716 6.31475 163.729 6.48362V8.39793C163.729 9.64162 163.729 10.886 163.729 12.1309C163.723 12.2252 163.747 12.3189 163.797 12.3992C163.847 12.4795 163.92 12.5426 164.007 12.5798L167.812 14.5312L169.165 15.2298L169.379 15.3215L169.647 15.3663L170.052 15.2629C170.191 15.1854 170.305 15.0704 170.38 14.9314C170.456 14.7923 170.491 14.6347 170.481 14.4767C170.471 14.3188 170.417 14.1668 170.324 14.0384C170.231 13.9099 170.104 13.8102 169.957 13.7506L169.663 13.6003C168.253 12.8705 166.841 12.1433 165.427 11.4187L165.407 11.4089V11.3855C165.407 10.7689 165.407 10.1483 165.407 9.52974V8.16377C165.407 7.59396 165.419 7.0144 165.405 6.43288Z" fill="#939598"/>
<path d="M204.108 3.83752C202.185 1.98605 199.653 0.89439 196.982 0.76605C194.311 0.63771 191.685 1.48145 189.593 3.13997C187.5 4.7985 186.084 7.15863 185.609 9.78043C185.134 12.4022 185.632 15.1068 187.01 17.3899V17.3899L187.023 17.4075C187.753 18.6159 188.711 19.6722 189.843 20.518L189.918 20.5746L190.211 20.7834C191.231 21.4939 192.367 22.0221 193.568 22.3445L194.087 22.4713L194.189 22.4928L194.645 22.5767L194.841 22.606L195.233 22.6567L195.552 22.684L195.836 22.7075C196.041 22.7192 196.247 22.725 196.455 22.725C196.635 22.725 196.815 22.725 196.993 22.7094H197.099L197.539 22.6743L197.774 22.6489H197.833C199.895 22.3888 201.841 21.553 203.446 20.238C205.052 18.9231 206.251 17.1826 206.906 15.2174C207.562 13.2522 207.646 11.1425 207.149 9.13164C206.653 7.12083 205.595 5.29092 204.1 3.85313L204.108 3.83752ZM185.956 11.7406C185.956 9.68713 186.563 7.67911 187.701 5.96671C188.838 4.25432 190.456 2.91322 192.353 2.11045C194.25 1.30768 196.342 1.07873 198.368 1.4521C200.395 1.82547 202.266 2.78468 203.749 4.21024C205.538 5.92799 206.658 8.22238 206.909 10.6853C207.16 13.1483 206.526 15.6201 205.12 17.6612C204.947 17.7103 204.766 17.7222 204.588 17.6963C204.338 17.5615 204.063 17.4772 203.781 17.4485C203.229 17.4391 202.683 17.3382 202.165 17.1499C201.953 16.9988 201.704 16.9083 201.444 16.8884L201.345 16.986L201.149 17.1948L201.139 17.2045C200.422 17.909 199.872 18.4651 199.339 19.0037C198.807 19.5423 198.274 20.0809 197.577 20.7756L197.545 20.8049L197.485 20.8634L197.449 20.8927L197.389 20.9414L197.346 20.9746L197.283 21.0215L197.23 21.0546L197.16 21.0956L197.093 21.1288L197.015 21.1639L196.938 21.1912L196.854 21.2185L196.77 21.2361L196.68 21.2537H196.599H196.513H196.486H196.357C196.14 21.2355 195.929 21.1688 195.742 21.0585L195.43 20.8146C194.884 20.2526 194.24 19.5891 193.595 18.9159L193.456 18.7754L193.421 18.7461L193.392 18.7149L193.321 18.6427L193.233 18.551C193.121 18.4459 193.036 18.3151 192.985 18.17C192.935 18.0248 192.92 17.8696 192.943 17.7178L192.986 17.4407L192.767 17.3607L192.413 17.308L192.107 17.3528C191.871 17.407 191.629 17.4364 191.386 17.4407C191.007 17.3784 190.642 17.2461 190.311 17.0504C190.05 16.9426 189.769 16.8907 189.487 16.8982C189.159 16.9856 188.843 17.1127 188.547 17.2767C188.333 17.3794 188.106 17.4504 187.871 17.4875H187.74C186.592 15.788 185.971 13.7893 185.956 11.7406V11.7406Z" fill="#939598"/>
<path d="M203.169 9.9278H202.164V13.5203H203.169V9.9278Z" fill="#939598"/>
<path d="M196.669 11.7153C196.669 11.0908 196.972 10.7396 197.501 10.7396C197.973 10.7396 198.222 11.0479 198.222 11.6294V13.5262H199.228V11.7153C199.228 11.0908 199.534 10.7396 200.066 10.7396C200.532 10.7396 200.787 11.0557 200.787 11.6294V13.5262H201.794V11.4616C201.823 11.257 201.806 11.0484 201.745 10.851C201.683 10.6536 201.578 10.4723 201.438 10.3204C201.297 10.1684 201.124 10.0496 200.932 9.97263C200.739 9.89561 200.532 9.8623 200.325 9.87513C200.078 9.86759 199.833 9.91642 199.608 10.0179C199.383 10.1194 199.184 10.2708 199.026 10.4605L199.001 10.4918L198.981 10.4586C198.852 10.2691 198.676 10.1158 198.471 10.0133C198.265 9.91078 198.036 9.86255 197.806 9.87318C197.596 9.8651 197.386 9.90242 197.192 9.98257C196.997 10.0627 196.822 10.1838 196.678 10.3376L196.629 10.3942V9.92587H195.672V13.5184H196.676L196.669 11.7153Z" fill="#939598"/>
<path d="M202.667 9.54339C202.767 9.54339 202.864 9.51398 202.947 9.45887C203.03 9.40376 203.094 9.32543 203.132 9.2338C203.17 9.14216 203.18 9.04132 203.161 8.94404C203.142 8.84676 203.094 8.7574 203.023 8.68726C202.953 8.61713 202.863 8.56936 202.766 8.55001C202.668 8.53066 202.567 8.54059 202.475 8.57855C202.383 8.61651 202.304 8.68079 202.249 8.76326C202.194 8.84573 202.164 8.9427 202.164 9.04188C202.164 9.17489 202.217 9.30245 202.311 9.3965C202.406 9.49055 202.534 9.54339 202.667 9.54339V9.54339Z" fill="#939598"/>
<path d="M190.907 13.614C191.208 13.6152 191.504 13.5357 191.764 13.3837L191.666 13.2998C191.45 13.0999 191.28 12.8555 191.167 12.5837L190.907 12.6305C190.761 12.6435 190.617 12.6005 190.502 12.5105C190.388 12.4205 190.313 12.2903 190.292 12.1465V8.54428H189.312V12.1934C189.344 12.5891 189.527 12.9577 189.824 13.2223C190.12 13.487 190.508 13.6273 190.907 13.614V13.614Z" fill="#939598"/>
<path d="M193.322 13.5749C193.683 13.5506 194.03 13.4214 194.319 13.2033C194.608 12.9853 194.827 12.6877 194.949 12.3474C195.071 12.007 195.09 11.6386 195.004 11.2875C194.919 10.9364 194.732 10.6179 194.467 10.3712C194.202 10.1244 193.871 9.96016 193.513 9.89861C193.156 9.83707 192.788 9.88091 192.456 10.0247C192.123 10.1686 191.84 10.4061 191.641 10.7082C191.442 11.0103 191.336 11.3637 191.336 11.725C191.336 11.9791 191.388 12.2305 191.489 12.4637C191.591 12.6968 191.739 12.9067 191.925 13.0802C192.111 13.2537 192.332 13.3872 192.572 13.4723C192.812 13.5574 193.067 13.5923 193.322 13.5749V13.5749ZM193.322 10.6869C193.531 10.6716 193.74 10.7194 193.921 10.8241C194.103 10.9288 194.248 11.0855 194.339 11.2738C194.43 11.4621 194.461 11.6733 194.43 11.8799C194.399 12.0865 194.306 12.2788 194.163 12.4319C194.02 12.585 193.835 12.6918 193.63 12.7382C193.426 12.7847 193.212 12.7687 193.017 12.6925C192.822 12.6162 192.654 12.4831 192.536 12.3105C192.418 12.138 192.354 11.934 192.354 11.725C192.342 11.5918 192.357 11.4574 192.4 11.3307C192.443 11.204 192.513 11.0878 192.604 10.9897C192.696 10.8917 192.807 10.814 192.93 10.7618C193.054 10.7096 193.187 10.6841 193.322 10.6869V10.6869Z" fill="#939598"/>
<path d="M194.14 17.4485C193.749 17.6573 193.373 17.7665 193.688 18.1002L193.845 18.2622L194.04 18.4573C194.649 19.0909 195.259 19.7231 195.871 20.3541L196.042 20.4848L196.371 20.5863H196.457H196.475H196.514H196.555H196.6H196.639L196.684 20.5707L196.719 20.557L196.764 20.5375L196.798 20.5219L196.841 20.4946L196.872 20.4751L196.917 20.4438L196.945 20.4224L196.99 20.3853L197.015 20.3658L197.06 20.3209L197.082 20.3014C198.501 18.9003 199.236 18.1295 200.65 16.7303L200.802 16.5684C201.194 16.0903 200.344 15.9439 199.739 15.8327C199.595 15.8094 199.447 15.8237 199.309 15.8743C199.172 15.925 199.05 16.0101 198.956 16.1215C197.749 17.3099 197.816 17.3197 196.606 18.5061L196.578 18.5315L196.539 18.5705L196.522 18.5842L196.496 18.6056L196.477 18.6173L196.461 18.629H196.43H196.41H196.394L196.371 18.6115L196.357 18.6017L196.324 18.5705L196.312 18.5588L196.289 18.5354L196.253 18.4983C195.846 18.069 195.666 17.9246 195.255 17.5011C194.947 17.1597 194.626 17.1928 194.14 17.4485Z" fill="#939598"/>
<path d="M5.95446 76.6965L6.22863 78.6069C6.30058 78.9756 6.29545 79.3552 6.21357 79.7218C6.13169 80.0885 5.97482 80.4343 5.75275 80.7378C5.24592 81.3019 4.55571 81.6699 3.80351 81.777C3.05131 81.884 2.28531 81.7234 1.64025 81.3233C1.34237 81.0934 1.095 80.8051 0.913438 80.4762C0.731877 80.1472 0.619992 79.7847 0.584708 79.4109L0.3125 77.5005L5.95446 76.6965ZM5.56279 78.7026L5.39829 77.5473L1.08996 78.162L1.25642 79.3153C1.28167 79.5856 1.36293 79.8478 1.49506 80.0853C1.6272 80.3228 1.80733 80.5304 2.02408 80.6949C2.53163 80.9823 3.12067 81.0935 3.69853 81.0108C4.27638 80.9281 4.81026 80.6564 5.21617 80.2383C5.37812 80.0187 5.49212 79.7677 5.55081 79.5015C5.60949 79.2353 5.61158 78.9598 5.55692 78.6928L5.56279 78.7026Z" fill="#939598"/>
<path d="M3.78391 84.4884L3.58808 83.7508L1.50833 84.3069L1.3125 83.5693L6.82521 82.1019L7.29521 83.8581C7.45795 84.3529 7.42288 84.8911 7.19729 85.3607C7.08427 85.5729 6.92623 85.7581 6.73414 85.9034C6.54205 86.0486 6.32052 86.1504 6.08496 86.2017C5.68808 86.3219 5.26097 86.2949 4.88254 86.1256C4.50981 85.9447 4.21302 85.6386 4.04437 85.2612L2.31321 87.314L2.09583 86.4925L3.78391 84.4884ZM5.01375 85.349C5.27962 85.489 5.58876 85.5238 5.87928 85.4464C6.16979 85.3689 6.42022 85.185 6.58041 84.9314C6.72118 84.6393 6.74294 84.3043 6.64112 83.9967L6.37479 83.0073L4.22062 83.5791L4.48696 84.5684C4.55297 84.8874 4.74217 85.1678 5.01375 85.349Z" fill="#939598"/>
<path d="M8.12237 86.6564L6.25803 89.0859L9.27779 89.6342L9.57545 90.4031L5.69599 89.7123L3.51441 90.5533L3.23828 89.8411L5.41987 89L7.82274 85.8876L8.12237 86.6564Z" fill="#939598"/>
<path d="M9.96178 91.07L4.82812 93.5533L5.16252 94.2397L10.2962 91.7564L9.96178 91.07Z" fill="#939598"/>
<path d="M5.91016 95.7772L10.8021 92.8482L11.1839 93.4785L8.90053 98.1618L12.6527 95.9158L13.0346 96.548L8.14266 99.4771L7.76274 98.8487L10.0442 94.1634L6.29203 96.4114L5.91016 95.7772Z" fill="#939598"/>
<path d="M14.8235 99.8498C14.6457 99.6165 14.4209 99.4227 14.1636 99.2809C13.9063 99.1391 13.6222 99.0524 13.3293 99.0263C12.7312 98.9731 12.1353 99.1502 11.6641 99.5211C11.1928 99.8919 10.8819 100.428 10.7952 101.021C10.7532 101.311 10.7725 101.606 10.8517 101.889C10.931 102.171 11.0685 102.434 11.2554 102.66C11.393 102.832 11.5553 102.983 11.7372 103.109C11.9125 103.232 12.107 103.326 12.313 103.386L13.4037 102.527L12.4363 101.306L12.9572 100.896L14.4005 102.714L12.5264 104.192C12.1784 104.124 11.8462 103.991 11.5472 103.801C11.228 103.61 10.9471 103.361 10.7189 103.068C10.467 102.752 10.2794 102.391 10.1666 102.004C10.0581 101.637 10.0229 101.253 10.0628 100.872C10.1043 100.495 10.2222 100.13 10.4094 99.799C10.6935 99.2815 11.1261 98.8602 11.6519 98.5891C12.1776 98.3179 12.7726 98.2092 13.3607 98.2769C13.7411 98.3272 14.1082 98.4505 14.4417 98.6399C14.7933 98.8385 15.1026 99.1037 15.3523 99.4205C15.7809 99.9483 16.0176 100.605 16.024 101.284L15.3288 101.339C15.3142 101.064 15.2675 100.791 15.1897 100.527C15.1107 100.281 14.9865 100.051 14.8235 99.8498V99.8498Z" fill="#939598"/>
<path d="M35.8665 117.547L35.3965 117.412L34.4075 114.395L33.1738 118.644L32.4609 118.439L34.0491 112.975L34.7326 113.174L35.8665 116.667L38.6963 114.317L39.3817 114.514L37.7954 119.976L37.0826 119.771L38.3164 115.521L35.8665 117.547Z" fill="#939598"/>
<path d="M40.5968 114.672L39.5859 120.268L40.3396 120.404L41.3504 114.807L40.5968 114.672Z" fill="#939598"/>
<path d="M42.3342 120.728L41.5 120.648L43.7227 117.957L42.1228 114.995L42.959 115.075L44.2319 117.447L45.9376 115.363L46.7738 115.443L44.6333 118.045L46.294 121.112L45.4578 121.032L44.1242 118.554L42.3342 120.728Z" fill="#939598"/>
<path d="M47.5646 115.406L47.4648 121.093L48.2304 121.107L48.3302 115.419L47.5646 115.406Z" fill="#939598"/>
<path d="M49.9698 121.139L49.5664 115.465L50.3027 115.414L53.4576 119.565L53.1482 115.213L53.8885 115.16L54.2919 120.833L53.5575 120.886L50.3987 116.735L50.7101 121.087L49.9698 121.139Z" fill="#939598"/>
<path d="M57.7011 115.057C57.412 115.11 57.1372 115.223 56.8941 115.388C56.6511 115.553 56.445 115.767 56.2891 116.015C55.9689 116.521 55.8566 117.131 55.9754 117.718C56.0943 118.305 56.4352 118.824 56.9275 119.167C57.1684 119.335 57.4419 119.452 57.7305 119.509C58.0191 119.567 58.3165 119.564 58.6039 119.5C58.8203 119.457 59.0289 119.381 59.2227 119.276C59.4126 119.174 59.5846 119.042 59.7319 118.886L59.4557 117.52L57.9263 117.828L57.7931 117.178L60.0746 116.718L60.5505 119.059C60.3342 119.337 60.0687 119.573 59.7671 119.756C59.0989 120.162 58.3045 120.309 57.5346 120.17C56.7626 120.016 56.0835 119.562 55.6469 118.909C55.2102 118.257 55.0517 117.458 55.2062 116.688C55.2801 116.314 55.4286 115.959 55.6429 115.643C55.8572 115.327 56.1329 115.058 56.4536 114.85C56.7905 114.626 57.1686 114.471 57.566 114.393C58.2314 114.25 58.9261 114.336 59.536 114.637L59.2717 115.279C59.0211 115.168 58.7581 115.087 58.4883 115.037C58.227 114.995 57.96 115.001 57.7011 115.057V115.057Z" fill="#939598"/>
<path d="M81.63 107.431C82.0443 107.044 82.3067 106.523 82.3702 105.962L83.0595 106.104C82.9747 106.651 82.7459 107.167 82.3965 107.598C82.047 108.028 81.5893 108.359 81.0699 108.557C80.7115 108.694 80.3297 108.76 79.9458 108.752C79.5647 108.739 79.19 108.65 78.8432 108.492C78.4805 108.328 78.1543 108.093 77.8833 107.801C77.6124 107.51 77.4022 107.168 77.2648 106.795C77.1321 106.439 77.0722 106.06 77.0886 105.681C77.1081 105.298 77.2025 104.924 77.3667 104.578C77.5371 104.212 77.7787 103.884 78.0775 103.612C78.5712 103.144 79.21 102.857 79.889 102.798L79.9987 103.483C79.7249 103.517 79.456 103.582 79.1977 103.678C78.8024 103.84 78.4627 104.113 78.2194 104.463C77.9761 104.813 77.8398 105.226 77.8269 105.651C77.8211 106.25 78.0453 106.827 78.4535 107.266C78.8618 107.705 79.423 107.971 80.0222 108.01C80.3159 108.03 80.6105 107.989 80.8873 107.889C81.1641 107.79 81.417 107.633 81.63 107.431V107.431Z" fill="#939598"/>
<path d="M81.0834 100.827C81.203 100.442 81.3973 100.084 81.6552 99.7737C81.9121 99.4613 82.2273 99.2015 82.5835 99.0087C82.9201 98.8257 83.2893 98.7097 83.6704 98.6672C84.0493 98.6293 84.432 98.6665 84.7964 98.7765C85.1782 98.8912 85.5335 99.0801 85.8417 99.3323C86.1499 99.5845 86.405 99.895 86.5922 100.246C86.7702 100.582 86.88 100.949 86.9153 101.327C86.948 101.708 86.9055 102.092 86.79 102.457C86.5426 103.232 86.0055 103.882 85.2899 104.274C84.776 104.552 84.1903 104.671 83.6079 104.616C83.0256 104.561 82.4731 104.333 82.0212 103.963C81.5693 103.593 81.2386 103.097 81.0716 102.538C80.9045 101.979 80.9086 101.384 81.0834 100.827V100.827ZM84.1815 103.877C84.4738 103.851 84.758 103.768 85.0174 103.631C85.2769 103.494 85.5064 103.308 85.6927 103.082C85.879 102.856 86.0183 102.595 86.1025 102.315C86.1866 102.035 86.214 101.741 86.1829 101.45C86.111 100.855 85.8118 100.311 85.3474 99.9304C84.8831 99.5499 84.2895 99.3623 83.6899 99.4068C83.3976 99.4324 83.1134 99.5158 82.8538 99.6521C82.5942 99.7885 82.3645 99.975 82.1782 100.201C81.9918 100.427 81.8525 100.687 81.7685 100.967C81.6844 101.248 81.6572 101.542 81.6885 101.832C81.7632 102.426 82.0631 102.969 82.5267 103.349C82.9903 103.729 83.5824 103.918 84.1815 103.877V103.877Z" fill="#939598"/>
<path d="M84.8883 95.7499C85.0167 94.9464 85.4517 94.2235 86.1025 93.7321C86.4089 93.5014 86.7574 93.3324 87.1287 93.2345C87.893 93.0467 88.7009 93.1688 89.3749 93.5741C89.7182 93.777 90.0166 94.0472 90.2522 94.3683C90.4798 94.6745 90.6432 95.0232 90.7327 95.3937C90.8222 95.7641 90.8359 96.1487 90.7731 96.5246C90.7114 96.9231 90.5717 97.3057 90.3619 97.6505C90.1564 97.9981 89.8834 98.3012 89.5589 98.5423C89.2557 98.7744 88.9087 98.9432 88.5386 99.0388C88.1685 99.1343 87.7829 99.1546 87.4048 99.0985C87.0099 99.0417 86.6304 98.9069 86.2884 98.7022C85.9465 98.4975 85.6489 98.2269 85.4132 97.9062C85.1862 97.6012 85.0224 97.2543 84.9314 96.8856C84.8422 96.5135 84.8276 96.1276 84.8883 95.7499V95.7499ZM88.4133 98.3121C88.6966 98.2419 88.9632 98.1165 89.1976 97.9432C89.4321 97.77 89.6298 97.5522 89.7795 97.3024C89.9291 97.0526 90.0277 96.7758 90.0695 96.4879C90.1113 96.2001 90.0955 95.9068 90.0231 95.625C89.861 95.0489 89.4838 94.5564 88.9689 94.2487C88.454 93.941 87.8403 93.8413 87.254 93.9702C86.969 94.0386 86.7004 94.1629 86.4641 94.3357C86.2277 94.5086 86.0283 94.7266 85.8773 94.9771C85.7264 95.2276 85.627 95.5055 85.585 95.7946C85.543 96.0837 85.5591 96.3783 85.6325 96.6612C85.7916 97.2392 86.1681 97.734 86.6838 98.0425C87.1996 98.3511 87.8148 98.4497 88.4016 98.3179L88.4133 98.3121Z" fill="#939598"/>
<path d="M92.381 93.7634L87.1719 91.4432L87.4832 90.7446L92.0873 92.7974L93.1311 90.4714L93.7382 90.7426L92.381 93.7634Z" fill="#939598"/>
<path d="M89.0275 86.966L88.7656 87.683L94.1282 89.6274L94.39 88.9104L89.0275 86.966Z" fill="#939598"/>
<path d="M95.003 87.2419L89.4844 85.7861L89.6724 85.0758L94.6348 83.4425L90.4028 82.3282L90.5908 81.6121L96.1094 83.0659L95.9214 83.7762L90.959 85.4114L95.191 86.5257L95.003 87.2419Z" fill="#939598"/>
<path d="M91.7196 78.0372C91.6761 78.3272 91.6936 78.6231 91.7712 78.906C91.8487 79.1888 91.9846 79.4525 92.17 79.6802C92.5474 80.1463 93.0905 80.4496 93.6864 80.527C94.2824 80.6044 94.8853 80.45 95.37 80.0959C95.608 79.9236 95.8074 79.7038 95.9554 79.4505C96.1034 79.1971 96.1969 78.9158 96.2297 78.6245C96.2573 78.4058 96.2527 78.1843 96.216 77.9669C96.1841 77.7566 96.118 77.5529 96.0201 77.3639L94.6493 77.1844L94.4535 78.726L93.7935 78.6401L94.0971 76.3414L96.4647 76.6478C96.6595 76.9406 96.7982 77.2667 96.874 77.6098C97.0445 78.3717 96.9266 79.1694 96.543 79.85C96.356 80.1835 96.1044 80.4767 95.8028 80.7125C95.5018 80.9462 95.1569 81.1174 94.7883 81.216C94.4061 81.3214 94.0064 81.3486 93.6133 81.296C93.2171 81.2471 92.8351 81.1176 92.4912 80.9154C92.1612 80.7255 91.8723 80.4721 91.6413 80.17C91.4114 79.8638 91.2438 79.5158 91.1478 79.1455C91.0451 78.7554 91.0205 78.349 91.0753 77.9493C91.1553 77.2753 91.4617 76.6481 91.9448 76.1697L92.4697 76.6283C92.2831 76.8311 92.1202 77.0543 91.984 77.2937C91.8496 77.5227 91.7599 77.7749 91.7196 78.0372V78.0372Z" fill="#939598"/>
<path d="M82.1172 68.411C81.9633 62.8446 80.4005 57.4072 77.574 52.6035C74.7475 47.7998 70.7488 43.7856 65.9492 40.9334L68.6086 36.2774C74.2277 39.5961 78.9085 44.283 82.2116 49.8982C85.5148 55.5135 87.332 61.8729 87.4928 68.3797L82.1172 68.411Z" fill="#E6E7E8"/>
<path d="M31.5268 41.2398C26.7854 44.1611 22.8593 48.2259 20.1112 53.0588C17.363 57.8917 15.8815 63.3367 15.8034 68.891L10.4297 68.9319C10.5012 62.4379 12.2239 56.0679 15.4366 50.4174C18.6494 44.7668 23.2473 40.0201 28.8008 36.6208L31.5268 41.2398Z" fill="#E6E7E8"/>
<path d="M56.0669 31.5551L55.1641 36.8648C58.5191 37.4971 61.756 38.6424 64.7599 40.2602L67.4291 35.5769C63.8775 33.6492 60.043 32.2919 56.0669 31.5551V31.5551Z" fill="#8DC63F"/>
<path d="M29.9336 35.8891L32.6753 40.5314C35.649 38.8608 38.864 37.6582 42.2065 36.9662L41.2273 31.6682C37.2635 32.475 33.4522 33.8995 29.9336 35.8891V35.8891Z" fill="#8DC63F"/>
<path d="M43.5885 36.7165C46.9582 36.1645 50.3933 36.1356 53.7719 36.6306L54.6727 31.317C50.6711 30.7196 46.6 30.7545 42.6094 31.4204L43.5885 36.7165Z" fill="#8DC63F"/>
<path d="M82.3001 69.9799C82.2191 75.5791 80.7197 81.0673 77.9411 85.9347C75.1625 90.8022 71.1948 94.8913 66.4062 97.8223L69.1479 102.469C74.7534 99.0574 79.3974 94.2833 82.6443 88.5942C85.8912 82.905 87.6346 76.4872 87.7109 69.9428L82.3001 69.9799Z" fill="#8DC63F"/>
<path d="M65.1863 98.5345C60.2839 101.263 54.7684 102.712 49.1531 102.746C43.5378 102.781 38.005 101.399 33.0696 98.7297L30.4023 103.413C36.161 106.55 42.6264 108.175 49.1894 108.135C55.7525 108.094 62.1971 106.389 67.9162 103.181L65.1863 98.5345Z" fill="#8DC63F"/>
<path d="M31.8622 98.0272C27.0498 95.1598 23.0402 91.1302 20.2038 86.3107C17.3673 81.4911 15.7955 76.037 15.6335 70.4521L10.2305 70.4911C10.4 77.0193 12.2273 83.3982 15.5417 89.0319C18.856 94.6656 23.5494 99.3704 29.1832 102.707L31.8622 98.0272Z" fill="#8DC63F"/>
<path d="M50.4513 54.1483H47.4727V62.709H50.4513V54.1483Z" fill="#939598"/>
<path d="M51.9436 57.3661V59.5243C54.6389 60.2446 56.9796 61.9166 58.5296 64.2289C60.0796 66.5412 60.7332 69.336 60.3686 72.0929C60.0041 74.8498 58.6463 77.3806 56.5481 79.2139C54.45 81.0472 51.7545 82.058 48.964 82.058C46.1734 82.058 43.4779 81.0472 41.3798 79.2139C39.2816 77.3806 37.9238 74.8498 37.5593 72.0929C37.1947 69.336 37.8483 66.5412 39.3983 64.2289C40.9483 61.9166 43.289 60.2446 45.9843 59.5243V57.3661C42.717 58.0969 39.835 60.0027 37.8899 62.7188C35.9448 65.4349 35.0733 68.7704 35.4422 72.0868C35.8112 75.4033 37.3946 78.4676 39.8895 80.6933C42.3844 82.9189 45.6153 84.1495 48.964 84.1495C52.3126 84.1495 55.5435 82.9189 58.0384 80.6933C60.5333 78.4676 62.1167 75.4033 62.4857 72.0868C62.8546 68.7704 61.9831 65.4349 60.038 62.7188C58.0929 60.0027 55.2109 58.0969 51.9436 57.3661V57.3661Z" fill="#939598"/>
<path d="M199.24 68.411C199.086 62.8444 197.523 57.4067 194.696 52.603C191.87 47.7993 187.87 43.7852 183.07 40.9334L185.73 36.2774C191.349 39.5957 196.031 44.2825 199.334 49.8978C202.638 55.513 204.455 61.8727 204.616 68.3797L199.24 68.411Z" fill="#E6E7E8"/>
<path d="M148.65 41.2398C143.91 44.1622 139.985 48.2274 137.238 53.0601C134.49 57.8928 133.009 63.3373 132.93 68.891L127.559 68.9319C127.63 62.4379 129.353 56.0679 132.566 50.4174C135.778 44.7668 140.376 40.0201 145.93 36.6208L148.65 41.2398Z" fill="#E6E7E8"/>
<path d="M123.29 77.6215L123.606 79.526C123.687 79.894 123.69 80.2746 123.616 80.644C123.543 81.0134 123.393 81.3636 123.177 81.6726C122.682 82.251 121.997 82.6362 121.245 82.7598C120.492 82.8834 119.719 82.7374 119.064 82.3477C118.761 82.1251 118.508 81.8427 118.319 81.518C118.13 81.1934 118.011 80.8335 117.968 80.4607L117.652 78.5562L123.29 77.6215ZM122.938 79.6353L122.742 78.484L118.447 79.1924L118.643 80.3417C118.674 80.6119 118.761 80.8728 118.898 81.1079C119.035 81.343 119.22 81.5472 119.44 81.7077C119.954 81.9847 120.546 82.0835 121.122 81.9884C121.698 81.8934 122.226 81.6099 122.623 81.1828C122.78 80.9605 122.889 80.7083 122.943 80.442C122.997 80.1756 122.995 79.901 122.938 79.6353V79.6353Z" fill="#939598"/>
<path d="M121.286 85.4505L121.074 84.7167L119.006 85.3139L118.793 84.5801L124.276 82.9956L124.784 84.7401C124.956 85.2314 124.933 85.77 124.719 86.2447C124.61 86.4594 124.456 86.6481 124.267 86.7976C124.078 86.9472 123.859 87.0542 123.624 87.1111C123.23 87.2397 122.802 87.2217 122.42 87.0604C122.043 86.8875 121.739 86.5876 121.562 86.2135L119.878 88.3034L119.643 87.4916L121.286 85.4505ZM122.533 86.2837C122.803 86.4199 123.115 86.4491 123.406 86.3654C123.696 86.2818 123.944 86.0915 124.1 85.8329C124.235 85.5376 124.249 85.2017 124.139 84.8963L123.853 83.9206L121.715 84.5372L122.001 85.5129C122.072 85.8288 122.263 86.105 122.533 86.2837V86.2837Z" fill="#939598"/>
<path d="M125.665 87.515L123.856 89.9835L126.885 90.4655L127.2 91.2305L123.307 90.6216L121.143 91.5095L120.852 90.8031L123.016 89.9152L125.35 86.752L125.665 87.515Z" fill="#939598"/>
<path d="M127.602 91.8799L122.523 94.4776L122.873 95.1564L127.952 92.5587L127.602 91.8799Z" fill="#939598"/>
<path d="M123.664 96.7022L128.489 93.6678L128.885 94.2883L126.703 99.0224L130.407 96.6943L130.804 97.3188L125.977 100.353L125.583 99.7307L127.763 94.9986L124.06 97.3266L123.664 96.7022Z" fill="#939598"/>
<path d="M132.68 100.603C132.497 100.374 132.268 100.185 132.008 100.049C131.747 99.9134 131.461 99.8327 131.168 99.8127C130.569 99.7699 129.976 99.959 129.513 100.341C129.049 100.722 128.752 101.267 128.681 101.862C128.645 102.153 128.67 102.448 128.755 102.728C128.84 103.009 128.983 103.269 129.175 103.491C129.316 103.661 129.481 103.808 129.666 103.928C129.846 104.049 130.044 104.139 130.254 104.194L131.325 103.31L130.328 102.111L130.841 101.69L132.324 103.477L130.483 104.994C130.138 104.935 129.806 104.815 129.504 104.638C129.182 104.45 128.896 104.207 128.66 103.92C128.401 103.611 128.206 103.254 128.084 102.871C127.966 102.508 127.923 102.125 127.956 101.745C127.99 101.365 128.1 100.996 128.28 100.66C128.466 100.308 128.72 99.9962 129.027 99.7429C129.335 99.4897 129.69 99.2998 130.072 99.1843C130.436 99.0735 130.819 99.0357 131.198 99.0731C131.579 99.1137 131.949 99.2284 132.286 99.4107C132.643 99.6026 132.958 99.8618 133.215 100.174C133.656 100.691 133.907 101.342 133.928 102.02L133.234 102.09C133.213 101.816 133.161 101.545 133.078 101.282C132.99 101.033 132.855 100.802 132.68 100.603V100.603Z" fill="#939598"/>
<path d="M154.077 117.81L153.605 117.685L152.552 114.692L151.412 118.966L150.695 118.776L152.16 113.279L152.851 113.463L154.06 116.93L156.839 114.52L157.528 114.702L156.061 120.197L155.344 120.008L156.484 115.732L154.077 117.81Z" fill="#939598"/>
<path d="M158.761 114.838L157.871 120.455L158.627 120.574L159.517 114.957L158.761 114.838Z" fill="#939598"/>
<path d="M160.645 120.855L159.809 120.792L161.973 118.054L160.306 115.127L161.144 115.19L162.468 117.533L164.129 115.412L164.965 115.475L162.881 118.121L164.612 121.151L163.774 121.089L162.384 118.642L160.645 120.855Z" fill="#939598"/>
<path d="M166.441 115.417L165.676 115.429L165.761 121.114L166.527 121.103L166.441 115.417Z" fill="#939598"/>
<path d="M168.287 121.098L167.758 115.435L168.492 115.367L171.741 119.448L171.334 115.104L172.072 115.035L172.603 120.698L171.866 120.765L168.619 116.684L169.025 121.03L168.287 121.098Z" fill="#939598"/>
<path d="M175.86 114.854C175.572 114.913 175.299 115.032 175.06 115.202C174.82 115.372 174.618 115.59 174.468 115.841C174.162 116.356 174.065 116.968 174.197 117.551C174.329 118.135 174.68 118.646 175.179 118.979C175.423 119.142 175.699 119.252 175.988 119.303C176.278 119.354 176.575 119.345 176.861 119.276C177.076 119.227 177.284 119.146 177.476 119.036C177.662 118.935 177.831 118.803 177.973 118.646L177.67 117.295L176.146 117.637L176.001 116.991L178.271 116.481L178.796 118.804C178.587 119.086 178.328 119.327 178.032 119.516C177.719 119.717 177.373 119.861 177.01 119.941C176.616 120.032 176.208 120.045 175.809 119.978C175.43 119.921 175.067 119.788 174.74 119.588C174.415 119.386 174.134 119.121 173.915 118.808C173.685 118.483 173.521 118.117 173.433 117.73C173.346 117.342 173.336 116.941 173.404 116.55C173.469 116.174 173.609 115.815 173.816 115.494C174.023 115.174 174.294 114.898 174.611 114.684C174.942 114.454 175.316 114.291 175.711 114.204C176.373 114.045 177.069 114.114 177.687 114.399L177.438 115.047C177.182 114.941 176.915 114.865 176.641 114.821C176.381 114.783 176.116 114.794 175.86 114.854V114.854Z" fill="#939598"/>
<path d="M199.642 106.682C200.047 106.286 200.298 105.76 200.349 105.197L201.042 105.325C200.961 106.029 200.632 106.682 200.114 107.167C199.824 107.448 199.482 107.671 199.107 107.821C198.752 107.966 198.371 108.04 197.987 108.04C197.606 108.036 197.23 107.957 196.881 107.806C196.517 107.659 196.187 107.441 195.91 107.165C195.633 106.889 195.415 106.559 195.269 106.197C195.123 105.835 195.051 105.447 195.059 105.056C195.067 104.666 195.154 104.281 195.314 103.924C195.477 103.557 195.711 103.226 196.002 102.949C196.486 102.472 197.117 102.171 197.793 102.094L197.919 102.777C197.646 102.82 197.38 102.894 197.124 102.997C196.881 103.1 196.661 103.248 196.474 103.433C196.259 103.632 196.089 103.874 195.973 104.143C195.858 104.412 195.799 104.701 195.802 104.994C195.807 105.592 196.044 106.166 196.462 106.596C196.881 107.026 197.449 107.279 198.05 107.302C198.344 107.315 198.638 107.267 198.912 107.16C199.186 107.053 199.435 106.89 199.642 106.682V106.682Z" fill="#939598"/>
<path d="M198.926 100.113C199.038 99.726 199.225 99.3646 199.477 99.0497C199.726 98.7331 200.034 98.468 200.385 98.2691C200.718 98.0783 201.085 97.9543 201.466 97.9042C201.845 97.8577 202.229 97.8862 202.596 97.9881C202.976 98.0849 203.331 98.2569 203.643 98.4939C203.954 98.7309 204.214 99.0279 204.407 99.3673C204.6 99.7067 204.723 100.081 204.767 100.469C204.812 100.857 204.777 101.249 204.666 101.624C204.556 102.012 204.37 102.374 204.118 102.689C203.868 103.005 203.56 103.27 203.209 103.47C202.878 103.661 202.512 103.785 202.132 103.834C201.753 103.883 201.367 103.855 200.998 103.753C200.614 103.646 200.255 103.464 199.943 103.218C199.628 102.974 199.366 102.668 199.173 102.32C198.987 101.988 198.868 101.623 198.824 101.245C198.785 100.865 198.819 100.48 198.926 100.113V100.113ZM202.091 103.097C202.383 103.065 202.665 102.975 202.921 102.833C203.178 102.691 203.403 102.5 203.585 102.27C203.766 102.04 203.9 101.777 203.978 101.495C204.056 101.213 204.077 100.918 204.039 100.628C203.952 100.035 203.639 99.4973 203.165 99.127C202.691 98.7566 202.093 98.5816 201.494 98.6379C201.201 98.6696 200.918 98.7589 200.661 98.9008C200.403 99.0426 200.177 99.2341 199.995 99.4641C199.812 99.694 199.678 99.9579 199.599 100.24C199.52 100.523 199.498 100.818 199.535 101.108C199.621 101.703 199.933 102.242 200.407 102.612C200.882 102.983 201.481 103.156 202.081 103.097H202.091Z" fill="#939598"/>
<path d="M202.608 94.983C202.663 94.5832 202.796 94.1981 203 93.8492C203.198 93.4979 203.464 93.1894 203.783 92.9418C204.084 92.704 204.429 92.527 204.798 92.4208C205.165 92.3198 205.548 92.2919 205.926 92.3389C206.323 92.3851 206.706 92.5119 207.052 92.7116C207.399 92.9095 207.703 93.1749 207.945 93.4921C208.177 93.793 208.348 94.1365 208.448 94.503C208.538 94.87 208.558 95.2508 208.505 95.625C208.391 96.4313 207.971 97.163 207.33 97.6681C207.029 97.9061 206.685 98.0825 206.315 98.1872C205.948 98.2892 205.564 98.3171 205.185 98.2691C204.79 98.2201 204.408 98.0935 204.062 97.8965C203.715 97.6996 203.412 97.4363 203.168 97.1217C202.935 96.8207 202.765 96.4764 202.667 96.109C202.573 95.7411 202.554 95.3585 202.608 94.983V94.983ZM206.178 97.4691C206.463 97.3953 206.73 97.2655 206.964 97.0874C207.197 96.9092 207.393 96.6863 207.539 96.4318C207.685 96.1773 207.778 95.8962 207.814 95.6052C207.849 95.3142 207.826 95.019 207.745 94.7371C207.571 94.1648 207.183 93.6805 206.662 93.3837C206.141 93.0869 205.526 93 204.943 93.1409C204.658 93.2152 204.391 93.3452 204.158 93.5235C203.925 93.7017 203.729 93.9246 203.583 94.179C203.438 94.4334 203.344 94.7142 203.308 95.0051C203.273 95.2959 203.296 95.5909 203.376 95.8728C203.548 96.4472 203.935 96.9336 204.457 97.2309C204.979 97.5282 205.597 97.6135 206.18 97.4691H206.178Z" fill="#939598"/>
<path d="M210.09 92.7643L204.828 90.5631L205.124 89.8587L209.775 91.8042L210.764 89.4567L211.377 89.7123L210.09 92.7643Z" fill="#939598"/>
<path d="M206.558 86.1017L206.312 86.8243L211.718 88.648L211.963 87.9253L206.558 86.1017Z" fill="#939598"/>
<path d="M212.544 86.2369L206.996 84.9041L207.168 84.1899L212.094 82.4473L207.838 81.4247L208.011 80.7066L213.558 82.0394L213.386 82.7536L208.461 84.4962L212.718 85.5188L212.544 86.2369Z" fill="#939598"/>
<path d="M209.059 77.0868C209.022 77.3776 209.047 77.6727 209.131 77.9536C209.214 78.2344 209.356 78.4948 209.546 78.7182C209.936 79.1737 210.485 79.4634 211.082 79.528C211.679 79.5926 212.278 79.4271 212.756 79.0655C212.99 78.8875 213.184 78.6631 213.326 78.4065C213.469 78.1498 213.556 77.8666 213.583 77.5746C213.606 77.3552 213.596 77.1335 213.553 76.917C213.515 76.7069 213.442 76.5044 213.338 76.318L211.955 76.1696L211.789 77.7151L211.127 77.6449L211.377 75.3384L213.753 75.594C213.953 75.8832 214.098 76.2057 214.184 76.5463C214.273 76.906 214.297 77.2787 214.254 77.6469C214.214 78.0483 214.095 78.4377 213.902 78.7923C213.721 79.1299 213.475 79.4289 213.179 79.6724C212.884 79.9115 212.544 80.0899 212.178 80.1973C211.796 80.3097 211.395 80.3456 210.998 80.3027C210.601 80.2598 210.217 80.1391 209.868 79.9475C209.534 79.7644 209.24 79.5177 209.002 79.2216C208.766 78.9199 208.591 78.5752 208.487 78.2069C208.375 77.8193 208.341 77.4134 208.387 77.0126C208.452 76.3372 208.745 75.7037 209.217 75.2154L209.752 75.6603C209.569 75.8671 209.411 76.0944 209.28 76.3375C209.16 76.5714 209.085 76.8255 209.059 77.0868V77.0868Z" fill="#939598"/>
<path d="M172.991 31.5551L172.09 36.8648C175.448 37.4959 178.689 38.6412 181.695 40.2602L184.367 35.5769C180.811 33.6481 176.971 32.2908 172.991 31.5551V31.5551Z" fill="#939598"/>
<path d="M146.852 35.8891L149.593 40.5314C152.568 38.8607 155.783 37.6582 159.126 36.9662L158.147 31.6682C154.183 32.4755 150.371 33.8999 146.852 35.8891V35.8891Z" fill="#939598"/>
<path d="M160.508 36.7165C163.878 36.1645 167.313 36.1356 170.692 36.6306L171.593 31.317C167.59 30.7196 163.519 30.7545 159.527 31.4204L160.508 36.7165Z" fill="#939598"/>
<path d="M199.222 69.9799C199.141 75.5791 197.642 81.0673 194.863 85.9347C192.084 90.8022 188.117 94.8913 183.328 97.8223L186.07 102.469C191.676 99.0584 196.321 94.2845 199.568 88.5951C202.815 82.9057 204.558 76.4874 204.633 69.9428L199.222 69.9799Z" fill="#939598"/>
<path d="M182.108 98.5345C177.206 101.263 171.69 102.712 166.075 102.746C160.46 102.781 154.927 101.399 149.991 98.7297L147.324 103.413C153.083 106.55 159.548 108.175 166.111 108.135C172.674 108.094 179.119 106.389 184.838 103.181L182.108 98.5345Z" fill="#939598"/>
<path d="M148.772 98.0272C143.961 95.1592 139.953 91.1292 137.118 86.3096C134.284 81.49 132.714 76.0362 132.553 70.4521L127.148 70.4911C127.318 77.0195 129.146 83.3985 132.46 89.0323C135.775 94.666 140.469 99.3706 146.103 102.707L148.772 98.0272Z" fill="#939598"/>
<path d="M167.373 54.1483H164.395V62.709H167.373V54.1483Z" fill="#939598"/>
<path d="M168.861 57.3661V59.5243C171.555 60.2443 173.896 61.916 175.446 64.2279C176.996 66.5398 177.649 69.3342 177.285 72.0907C176.92 74.8471 175.563 77.3775 173.465 79.2106C171.367 81.0436 168.672 82.0543 165.882 82.0543C163.092 82.0543 160.397 81.0436 158.299 79.2106C156.201 77.3775 154.844 74.8471 154.479 72.0907C154.115 69.3342 154.768 66.5398 156.318 64.2279C157.868 61.916 160.208 60.2443 162.903 59.5243V57.3661C159.636 58.0966 156.754 60.0024 154.808 62.7184C152.863 65.4345 151.991 68.7701 152.36 72.0866C152.729 75.4031 154.312 78.4676 156.807 80.6933C159.302 82.9191 162.533 84.1498 165.882 84.1498C169.231 84.1498 172.462 82.9191 174.957 80.6933C177.451 78.4676 179.035 75.4031 179.404 72.0866C179.773 68.7701 178.901 65.4345 176.956 62.7184C175.01 60.0024 172.128 58.0966 168.861 57.3661V57.3661Z" fill="#939598"/>
</svg>
