<svg width="22" height="18" viewBox="0 0 22 18" fill="none" xmlns="http://www.w3.org/2000/svg">
<path d="M4.97537 1.41377C6.58888 1.48629 8.73073 1.54278 11.0081 1.54278C11.5885 1.54278 12.1606 1.54011 12.7164 1.534C14.3428 1.51721 15.8376 1.4611 17.0412 1.41377C18.3882 1.3611 19.3425 1.19926 19.7623 1.11529C19.8971 1.08819 19.982 0.982844 19.9553 0.874826L19.9172 0.724824C19.8986 0.600394 19.7962 0.451917 19.4555 0.365656C19.2714 0.323337 19.085 0.291985 18.8971 0.271761C18.4575 0.217944 17.8314 0.170233 17.0404 0.12901C15.4276 0.0458026 13.2847 0 11.0073 0C8.72996 0 6.58736 0.0458026 4.97461 0.12901C4.18212 0.169851 3.55788 0.217943 3.11786 0.271379C2.93004 0.29173 2.74358 0.323211 2.55947 0.365656C2.22337 0.450772 2.11869 0.596959 2.09814 0.720244L2.05665 0.872918C2.02658 0.981699 2.11108 1.0901 2.24696 1.1172C2.65425 1.19888 3.56777 1.35079 4.97537 1.41377Z" fill="black"/>
<path d="M10.9468 10.017C11.0498 10.025 11.1534 10.0121 11.2513 9.97897C11.3492 9.94588 11.4395 9.89332 11.5167 9.82444C11.5939 9.75556 11.6564 9.67177 11.7005 9.57809C11.7447 9.48441 11.7695 9.38276 11.7735 9.27923C11.7776 9.1757 11.7608 9.07242 11.7241 8.97556C11.6874 8.8787 11.6316 8.79026 11.56 8.71553C11.4885 8.64081 11.4026 8.58132 11.3076 8.54065C11.2125 8.49997 11.1103 8.47894 11.007 8.47881C10.9868 8.47881 10.967 8.47881 10.9468 8.4811C10.7547 8.49718 10.5757 8.58506 10.4452 8.7273C10.3147 8.86955 10.2423 9.05577 10.2423 9.24906C10.2423 9.44234 10.3147 9.62857 10.4452 9.77082C10.5757 9.91306 10.7547 10.0009 10.9468 10.017Z" fill="black"/>
<path d="M3.51873 11.9506C4.77977 11.9506 6.54174 11.877 8.09626 11.8117C9.32609 11.7602 10.4859 11.7113 11.2121 11.7071C12.0648 11.7033 13.805 11.7724 15.3405 11.8335C16.8292 11.893 18.2334 11.948 18.9802 11.9506H19.0076C20.8046 11.9506 21.8551 11.5102 21.8654 11.5056L21.8764 11.501L20.1697 1.94317V1.93898L20.1453 1.81493C20.1384 1.77936 20.1245 1.74553 20.1045 1.71539C20.0844 1.68526 20.0586 1.65942 20.0285 1.63939C19.9984 1.61936 19.9646 1.60553 19.9291 1.59871C19.8936 1.59189 19.8571 1.59221 19.8218 1.59966C18.8151 1.81265 17.7922 1.93894 16.7641 1.97714C15.1692 2.02447 13.121 2.11646 10.9899 2.11646C8.82898 2.11646 6.78002 2.02982 5.21598 1.99279C3.7197 1.9573 2.65011 1.73439 2.17736 1.61531C2.1419 1.6064 2.10501 1.60473 2.06889 1.61042C2.03277 1.6161 1.99816 1.62901 1.96712 1.64838C1.93608 1.66776 1.90924 1.6932 1.88821 1.72318C1.86717 1.75317 1.85237 1.7871 1.84469 1.82294L1.81918 1.94127L0.114315 11.5575C0.432907 11.6231 2.13549 11.9506 3.51873 11.9506ZM9.74441 9.18302C9.74441 8.84896 9.87675 8.52858 10.1123 8.29237C10.3479 8.05615 10.6674 7.92345 11.0005 7.92345C11.3336 7.92345 11.6531 8.05615 11.8887 8.29237C12.1243 8.52858 12.2566 8.84896 12.2566 9.18302C12.2589 9.22713 12.2589 9.27134 12.2566 9.31546C12.2394 9.63796 12.0996 9.94157 11.8659 10.1639C11.6323 10.3861 11.3226 10.5102 11.0005 10.5105C10.9784 10.5105 10.956 10.5105 10.9339 10.5086C10.601 10.4906 10.2889 10.3409 10.0659 10.0924C9.84291 9.84388 9.7273 9.51686 9.74441 9.18302Z" fill="black"/>
<path d="M19.0083 12.5232H18.9786C18.2215 12.5213 16.809 12.4651 15.3177 12.4056L15.2625 12.4033C13.6729 12.34 12.0305 12.2751 11.2155 12.2796C10.5003 12.2838 9.34585 12.3323 8.12325 12.3835C6.56264 12.4491 4.7923 12.5232 3.51755 12.5232C2.08065 12.5232 0.396333 12.2006 0.0176004 12.1243C-0.032371 12.5621 0.0244503 13.0054 0.183177 13.4163L1.1991 16.05C1.64901 17.216 2.83164 18 4.14294 18H17.8565C19.167 18 20.3501 17.2164 20.8 16.05L21.8163 13.4163C21.9816 12.9905 22.0366 12.5295 21.9761 12.0766C21.6431 12.1991 20.61 12.5232 19.0083 12.5232Z" fill="black"/>
</svg>
