<svg width="58" height="58" viewBox="0 0 58 58" fill="none" xmlns="http://www.w3.org/2000/svg">
<path d="M53.1945 27.8726C53.0812 23.7389 51.9248 19.7009 49.8328 16.1338C47.7407 12.5668 44.7809 9.58648 41.2285 7.46981L43.1986 4.01294C47.3565 6.47642 50.8202 9.9562 53.2642 14.1255C55.7083 18.2949 57.0527 23.017 57.1711 27.8484L53.1945 27.8726Z" fill="#E6E7E8"/>
<path d="M15.7734 7.68327C12.2632 9.85388 9.35709 12.8747 7.32396 16.4663C5.29083 20.0579 4.19634 24.1043 4.14177 28.2311L0.165161 28.2633C0.216592 23.4386 1.4905 18.7057 3.86781 14.507C6.24512 10.3083 9.6482 6.78094 13.759 4.25461L15.7734 7.68327Z" fill="#E6E7E8"/>
<path d="M33.9039 0.475464L33.2391 4.41984C35.7263 4.89181 38.1252 5.74672 40.3503 6.95407L42.3245 3.47706C39.6925 2.04098 36.8509 1.02806 33.9039 0.475464Z" fill="#40806A"/>
<path d="M14.5648 3.69866L16.5793 7.14747C18.7865 5.90242 21.1751 5.01062 23.6582 4.50446L22.933 0.568146C19.9958 1.16341 17.1714 2.22 14.5648 3.69866V3.69866Z" fill="#40806A"/>
<path d="M24.6855 4.32308C27.1801 3.91617 29.7225 3.89443 32.2237 4.25862L32.8885 0.314244C29.9282 -0.129026 26.9166 -0.103191 23.9643 0.390796L24.6855 4.32308Z" fill="#40806A"/>
<path d="M53.3315 29.0249C53.2706 33.1842 52.1594 37.2607 50.1012 40.8755C48.043 44.4904 45.1046 47.5265 41.5588 49.7016L43.5733 53.1505C47.7247 50.616 51.1636 47.0677 53.5669 42.8391C55.9702 38.6104 57.259 33.8402 57.3122 28.9766L53.3315 29.0249Z" fill="url(#paint0_linear_8_64)"/>
<path d="M40.6685 50.2292C37.0401 52.2562 32.9579 53.3324 28.8017 53.3578C24.6455 53.3831 20.5505 52.3568 16.8975 50.3743L14.9233 53.8473C19.1846 56.1773 23.969 57.384 28.8256 57.3537C33.6822 57.3234 38.4512 56.0571 42.683 53.674L40.6685 50.2292Z" fill="url(#paint1_linear_8_64)"/>
<path d="M15.9991 49.8505C12.44 47.7205 9.47507 44.7279 7.37803 41.1493C5.28099 37.5707 4.11949 33.5213 4.00078 29.3752L0 29.4034C0.12629 34.2513 1.47883 38.9881 3.93136 43.1717C6.3839 47.3553 9.85646 50.8493 14.0249 53.3276L15.9991 49.8505Z" fill="url(#paint2_linear_8_64)"/>
<path d="M29.762 17.2682H27.5581V23.6259H29.762V17.2682Z" fill="#1D4047"/>
<path d="M30.8661 19.6574V21.269C32.86 21.8036 34.5915 23.0448 35.7381 24.7614C36.8847 26.4779 37.3682 28.5527 37.0986 30.5993C36.8289 32.6459 35.8245 34.5247 34.2725 35.8857C32.7204 37.2467 30.7265 37.9971 28.6623 37.9971C26.598 37.9971 24.6041 37.2467 23.052 35.8857C21.5 34.5247 20.4956 32.6459 20.2259 30.5993C19.9563 28.5527 20.4398 26.4779 21.5865 24.7614C22.7331 23.0448 24.4646 21.8036 26.4584 21.269V19.6574C24.0391 20.1999 21.9048 21.6157 20.4643 23.6337C19.0237 25.6517 18.3781 28.1301 18.651 30.5945C18.9239 33.0588 20.0962 35.3359 21.9434 36.9899C23.7905 38.6438 26.1828 39.5583 28.6623 39.5583C31.1417 39.5583 33.534 38.6438 35.3812 36.9899C37.2284 35.3359 38.4006 33.0588 38.6735 30.5945C38.9464 28.1301 38.3008 25.6517 36.8603 23.6337C35.4197 21.6157 33.2855 20.1999 30.8661 19.6574V19.6574Z" fill="url(#paint3_linear_8_64)"/>
<defs>
<linearGradient id="paint0_linear_8_64" x1="47.6569" y1="28.9766" x2="83.8152" y2="56.325" gradientUnits="userSpaceOnUse">
<stop stop-color="#1D4047"/>
<stop offset="0.277889" stop-color="#234B4D"/>
<stop offset="0.577531" stop-color="#2E5E58"/>
<stop offset="0.806558" stop-color="#376F61"/>
<stop offset="1" stop-color="#40806A"/>
</linearGradient>
<linearGradient id="paint1_linear_8_64" x1="25.669" y1="50.2292" x2="30.3392" y2="71.3475" gradientUnits="userSpaceOnUse">
<stop stop-color="#1D4047"/>
<stop offset="0.277889" stop-color="#234B4D"/>
<stop offset="0.577531" stop-color="#2E5E58"/>
<stop offset="0.806558" stop-color="#376F61"/>
<stop offset="1" stop-color="#40806A"/>
</linearGradient>
<linearGradient id="paint2_linear_8_64" x1="6.1932" y1="29.3752" x2="42.2514" y2="57.3297" gradientUnits="userSpaceOnUse">
<stop stop-color="#1D4047"/>
<stop offset="0.277889" stop-color="#234B4D"/>
<stop offset="0.577531" stop-color="#2E5E58"/>
<stop offset="0.806558" stop-color="#376F61"/>
<stop offset="1" stop-color="#40806A"/>
</linearGradient>
<linearGradient id="paint3_linear_8_64" x1="28.3425" y1="25.7382" x2="33.742" y2="40.0759" gradientUnits="userSpaceOnUse">
<stop stop-color="#1D4047"/>
<stop offset="0.277889" stop-color="#234B4D"/>
<stop offset="0.577531" stop-color="#2E5E58"/>
<stop offset="0.806558" stop-color="#376F61"/>
<stop offset="1" stop-color="#40806A"/>
</linearGradient>
</defs>
</svg>
