<svg width="119" height="141" viewBox="0 0 119 141" fill="none" xmlns="http://www.w3.org/2000/svg">
<path d="M37.3315 17.9511L37.6239 17.6064L37.7197 17.4842L37.9264 17.2198L38.0155 17.0976L38.2121 16.8198L38.281 16.7127L38.4793 16.4047L38.528 16.321L38.728 15.9863L38.7549 15.9328L38.9566 15.5462L38.965 15.5278C39.469 14.5025 39.8049 13.4036 39.9599 12.2726V12.2542C39.98 12.1002 39.9985 11.9429 40.0137 11.7856V11.6734L40.0405 11.2918L40.049 10.9421V10.7914V10.7161C40.049 10.5488 40.0489 10.3814 40.0355 10.2291V10.1304C40.0271 9.97471 40.0153 9.81907 39.9985 9.6651V9.64167C39.7575 7.30329 38.7472 5.1098 37.1248 3.40245L36.7467 3.02087L36.3668 2.67443L36.14 2.48196L35.9719 2.34808L35.6358 2.0987L35.5635 2.04348L35.172 1.7757L35.1468 1.75729L34.7165 1.49118C34.4241 1.32382 34.1233 1.15646 33.8158 1.01755L33.3671 0.818393L33.3419 0.80835L32.9066 0.640992L32.8562 0.622579L32.4428 0.487021L32.357 0.460239L31.9688 0.353129L31.8512 0.321329L31.4865 0.239322L31.3353 0.205856L30.9992 0.14728L30.821 0.117152L30.4849 0.0753094L30.295 0.051879L29.937 0.0251031L29.769 0.0133879C29.5909 0.00501986 29.411 0 29.2312 0C29.0514 0 28.8833 -5.14361e-08 28.7102 0.0117152L28.475 0.0301212L28.196 0.0552307L27.8985 0.0903764L27.6868 0.117152L27.3675 0.169031L27.1843 0.200831L26.8633 0.267777L26.6869 0.307941L26.3759 0.388275L26.1944 0.436809L25.9037 0.528858L25.7104 0.590786L25.4432 0.687853L25.2332 0.766514L24.9945 0.866926L24.7677 0.964L24.5542 1.06441L24.3105 1.18324L24.119 1.28366L23.8669 1.42089L23.6904 1.52633L23.4367 1.6803L23.2686 1.79244L23.0216 1.95979L22.8417 2.09034L22.6182 2.2577L22.4031 2.42506L22.2351 2.56732L21.8737 2.88698L21.8586 2.90036L21.8469 2.91208L21.462 3.28864L21.42 3.33216C19.6179 5.19908 18.5533 7.65118 18.4219 10.2375V10.5103V10.7981V10.8149C18.4219 10.9688 18.4219 11.1211 18.4336 11.2734L18.4437 11.4408L18.4639 11.7387L18.4488 11.9379L18.479 12.1973L18.5093 12.4165L18.5496 12.6508C18.5765 12.8182 18.6084 12.9705 18.6437 13.1278L18.6773 13.2784L18.7496 13.5613L18.7916 13.7136L18.8756 13.9964L18.921 14.137L19.0185 14.4282L19.0588 14.5303C19.1858 14.8725 19.3311 15.2077 19.4941 15.5344L19.5226 15.593L19.6756 15.8859L19.731 15.988L19.8907 16.2658L19.9512 16.3646L20.1192 16.6441L20.1629 16.7093L20.3982 17.044L20.5898 17.3035L20.6016 17.3185L20.8385 17.6147L20.9209 17.7152L21.2301 18.0649L21.257 18.0967L21.2973 18.1369L21.6469 18.4934L21.709 18.5503C23.5823 20.3492 26.0457 21.4127 28.6447 21.5444C28.8329 21.5544 29.0228 21.5594 29.211 21.5594C29.4043 21.5594 29.5959 21.5595 29.7875 21.5444C32.0681 21.4261 34.2521 20.5892 36.024 19.1545L36.0459 19.1377L36.4122 18.8248L36.4828 18.7628L36.8021 18.4599L36.8979 18.3695L37.2693 17.9779L37.2878 17.9562L37.3315 17.9511ZM37.4054 17.029C37.2289 16.9039 37.0249 16.8225 36.8105 16.7913C36.4778 16.7931 36.1522 16.6951 35.8761 16.5102C35.6701 16.367 35.4249 16.2905 35.1737 16.2909C34.9107 16.3515 34.6669 16.4763 34.4645 16.6541C34.2938 16.8115 34.0816 16.9171 33.8527 16.9587C33.7435 16.9587 33.2477 17.0541 32.8881 17.1261C32.5528 17.2018 32.2133 17.2577 31.8714 17.2934C31.6559 17.268 31.4454 17.2116 31.2462 17.1261C31.0492 17.0461 30.8432 16.9899 30.6328 16.9587H30.4832V13.3387H30.5236C31.2107 13.4135 31.906 13.344 32.5645 13.1347C33.223 12.9254 33.8302 12.581 34.3468 12.1236C34.7203 11.7821 35.0204 11.3688 35.2289 10.9085C35.4375 10.4483 35.5502 9.9507 35.5602 9.44586C35.613 8.7512 35.7612 8.06703 36.0005 7.41242C36.0352 7.31589 36.0461 7.21249 36.0323 7.11089C36.0186 7.00929 35.9806 6.91246 35.9215 6.82852C35.8624 6.74458 35.7839 6.67598 35.6927 6.62848C35.6014 6.58098 35.5001 6.55596 35.3972 6.55553C34.1965 6.72145 33.0529 7.17012 32.0612 7.86431C31.0695 8.5585 30.2584 9.4782 29.695 10.5471C28.9777 9.78671 28.0452 9.26141 27.0213 9.04084C26.5352 8.91386 26.0663 8.72899 25.6247 8.49022C25.5366 8.43536 25.4363 8.40271 25.3326 8.39508C25.229 8.38745 25.125 8.40508 25.0297 8.44644C24.9344 8.4878 24.8506 8.55165 24.7856 8.63246C24.7207 8.71328 24.6764 8.80864 24.6567 8.9103C24.4823 9.72019 24.5359 10.5623 24.8117 11.3438C25.0875 12.1252 25.5748 12.8156 26.2197 13.3387C26.6471 13.6406 27.1419 13.8343 27.6614 13.9028C28.1809 13.9713 28.7094 13.9127 29.201 13.732V16.7997L29.0581 16.6892C28.8197 16.5198 28.5305 16.436 28.238 16.4516C27.8867 16.4398 27.537 16.5037 27.2129 16.639C26.9187 16.8066 26.5944 16.9152 26.2583 16.9587C26.0668 16.9479 25.8763 16.9227 25.6886 16.8834L25.3525 16.8315L25.0668 16.875C24.8463 16.9263 24.621 16.9543 24.3946 16.9587C24.0386 16.9026 23.6964 16.78 23.3862 16.5972C23.1424 16.4946 22.8795 16.445 22.6149 16.4516C22.3079 16.5344 22.0126 16.6553 21.7359 16.8114C21.536 16.9078 21.3232 16.9749 21.104 17.0106H20.9965C19.8311 15.485 19.1171 13.6654 18.9351 11.7571C18.7531 9.84889 19.1103 7.92796 19.9664 6.21116C20.8225 4.49437 22.1435 3.05007 23.7802 2.04128C25.4169 1.0325 27.3041 0.499392 29.2289 0.502139C31.1537 0.504886 33.0394 1.04338 34.6732 2.05683C36.307 3.07028 37.6238 4.51835 38.475 6.23758C39.3262 7.95681 39.6779 9.87875 39.4904 11.7865C39.3029 13.6942 38.5836 15.5118 37.4138 17.034L37.4054 17.029ZM30.5488 12.06C30.8203 10.7952 31.5842 9.68908 32.673 8.98394C33.2302 8.59592 33.8366 8.28303 34.4762 8.05341C34.3863 8.46845 34.3234 8.88884 34.288 9.31197C34.2927 9.67514 34.2182 10.035 34.0696 10.3667C33.9211 10.6984 33.702 10.9941 33.4276 11.2333C33.031 11.5615 32.5705 11.8044 32.075 11.9466C31.5796 12.0889 31.0599 12.1275 30.5488 12.06ZM29.1489 12.3847C28.8119 12.571 28.4301 12.6618 28.045 12.6473C27.6599 12.6329 27.2861 12.5137 26.9641 12.3027C26.6225 12.0224 26.3463 11.6713 26.1547 11.2739C25.9632 10.8765 25.8609 10.4423 25.855 10.0015C26.1138 10.0969 26.3793 10.1789 26.6398 10.2592C27.8784 10.6425 28.8766 10.9504 29.1472 12.3847H29.1489Z" fill="#939598"/>
<path d="M70.0736 14.7998L69.966 14.7562L69.6887 14.6542H69.6568L69.3543 14.5554C69.9638 12.9306 70.1707 11.1833 69.9572 9.46187C69.7438 7.74045 69.1164 6.09573 68.1283 4.66736C67.1402 3.239 65.8206 2.06918 64.2816 1.25721C62.7425 0.445247 61.0294 0.0151196 59.2878 0.00335693H59.2088C56.3578 0.0271067 53.6311 1.16904 51.6199 3.18155C49.6087 5.19407 48.4751 7.91495 48.4649 10.7543C48.4547 13.5936 49.5688 16.3224 51.5655 18.3492C53.5622 20.3759 56.2807 21.5372 59.1315 21.5812H59.2088C60.7214 21.5804 62.2171 21.2647 63.5999 20.6542C64.9827 20.0438 66.2221 19.1521 67.2385 18.0365L67.383 17.8558L67.4771 17.7353L67.3091 17.5897L67.3427 17.5495L67.1746 17.4792L67.1057 17.4206L67.0939 17.4374L66.9343 17.3503C66.7676 17.2346 66.5759 17.1595 66.3747 17.1311C66.0627 17.1326 65.7574 17.0417 65.4974 16.87C65.3031 16.7371 65.0727 16.6665 64.837 16.6675C64.5886 16.7222 64.3577 16.8372 64.1647 17.0022C64.0033 17.1486 63.8033 17.2461 63.5883 17.2834C63.4875 17.2834 63.0219 17.3721 62.6825 17.4374C62.3681 17.5069 62.0499 17.5583 61.7296 17.5913C61.5275 17.5686 61.3295 17.5179 61.1414 17.4407C60.9562 17.3657 60.7627 17.3129 60.565 17.2834C60.5398 17.2834 59.7802 17.3035 59.5398 17.2834C59.3684 17.2455 59.2111 17.1602 59.0861 17.0374C58.862 16.8791 58.5907 16.8012 58.3164 16.8165C57.9871 16.8039 57.659 16.861 57.3534 16.9838C57.0765 17.1397 56.7717 17.2403 56.456 17.28C56.2783 17.2716 56.1013 17.2503 55.9266 17.2164L55.6157 17.1679L55.3468 17.2064C55.1402 17.2549 54.9289 17.2812 54.7166 17.2851C54.3837 17.2329 54.0634 17.1194 53.7722 16.9503C53.5435 16.8555 53.2972 16.8099 53.0495 16.8165C52.761 16.8933 52.4832 17.0058 52.2227 17.1512C52.0348 17.2406 51.835 17.3025 51.6295 17.3353L51.2328 17.3503C49.9838 15.8437 49.1908 14.0144 48.9465 12.0758C48.7022 10.1373 49.0166 8.1695 49.853 6.40219C50.6894 4.63489 52.0133 3.14095 53.6702 2.09476C55.3271 1.04857 57.2486 0.493288 59.2105 0.493724H59.2878C60.6462 0.503358 61.9894 0.779423 63.2407 1.30615C64.492 1.83287 65.6268 2.59994 66.5804 3.56353C67.5339 4.52712 68.2875 5.66835 68.798 6.92203C69.3086 8.17572 69.5661 9.51729 69.556 10.8701C69.5477 12.0712 69.3252 13.2612 68.8989 14.3847L68.6451 14.3077L68.6132 14.2675L68.3359 14.1688L68.104 14.1805L68.072 14.4516C68.1342 14.9102 68.2014 15.3671 68.2619 15.8257C68.2989 16.1018 68.43 16.1604 68.672 15.993C68.9946 15.7766 69.3167 15.5601 69.6383 15.3437L70.05 15.0608L70.0736 14.7998Z" fill="#939598"/>
<path d="M58.8209 5.57818C58.8225 5.46289 58.8006 5.34848 58.7567 5.24179C58.7129 5.1351 58.6478 5.03833 58.5655 4.95727C58.4432 4.84329 58.2891 4.76881 58.1236 4.74362C57.958 4.71842 57.7886 4.74369 57.6377 4.81611C57.4869 4.88853 57.3615 5.0047 57.2781 5.14937C57.1948 5.29404 57.1573 5.46044 57.1706 5.62671V7.51287C57.1706 8.74019 57.1706 9.96304 57.1706 11.1814C57.1658 11.2741 57.1895 11.3659 57.2384 11.4449C57.2873 11.5238 57.3592 11.586 57.4445 11.6233C58.6926 12.2626 59.9401 12.9036 61.1871 13.5462L62.5181 14.2324L62.7265 14.3245L62.992 14.3663L63.3886 14.2659C63.4879 14.21 63.5747 14.1346 63.6437 14.0443C63.7128 13.9539 63.7626 13.8505 63.7903 13.7404C63.8399 13.5465 63.8159 13.3413 63.7228 13.164C63.6298 12.9867 63.4743 12.8498 63.2861 12.7797L62.9971 12.6308C61.6101 11.9145 60.2219 11.2004 58.8327 10.4886L58.8142 10.4768V10.4568C58.8142 9.84756 58.8142 9.24004 58.8142 8.63084V7.29196C58.8226 6.71791 58.8226 6.14888 58.8209 5.57818Z" fill="#939598"/>
<path d="M96.8697 3.02749C94.9782 1.21395 92.4897 0.146262 89.867 0.02299C87.2443 -0.100282 84.6659 0.72925 82.6113 2.35732C80.5568 3.98539 79.1659 6.30117 78.6973 8.87398C78.2288 11.4468 78.7145 14.1015 80.0641 16.3444L80.0776 16.3628C80.7939 17.5516 81.7364 18.5897 82.8522 19.4188L82.9245 19.4724L83.2135 19.6799C84.2161 20.3756 85.3323 20.8926 86.5124 21.2079H86.5225C86.6906 21.2514 86.8586 21.2933 87.0267 21.3301L87.1258 21.3502L87.5762 21.4355L87.7695 21.4623L88.1459 21.5142L88.4619 21.541L88.7392 21.5627C88.9408 21.5728 89.1442 21.5795 89.3492 21.5795C89.5257 21.5795 89.7038 21.5795 89.8786 21.5661H89.9828L90.4147 21.5309L90.6466 21.5058L90.7021 21.4975C92.7298 21.2436 94.6441 20.4237 96.2237 19.1323C97.8033 17.8409 98.9838 16.1308 99.6289 14.1995C100.274 12.2683 100.357 10.1947 99.8688 8.21839C99.3806 6.24206 98.3408 4.44361 96.8697 3.03084V3.02749ZM79.0239 10.793C79.0248 8.77577 79.6217 6.80336 80.7402 5.12152C81.8588 3.43969 83.4495 2.12278 85.3142 1.33486C87.179 0.546947 89.2353 0.322848 91.227 0.690489C93.2187 1.05813 95.0578 2.00126 96.5151 3.40238C98.2741 5.09131 99.3745 7.34681 99.6207 9.76774C99.8669 12.1887 99.2428 14.6181 97.8596 16.6239C97.6892 16.6721 97.5105 16.6841 97.3352 16.659C97.0896 16.5261 96.82 16.4425 96.542 16.413C95.9996 16.404 95.4624 16.3056 94.9522 16.1218C94.7447 15.9726 94.4999 15.8834 94.2447 15.8641L94.1472 15.9595L93.9556 16.1637L93.9455 16.1737C93.2414 16.8682 92.7002 17.4138 92.1776 17.9427C91.6549 18.4716 91.1289 19.0004 90.4365 19.6849L90.4063 19.7134L90.3458 19.7686L90.3105 19.7971L90.25 19.8473L90.2097 19.8774L90.1475 19.9226L90.0954 19.9544L90.0282 19.9946L89.9609 20.028L89.8853 20.0615L89.8097 20.0883L89.7273 20.1151L89.6433 20.1335L89.5391 20.1519H89.4585H89.3744H89.3475L89.2198 20.1418C89.0058 20.1244 88.7984 20.0592 88.6131 19.951L88.3073 19.7134C87.7712 19.1611 87.1309 18.5067 86.5057 17.8456L86.3679 17.7084L86.3326 17.6799L86.304 17.6481L86.2368 17.5779L86.1494 17.4875C86.0388 17.3844 85.9551 17.256 85.9056 17.1133C85.8561 16.9707 85.8423 16.8182 85.8654 16.6691L85.9058 16.3963L85.6906 16.3193L85.3428 16.2657L85.0403 16.3093C84.8087 16.3627 84.5721 16.3919 84.3344 16.3963C83.9618 16.3377 83.6033 16.2106 83.2774 16.0214C83.0204 15.9152 82.7438 15.8639 82.4657 15.8708C82.1433 15.9567 81.8328 16.0821 81.5414 16.244C81.3286 16.3452 81.1021 16.4151 80.8691 16.4515H80.7414C79.6237 14.7741 79.0264 12.8062 79.0239 10.793Z" fill="#939598"/>
<path d="M95.9452 9.01245H94.957V12.5421H95.9452V9.01245Z" fill="#939598"/>
<path d="M89.5507 10.7664C89.5507 10.1522 89.8498 9.79904 90.3691 9.79904C90.8329 9.79904 91.0783 10.1003 91.0783 10.6727V12.5371H92.0665V10.7664C92.0665 10.1522 92.3673 9.79904 92.8899 9.79904C93.3487 9.79904 93.5991 10.1087 93.5991 10.6727V12.5371H94.589V10.512C94.6178 10.3109 94.6013 10.1059 94.5407 9.91196C94.48 9.718 94.3767 9.53994 94.2383 9.39071C94.0999 9.24149 93.9299 9.12486 93.7405 9.04929C93.5512 8.97373 93.3473 8.94113 93.1437 8.95386C92.9011 8.94698 92.6602 8.99525 92.4392 9.09501C92.2181 9.19477 92.0229 9.3434 91.8682 9.52959L91.8446 9.56139L91.8228 9.52791C91.6953 9.34065 91.5214 9.18939 91.318 9.08881C91.1145 8.98822 90.8883 8.94174 90.6615 8.95386C90.4545 8.94588 90.2482 8.98258 90.0567 9.06144C89.8653 9.14031 89.6932 9.25947 89.5524 9.41076L89.5036 9.46599V9.00742H88.5625V12.5371H89.5507V10.7664Z" fill="#939598"/>
<path d="M95.4534 8.63243C95.5507 8.63045 95.6452 8.59992 95.7251 8.54466C95.805 8.48941 95.8668 8.41189 95.9026 8.32182C95.9385 8.23176 95.9468 8.13316 95.9266 8.03838C95.9064 7.94361 95.8586 7.85687 95.7891 7.78906C95.7197 7.72125 95.6316 7.67537 95.536 7.65718C95.4405 7.639 95.3417 7.64931 95.252 7.68683C95.1623 7.72435 95.0857 7.7874 95.0318 7.86809C94.978 7.94877 94.9492 8.04349 94.9492 8.14038C94.949 8.20591 94.9619 8.27084 94.9873 8.3313C95.0127 8.39177 95.05 8.44656 95.097 8.49243C95.144 8.5383 95.1997 8.57432 95.2609 8.59836C95.3222 8.62241 95.3876 8.63399 95.4534 8.63243Z" fill="#939598"/>
<path d="M83.8889 12.6323C84.1839 12.6323 84.4737 12.555 84.7291 12.4081L84.6317 12.3227C84.4193 12.1262 84.2519 11.8865 84.141 11.6198L83.8855 11.6666C83.7425 11.6797 83.5999 11.6377 83.4871 11.5493C83.3743 11.4609 83.2997 11.3328 83.2788 11.1913V7.65332H82.3125V11.2382C82.3439 11.6282 82.5254 11.9911 82.8192 12.2509C83.113 12.5107 83.4963 12.6474 83.8889 12.6323Z" fill="#939598"/>
<path d="M86.2614 12.5956C86.6174 12.5718 86.9586 12.4449 87.2431 12.2305C87.5276 12.0161 87.743 11.7235 87.8627 11.3888C87.9824 11.0541 88.0013 10.6919 87.917 10.3466C87.8328 10.0014 87.649 9.6882 87.3883 9.44559C87.1277 9.20299 86.8015 9.04155 86.4499 8.98113C86.0983 8.92072 85.7367 8.96396 85.4095 9.10553C85.0822 9.24711 84.8037 9.48085 84.6081 9.77801C84.4125 10.0752 84.3084 10.4228 84.3086 10.7781C84.3082 11.0278 84.3595 11.2749 84.4592 11.504C84.5589 11.7331 84.7048 11.9393 84.888 12.1098C85.0712 12.2803 85.2877 12.4115 85.524 12.495C85.7602 12.5786 86.0113 12.6128 86.2614 12.5956ZM86.2614 9.75048C86.4671 9.73535 86.6726 9.78227 86.8512 9.88512C87.0297 9.98797 87.173 10.142 87.2624 10.3271C87.3518 10.5122 87.3831 10.7198 87.3523 10.923C87.3215 11.1261 87.23 11.3152 87.0897 11.4658C86.9494 11.6164 86.7669 11.7214 86.5658 11.7671C86.3647 11.8129 86.1545 11.7973 85.9624 11.7224C85.7704 11.6474 85.6054 11.5166 85.4891 11.347C85.3728 11.1774 85.3104 10.9768 85.3102 10.7714C85.2991 10.6413 85.3156 10.5104 85.3586 10.3871C85.4016 10.2638 85.4702 10.1508 85.5599 10.0557C85.6497 9.96049 85.7585 9.88517 85.8793 9.83461C86.0002 9.78405 86.1304 9.75937 86.2614 9.76219V9.75048Z" fill="#939598"/>
<path d="M87.0669 16.4014C86.6821 16.6056 86.314 16.7144 86.6233 17.0407L86.7762 17.2081C86.8462 17.2688 86.9124 17.3336 86.9745 17.4022C87.5728 18.0259 88.1727 18.6474 88.7744 19.2666L88.9424 19.3955L89.2651 19.4959L89.3508 19.5043H89.3676H89.4063H89.4466H89.492L89.5374 19.4691L89.5811 19.4557L89.6163 19.444L89.66 19.4239L89.6937 19.4072L89.7357 19.3821L89.7659 19.3637L89.8113 19.3319L89.8382 19.3118L89.8819 19.275L89.9071 19.2549L89.9525 19.2114L89.9726 19.1913C91.3692 17.8156 92.0851 17.0574 93.4816 15.6767L93.6312 15.5194C94.0093 15.0491 93.1825 14.9035 92.5876 14.7964C92.4462 14.7747 92.3017 14.7893 92.1675 14.8388C92.0334 14.8883 91.9142 14.971 91.8212 15.0792C90.6448 16.2508 90.702 16.2508 89.5138 17.4223L89.4886 17.4474L89.4483 17.4859L89.4332 17.4993L89.4063 17.521L89.3895 17.5327L89.3727 17.5411L89.3407 17.5495H89.3222H89.3071L89.2836 17.5327L89.2702 17.5227L89.2382 17.4926L89.2248 17.4792L89.2013 17.4608L89.1643 17.4223C88.7643 17.0022 88.5895 16.8583 88.1845 16.4432C87.8568 16.1219 87.5442 16.1503 87.0669 16.4014Z" fill="#939598"/>
<path d="M98.9324 77.2203C98.7488 70.5676 96.8802 64.0689 93.5 58.3277C90.1198 52.5865 85.3377 47.789 79.5977 44.3807L82.7789 38.8176C89.4984 42.7835 95.0958 48.3845 99.046 55.0951C102.996 61.8056 105.17 69.4056 105.362 77.1818L98.9324 77.2203Z" fill="#E6E7E8"/>
<path d="M38.4344 44.7405C32.7642 48.234 28.0696 53.0943 24.7842 58.8724C21.4988 64.6505 19.7287 71.1599 19.6374 77.7994L13.2109 77.8479C13.2965 70.0869 15.3564 62.4741 19.1982 55.7211C23.04 48.968 28.5383 43.2952 35.1791 39.2327L38.4344 44.7405Z" fill="#E6E7E8"/>
<path d="M6.91213 88.7566L7.40453 91.0996C7.52303 91.5486 7.54733 92.017 7.47591 92.4757C7.40449 92.9345 7.23889 93.3736 6.98943 93.7657C6.40933 94.5059 5.58479 95.0178 4.66196 95.2104C3.73912 95.4031 2.77759 95.2643 1.94777 94.8184C1.56165 94.5588 1.23322 94.223 0.982861 93.8317C0.732506 93.4405 0.565564 93.0021 0.492402 92.544L0 90.2109L6.91213 88.7566ZM6.5861 91.267L6.28864 89.8595L1.01842 90.9591L1.31588 92.3716C1.3699 92.7022 1.4918 93.0182 1.67397 93.2999C1.85613 93.5815 2.09465 93.8227 2.37462 94.0084C3.02396 94.323 3.7599 94.4136 4.46663 94.2661C5.17337 94.1185 5.81078 93.7411 6.27856 93.1933C6.46009 92.9106 6.58109 92.5935 6.63401 92.2621C6.68692 91.9306 6.67061 91.5919 6.5861 91.267Z" fill="#939598"/>
<path d="M4.83899 98.4635L4.53818 97.5698L2.01734 98.4066L1.71484 97.5113L8.39505 95.2837L9.11265 97.4108C9.3515 98.009 9.3515 98.6754 9.11265 99.2736C8.989 99.5441 8.80793 99.7847 8.58193 99.9789C8.35592 100.173 8.09035 100.316 7.80349 100.398C7.32334 100.577 6.79468 100.577 6.31453 100.398C5.83973 100.203 5.44896 99.8473 5.2104 99.3941L3.23742 102.063L2.90131 101.074L4.83899 98.4635ZM6.42376 99.4292C6.76341 99.5833 7.14915 99.6032 7.50295 99.4848C7.85675 99.3664 8.15219 99.1186 8.32951 98.7916C8.48085 98.4202 8.48085 98.0048 8.32951 97.6334L7.9245 96.4351L5.31459 97.3088L5.71961 98.5087C5.82458 98.8921 6.07373 99.2205 6.41535 99.4259L6.42376 99.4292Z" fill="#939598"/>
<path d="M10.3419 100.763L8.23115 103.905L11.999 104.346L12.4275 105.274L7.58582 104.72L4.95743 105.925L4.5625 105.068L7.18921 103.863L9.91338 99.8376L10.3419 100.763Z" fill="#939598"/>
<path d="M12.909 105.978L6.76562 109.439L7.23233 110.26L13.3757 106.799L12.909 105.978Z" fill="#939598"/>
<path d="M8.25391 112.075L14.0737 108.099L14.5896 108.848L12.1209 114.798L16.5861 111.747L17.1054 112.502L11.2856 116.477L10.768 115.727L13.2384 109.779L8.7732 112.828L8.25391 112.075Z" fill="#939598"/>
<path d="M19.4925 116.371C19.2554 116.097 18.9638 115.874 18.6361 115.717C18.3084 115.561 17.9517 115.473 17.5884 115.461C16.845 115.436 16.1204 115.697 15.5648 116.189C15.0091 116.682 14.665 117.368 14.6038 118.107C14.5732 118.467 14.6182 118.83 14.736 119.172C14.8537 119.515 15.0416 119.829 15.2877 120.095C15.4697 120.299 15.6816 120.473 15.9163 120.614C16.1418 120.753 16.3888 120.854 16.6473 120.913L17.9313 119.779L16.649 118.339L17.2624 117.797L19.1766 119.938L16.9683 121.894C16.5367 121.838 16.1192 121.704 15.7365 121.497C15.3301 121.282 14.9663 120.995 14.6626 120.651C14.3309 120.282 14.0756 119.851 13.9114 119.384C13.6696 118.706 13.6376 117.972 13.8194 117.276C14.0013 116.58 14.3887 115.955 14.9315 115.481C15.2987 115.153 15.7285 114.902 16.1952 114.743C16.6425 114.588 17.1164 114.525 17.5887 114.557C18.0611 114.588 18.5222 114.714 18.9446 114.927C19.3919 115.147 19.7915 115.452 20.121 115.826C20.6879 116.446 21.0273 117.24 21.084 118.077L20.2303 118.194C20.1923 117.856 20.115 117.523 20 117.203C19.8846 116.897 19.7124 116.614 19.4925 116.371Z" fill="#939598"/>
<path d="M46.3312 136.593L45.743 136.456L44.3313 132.796L43.0776 138.12L42.1836 137.91L43.7952 131.067L44.654 131.268L46.2757 135.509L49.6234 132.426L50.4822 132.627L48.8688 139.47L47.9764 139.263L49.2301 133.939L46.3312 136.593Z" fill="#939598"/>
<path d="M51.9209 132.737L52.8603 132.859L51.9528 139.83L51.0117 139.708L51.9209 132.737Z" fill="#939598"/>
<path d="M54.3823 140.101L53.3438 140.053L55.9301 136.597L53.7773 133.034L54.8159 133.086L56.5284 135.937L58.5115 133.265L59.5484 133.313L57.0578 136.654L59.2963 140.341L58.2577 140.29L56.4612 137.311L54.3823 140.101Z" fill="#939598"/>
<path d="M60.4609 133.228L61.4071 133.199L61.6239 140.225L60.676 140.254L60.4609 133.228Z" fill="#939598"/>
<path d="M63.7269 140.168L62.8984 133.186L63.8059 133.081L67.9451 138.024L67.3099 132.669L68.2208 132.56L69.0476 139.542L68.1418 139.649L64.0026 134.704L64.6378 140.061L63.7269 140.168Z" fill="#939598"/>
<path d="M72.7932 132.25C72.4386 132.331 72.1048 132.485 71.8133 132.701C71.5219 132.918 71.2792 133.193 71.1009 133.509C70.7358 134.152 70.6325 134.909 70.8124 135.626C70.9922 136.342 71.4414 136.962 72.0672 137.358C72.3737 137.553 72.7176 137.682 73.077 137.737C73.4364 137.792 73.8034 137.772 74.1545 137.678C74.4202 137.612 74.6741 137.506 74.9074 137.363C75.1365 137.231 75.3416 137.061 75.514 136.861L75.0973 135.201L73.2251 135.666L73.0251 134.873L75.8182 134.178L76.5325 137.034C76.2826 137.388 75.9693 137.694 75.6082 137.936C74.8061 138.475 73.8325 138.7 72.8739 138.568C72.3972 138.496 71.9396 138.33 71.5273 138.081C71.1149 137.833 70.7559 137.505 70.4709 137.118C70.1858 136.731 69.9803 136.291 69.8661 135.825C69.7518 135.358 69.7312 134.874 69.8052 134.399C69.8757 133.935 70.0379 133.49 70.2825 133.089C70.5317 132.687 70.8577 132.337 71.2421 132.06C71.6454 131.767 72.102 131.555 72.5865 131.435C73.4013 131.223 74.2643 131.291 75.0351 131.629L74.7511 132.438C74.4326 132.315 74.1011 132.23 73.7629 132.183C73.4384 132.144 73.1092 132.167 72.7932 132.25Z" fill="#939598"/>
<path d="M99.4959 123.902C100.014 123.431 100.346 122.79 100.434 122.097L101.286 122.287C101.156 123.153 100.719 123.944 100.056 124.518C99.687 124.856 99.2545 125.116 98.7833 125.285C98.338 125.449 97.8646 125.524 97.3901 125.506C96.9197 125.485 96.4582 125.371 96.0323 125.171C95.5864 124.961 95.1866 124.665 94.8561 124.301C94.5255 123.936 94.2707 123.51 94.1063 123.047C93.9488 122.605 93.8813 122.135 93.908 121.666C93.9383 121.195 94.061 120.734 94.2694 120.309C94.4874 119.86 94.7917 119.458 95.1651 119.126C95.7832 118.556 96.5771 118.212 97.417 118.15L97.5414 118.999C97.2023 119.039 96.869 119.118 96.5482 119.235C96.0584 119.43 95.6354 119.761 95.3299 120.19C95.0243 120.618 94.8493 121.125 94.8256 121.65C94.8054 122.39 95.0721 123.109 95.5702 123.658C96.0684 124.208 96.7598 124.545 97.5011 124.6C97.864 124.628 98.2288 124.581 98.5723 124.46C98.9157 124.34 99.2303 124.15 99.4959 123.902Z" fill="#939598"/>
<path d="M98.8451 115.829C99.1653 114.876 99.8418 114.082 100.734 113.613C101.152 113.389 101.611 113.25 102.084 113.207C102.556 113.163 103.033 113.215 103.485 113.359C103.954 113.509 104.389 113.75 104.764 114.068C105.138 114.386 105.447 114.774 105.67 115.211C105.884 115.629 106.013 116.084 106.05 116.55C106.082 117.022 106.021 117.496 105.87 117.944C105.551 118.898 104.874 119.692 103.981 120.16C103.564 120.383 103.106 120.519 102.635 120.562C102.163 120.604 101.688 120.551 101.238 120.406C100.769 120.257 100.335 120.016 99.9597 119.699C99.5847 119.381 99.2767 118.992 99.0535 118.555C98.8391 118.138 98.71 117.683 98.6737 117.216C98.6392 116.747 98.6975 116.276 98.8451 115.829ZM102.618 119.657C102.98 119.63 103.332 119.532 103.655 119.369C103.978 119.205 104.266 118.979 104.5 118.704C104.735 118.429 104.912 118.11 105.022 117.765C105.131 117.421 105.171 117.059 105.139 116.699C105.061 115.963 104.701 115.285 104.133 114.806C103.566 114.327 102.836 114.084 102.094 114.127C101.732 114.153 101.379 114.251 101.056 114.414C100.732 114.578 100.445 114.804 100.21 115.079C99.9755 115.354 99.7982 115.673 99.6888 116.018C99.5794 116.362 99.5399 116.725 99.5728 117.084C99.651 117.82 100.011 118.498 100.577 118.977C101.144 119.456 101.874 119.699 102.616 119.657H102.618Z" fill="#939598"/>
<path d="M103.607 109.695C103.784 108.705 104.338 107.822 105.154 107.23C105.738 106.807 106.436 106.568 107.158 106.545C107.88 106.523 108.592 106.717 109.202 107.103C109.622 107.362 109.985 107.704 110.269 108.107C110.542 108.49 110.736 108.924 110.841 109.382C110.941 109.844 110.951 110.321 110.867 110.786C110.691 111.776 110.137 112.659 109.321 113.252C108.939 113.531 108.505 113.733 108.044 113.846C107.585 113.954 107.109 113.97 106.644 113.893C106.158 113.813 105.692 113.638 105.274 113.378C104.856 113.118 104.493 112.778 104.207 112.378C103.934 111.995 103.739 111.562 103.634 111.104C103.533 110.641 103.524 110.162 103.607 109.695ZM107.9 112.937C108.254 112.859 108.589 112.711 108.885 112.502C109.181 112.293 109.432 112.028 109.624 111.722C109.816 111.415 109.945 111.074 110.003 110.717C110.062 110.361 110.048 109.996 109.963 109.645C109.778 108.928 109.323 108.309 108.692 107.917C108.062 107.525 107.304 107.39 106.575 107.54C106.221 107.618 105.887 107.766 105.591 107.975C105.295 108.184 105.044 108.449 104.852 108.756C104.66 109.062 104.531 109.403 104.472 109.76C104.414 110.116 104.427 110.48 104.512 110.832C104.697 111.549 105.152 112.167 105.782 112.559C106.413 112.951 107.171 113.087 107.9 112.937Z" fill="#939598"/>
<path d="M112.891 107.449L106.5 104.465L106.903 103.61L112.548 106.249L113.893 103.399L114.636 103.745L112.891 107.449Z" fill="#939598"/>
<path d="M108.868 99.0546L108.527 99.9353L115.113 102.465L115.454 101.584L108.868 99.0546Z" fill="#939598"/>
<path d="M116.214 99.6384L109.43 97.6936L109.682 96.8233L115.861 94.9355L110.658 93.4443L110.912 92.5657L117.695 94.5104L117.443 95.3824L111.263 97.2685L116.466 98.7614L116.214 99.6384Z" fill="#939598"/>
<path d="M112.393 88.2428C112.33 88.5991 112.343 88.9645 112.429 89.3158C112.516 89.6671 112.676 89.9965 112.897 90.2829C113.35 90.8703 114.013 91.2611 114.748 91.374C115.483 91.4868 116.234 91.313 116.843 90.8888C117.142 90.6824 117.395 90.4163 117.585 90.1074C117.775 89.7986 117.899 89.4537 117.948 89.0947C117.989 88.8251 117.989 88.5509 117.948 88.2813C117.913 88.0197 117.835 87.7657 117.716 87.5299L116.015 87.2705L115.722 89.17L114.911 89.0462L115.348 86.2111L118.269 86.6596C118.5 87.0266 118.662 87.4328 118.746 87.8579C118.934 88.8038 118.766 89.7856 118.274 90.616C118.032 91.0225 117.712 91.3784 117.334 91.6637C116.955 91.9421 116.524 92.1429 116.067 92.2545C115.588 92.3724 115.09 92.3946 114.602 92.3199C114.115 92.2452 113.647 92.0751 113.225 91.8193C112.823 91.5753 112.474 91.2545 112.197 90.8754C111.921 90.4905 111.724 90.0555 111.617 89.5951C111.5 89.1105 111.48 88.6079 111.558 88.1156C111.676 87.2842 112.073 86.5172 112.686 85.9399L113.321 86.519C113.084 86.7643 112.875 87.0361 112.701 87.329C112.541 87.6116 112.437 87.9217 112.393 88.2428Z" fill="#939598"/>
<path d="M67.7385 33.0254L66.668 39.3349C70.6635 40.0837 74.5184 41.4443 78.0957 43.3683L81.2703 37.8019C77.0406 35.5096 72.4736 33.8975 67.7385 33.0254Z" fill="#8DC63F"/>
<path d="M36.6562 38.18L39.9081 43.7029C43.4443 41.7167 47.2681 40.2878 51.2434 39.467L50.0822 33.1709C45.3705 34.1279 40.8396 35.8184 36.6562 38.18Z" fill="#939598"/>
<path d="M52.9034 39.1641C56.9116 38.5062 60.9981 38.4717 65.0169 39.062L66.0874 32.7474C61.3289 32.037 56.4878 32.0782 51.7422 32.8696L52.9034 39.1641Z" fill="#939598"/>
<path d="M98.9308 78.6965C98.8349 85.3509 97.0521 91.8733 93.748 97.6581C90.4439 103.443 85.7256 108.302 80.0312 111.785L83.2848 117.308C89.9522 113.255 95.4759 107.58 99.3374 100.818C103.199 94.0556 105.271 86.4268 105.361 78.6479L98.9308 78.6965Z" fill="#939598"/>
<path d="M78.5812 112.631C72.7524 115.873 66.1947 117.595 59.5182 117.636C52.8416 117.676 46.2634 116.034 40.3955 112.862L37.2227 118.425C44.0708 122.153 51.7594 124.084 59.5639 124.035C67.3685 123.987 75.0322 121.96 81.833 118.147L78.5812 112.631Z" fill="#939598"/>
<path d="M38.9391 112.028C33.2186 108.619 28.453 103.83 25.0822 98.1023C21.7114 92.3746 19.8442 85.8934 19.653 79.2573L13.2266 79.3025C13.4264 87.0609 15.5981 94.6421 19.5387 101.338C23.4792 108.033 29.06 113.625 35.7595 117.59L38.9391 112.028Z" fill="#939598"/>
<path d="M61.0582 59.8801H57.5156V70.054H61.0582V59.8801Z" fill="#939598"/>
<path d="M62.8291 63.7043V66.2717C66.034 67.1275 68.8173 69.1144 70.6604 71.8623C72.5035 74.6101 73.2807 77.9314 72.8473 81.2076C72.4139 84.4837 70.7994 87.4913 68.3045 89.67C65.8097 91.8486 62.6046 93.0499 59.2864 93.0499C55.9683 93.0499 52.7632 91.8486 50.2684 89.67C47.7735 87.4913 46.159 84.4837 45.7256 81.2076C45.2922 77.9314 46.0694 74.6101 47.9125 71.8623C49.7556 69.1144 52.5389 67.1275 55.7438 66.2717V63.7043C51.8586 64.5727 48.4315 66.8376 46.1186 70.0653C43.8056 73.2931 42.7692 77.257 43.2079 81.1983C43.6465 85.1395 45.5294 88.7812 48.496 91.4262C51.4626 94.0712 55.3046 95.5336 59.2864 95.5336C63.2683 95.5336 67.1102 94.0712 70.0769 91.4262C73.0435 88.7812 74.9263 85.1395 75.365 81.1983C75.8037 77.257 74.7673 73.2931 72.4543 70.0653C70.1413 66.8376 66.7142 64.5727 62.8291 63.7043Z" fill="#939598"/>
</svg>
