<svg width="61" height="61" viewBox="0 0 61 61" fill="none" xmlns="http://www.w3.org/2000/svg">
<path d="M53.1967 50.65C53.4769 50.3309 53.7523 50.0118 54.0182 49.6832C54.1084 49.5689 54.1939 49.4546 54.2841 49.3403C54.4788 49.0927 54.6735 48.845 54.8635 48.5926C54.9489 48.4783 55.0297 48.3592 55.1104 48.2449C55.2956 47.9878 55.4808 47.7258 55.6612 47.4639C55.7277 47.3639 55.7894 47.2639 55.8559 47.1639C56.0459 46.8781 56.2311 46.5924 56.4068 46.2971C56.4542 46.2209 56.497 46.1399 56.5445 46.0637C56.7344 45.7446 56.9243 45.4208 57.1 45.097C57.1285 45.0493 57.1523 45.0017 57.176 44.9493C57.3707 44.5921 57.5607 44.2254 57.7411 43.8587C57.7506 43.8397 57.7554 43.8254 57.7649 43.8063C59.1419 40.9774 60.0964 37.9056 60.538 34.6672C60.538 34.6529 60.5428 34.6338 60.5428 34.6195C60.5998 34.1814 60.652 33.7385 60.6947 33.2956C60.7042 33.1908 60.709 33.086 60.7185 32.9812C60.747 32.6241 60.7755 32.2669 60.7897 31.9097C60.8039 31.5811 60.8087 31.2572 60.8134 30.9286C60.8134 30.7857 60.8229 30.6429 60.8229 30.5C60.8229 30.4286 60.8182 30.3571 60.8182 30.2857C60.8134 29.8285 60.8039 29.3713 60.785 28.9141C60.7802 28.8236 60.7707 28.7331 60.766 28.6379C60.7375 28.1997 60.709 27.7616 60.6662 27.3234C60.6662 27.2996 60.6615 27.2806 60.6567 27.2568C59.9682 20.6703 57.1855 14.5696 52.6221 9.70708C52.2802 9.34037 51.9288 8.98318 51.5679 8.63552C51.2213 8.30215 50.8699 7.97354 50.509 7.65922C50.3001 7.47348 50.0816 7.30203 49.868 7.12106C49.716 6.99724 49.5688 6.86389 49.4168 6.74482C49.1129 6.50194 48.8043 6.26858 48.4956 6.03998C48.4291 5.98759 48.3627 5.93521 48.2914 5.88758C47.9305 5.62565 47.5696 5.378 47.1993 5.13035C47.1755 5.11606 47.1518 5.09701 47.128 5.08272C46.7339 4.82079 46.335 4.57314 45.9266 4.33025C45.9266 4.33025 45.9266 4.33025 45.9219 4.33025C45.1004 3.84448 44.2599 3.39681 43.4004 2.99676C43.3956 2.99676 43.3909 2.992 43.3861 2.992C42.973 2.79674 42.5504 2.611 42.1278 2.43479C42.104 2.42527 42.085 2.41574 42.0613 2.40622C41.6577 2.23953 41.254 2.08713 40.8456 1.93473C40.7982 1.91568 40.7507 1.89664 40.7032 1.88235C40.3233 1.74424 39.9339 1.62041 39.5493 1.50135C39.4686 1.47754 39.3926 1.44896 39.3119 1.42515C38.951 1.31561 38.5901 1.22037 38.2244 1.12512C38.1152 1.09654 38.006 1.0632 37.892 1.03463C37.5549 0.948904 37.2177 0.877468 36.8758 0.806031C36.7334 0.777456 36.5957 0.739356 36.4532 0.710781C36.1351 0.648869 35.8122 0.596482 35.494 0.544095C35.3278 0.51552 35.1663 0.486945 35.0001 0.45837C34.6915 0.410746 34.3781 0.377408 34.0647 0.344071C33.8842 0.325021 33.7085 0.296447 33.5281 0.277397C33.1957 0.24406 32.8633 0.22501 32.5261 0.201198C32.3647 0.191673 32.2032 0.172623 32.0418 0.16786C31.5432 0.144048 31.0446 0.129761 30.5412 0.129761C30.0521 0.129761 29.5678 0.144048 29.0834 0.163098C28.865 0.172623 28.6465 0.196435 28.4281 0.210723C28.1669 0.229773 27.9058 0.244059 27.6446 0.267872C27.3644 0.296447 27.089 0.329784 26.8136 0.367884C26.6141 0.391696 26.4195 0.410746 26.22 0.439321C25.9209 0.482183 25.6217 0.53457 25.3273 0.586957C25.1563 0.615532 24.9854 0.639344 24.8144 0.672681C24.5105 0.729831 24.2161 0.796505 23.9169 0.867942C23.7507 0.906042 23.5893 0.939379 23.4231 0.977479C23.1287 1.04892 22.8438 1.12988 22.5541 1.20608C22.3879 1.2537 22.217 1.2918 22.0508 1.34419C21.7753 1.42515 21.5094 1.51088 21.2387 1.60136C21.0583 1.65851 20.8779 1.71566 20.6974 1.77757C20.4457 1.8633 20.1988 1.95855 19.9519 2.04903C19.7572 2.12047 19.5578 2.19191 19.3631 2.26811C19.1351 2.35859 18.9167 2.45384 18.6935 2.54909C18.4798 2.63958 18.2709 2.7253 18.0572 2.82055C17.8578 2.91104 17.6583 3.01105 17.4589 3.1063C17.2309 3.21584 17.003 3.32061 16.7798 3.43491C16.5994 3.5254 16.4237 3.62541 16.248 3.72066C16.0106 3.84925 15.7731 3.97307 15.5404 4.10642C15.3742 4.20167 15.2128 4.30168 15.0466 4.40169C14.8092 4.54457 14.567 4.68268 14.3343 4.83508C14.1729 4.93509 14.0162 5.04462 13.8595 5.1494C13.6268 5.3018 13.3941 5.4542 13.1662 5.61136C12.9952 5.73042 12.8338 5.85901 12.6628 5.97807C12.4539 6.13047 12.2449 6.28287 12.036 6.44003C11.8318 6.59719 11.6371 6.76387 11.4377 6.9258C11.2762 7.05915 11.11 7.18773 10.9486 7.32108C10.6067 7.61159 10.2695 7.91163 9.93712 8.22119C9.92288 8.23547 9.90863 8.245 9.89438 8.25929C9.88489 8.26881 9.87064 8.2831 9.86114 8.29263C9.4955 8.63552 9.13461 8.99271 8.78322 9.35465C8.74523 9.39275 8.70724 9.43562 8.66925 9.47848C3.7972 14.5838 0.677385 21.3894 0.292749 28.9236C0.278504 29.1808 0.278503 29.4332 0.273755 29.6904C0.269006 29.9618 0.254761 30.2285 0.254761 30.5C0.254761 30.5143 0.254761 30.5333 0.254761 30.5476C0.254761 30.981 0.269006 31.4096 0.288001 31.8383C0.292749 32.0002 0.306995 32.1621 0.316492 32.3288C0.335486 32.6098 0.354481 32.886 0.378224 33.167C0.397218 33.3622 0.411464 33.5527 0.435207 33.7432C0.458949 33.9861 0.49219 34.229 0.520681 34.4719C0.549173 34.6767 0.572916 34.8862 0.606156 35.091C0.639396 35.3101 0.677384 35.5339 0.720122 35.753C0.800848 36.2054 0.886322 36.6531 0.986042 37.096C1.01928 37.2389 1.04303 37.377 1.07627 37.5199C1.138 37.7866 1.20923 38.0533 1.28045 38.3152C1.31844 38.4581 1.35643 38.6009 1.39442 38.7486C1.4704 39.0153 1.54638 39.282 1.63185 39.5439C1.67459 39.6773 1.71732 39.8059 1.76006 39.9392C1.85028 40.2107 1.94051 40.4869 2.03548 40.7583C2.06872 40.8536 2.10671 40.9536 2.1447 41.0489C2.50559 42.0204 2.90922 42.9681 3.36033 43.892C3.38883 43.9492 3.41257 44.0016 3.44106 44.0587C3.57877 44.335 3.72123 44.6064 3.86843 44.8779C3.92067 44.9731 3.9729 45.0684 4.02514 45.1684C4.17234 45.4303 4.31955 45.6923 4.4715 45.9494C4.52849 46.0447 4.58547 46.1352 4.64245 46.2304C4.8039 46.4924 4.96536 46.7591 5.13156 47.0162C5.16954 47.0781 5.21228 47.1401 5.25502 47.1972C5.4687 47.521 5.68714 47.8449 5.91507 48.164C6.03853 48.3402 6.25222 48.6402 6.44691 48.8974C6.45641 48.9117 6.47066 48.926 6.48015 48.9403C6.69384 49.2213 6.92177 49.4975 7.14495 49.7737C7.22093 49.8689 7.29216 49.9642 7.37289 50.0547C7.65305 50.3881 7.94272 50.7167 8.24188 51.0405C8.26562 51.0691 8.28936 51.0977 8.31785 51.1262C8.35584 51.1643 8.39383 51.2024 8.42707 51.2405C8.74523 51.5834 9.07288 51.9216 9.40528 52.2454C9.46226 52.2978 9.51925 52.3502 9.57623 52.4073C14.662 57.3079 21.4524 60.4464 28.9694 60.8369C29.4965 60.8655 30.0236 60.8798 30.5507 60.8798C30.5555 60.8798 30.5602 60.8798 30.565 60.8798C31.1016 60.8798 31.6381 60.8655 32.1747 60.8369C38.7658 60.4892 44.7965 58.0223 49.6068 54.1075C49.6258 54.0932 49.6495 54.0742 49.6685 54.0599C50.0152 53.7742 50.3571 53.4789 50.6942 53.1789C50.7607 53.1217 50.8272 53.0646 50.8937 53.0074C51.1976 52.7312 51.492 52.4407 51.7864 52.1549C51.8719 52.0692 51.9668 51.9882 52.0523 51.8978C52.4085 51.5406 52.7503 51.1691 53.0875 50.7929C53.1065 50.7738 53.1255 50.7548 53.1445 50.7357C53.1492 50.7024 53.173 50.6786 53.1967 50.65ZM53.4056 48.0544C52.8358 47.7258 52.247 47.3877 51.7389 47.3877C50.4758 47.3877 49.7587 46.9686 49.1272 46.5971C48.5621 46.2685 48.0777 45.9828 47.1613 45.9828C46.6057 45.9828 45.8127 46.5495 45.1811 47.0067C44.5163 47.4877 43.9892 47.8639 43.4716 47.8639C43.1677 47.8639 41.7811 48.1354 40.7744 48.3307C39.2644 48.6259 38.3194 48.8021 37.9348 48.8021C37.5026 48.8021 36.8948 48.5878 36.192 48.3402C35.589 48.1259 34.8387 47.8639 34.4778 47.8639C34.4588 47.8639 34.2973 47.8687 34.0552 47.8735V37.6723C34.0932 37.6723 34.1311 37.6723 34.1739 37.6675C37.8825 37.577 41.7194 37.4865 44.8582 34.2433C47.8071 31.1953 48.016 29.1094 48.2534 26.69C48.4006 25.1851 48.5716 23.4801 49.4786 20.9655C49.678 20.4131 49.5973 19.8035 49.2601 19.3225C48.923 18.8415 48.3769 18.5557 47.7928 18.5557C44.5875 18.5557 35.3658 22.1038 31.8518 29.7904C29.8289 27.271 26.8183 26.3281 24.3776 25.5661C22.915 25.1089 21.5332 24.6803 20.4742 24.0183C19.9709 23.704 19.3488 23.6611 18.8122 23.8945C18.2709 24.1326 17.8815 24.6184 17.7675 25.1994C16.8368 30.0238 18.6318 35.1482 22.1315 37.6675C23.6083 38.7295 26.4669 40.0773 30.4652 38.7724V47.4115C30.337 47.3163 30.2041 47.2163 30.0664 47.102C29.4301 46.6019 28.6418 46.4304 27.7775 46.4304C26.994 46.4304 25.8876 46.4971 24.9094 46.9543C23.879 47.4353 22.991 47.8544 22.2407 47.8544C21.8323 47.8544 21.2293 47.7496 20.6499 47.6449C20.289 47.583 19.9519 47.521 19.724 47.502C19.5483 47.4829 19.2491 47.5544 18.9262 47.6211C18.4228 47.7258 17.7913 47.8592 17.0458 47.8592C16.3287 47.8592 15.3125 47.3639 14.2393 46.84C13.4511 46.4543 12.4729 46.4304 12.0835 46.4304C11.5896 46.4304 10.1983 47.1686 9.62372 47.4401C8.90668 47.783 8.08517 47.9973 7.85724 48.0021C7.74802 48.0068 7.6483 48.0068 7.55333 48.0116C3.74497 42.9919 1.66984 36.8722 1.66984 30.4952C1.66984 22.4895 5.02234 14.7648 10.8678 9.30703C16.2242 4.30644 23.2094 1.54898 30.5317 1.54898C38.0487 1.54898 45.1621 4.43027 50.5708 9.66422C56.2596 15.1696 59.3936 22.5705 59.3936 30.4952C59.3936 36.8865 57.2947 43.0443 53.4531 48.0783C53.4389 48.0735 53.4246 48.064 53.4056 48.0544ZM34.2356 34.0671C34.9764 29.9047 37.7781 27.0948 40.1666 25.4089C41.9426 24.1516 43.766 23.3039 45.2096 22.7848C44.8962 24.1945 44.7822 25.3375 44.6825 26.3281C44.4688 28.4998 44.3596 29.5856 42.2797 31.7335C40.1951 33.8909 37.5596 33.9861 34.2356 34.0671ZM30.318 34.9815C27.977 36.0245 25.8876 35.9483 24.2209 34.7481C22.4022 33.4384 21.2482 30.9239 21.12 28.2712C21.8466 28.5379 22.5826 28.7712 23.3139 28.9951C26.7708 30.0761 29.563 30.9429 30.318 34.9815Z" fill="url(#paint0_linear_2936_12674)"/>
<defs>
<linearGradient id="paint0_linear_2936_12674" x1="23.7005" y1="0.129761" x2="24.8798" y2="60.8796" gradientUnits="userSpaceOnUse">
<stop stop-color="#1D4047"/>
<stop offset="0.277889" stop-color="#234B4D"/>
<stop offset="0.577531" stop-color="#2E5E58"/>
<stop offset="0.806558" stop-color="#376F61"/>
<stop offset="1" stop-color="#40806A"/>
</linearGradient>
</defs>
</svg>
