<svg width="78" height="21" viewBox="0 0 78 21" fill="none" xmlns="http://www.w3.org/2000/svg">
<path d="M0.00320587 3.29609C-0.00891191 3.14877 0.0134264 3.00066 0.0684637 2.86339C0.123501 2.72612 0.209738 2.60343 0.32041 2.50494C0.579458 2.31898 0.895069 2.22786 1.21382 2.24701C1.43537 2.24413 1.6561 2.27441 1.86861 2.33685C2.0665 2.39771 2.20036 2.43828 2.26729 2.46436V8.13575C2.63923 7.68061 3.10719 7.31256 3.63797 7.05769C4.26204 6.75174 4.95049 6.59872 5.64597 6.6114C6.33738 6.6037 7.02327 6.73479 7.66269 6.99684C8.26819 7.24686 8.81587 7.61769 9.272 8.08648C9.7397 8.5676 10.1076 9.13582 10.3546 9.75863C10.6189 10.4295 10.7503 11.1449 10.7416 11.8655C10.7475 12.5841 10.612 13.2969 10.3429 13.9636C10.0912 14.5884 9.7128 15.1547 9.23126 15.6271C8.74117 16.0967 8.16391 16.4668 7.53173 16.7167C6.8455 16.9868 6.11316 17.1216 5.37533 17.1138C4.64108 17.1219 3.91113 17.0013 3.21891 16.7573C2.58013 16.5301 1.99976 16.1649 1.51939 15.6879C1.02302 15.1815 0.643631 14.5732 0.407719 13.9057C0.127064 13.0981 -0.00791131 12.2475 0.00903184 11.3931V3.29609H0.00320587ZM5.33167 15.091C5.75861 15.0962 6.18193 15.0123 6.5743 14.8446C6.94095 14.6873 7.27238 14.4588 7.54919 14.1723C7.82432 13.8819 8.03721 13.5388 8.17488 13.1638C8.32409 12.7543 8.39802 12.3214 8.39314 11.8858C8.39701 11.4474 8.32312 11.0118 8.17488 10.5991C8.03977 10.2194 7.82667 9.872 7.54919 9.57896C7.2729 9.29189 6.94133 9.06322 6.5743 8.90662C6.18193 8.73896 5.75861 8.65504 5.33167 8.66029C4.89817 8.65535 4.46827 8.73919 4.06867 8.90662C3.7025 9.06398 3.37415 9.29711 3.10541 9.59054C2.83393 9.89138 2.62168 10.2404 2.47974 10.6193C2.32681 11.0241 2.24987 11.4533 2.25275 11.8858C2.24765 12.3316 2.32458 12.7746 2.47974 13.1928C2.61841 13.5699 2.8356 13.9136 3.11706 14.2013C3.39482 14.4815 3.72637 14.7033 4.09196 14.8533C4.48526 15.0137 4.90669 15.0945 5.33167 15.091Z" fill="#FCFCFC"/>
<path d="M12.6832 7.9499C12.6711 7.80259 12.6934 7.65449 12.7484 7.51722C12.8035 7.37995 12.8897 7.25725 13.0004 7.15875C13.2527 6.97492 13.5612 6.88378 13.8734 6.90083C14.0988 6.8985 14.3232 6.92876 14.5399 6.99066C14.7465 7.04862 14.8803 7.09209 14.9473 7.11818V12.4041C14.9119 13.0808 15.1355 13.7456 15.5729 14.2646C15.9881 14.7264 16.6342 14.9573 17.5111 14.9573C17.8605 14.976 18.21 14.9234 18.5383 14.8028C18.8666 14.6822 19.1667 14.4961 19.4202 14.2559C19.8819 13.7865 20.1137 13.0968 20.1157 12.1868V7.9499C20.1036 7.80259 20.1259 7.65449 20.1809 7.51722C20.236 7.37995 20.3222 7.25725 20.4329 7.15875C20.6852 6.97492 20.9937 6.88378 21.3059 6.90083C21.5313 6.8985 21.7557 6.92876 21.9724 6.99066C22.1761 7.04862 22.3128 7.09209 22.3798 7.11818V15.789C22.4011 16.6004 22.2728 17.4087 22.0014 18.1741C21.7824 18.7853 21.4186 19.3349 20.9409 19.7763C20.4631 20.2177 19.8856 20.5379 19.2572 20.7098C18.5523 20.9097 17.8221 21.0073 17.0891 20.9996C16.591 21.003 16.0932 20.9729 15.5991 20.9098C15.1481 20.8518 14.7465 20.7822 14.3973 20.7011C14.048 20.62 13.757 20.5446 13.5242 20.4722C13.2914 20.3997 13.1401 20.3446 13.047 20.3041C13.1517 20.0143 13.2536 19.7477 13.338 19.4637C13.4224 19.1797 13.5242 18.8985 13.629 18.6232C13.7221 18.6638 13.8676 18.716 14.0655 18.7826C14.3006 18.8582 14.5395 18.9211 14.7814 18.971C15.0724 19.029 15.3634 19.0811 15.7243 19.1188C16.0973 19.1595 16.4723 19.1789 16.8476 19.1768C17.3168 19.1832 17.7846 19.1267 18.2386 19.0087C18.631 18.9079 18.9908 18.7083 19.2834 18.4291C19.5871 18.1207 19.8117 17.7439 19.9382 17.3307C20.1036 16.7752 20.1802 16.1972 20.1651 15.618C19.85 16.0392 19.4181 16.3595 18.9225 16.5396C18.3318 16.7766 17.6998 16.8948 17.0629 16.8873C16.4627 16.8924 15.8655 16.8024 15.2936 16.6207C14.7818 16.4613 14.3083 16.1989 13.9025 15.8498C13.5105 15.503 13.2013 15.0733 12.9975 14.5921C12.7701 14.0469 12.6582 13.4609 12.6686 12.8707V7.9499H12.6832Z" fill="#FCFCFC"/>
<path d="M30.2449 15.669V16.6224C30.2449 17.0426 30.2449 17.4657 30.2449 17.8859C30.2449 18.4163 29.9713 18.6945 29.4475 18.7003C28.6007 18.7003 27.7567 18.7003 26.9099 18.7003C26.5956 18.7003 26.5781 18.5554 26.5781 18.3148C26.5781 15.6226 26.5927 12.9274 26.5781 10.2352C26.5781 9.12237 26.5781 8.01533 27.0146 6.96625C28.103 4.32038 30.0586 2.71778 32.9193 2.4048C35.78 2.09182 38.0761 3.1322 39.7203 5.49407C41.8185 8.50799 41.1754 13.7273 37.6832 15.8023C35.2969 17.2194 32.8407 17.3005 30.4428 15.7298C30.4137 15.7124 30.3875 15.6921 30.3584 15.6776C30.3293 15.6632 30.3176 15.669 30.2449 15.669ZM37.1943 9.66139C37.1623 7.54585 35.5995 5.94326 33.609 5.98093C31.6185 6.01861 30.1867 7.46181 30.2187 9.40927C30.2536 11.4842 31.8367 13.0955 33.8069 13.055C35.6374 13.0115 37.2234 11.4205 37.1943 9.6527V9.66139Z" fill="#FCFCFC"/>
<path d="M77.4619 16.63C77.4611 16.6989 77.4333 16.7648 77.3843 16.8136C77.3354 16.8623 77.2692 16.89 77.2 16.8908H74.7234C74.0512 16.8908 73.8067 16.6416 73.7951 15.9663C73.7951 15.8707 73.7951 15.7751 73.7747 15.6447C73.7165 15.6663 73.6601 15.6925 73.6059 15.7229C71.2778 17.4617 67.6838 17.0705 65.603 15.2679C64.0839 13.9493 63.3477 12.254 63.176 10.2863C62.9723 7.94178 63.6416 5.90159 65.3702 4.25842C69.2844 0.537398 76.097 2.44718 77.3018 7.9186C77.3983 8.36936 77.45 8.8285 77.456 9.28935C77.4997 11.6976 77.4706 14.1087 77.456 16.517L77.4619 16.63ZM70.4339 5.97404C68.4463 5.93347 66.8777 7.54186 66.8428 9.6516C66.8137 11.4136 68.4084 13.0133 70.2331 13.0481C72.2032 13.0857 73.7805 11.486 73.8271 9.40237C73.8678 7.4781 72.4215 6.01461 70.4339 5.97404Z" fill="#FCFCFC"/>
<path d="M61.8866 8.45926V15.8086C61.892 15.9857 61.8842 16.163 61.8634 16.3389C61.8312 16.5048 61.7398 16.6535 61.606 16.7574C61.4723 16.8613 61.3052 16.9134 61.1358 16.904C60.4228 16.904 59.7099 16.9185 58.9998 16.904C58.8929 16.9094 58.7862 16.8915 58.687 16.8515C58.5877 16.8116 58.4985 16.7506 58.4253 16.6728C58.3522 16.5951 58.297 16.5023 58.2635 16.4011C58.23 16.2999 58.2191 16.1926 58.2315 16.0868C58.2315 15.3217 58.2315 14.5566 58.2315 13.7916V0.988219C58.2315 0.214453 58.4469 0.002898 59.2239 0H61.0602C61.6422 0 61.8895 0.25792 61.8925 0.840418C61.8905 3.38486 61.8886 5.92448 61.8866 8.45926Z" fill="#FCFCFC"/>
<path d="M56.2112 11.0893H45.8046C46.212 12.7789 47.6875 13.8395 49.6954 13.8395C51.0952 13.8395 51.9333 13.4599 52.7976 12.4514H55.6321C55.7282 12.4535 55.8223 12.4793 55.9059 12.5264C55.9896 12.5735 56.0602 12.6406 56.1115 12.7215C56.1628 12.8024 56.1932 12.8947 56.1999 12.9902C56.2067 13.0857 56.1895 13.1813 56.1501 13.2686C54.9657 15.6247 52.3378 16.9143 49.7711 16.9143C45.4728 16.9143 42.1407 13.7265 42.1407 9.64903C42.1353 8.67766 42.3239 7.7149 42.6955 6.81679C43.0672 5.91867 43.6145 5.10313 44.3056 4.41761C44.9967 3.73208 45.8178 3.19026 46.7211 2.82368C47.6245 2.4571 48.592 2.27308 49.5674 2.28231C53.7638 2.28231 56.8427 5.47011 56.8427 9.79972C56.8463 10.0553 56.8336 10.3108 56.8049 10.5648C56.791 10.7108 56.7219 10.8461 56.6118 10.9435C56.5016 11.0408 56.3585 11.0929 56.2112 11.0893ZM49.6198 5.36289C47.6089 5.36289 46.2353 6.34531 45.7027 8.13918H53.5135C53.0799 6.34531 51.7063 5.36289 49.6198 5.36289Z" fill="#FCFCFC"/>
</svg>
