<svg width="236" height="117" viewBox="0 0 236 117" fill="none" xmlns="http://www.w3.org/2000/svg">
<path d="M201.039 23.8362C199.429 12.3662 196.319 5.37624 191.539 2.47624C188.629 0.716244 185.16 0.526241 181.199 1.92624C170.149 5.83624 171.939 19.2162 173.129 28.0762C173.219 28.7162 173.299 29.3362 173.379 29.9362C177.029 58.3962 168.77 79.2262 159.559 86.5362C152.829 91.8762 144.079 92.5962 133.569 88.6762C125.519 85.6762 118.489 80.5962 111.689 75.6762C109.699 74.2462 107.81 72.7862 105.979 71.3762C96.1095 63.7762 87.5795 57.2062 73.6695 61.9762C66.7195 64.3562 62.4195 69.3762 58.2695 74.2262C55.8595 77.0462 53.3695 79.9562 50.3595 82.3562C47.5595 84.5962 44.2795 86.4162 40.6195 87.7662C36.3295 89.3462 31.6395 90.2462 26.6895 90.4462C24.6295 90.5262 22.3995 90.2462 20.0295 89.9362C14.1495 89.1862 8.06949 88.4062 3.85949 93.1862C0.929494 96.5163 0.169492 101.476 1.95949 105.536C3.41949 108.846 6.4995 111.556 10.6195 113.196C15.8695 115.256 21.4495 116.166 27.0595 116.166C41.1795 116.166 55.4395 110.386 64.6495 102.736C66.2295 101.416 67.7295 99.9962 69.1795 98.6262C75.0395 93.0562 80.1095 88.2462 87.7795 93.3362L89.2095 94.2762C98.3295 100.336 106.949 106.066 117.439 109.906C136.139 116.766 154.549 117.146 169.299 110.966C172.139 109.776 175.519 107.966 179.009 105.276L179.309 105.336C179.329 105.226 179.349 105.116 179.369 104.996C189.039 97.3662 199.409 82.8062 201.379 55.1162C202.069 45.1062 202.519 34.3762 201.039 23.8362ZM11.1695 111.806C7.40949 110.316 4.62949 107.886 3.32949 104.936C1.78949 101.456 2.47949 97.0362 4.98949 94.1862C7.25949 91.5963 10.2995 90.8862 13.5795 90.8862C15.6095 90.8862 17.7395 91.1562 19.8395 91.4262C22.1595 91.7262 24.5695 92.0362 26.7495 91.9462C31.8595 91.7462 36.6995 90.8162 41.1295 89.1762C44.0895 88.0862 46.8095 86.6862 49.2495 85.0262C50.6695 86.5562 56.7295 94.1362 52.5595 108.636C40.2395 114.576 24.5495 117.066 11.1695 111.806ZM68.1395 97.5362C66.7095 98.8962 65.2295 100.296 63.6895 101.576C60.9795 103.826 57.8195 105.916 54.3495 107.726C57.9495 93.6062 52.2795 86.0962 50.4595 84.1262C50.7295 83.9262 51.0195 83.7362 51.2795 83.5262C54.3995 81.0362 56.9395 78.0662 59.3895 75.1962C63.5995 70.2862 67.5695 65.6362 74.1395 63.3862C75.7095 62.8462 77.2095 62.4662 78.6395 62.2062C80.0895 64.1762 87.1595 74.9262 81.2895 89.6262C76.3595 89.7362 72.3295 93.5662 68.1395 97.5362ZM88.5995 92.0862C86.5395 90.7262 84.6495 89.9962 82.8795 89.7462C88.2495 75.7762 82.4895 65.2362 80.3195 61.9862C89.9695 60.9462 96.7895 66.1962 105.06 72.5662C106.899 73.9862 108.799 75.4462 110.81 76.8962C112.11 77.8362 113.419 78.7762 114.739 79.7062C115.529 81.6862 119.45 93.2262 108.729 104.426C102.249 101.116 96.2595 97.1562 90.0395 93.0262L88.5995 92.0862ZM110.119 105.136C119.06 95.5462 117.879 85.5062 116.739 81.1062C121.819 84.6062 127.139 87.8762 133.049 90.0862C137.459 91.7362 141.589 92.5762 145.409 92.6562C146.269 94.9462 149.769 105.916 141.749 113.696C134.069 113.206 126.039 111.476 117.959 108.506C115.229 107.506 112.639 106.376 110.119 105.136ZM168.709 109.586C161.219 112.726 152.729 114.106 143.739 113.786C150.719 105.976 148.089 95.8562 146.999 92.6362C152.079 92.4362 156.599 90.8062 160.499 87.7062C163.109 85.6362 165.339 82.9762 167.219 79.8862C169.129 81.1962 180.379 89.6062 177.969 104.176C174.649 106.736 171.429 108.456 168.709 109.586ZM179.669 102.806C181.189 88.2062 169.809 79.8462 167.979 78.5962C171.509 72.2862 173.709 64.3862 174.819 56.1162C176.269 55.9662 180.279 55.6962 184.609 56.5362C191.729 57.9262 196.319 61.5462 198.249 67.2862L198.309 67.2662C194.849 85.6062 187.169 96.4362 179.669 102.806ZM199.859 55.0162C199.619 58.4262 199.249 61.6262 198.759 64.6462C193.409 53.8162 178.909 54.2562 174.999 54.5962C175.979 46.2062 175.859 37.5062 174.869 29.7462C174.789 29.1462 174.709 28.5162 174.619 27.8762C173.429 18.9962 171.799 6.83624 181.699 3.33624C185.209 2.09624 188.259 2.23624 190.759 3.75624C195.129 6.40624 198.01 13.0462 199.549 24.0462C201.01 34.4462 200.559 45.0762 199.859 55.0162Z" fill="#1D4047" stroke="#1D4047" stroke-miterlimit="10"/>
<path d="M179.199 19.6369C179.239 19.5669 179.279 19.4969 179.319 19.4269C179.339 19.3969 179.369 19.3569 179.389 19.3269C179.399 19.3069 179.409 19.2969 179.429 19.2769C179.499 19.1769 179.349 19.3769 179.369 19.3469C179.439 19.2569 179.519 19.1669 179.599 19.0869C179.689 18.9969 179.779 18.9169 179.879 18.8369C179.969 18.7669 179.719 18.9469 179.839 18.8669C179.869 18.8469 179.889 18.8269 179.919 18.8169C179.979 18.7769 180.049 18.7369 180.109 18.6969C180.169 18.6669 180.239 18.6369 180.299 18.6069C180.239 18.6369 180.129 18.6669 180.249 18.6369C180.289 18.6269 180.329 18.6069 180.359 18.5969C180.429 18.5769 180.509 18.5569 180.579 18.5469C180.699 18.5269 180.599 18.5569 180.529 18.5569C180.579 18.5569 180.629 18.5469 180.679 18.5469C180.779 18.5469 180.879 18.5569 180.979 18.5569C181.059 18.5569 180.879 18.5369 180.879 18.5469C180.909 18.5569 180.939 18.5569 180.959 18.5569C181.009 18.5669 181.059 18.5769 181.109 18.5869C181.219 18.6169 181.339 18.6569 181.449 18.6969C181.469 18.7069 181.549 18.7369 181.449 18.6969C181.339 18.6469 181.479 18.7069 181.499 18.7269C181.569 18.7569 181.629 18.7869 181.689 18.8269C182.039 19.0169 182.519 18.9269 182.719 18.5569C182.899 18.2069 182.819 17.7269 182.449 17.5269C181.949 17.2569 181.429 17.0869 180.859 17.0469C180.399 17.0169 179.959 17.1269 179.539 17.3169C178.939 17.5769 178.459 18.0569 178.079 18.5869C178.009 18.6869 177.939 18.7869 177.889 18.8969C177.709 19.2469 177.789 19.7269 178.159 19.9269C178.509 20.0869 179.009 20.0069 179.199 19.6369Z" fill="#1D4047"/>
<path d="M193.649 16.4367C193.239 16.0167 192.679 15.6967 192.119 15.5167C190.929 15.1267 189.739 15.5767 188.889 16.4367C188.609 16.7167 188.589 17.2267 188.889 17.4967C189.189 17.7667 189.659 17.7967 189.949 17.4967C190.009 17.4367 190.069 17.3767 190.129 17.3267C190.149 17.3067 190.339 17.1567 190.209 17.2567C190.309 17.1867 190.409 17.1167 190.509 17.0567C190.559 17.0267 190.609 17.0067 190.659 16.9767C190.809 16.8967 190.539 17.0167 190.679 16.9667C190.789 16.9367 190.889 16.9067 190.999 16.8767C191.189 16.8267 190.869 16.8767 191.009 16.8767C191.059 16.8767 191.099 16.8667 191.149 16.8667C191.239 16.8667 191.329 16.8667 191.419 16.8767C191.569 16.8867 191.229 16.8367 191.409 16.8767C191.449 16.8867 191.489 16.8967 191.529 16.9067C191.619 16.9267 191.699 16.9567 191.789 16.9867C191.829 16.9967 191.859 17.0167 191.899 17.0267C191.689 16.9567 191.809 16.9867 191.859 17.0167C191.929 17.0467 191.999 17.0867 192.069 17.1267C192.189 17.1967 192.299 17.2667 192.399 17.3467C192.529 17.4367 192.239 17.2167 192.399 17.3467C192.429 17.3767 192.459 17.3967 192.489 17.4267C192.519 17.4467 192.539 17.4767 192.569 17.4967C192.839 17.7767 193.359 17.7967 193.629 17.4967C193.919 17.1967 193.939 16.7367 193.649 16.4367Z" fill="#1D4047"/>
<path d="M235.319 45.5662L225.339 14.2862C225.159 13.7262 224.569 13.4162 224.009 13.5762L193.839 23.2062C193.129 24.8462 191.299 26.4262 188.859 27.2962C186.169 28.2562 183.509 28.0662 181.959 26.9962L171.099 30.4662C170.539 30.6562 170.239 31.2562 170.419 31.8162L180.399 63.0862C180.579 63.6562 181.189 63.9662 181.759 63.7862L234.629 46.9162C235.179 46.7362 235.499 46.1362 235.319 45.5662Z" fill="url(#paint0_linear_3857_29826)"/>
<path d="M207.267 44.6566L170.447 31.7366C170.277 31.2066 170.567 30.6366 171.107 30.4666L182.567 26.8066C182.787 26.7366 183.047 27.0666 183.267 27.1066L188.007 27.5566L192.567 24.4066C192.687 24.3066 192.827 23.5366 192.967 23.4966L223.947 13.6066C224.527 13.4166 225.147 13.7466 225.337 14.3266L207.267 44.6566Z" fill="#40806A"/>
<path d="M225.332 14.2862C225.152 13.7262 224.562 13.4162 224.002 13.5762L223.182 13.8362C218.422 23.0562 213.662 32.2862 208.902 41.5062C208.362 42.5562 207.812 43.6062 207.272 44.6562C196.742 40.4062 186.212 36.1562 175.692 31.9062C174.352 31.3662 173.012 30.8262 171.672 30.2862L171.092 30.4762C170.532 30.6662 170.232 31.2662 170.412 31.8262L170.642 32.5462C181.412 36.8962 192.182 41.2462 202.942 45.5962C204.472 46.2162 206.002 46.8362 207.532 47.4562C208.012 47.6562 208.712 47.3262 208.942 46.8862C213.852 37.3762 218.762 27.8662 223.662 18.3562C224.272 17.1762 224.882 15.9962 225.492 14.8062L225.332 14.2862Z" fill="#1D4047"/>
<path d="M179.858 27.0463C183.108 28.8863 187.528 29.1963 190.768 27.2063C192.418 26.1863 193.688 24.6863 194.658 23.0163C195.148 22.1763 193.848 21.4263 193.358 22.2563C191.958 24.6663 189.848 26.5963 186.998 26.9863C185.158 27.2363 183.278 26.8663 181.558 26.1863C181.388 26.1163 181.178 26.0263 180.898 25.8963C180.798 25.8463 180.708 25.7963 180.608 25.7463C179.778 25.2763 179.018 26.5763 179.858 27.0463Z" fill="#1D4047"/>
<defs>
<linearGradient id="paint0_linear_3857_29826" x1="235.37" y1="38.848" x2="174.142" y2="38.848" gradientUnits="userSpaceOnUse">
<stop stop-color="#1D4047"/>
<stop offset="0.277889" stop-color="#234B4D"/>
<stop offset="0.577531" stop-color="#2E5E58"/>
<stop offset="0.806558" stop-color="#376F61"/>
<stop offset="1" stop-color="#40806A"/>
</linearGradient>
</defs>
</svg>
