<svg width="62" height="61" viewBox="0 0 62 61" fill="none" xmlns="http://www.w3.org/2000/svg">
<path d="M61.5173 41.7823C61.4225 41.7299 61.3183 41.6966 61.2187 41.6585C60.9628 41.5632 60.7021 41.468 60.4414 41.3727C60.413 41.387 60.3845 41.3918 60.3514 41.3822C60.0622 41.3108 59.7826 41.2108 59.503 41.106C60.7542 37.7675 61.4083 34.2766 61.4367 30.7191C61.4984 22.399 58.2706 14.6124 52.3508 8.79269C46.7295 3.2587 39.2977 0.18215 31.425 0.125C31.3492 0.125 31.2781 0.125 31.2023 0.125C23.614 0.125 16.3671 2.95867 10.7695 8.11642C4.60789 13.798 1.03891 21.8799 0.97729 30.2809C0.920414 37.9533 3.72157 45.297 8.86413 50.9595C14.5281 57.1984 22.5903 60.8131 30.989 60.8702C31.0601 60.8702 31.1359 60.8702 31.207 60.8702C39.7242 60.8702 47.8812 57.2412 53.6115 50.8881C53.7537 50.7262 53.8864 50.55 54.0144 50.3785C54.0997 50.2595 54.1898 50.1452 54.2751 50.0404L53.7916 49.6308C53.8248 49.5927 53.858 49.5546 53.8864 49.5165C53.73 49.4594 53.5736 49.3927 53.4219 49.3165L53.2323 49.1546C53.2181 49.1689 53.2086 49.1879 53.1944 49.2022C53.0475 49.1212 52.8958 49.0403 52.7536 48.9593C52.2181 48.6545 51.6683 48.3402 51.1943 48.3402C50.0094 48.3402 49.3363 47.9497 48.7439 47.6068C48.213 47.302 47.758 47.0353 46.9001 47.0353C46.3788 47.0353 45.6394 47.5591 45.0422 47.983C44.4165 48.4259 43.9236 48.7736 43.4354 48.7736C43.151 48.7736 41.8524 49.0212 40.9044 49.207C39.4873 49.4784 38.6009 49.6451 38.2407 49.6451C37.8331 49.6451 37.2643 49.4451 36.6055 49.2165C36.0368 49.0212 35.3353 48.7736 34.994 48.7736C34.9182 48.7736 32.8043 48.8307 32.1313 48.7736C31.7094 48.7402 31.3397 48.445 30.8658 48.0783C30.2733 47.6163 29.5339 47.4544 28.7187 47.4544C27.984 47.4544 26.946 47.5163 26.0265 47.9401C25.0596 48.3878 24.2255 48.7736 23.524 48.7736C23.1401 48.7736 22.576 48.6736 22.0357 48.5783C21.6992 48.5212 21.3816 48.464 21.1684 48.445C21.0072 48.4307 20.7228 48.4926 20.4195 48.5545C19.9455 48.6498 19.3531 48.7736 18.6563 48.7736C17.988 48.7736 17.0306 48.3164 16.0211 47.8306C15.2817 47.4734 14.3622 47.4544 14.002 47.4544C13.5375 47.4544 12.234 48.1354 11.6985 48.3926C11.0254 48.7117 10.2529 48.9069 10.0443 48.9165C9.47555 48.9307 9.15799 48.9498 8.93997 48.9593C4.62685 43.7111 2.29018 37.1389 2.33758 30.2905C2.39446 22.2705 5.80229 14.5553 11.689 9.12606C17.0306 4.20167 23.9506 1.49659 31.1975 1.49659C31.2686 1.49659 31.3397 1.49659 31.4108 1.49659C38.928 1.54898 46.0233 4.48742 51.3933 9.76899C57.0431 15.3268 60.1239 22.761 60.067 30.7048C60.0433 34.0909 59.4224 37.4103 58.2327 40.5917C58.0005 40.5059 57.7682 40.4345 57.5265 40.3774C57.4696 40.3631 57.4412 40.3202 57.4365 40.2631C57.1758 40.1678 56.9198 40.0726 56.6639 39.9868C56.4648 39.9202 56.261 39.7535 56.0193 40.0202C55.7918 40.2773 55.8961 40.5393 55.9292 40.7822C56.1046 42.0728 56.2942 43.3587 56.4601 44.654C56.5596 45.4303 56.9103 45.578 57.6023 45.1065C58.5029 44.4969 59.3987 43.8873 60.2992 43.2777C60.6831 43.0158 61.0718 42.7633 61.4462 42.4824C61.797 42.2252 61.8159 41.9442 61.5173 41.7823Z" fill="url(#paint0_linear_2936_1849)"/>
<path d="M30.1073 15.8173C30.1026 15.1315 29.8514 14.5076 29.3964 14.0695C28.9556 13.6456 28.3584 13.4218 27.7138 13.4456C26.3962 13.4932 25.5098 14.5029 25.5098 15.9554V21.2656C25.5098 24.7088 25.5098 28.1473 25.5004 31.5906C25.5004 32.1716 25.7421 32.5669 26.2635 32.8336C29.7471 34.6338 33.2261 36.4388 36.705 38.2485L40.4162 40.1773C40.5821 40.263 40.7859 40.363 40.9991 40.4392C41.2409 40.5202 41.4873 40.5583 41.7385 40.5583C42.1224 40.5583 42.5064 40.4631 42.8429 40.2726C43.4022 39.963 43.8098 39.4248 43.9614 38.7962C44.1226 38.139 44.151 36.9103 42.5775 36.0911L41.7717 35.672C37.8994 33.6575 34.0271 31.643 30.15 29.6427C30.1263 29.6285 30.1073 29.6189 30.0979 29.6142C30.0979 29.5999 30.0979 29.5808 30.0979 29.5523C30.1121 27.8378 30.1121 26.128 30.1073 24.4136V22.7324V20.6322C30.1168 19.0272 30.1168 17.4223 30.1073 15.8173Z" fill="#1D4047"/>
<defs>
<linearGradient id="paint0_linear_2936_1849" x1="24.4926" y1="0.125" x2="25.6682" y2="60.8702" gradientUnits="userSpaceOnUse">
<stop stop-color="#1D4047"/>
<stop offset="0.277889" stop-color="#234B4D"/>
<stop offset="0.577531" stop-color="#2E5E58"/>
<stop offset="0.806558" stop-color="#376F61"/>
<stop offset="1" stop-color="#40806A"/>
</linearGradient>
</defs>
</svg>
