<svg width="119" height="140" viewBox="0 0 119 140" fill="none" xmlns="http://www.w3.org/2000/svg">
<path d="M6.897 88.3867L7.40117 90.7181C7.52286 91.1659 7.5506 91.6339 7.48266 92.0929C7.41471 92.5519 7.25253 92.992 7.00624 93.3858C6.43073 94.128 5.61075 94.6441 4.69067 94.8434C3.77059 95.0427 2.80939 94.9124 1.97633 94.4753C1.58817 94.2182 1.25721 93.8843 1.00397 93.4945C0.750723 93.1047 0.580603 92.6672 0.504166 92.2093L0 89.8796L6.897 88.3867ZM6.58778 90.8971L6.28024 89.4896L1.01842 90.6294L1.32596 92.0369C1.38205 92.3673 1.50609 92.6827 1.6903 92.9632C1.87451 93.2437 2.11493 93.4833 2.39647 93.667C3.04703 93.9789 3.78343 94.0659 4.48924 93.9144C5.19504 93.7628 5.82998 93.3813 6.29368 92.8302C6.47462 92.5452 6.59419 92.226 6.64481 91.8927C6.69544 91.5594 6.67602 91.2192 6.58778 90.8938V90.8971Z" fill="#939598"/>
<path d="M4.882 98.0937L4.57447 97.1983L2.05363 98.0586L1.74609 97.1665L8.41957 94.8804L9.15229 97.0008C9.3964 97.5978 9.40061 98.2653 9.16406 98.8653C9.04265 99.1367 8.86345 99.3786 8.63885 99.5743C8.41425 99.7699 8.14962 99.9146 7.86331 99.9983C7.38449 100.181 6.85559 100.184 6.37434 100.008C5.89825 99.8198 5.50467 99.4694 5.26349 99.0192L3.31069 101.697L2.97458 100.71L4.882 98.0937ZM6.47349 99.0477C6.81478 99.198 7.20051 99.2142 7.55333 99.0932C7.90615 98.9721 8.19997 98.7227 8.37588 98.395C8.52677 98.0241 8.52677 97.6093 8.37588 97.2385L7.96246 96.0419L5.35928 96.9339L5.7727 98.1305C5.87859 98.5149 6.12972 98.8436 6.47349 99.0477Z" fill="#939598"/>
<path d="M10.3909 100.318L8.29865 103.473L12.0698 103.893L12.5051 104.813L7.66004 104.291L5.03837 105.513L4.63672 104.659L7.2567 103.436L9.95567 99.394L10.3909 100.318Z" fill="#939598"/>
<path d="M13.0056 105.545L6.88672 109.049L7.35919 109.867L13.4781 106.363L13.0056 105.545Z" fill="#939598"/>
<path d="M8.39453 111.673L14.1874 107.658L14.7101 108.405L12.28 114.37L16.725 111.29L17.2494 112.04L11.4548 116.055L10.9339 115.308L13.3623 109.342L8.91887 112.423L8.39453 111.673Z" fill="#939598"/>
<path d="M19.6921 115.929C19.4538 115.656 19.1608 115.435 18.8317 115.28C18.5027 115.126 18.145 115.041 17.7813 115.032C17.0377 115.012 16.3148 115.277 15.7627 115.774C15.2106 116.27 14.8719 116.96 14.8168 117.698C14.7888 118.059 14.8364 118.422 14.9568 118.764C15.0771 119.106 15.2676 119.419 15.5159 119.683C15.7002 119.885 15.9131 120.059 16.1478 120.199C16.3747 120.335 16.6221 120.434 16.8806 120.492L18.1578 119.345L16.8638 117.916L17.4738 117.369L19.4031 119.498L17.2083 121.466C16.7767 121.412 16.3586 121.28 15.9747 121.076C15.1189 120.625 14.4606 119.875 14.1261 118.97C13.9604 118.529 13.8854 118.059 13.9056 117.589C13.9258 117.118 14.0408 116.656 14.2438 116.231C14.4538 115.786 14.7505 115.388 15.1167 115.058C15.4828 114.729 15.911 114.476 16.3764 114.313C16.821 114.157 17.2922 114.09 17.7628 114.115C18.2369 114.147 18.7003 114.27 19.1275 114.477C19.5776 114.693 19.9808 114.995 20.3139 115.365C20.8869 115.984 21.2328 116.777 21.2954 117.616L20.4417 117.739C20.4016 117.4 20.322 117.068 20.2047 116.748C20.0869 116.445 19.913 116.168 19.6921 115.929Z" fill="#939598"/>
<path d="M46.6532 135.942L46.0633 135.808L44.6264 132.155L43.4114 137.489L42.5156 137.286L44.0802 130.433L44.9407 130.627L46.591 134.858L49.9151 131.752L50.7772 131.946L49.2126 138.801L48.3186 138.598L49.5336 133.266L46.6532 135.942Z" fill="#939598"/>
<path d="M52.2181 132.046L53.1593 132.162L52.3005 139.139L51.3594 139.022L52.2181 132.046Z" fill="#939598"/>
<path d="M54.6909 139.392L53.6523 139.348L56.2185 135.879L54.0422 132.331L55.0808 132.373L56.8118 135.214L58.778 132.528L59.8149 132.572L57.3462 135.927L59.6065 139.599L58.5696 139.556L56.753 136.59L54.6909 139.392Z" fill="#939598"/>
<path d="M61.6617 132.406L60.7148 132.442L60.9831 139.464L61.9299 139.428L61.6617 132.406Z" fill="#939598"/>
<path d="M64.0307 139.397L63.1602 132.421L64.066 132.312L68.2354 137.229L67.5682 131.877L68.4791 131.765L69.3496 138.741L68.4438 138.853L64.2744 133.936L64.9416 139.286L64.0307 139.397Z" fill="#939598"/>
<path d="M73.0795 131.414C72.7262 131.498 72.3944 131.654 72.1051 131.873C71.8158 132.091 71.5753 132.368 71.3989 132.684C71.0365 133.33 70.9374 134.089 71.122 134.806C71.3065 135.522 71.7607 136.141 72.3905 136.533C72.6989 136.726 73.0442 136.852 73.4043 136.905C73.7645 136.958 74.1317 136.935 74.4828 136.839C74.7469 136.771 74.9995 136.663 75.2323 136.521C75.4592 136.388 75.663 136.218 75.8356 136.019L75.4071 134.361L73.5383 134.839L73.3332 134.046L76.1213 133.335L76.8557 136.18C76.6075 136.537 76.296 136.845 75.9364 137.09C75.5577 137.35 75.1354 137.54 74.6895 137.651C74.2057 137.779 73.7012 137.809 73.2055 137.74C72.735 137.683 72.2811 137.531 71.8712 137.294C71.4613 137.057 71.104 136.739 70.8208 136.361C70.5233 135.969 70.3068 135.522 70.184 135.046C70.0611 134.57 70.0342 134.074 70.1049 133.588C70.1725 133.123 70.3318 132.677 70.5738 132.274C70.8211 131.87 71.1447 131.518 71.5267 131.236C71.9295 130.941 72.3861 130.727 72.8711 130.605C73.6844 130.387 74.5479 130.449 75.3214 130.781L75.0357 131.591C74.716 131.469 74.3833 131.385 74.0441 131.34C73.7208 131.304 73.3936 131.329 73.0795 131.414Z" fill="#939598"/>
<path d="M99.708 122.895C100.223 122.42 100.551 121.778 100.634 121.084L101.486 121.267C101.363 122.135 100.933 122.931 100.273 123.511C99.9057 123.849 99.475 124.111 99.0055 124.282C98.44 124.485 97.833 124.547 97.238 124.461C96.6431 124.375 96.0786 124.145 95.5943 123.79C95.11 123.435 94.7208 122.967 94.461 122.427C94.2013 121.888 94.079 121.292 94.105 120.694C94.1328 120.222 94.2533 119.761 94.4596 119.335C94.6726 118.884 94.9736 118.479 95.3452 118.145C95.9592 117.571 96.7508 117.221 97.5905 117.153L97.7215 118.001C97.3823 118.045 97.0491 118.127 96.7283 118.246C96.2394 118.443 95.8182 118.777 95.5157 119.207C95.2133 119.637 95.0426 120.146 95.0243 120.671C95.009 121.41 95.2796 122.127 95.7801 122.673C96.2806 123.219 96.9726 123.552 97.7131 123.605C98.0769 123.631 98.4421 123.581 98.7855 123.459C99.1289 123.337 99.4431 123.145 99.708 122.895Z" fill="#939598"/>
<path d="M99.0136 114.82C99.3265 113.865 99.9979 113.068 100.887 112.595C101.304 112.372 101.761 112.233 102.232 112.185C102.701 112.14 103.175 112.19 103.625 112.331C104.096 112.478 104.533 112.717 104.911 113.033C105.289 113.349 105.601 113.736 105.828 114.172C106.047 114.59 106.179 115.047 106.217 115.517C106.255 115.987 106.198 116.459 106.048 116.907C105.735 117.858 105.064 118.652 104.176 119.123C103.538 119.465 102.811 119.609 102.09 119.536C101.368 119.463 100.685 119.176 100.129 118.712C99.5735 118.248 99.17 117.629 98.9711 116.935C98.7722 116.24 98.787 115.502 99.0136 114.816V114.82ZM102.812 118.622C103.173 118.593 103.525 118.493 103.848 118.327C104.17 118.161 104.456 117.933 104.689 117.656C104.921 117.379 105.097 117.059 105.204 116.714C105.311 116.369 105.349 116.006 105.314 115.646C105.23 114.911 104.865 114.237 104.295 113.762C103.725 113.288 102.993 113.05 102.252 113.098C101.89 113.127 101.538 113.227 101.216 113.393C100.894 113.559 100.608 113.787 100.375 114.063C100.142 114.34 99.9669 114.661 99.8595 115.006C99.7522 115.351 99.7148 115.714 99.7496 116.073C99.8343 116.808 100.199 117.482 100.769 117.956C101.339 118.43 102.071 118.668 102.812 118.62V118.622Z" fill="#939598"/>
<path d="M103.731 108.652C103.901 107.661 104.448 106.773 105.259 106.174C105.64 105.893 106.074 105.688 106.534 105.573C106.992 105.461 107.467 105.441 107.932 105.516C108.421 105.589 108.889 105.76 109.309 106.018C109.729 106.275 110.093 106.612 110.381 107.011C110.66 107.393 110.858 107.827 110.964 108.287C111.07 108.747 111.082 109.224 110.998 109.688C110.831 110.68 110.283 111.568 109.47 112.164C109.09 112.446 108.657 112.651 108.196 112.766C107.738 112.878 107.262 112.898 106.796 112.825C106.308 112.748 105.84 112.575 105.42 112.317C105 112.058 104.635 111.719 104.348 111.319C104.073 110.938 103.876 110.508 103.768 110.052C103.664 109.592 103.652 109.117 103.731 108.652ZM108.047 111.864C108.4 111.783 108.734 111.633 109.028 111.422C109.323 111.211 109.572 110.944 109.762 110.636C109.952 110.328 110.079 109.986 110.134 109.629C110.19 109.272 110.174 108.908 110.087 108.557C109.897 107.842 109.437 107.226 108.804 106.839C108.171 106.451 107.412 106.321 106.685 106.475C106.332 106.556 105.997 106.706 105.702 106.916C105.407 107.127 105.158 107.394 104.968 107.702C104.777 108.01 104.651 108.352 104.595 108.71C104.54 109.067 104.556 109.431 104.644 109.782C104.834 110.498 105.293 111.114 105.927 111.502C106.56 111.889 107.319 112.019 108.047 111.864Z" fill="#939598"/>
<path d="M112.982 106.385L106.574 103.436L106.971 102.579L112.633 105.183L113.959 102.326L114.705 102.669L112.982 106.385Z" fill="#939598"/>
<path d="M108.921 97.9692L108.586 98.8522L115.189 101.336L115.524 100.453L108.921 97.9692Z" fill="#939598"/>
<path d="M116.273 98.5038L109.477 96.6059L109.722 95.7339L115.888 93.8026L110.675 92.3482L110.922 91.4679L117.72 93.3658L117.473 94.2394L111.307 96.1691L116.52 97.6234L116.273 98.5038Z" fill="#939598"/>
<path d="M112.371 87.1249C112.311 87.4823 112.327 87.8482 112.417 88.1993C112.507 88.5503 112.67 88.8787 112.895 89.1634C113.353 89.7466 114.019 90.132 114.755 90.2395C115.49 90.347 116.239 90.1684 116.846 89.7408C117.144 89.5324 117.395 89.2645 117.583 88.9541C117.77 88.6438 117.891 88.2978 117.937 87.9383C117.978 87.6687 117.978 87.3945 117.937 87.1249C117.9 86.864 117.82 86.611 117.698 86.3768L115.998 86.1258L115.717 88.0303L114.904 87.9115L115.322 85.0664L118.246 85.4948C118.479 85.8608 118.644 86.2656 118.732 86.6898C118.927 87.6343 118.766 88.6174 118.28 89.4512C118.041 89.8593 117.724 90.2169 117.347 90.5039C116.97 90.7863 116.541 90.9911 116.083 91.1064C115.605 91.2274 115.108 91.253 114.62 91.1818C114.132 91.1106 113.663 90.9439 113.24 90.6914C112.834 90.4496 112.481 90.129 112.202 89.7487C111.922 89.3683 111.723 88.9359 111.615 88.4772C111.495 87.9933 111.472 87.4905 111.548 86.9977C111.661 86.1684 112.052 85.4015 112.658 84.822L113.297 85.3977C113.062 85.6443 112.856 85.9173 112.684 86.2111C112.522 86.4932 112.416 86.8033 112.371 87.1249Z" fill="#939598"/>
<path d="M99.1311 77.4161C98.9475 70.7643 97.0797 64.2665 93.7011 58.5256C90.3225 52.7846 85.5425 47.9865 79.8047 44.5765L82.986 39.0134C89.7051 42.9795 95.3022 48.5806 99.2521 55.2912C103.202 62.0017 105.375 69.6016 105.568 77.3776L99.1311 77.4161Z" fill="#E6E7E8"/>
<path d="M38.6319 44.9433C32.963 48.4365 28.2692 53.2958 24.9839 59.0726C21.6987 64.8493 19.9278 71.3572 19.8349 77.9954L13.4102 78.0439C13.4957 70.2829 15.5557 62.6701 19.3975 55.9171C23.2393 49.1641 28.7375 43.4912 35.3784 39.4287L38.6319 44.9433Z" fill="#E6E7E8"/>
<path d="M67.9377 33.4001L66.8672 39.7113C70.8625 40.4609 74.7174 41.8215 78.295 43.7447L81.4695 38.1783C77.2392 35.8872 72.6725 34.2747 67.9377 33.4001Z" fill="#939598"/>
<path d="M36.8555 38.5516L40.1057 44.0745C43.6433 42.09 47.4674 40.6612 51.4427 39.8386L50.2815 33.5425C45.5696 34.4993 41.0387 36.1897 36.8555 38.5516Z" fill="#939598"/>
<path d="M53.0932 39.5357C57.1014 38.8785 61.1876 38.8435 65.2066 39.432L66.2788 33.1174C61.5202 32.4087 56.6792 32.4505 51.9336 33.2413L53.0932 39.5357Z" fill="#8DC63F"/>
<path d="M99.1278 79.0681C99.0317 85.7226 97.2487 92.2451 93.9443 98.0299C90.6399 103.815 85.9213 108.674 80.2266 112.157L83.4801 117.68C90.1475 113.626 95.6713 107.952 99.5327 101.19C103.394 94.4272 105.467 86.7984 105.556 79.0195L99.1278 79.0681Z" fill="#939598"/>
<path d="M78.7804 113C72.9517 116.244 66.3937 117.967 59.7168 118.007C53.0399 118.048 46.4612 116.406 40.5931 113.233L37.4219 118.796C44.2697 122.525 51.958 124.455 59.7623 124.407C67.5666 124.358 75.23 122.332 82.0305 118.518L78.7804 113Z" fill="#939598"/>
<path d="M39.1366 112.398C33.4161 108.989 28.6505 104.199 25.2797 98.4711C21.9089 92.7432 20.0418 86.2618 19.8505 79.6255L13.4258 79.669C13.6257 87.4288 15.798 95.0115 19.7398 101.708C23.6816 108.405 29.2641 113.997 35.9654 117.961L39.1366 112.398Z" fill="#8DC63F"/>
<path d="M61.2575 60.25H57.7148V70.4239H61.2575V60.25Z" fill="#24B6E0"/>
<path d="M63.0283 64.0758V66.6431C66.2332 67.499 69.0165 69.4859 70.8596 72.2337C72.7027 74.9816 73.4799 78.3029 73.0465 81.5791C72.6131 84.8553 70.9986 87.8628 68.5037 90.0415C66.0089 92.2202 62.8038 93.4214 59.4857 93.4214C56.1675 93.4214 52.9624 92.2202 50.4676 90.0415C47.9727 87.8628 46.3582 84.8553 45.9248 81.5791C45.4914 78.3029 46.2686 74.9816 48.1117 72.2337C49.9548 69.4859 52.7381 67.499 55.943 66.6431V64.0758C52.0579 64.9442 48.6308 67.209 46.3178 70.4368C44.0048 73.6646 42.9684 77.6285 43.4071 81.5697C43.8458 85.511 45.7286 89.1527 48.6952 91.7977C51.6619 94.4427 55.5038 95.9051 59.4857 95.9051C63.4675 95.9051 67.3094 94.4427 70.2761 91.7977C73.2427 89.1527 75.1255 85.511 75.5642 81.5697C76.0029 77.6285 74.9665 73.6646 72.6535 70.4368C70.3405 67.209 66.9134 64.9442 63.0283 64.0758Z" fill="#24B6E0"/>
<path d="M37.2578 17.9545L37.5519 17.6097L37.6477 17.4892L37.8544 17.2231L37.9418 17.0993L38.1384 16.8214L38.209 16.716L38.4056 16.4081L38.4544 16.3244L38.6544 15.9796L38.6812 15.9294L38.8829 15.5428V15.5227C39.3848 14.4997 39.72 13.4038 39.8761 12.2759V12.2608C39.8963 12.1052 39.9148 11.9479 39.9299 11.7889L39.9383 11.6784L39.9635 11.2952V10.9471V10.7964V10.7211C39.9635 10.5538 39.9635 10.3864 39.9517 10.2341V10.1354C39.9433 9.97971 39.9316 9.82574 39.9148 9.67009V9.64666C39.6722 7.31019 38.662 5.11877 37.041 3.41246L36.6629 3.03088L36.2848 2.68444L36.0562 2.49365L35.8882 2.35976L35.552 2.10704L35.4798 2.05349L35.0899 1.78571L35.063 1.7673L34.6328 1.5012C34.3393 1.32826 34.039 1.17038 33.732 1.02756C33.5824 0.957273 33.4329 0.892002 33.2816 0.830079L33.2564 0.820039L32.8228 0.652678L32.7707 0.632593L32.3573 0.497031L32.2733 0.470255L31.8851 0.363142L31.7658 0.331345L31.4011 0.249339L31.2515 0.215866L30.9154 0.155614L30.7373 0.127165L30.4011 0.0853224L30.2096 0.0635678L29.8516 0.0367888L29.6835 0.0234009C29.5054 0.0234009 29.3256 0.0100098 29.1475 0.0100098C28.9693 0.0100098 28.7979 0.010012 28.6248 0.0234009L28.3912 0.0401374L28.1106 0.0602192L27.8131 0.0936922L27.603 0.120468L27.282 0.17235L27.1106 0.200802L26.788 0.269421L26.6199 0.307915L26.309 0.389921L26.1292 0.436782L25.8384 0.528831L25.6435 0.590753L25.378 0.689496L25.1679 0.764809L24.9276 0.8669L24.7007 0.963971L24.4873 1.06439L24.2453 1.18154L24.0537 1.28363L23.7999 1.42086L23.6319 1.5263L23.3764 1.6786L23.2084 1.79241L22.9613 1.95977L22.7815 2.09366L22.5563 2.26102L22.3429 2.42838L22.1748 2.56896L21.8135 2.88862L21.7984 2.90201L21.7849 2.91373L21.4001 3.29029L21.3598 3.33548C19.5569 5.20206 18.4917 7.65424 18.36 10.2408V10.5119L18.3516 10.7998V10.8165C18.3516 10.9705 18.3516 11.1228 18.3616 11.2751L18.3717 11.4424L18.3936 11.7403L18.4137 11.9445L18.444 12.2039L18.4742 12.4232L18.5146 12.6575C18.5431 12.8248 18.5734 12.9771 18.6087 13.1345L18.6423 13.2851L18.7146 13.5679L18.7566 13.7219L18.8406 14.0047L18.886 14.1453L18.9851 14.4332L19.0238 14.537C19.1538 14.8839 19.2988 15.2187 19.459 15.5411L19.4876 15.6014L19.6406 15.8909L19.696 15.9947L19.8641 16.2725L19.9229 16.3729L20.0909 16.6524L20.1346 16.716L20.3699 17.0507L20.5598 17.3101L20.5716 17.3252L20.8102 17.6197L20.8909 17.7218L21.2018 18.0716L21.2287 18.1034L21.2673 18.1436L21.6169 18.5017L21.6791 18.557C23.553 20.3559 26.0169 21.4193 28.6164 21.5511C28.8046 21.5611 28.9928 21.5661 29.1827 21.5661C29.376 21.5661 29.5659 21.5661 29.7592 21.5511C32.0391 21.4316 34.2221 20.5948 35.994 19.1611L36.0159 19.1444L36.3822 18.8314L36.4545 18.7695L36.7738 18.4666L36.8696 18.3762L37.2393 17.9829L37.2578 17.9645V17.9545ZM37.3334 17.0323C37.1566 16.9078 36.9528 16.8264 36.7385 16.7947C36.4057 16.7969 36.08 16.6989 35.8041 16.5135C35.5979 16.3696 35.3518 16.293 35.1 16.2942C34.8377 16.3553 34.5946 16.4801 34.3925 16.6574C34.2216 16.8156 34.0087 16.9213 33.7791 16.962C33.6698 16.962 33.1741 17.0574 32.8144 17.1294C32.4819 17.2048 32.1452 17.2607 31.8061 17.2967C31.5912 17.2713 31.3812 17.2149 31.1826 17.1294C30.9849 17.0496 30.7785 16.9934 30.5675 16.962H30.418V13.342H30.46C31.1469 13.4171 31.842 13.3477 32.5003 13.1384C33.1586 12.9291 33.7654 12.5845 34.2815 12.127C34.6552 11.7855 34.9555 11.3722 35.1643 10.9119C35.3731 10.4517 35.4862 9.9541 35.4966 9.44917C35.5478 8.7539 35.6954 8.06903 35.9352 7.41406C35.97 7.31763 35.9809 7.2143 35.9672 7.11277C35.9534 7.01124 35.9154 6.91448 35.8563 6.83065C35.7971 6.74682 35.7186 6.67837 35.6274 6.63107C35.5361 6.58377 35.4348 6.559 35.3319 6.55885C34.1312 6.72477 32.9876 7.17344 31.9959 7.86763C31.0042 8.56182 30.1931 9.48152 29.6298 10.5504C28.913 9.78936 27.9803 9.26393 26.956 9.04416C26.4705 8.91719 26.0022 8.73232 25.5611 8.49354C25.4729 8.43868 25.3725 8.40607 25.2687 8.39853C25.1649 8.391 25.0608 8.40877 24.9655 8.45031C24.8702 8.49185 24.7864 8.55589 24.7216 8.63692C24.6567 8.71794 24.6126 8.81349 24.5931 8.91529C24.4186 9.72477 24.4721 10.5665 24.7476 11.3477C25.0231 12.1288 25.5099 12.819 26.1544 13.342C26.5816 13.6443 27.0766 13.8381 27.5962 13.9063C28.1158 13.9746 28.6443 13.9153 29.1357 13.7336V16.8013L28.9928 16.6942C28.7553 16.524 28.4666 16.4396 28.1744 16.4549C27.8226 16.4431 27.4723 16.507 27.1476 16.6424C26.8535 16.8102 26.5292 16.9188 26.193 16.962C26.0021 16.9512 25.8122 16.926 25.625 16.8867L25.2889 16.8365L25.0032 16.8767C24.7829 16.9294 24.5575 16.958 24.331 16.962C23.9747 16.9059 23.6325 16.7827 23.3226 16.5988C23.0791 16.4976 22.8168 16.4486 22.553 16.4549C22.2455 16.5378 21.9496 16.6586 21.6723 16.8147C21.4729 16.9121 21.2599 16.9792 21.0405 17.0139H20.9329C19.7675 15.4883 19.0535 13.6687 18.8715 11.7605C18.6895 9.85221 19.0467 7.93128 19.9028 6.21448C20.759 4.49769 22.0799 3.05338 23.7166 2.0446C25.3533 1.03581 27.2405 0.502711 29.1653 0.505458C31.0901 0.508206 32.9759 1.0467 34.6096 2.06015C36.2434 3.0736 37.5602 4.52166 38.4114 6.24089C39.2626 7.96013 39.6143 9.88208 39.4268 11.7898C39.2393 13.6975 38.52 15.5151 37.3502 17.0373L37.3334 17.0323ZM30.4717 12.0634C30.7421 10.7989 31.5055 9.69307 32.5943 8.98894C33.1507 8.59917 33.7572 8.28563 34.3975 8.05674C34.3076 8.47177 34.2447 8.89217 34.2093 9.31529C34.2137 9.67818 34.1391 10.0377 33.9905 10.3691C33.842 10.7005 33.6231 10.9959 33.3488 11.2349C32.9528 11.5635 32.4926 11.8067 31.9974 11.9493C31.5022 12.0919 30.9827 12.1307 30.4717 12.0634ZM29.0701 12.388C28.7334 12.575 28.3515 12.6663 27.9663 12.6518C27.581 12.6373 27.2071 12.5177 26.8854 12.306C26.5447 12.025 26.2696 11.6734 26.0792 11.2757C25.8888 10.8779 25.7877 10.4437 25.783 10.0031C26.0435 10.0985 26.3073 10.1789 26.5678 10.2609C27.8047 10.6458 28.8029 10.9538 29.0735 12.388H29.0701Z" fill="#939598"/>
<path d="M69.9976 14.8031L69.8901 14.7596L69.6128 14.6575H69.5792L69.2767 14.5604C69.8882 12.9354 70.0968 11.1874 69.8845 9.46496C69.6722 7.74251 69.0455 6.09657 68.0575 4.66707C67.0695 3.23757 65.7496 2.06678 64.2098 1.25423C62.67 0.441687 60.956 0.0114175 59.2135 0H59.1345C56.2835 0.0237498 53.5568 1.16568 51.5456 3.17819C49.5344 5.19071 48.4009 7.91159 48.3907 10.7509C48.3805 13.5902 49.4946 16.3191 51.4913 18.3458C53.488 20.3726 56.2065 21.5339 59.0572 21.5779H59.1362C60.6482 21.577 62.1434 21.2615 63.5258 20.6516C64.9083 20.0418 66.1476 19.1511 67.1642 18.0365L67.3104 17.8541L67.4029 17.7353L67.2348 17.5897L67.2701 17.5495L67.102 17.4792L67.0331 17.4206L67.0197 17.4374L66.86 17.3503C66.694 17.2344 66.5028 17.1593 66.3021 17.1311C65.9896 17.1315 65.6841 17.0389 65.4249 16.865C65.23 16.7332 64.9999 16.6626 64.7644 16.6625C64.5161 16.7174 64.2852 16.8323 64.0922 16.9972C63.9315 17.1437 63.7321 17.2413 63.5174 17.2784C63.4149 17.2784 62.9494 17.3671 62.6099 17.4307C62.2956 17.5015 61.9775 17.554 61.657 17.588C61.4554 17.5646 61.258 17.5133 61.0705 17.4357C60.8853 17.3608 60.6918 17.308 60.4941 17.2784C60.4672 17.2784 59.7093 17.2968 59.4673 17.2784C59.2961 17.2387 59.1392 17.153 59.0135 17.0307C58.7895 16.8724 58.5181 16.7945 58.2438 16.8098C57.9146 16.7974 57.5865 16.8544 57.2809 16.9771C57.004 17.1333 56.6991 17.2339 56.3835 17.2733C56.2044 17.2635 56.0264 17.2406 55.8507 17.2047L55.5381 17.1562L55.2709 17.1964C55.0635 17.2435 54.8518 17.2693 54.6391 17.2733C54.306 17.2215 53.9856 17.108 53.6946 16.9386C53.4656 16.845 53.2194 16.7999 52.9719 16.8064C52.6836 16.8839 52.4059 16.9963 52.1451 17.1411C51.9573 17.2313 51.7575 17.2944 51.5519 17.3286C51.3468 17.3286 51.2342 17.3386 51.1553 17.3436C49.9066 15.8366 49.114 14.0071 48.8698 12.0685C48.6257 10.1299 48.9401 8.16217 49.7764 6.39478C50.6126 4.62738 51.9363 3.13322 53.593 2.08661C55.2496 1.03999 57.171 0.484061 59.1328 0.483673H59.2068C61.95 0.504017 64.5728 1.60858 66.4984 3.55445C68.424 5.50032 69.4947 8.12816 69.475 10.8601C69.4673 12.0612 69.2448 13.2513 68.8179 14.3746L68.5641 14.2977L68.5322 14.2575L68.2549 14.1588L68.0247 14.1705L67.9911 14.4399C68.0549 14.9002 68.1221 15.3571 68.1826 15.8173C68.2179 16.0918 68.3507 16.152 68.5927 15.9847C68.9142 15.7615 69.2363 15.5456 69.559 15.337L69.9691 15.0541L69.9976 14.8031Z" fill="#939598"/>
<path d="M58.741 5.57979C58.7422 5.46455 58.7203 5.35022 58.6764 5.24357C58.6325 5.13692 58.5676 5.04011 58.4855 4.95888C58.3632 4.84551 58.2093 4.77155 58.044 4.7467C57.8787 4.72184 57.7098 4.74724 57.5593 4.81958C57.4087 4.89191 57.2836 5.00781 57.2003 5.1521C57.117 5.2964 57.0794 5.46238 57.0923 5.62833V7.51449C57.0923 8.73622 57.0923 9.95851 57.0923 11.1814C57.0855 11.2737 57.1072 11.366 57.1547 11.4456C57.2022 11.5252 57.2731 11.5884 57.3579 11.6265C58.6082 12.2681 59.8557 12.9091 61.1005 13.5495L62.4315 14.234L62.6415 14.3278L62.9054 14.3696L63.302 14.2692C63.4386 14.1933 63.5509 14.0805 63.6259 13.9438C63.7008 13.8071 63.7354 13.652 63.7255 13.4965C63.7157 13.3411 63.6618 13.1916 63.5702 13.0653C63.4786 12.939 63.353 12.8412 63.2079 12.783L62.9205 12.6341C61.5324 11.9189 60.1437 11.2048 58.7544 10.4918L58.7359 10.4801V10.4584C58.7359 9.85084 58.7359 9.24332 58.7359 8.6358V7.29692C58.7404 6.72231 58.7421 6.14994 58.741 5.57979Z" fill="#939598"/>
<path d="M96.7932 3.03087C94.9009 1.22073 92.4132 0.155969 89.7922 0.0342948C87.1712 -0.0873796 84.5949 0.742303 82.5417 2.36928C80.4885 3.99626 79.0979 6.30998 78.6282 8.8808C78.1585 11.4516 78.6415 14.1048 79.9876 16.3478L80.0027 16.3645C80.3826 16.9934 80.8258 17.5822 81.3253 18.1218C81.7692 18.5966 82.2546 19.0312 82.7757 19.4205L82.8479 19.4741L83.137 19.68C84.1381 20.3789 85.2539 20.8988 86.4342 21.2163C86.6023 21.2632 86.7703 21.3034 86.9384 21.3402L87.0375 21.3603L87.4879 21.4456L87.6812 21.4741L88.0593 21.5243L88.3736 21.5494L88.6509 21.5728C88.8542 21.5845 89.0576 21.5895 89.2609 21.5895C89.4391 21.5895 89.6155 21.5895 89.792 21.5762H89.8945L90.3281 21.541L90.5583 21.5159H90.6155C92.6431 21.2618 94.5571 20.4416 96.1365 19.1502C97.7159 17.8587 98.8962 16.1485 99.541 14.2173C100.186 12.2861 100.269 10.2127 99.7806 8.23647C99.2923 6.26026 98.2525 4.46195 96.7814 3.04928L96.7932 3.03087ZM78.9474 10.7964C78.9466 8.77845 79.5423 6.80488 80.6602 5.12177C81.7781 3.43866 83.3688 2.12047 85.2338 1.33152C87.0989 0.542563 89.1559 0.317757 91.1484 0.685125C93.1409 1.05249 94.9807 1.99578 96.4386 3.39739C98.1991 5.08543 99.3005 7.34112 99.5468 9.7625C99.793 12.1839 99.168 14.6137 97.783 16.6189C97.6135 16.6683 97.4352 16.6809 97.2604 16.6557C97.0148 16.5225 96.7452 16.4389 96.4671 16.4097C95.9245 16.4014 95.3871 16.3024 94.8773 16.1168C94.6676 15.9687 94.4212 15.8801 94.1648 15.8608L94.0673 15.9562L93.8774 16.1604L93.8673 16.1721C93.1632 16.8649 92.6204 17.4105 92.0977 17.9394C91.575 18.4683 91.049 18.9971 90.3567 19.68L90.3264 19.7101L90.2676 19.7653L90.2323 19.7954L90.1718 19.8456L90.1315 19.8774L90.0676 19.9226L90.0155 19.9544L89.9466 19.9946L89.8794 20.0281L89.8037 20.0615L89.7281 20.0883L89.6458 20.1151L89.5618 20.1335L89.4744 20.1486H89.3954H89.3097H89.2845L89.155 20.1385C88.9413 20.1221 88.7343 20.0568 88.55 19.9477L88.2442 19.7101C87.7064 19.1561 87.0678 18.5034 86.441 17.8423L86.3031 17.7051L86.2695 17.6766L86.2393 17.6448L86.1721 17.5746L86.0864 17.4842C85.9753 17.3813 85.8912 17.253 85.8414 17.1103C85.7916 16.9677 85.7776 16.8151 85.8007 16.6658L85.8427 16.393L85.6259 16.316L85.2578 16.2792L84.957 16.3227C84.7249 16.3763 84.4878 16.4054 84.2495 16.4097C83.8769 16.3509 83.5185 16.2238 83.1924 16.0348C82.9357 15.9296 82.66 15.8784 82.3824 15.8842C82.0597 15.97 81.7487 16.0947 81.4564 16.2557C81.2441 16.3581 81.0175 16.4281 80.7842 16.4633H80.6582C79.5402 14.7832 78.9451 12.8119 78.9474 10.7964Z" fill="#939598"/>
<path d="M95.8671 9.01562H94.8789V12.5453H95.8671V9.01562Z" fill="#939598"/>
<path d="M89.4742 10.7746C89.4742 10.1604 89.7717 9.80725 90.291 9.80725C90.7548 9.80725 91.0002 10.1085 91.0002 10.6809V12.547H91.9883V10.7746C91.9883 10.1604 92.2891 9.80725 92.8135 9.80725C93.2706 9.80725 93.5227 10.1169 93.5227 10.6809V12.547H94.5108V10.5219C94.5399 10.3208 94.5237 10.1158 94.4633 9.92175C94.4028 9.72771 94.2997 9.54953 94.1615 9.40014C94.0232 9.25075 93.8533 9.13393 93.664 9.05815C93.4747 8.98237 93.2709 8.94955 93.0672 8.96207C92.8242 8.95488 92.5828 9.00318 92.3614 9.10326C92.14 9.20334 91.9446 9.35256 91.79 9.53947L91.7665 9.56793L91.7463 9.53613C91.6186 9.3491 91.4447 9.19801 91.2413 9.09746C91.0379 8.9969 90.8119 8.95027 90.5851 8.96207C90.3778 8.9544 90.1714 8.99124 89.9797 9.07008C89.788 9.14891 89.6156 9.26791 89.4742 9.41897L89.4272 9.47588V9.01563H88.4844V12.547H89.4742V10.7746Z" fill="#939598"/>
<path d="M95.373 8.63744C95.4712 8.63778 95.5673 8.60906 95.6491 8.55494C95.7308 8.50082 95.7946 8.42373 95.8324 8.33344C95.8701 8.24316 95.8801 8.14376 95.861 8.04783C95.8419 7.9519 95.7947 7.86378 95.7252 7.79463C95.6558 7.72548 95.5673 7.67843 95.471 7.65943C95.3746 7.64043 95.2748 7.65035 95.1842 7.68793C95.0935 7.7255 95.0161 7.78904 94.9617 7.87049C94.9074 7.95193 94.8786 8.04762 94.8789 8.14541C94.8789 8.2759 94.931 8.40106 95.0236 8.49333C95.1163 8.58561 95.242 8.63744 95.373 8.63744Z" fill="#939598"/>
<path d="M83.8102 12.6358C84.1054 12.636 84.3954 12.558 84.6505 12.4099L84.553 12.3279C84.3413 12.1308 84.1741 11.8912 84.0623 11.6249L83.8068 11.6701C83.6638 11.6832 83.5213 11.6412 83.4084 11.5528C83.2956 11.4644 83.221 11.3363 83.2001 11.1948V7.66016H82.2305V11.2434C82.2623 11.6337 82.4445 11.9966 82.7389 12.2562C83.0334 12.5157 83.4173 12.6518 83.8102 12.6358Z" fill="#939598"/>
<path d="M86.1855 12.5989C86.5416 12.5754 86.883 12.4488 87.1677 12.2345C87.4525 12.0203 87.6681 11.7279 87.7881 11.3932C87.9081 11.0585 87.9272 10.6962 87.8431 10.3508C87.759 10.0054 87.5753 9.69207 87.3147 9.4493C87.0541 9.20654 86.7279 9.04494 86.3763 8.9844C86.0246 8.92387 85.6629 8.96702 85.3356 9.10857C85.0082 9.25012 84.7296 9.48388 84.534 9.78109C84.3383 10.0783 84.2342 10.426 84.2344 10.7814C84.234 11.0309 84.2852 11.2779 84.3848 11.5069C84.4844 11.7359 84.6302 11.942 84.8132 12.1125C84.9962 12.283 85.2125 12.4141 85.4486 12.4978C85.6847 12.5815 85.9355 12.6159 86.1855 12.5989ZM86.1855 9.75377C86.3913 9.7383 86.5969 9.78491 86.7757 9.88754C86.9544 9.99016 87.098 10.144 87.1876 10.3291C87.2773 10.5142 87.3089 10.7218 87.2783 10.925C87.2477 11.1282 87.1564 11.3176 87.0162 11.4683C86.8759 11.6191 86.6934 11.7242 86.4923 11.7702C86.2912 11.8161 86.0808 11.8006 85.8887 11.7257C85.6965 11.6508 85.5315 11.5201 85.4151 11.3504C85.2986 11.1808 85.2362 10.9801 85.236 10.7747C85.2241 10.6443 85.24 10.513 85.2826 10.3892C85.3252 10.2654 85.3935 10.1519 85.4832 10.0562C85.5728 9.96052 85.6816 9.88472 85.8027 9.83375C85.9237 9.78278 86.0541 9.75781 86.1855 9.76046V9.75377Z" fill="#939598"/>
<path d="M86.9888 16.4047C86.604 16.6089 86.2359 16.7177 86.5451 17.044L86.6981 17.2114C86.7691 17.2715 86.8359 17.3364 86.8981 17.4055C87.4941 18.0303 88.0941 18.6518 88.6979 19.2699L88.866 19.3988L89.1903 19.4992H89.276H89.2878H89.3265H89.3668L89.4122 19.4892H89.4508L89.4945 19.4741L89.5298 19.4624L89.5718 19.4423L89.6054 19.4256L89.6491 19.3988L89.6794 19.3821L89.7231 19.3503L89.75 19.3302L89.7953 19.2934L89.8189 19.2716L89.8642 19.2298L89.8861 19.2097C91.2826 17.834 91.9985 17.0758 93.3951 15.6951L93.5447 15.5378C93.9228 15.0675 93.0943 14.9236 92.4994 14.8148C92.3578 14.7923 92.2129 14.8067 92.0786 14.8565C91.9443 14.9064 91.8252 14.99 91.733 15.0993C90.5566 16.2708 90.6138 16.2708 89.4273 17.4423L89.4004 17.4691L89.3618 17.5059L89.3449 17.5193L89.3214 17.5344L89.3029 17.5461L89.2878 17.5561H89.2559H89.2357H89.2223L89.1971 17.5344H89.1836L89.1517 17.5059L89.1399 17.4925L89.1181 17.4708L89.0811 17.434C88.6811 17.0122 88.5064 16.87 88.1013 16.4549C87.7753 16.1202 87.4678 16.1537 86.9888 16.4047Z" fill="#939598"/>
</svg>
